<svg id="AFIDocs" xmlns="http://www.w3.org/2000/svg" viewBox="0 0 1000 1000">
  <title>AFIDocs</title>
  <g>
    <path d="M218.669,498.214c5.875-13,11.658-25.844,17.476-38.668q8.564-18.88,17.184-37.736l1.76-.011L321.714,569.19c-8.8-.545-16.095,0-22.883-1.594-24.88-5.851-49.59-12.422-74.37-18.7-2.184-.553-4.412-.93-7.215-1.512l-9.636,20.889c-10.488.894-19.965,2.335-27.91-7.273-8.109-9.806-17.722-18.409-27.049-27.141a25.889,25.889,0,0,0-10.611-6.006c-33.759-8.884-67.606-17.433-101.424-26.1a7.978,7.978,0,0,1-4.691-2.8h78.452L75.917,457.24c6.6,3,12.815,5.671,18.887,8.624,20.756,10.1,41.439,20.341,62.219,30.387a21.578,21.578,0,0,0,8.651,2.481c15.831.242,31.669.132,47.5.1C214.675,498.825,216.17,498.5,218.669,498.214Zm36.356-33.234-1.687-.013c-4.724,10.854-9.447,21.709-14.816,34.045H259.1l.589,1.647-30.464,30.614,67.627,32.573,1.156-1.287Q276.516,513.77,255.025,464.98Z"/>
    <path d="M751.084,503.963c-.117,41.4-31.363,72.369-71.074,73.192-41.731.865-70.459-29.573-76.964-68.791-5.969-35.985,18.444-72.221,55.234-80.779,32.57-7.577,64.9,7.686,81.821,38.278C746.958,478.261,751.959,491.049,751.084,503.963Zm-76.11,48.812c27,2.207,54.662-21.926,55.1-55.106.351-26.93-22.542-47.869-51.384-47.893-31.1-.025-54.424,23.531-54.873,54.658C623.362,535.708,651.518,554.335,674.974,552.775Z"/>
    <path d="M496.5,574.131c-7.091-8.1-5.7-16.642-5.7-24.909q-.042-55.525.007-111.05c0-2.624.273-5.247.4-7.581.933-.631,1.393-1.213,1.867-1.223,22.631-.518,45.536-3.087,67,6.984,24.9,11.682,37.454,32.48,40.668,58.856,2.058,16.888-.173,33.536-10.038,48.324-12.267,18.389-30.435,26.944-51.414,29.508-13.56,1.658-27.392,1.09-41.1,1.467A3.79,3.79,0,0,1,496.5,574.131Zm16.813-23.894c18.94.525,36.251-2.066,50.9-14.25,12.184-10.133,15.893-24.121,15.579-39.02-.461-21.838-9.4-33.045-30.12-40.049a51.429,51.429,0,0,0-4.908-1.554c-10.189-2.33-20.42-4.207-31.451-2.6Z"/>
    <path d="M872.786,530.794l17.7-3.481c1.935,5.221,3.526,9.612,5.2,13.968a12.023,12.023,0,0,0,1.673,2.972c6.2,8.054,20.745,11.152,30.352,6.5,9.795-4.737,16.794-17.968,13.813-27.6a15.729,15.729,0,0,0-6.653-8.093,233.667,233.667,0,0,0-21.524-10.555c-12.507-5.664-23.921-12.033-30.131-25.6-10.325-22.56-.292-45.168,23.78-51.656,23.365-6.3,42.479,3.269,52.078,26.885l-13.828,8.5c-6.217-9.27-14.141-14.347-24.6-12.59a29.841,29.841,0,0,0-13.757,6.052c-9.135,7.683-7.814,16.737,2.843,21.9,9.6,4.65,19.776,8.162,29.217,13.1,23.656,12.362,32.33,44.476,18.292,66.141-17.287,26.68-56.973,26.856-74.278.182C877.984,549.742,874.033,541.485,872.786,530.794Z"/>
    <path d="M861.378,540.376l4.757,8.12V566.54c-22,15.354-62.488,16.459-88.684-10.81-27.192-28.306-31.91-71.631-8.246-102.069,23.22-29.868,67.377-35.6,91.649-19.252,7.409,8.457,5.9,17.544,5.277,27.828-2.75-1.577-4.67-2.543-6.452-3.719a53.969,53.969,0,0,0-83.5,36.9c-3.389,22.046,3.971,39.589,20.967,49.979,18.761,11.468,41.636,10.956,58.819-1.307C857.642,542.89,859.361,541.756,861.378,540.376Z"/>
    <path d="M343.333,499.946v68.127H324.24V428.121h88.051v17H343.767v37.33H412.31v17.5Z"/>
    <path d="M446.826,568.122H429.455V428.239h17.371Z"/>
  </g>
</svg>
