<svg xmlns="http://www.w3.org/2000/svg" viewBox="0 0 1000 1000">
  <title>LAFilmFest</title>
  <g id="LAFilmFest">
    <g>
      <path d="M665,349.011l13.627,50.7,1.681.264,13.705-50.5H731.8c3.189,9,3.7,142.176.578,154.417h-29.7c-1.07-15.244-.37-30.05-.5-44.807-.125-14.567-.027-29.137-1.422-44.136-3.267,10.945-6.535,21.891-10.073,33.741h-21.9l-9.362-30.228c-2.083,28.334-1.687,56.452-2.08,85.494H627.119c-3.219-8.723-3.807-141.542-.571-154.258C638.561,347.312,651.013,348.575,665,349.011Z"/>
      <path d="M327.071,622.791h27.864c.815,4.163,1.523,8.07,2.352,11.95,1.88,8.808,7.372,13.531,16.306,14.112,8.319.542,14.921-3.261,17.038-9.813,2.735-8.468.065-16.354-8.286-21.043-10.071-5.653-20.551-10.586-30.925-15.685-18.875-9.277-26.474-26.325-24.082-45.063C330,536.411,342.112,524.5,363.459,520.1a59.807,59.807,0,0,1,30.93,1.889c19.6,6.344,30.878,27.451,25.825,49.326h-28.18c-.68-4-1.027-7.32-1.83-10.524-2.01-8.028-7.24-12.381-14.885-12.777-6.176-.32-10.984,1.574-13.359,7.793-2.587,6.777-.771,14.053,5.963,18.734,5.467,3.8,11.678,6.558,17.651,9.6,4.319,2.2,8.9,3.891,13.174,6.159,20.563,10.9,29.3,29.232,24.562,51.2-4.546,21.07-21.378,35.049-43.865,36.43-24.4,1.5-42.191-8.116-50.475-27.276C325.543,642.724,324.99,635.975,327.071,622.791Z"/>
      <path d="M258.728,349.884h35.6c12.715,50.537,25.328,100.671,38.281,152.156-10.9,2.46-20.63,1.478-31.175.775l-7.376-28.083H257.437c-2.177,8.846-4.374,17.771-6.818,27.7H221c.221-3.634-.073-6.9.676-9.9q16.8-67.351,33.887-134.631C256.191,355.432,257.433,353.118,258.728,349.884Zm18.129,41.633-2.323.073-10.528,50.7h23.645C283.884,424.567,280.37,408.042,276.857,391.517Z"/>
      <path d="M260.227,582.447h45.157v28.176l-45.592,1.561v32.923c18.8,2.822,37.479-.362,56.76,2.062V674.76H230.479c-3.417-9.407-3.575-142.021-.105-152.647h85.561v28.059L260.227,551.2Z"/>
      <path d="M672.757,674.706c11.752-51.6,25.593-101.378,38.113-152.366h36.987l38.312,152.095H754.547c-2.271-9.253-4.551-18.546-7.025-28.626h-36.5l-7.254,28.9Zm57.8-110.765-2.878.2c-2.579,16.556-8.643,32.5-8.893,50.344H741.04Z"/>
      <path d="M685.219,522.219c-12.149,51.568-23.991,101.839-35.959,152.64H612.238c-11.976-50.286-23.931-100.481-36.278-152.324h31.795c7.127,35.035,14.3,70.328,21.483,105.62l2.348.307,21.867-106.243Z"/>
      <path d="M407.734,379.93v29.231h40.8v31.308H407.416V503.2c-11.294,2.678-21.067,2.235-31.815.524V349.455h85.181c2.637,9.917,2.446,19.578.027,30.475Z"/>
      <path d="M158.043,674.994H129.73c-3.291-8.455-4.357-135.293-1.541-150.987,7.463-3.249,68.53-4.22,84.142-1.073v27.5H159.2v30.8l40.222,1.345v27.177c-12.839,4.257-27.056-1.057-41.38,3.651Z"/>
      <path d="M525.725,349.368h30.847c1.438,21.012.469,41.395.647,61.725.175,20.119.038,40.241.038,61.887H607c4.274,9.4,4.707,17.707,2.157,29.5-8.446,3.312-72.175,3.634-83.436.237Z"/>
      <path d="M521.915,551.045H490.363V674.738H460.732c-1.168-40.849.3-81.323-.862-123.135l-31.315-1.7V522.145h93.36Z"/>
      <path d="M128.631,350.12h29.013V473.572h52.8v29.685c-27.608.463-54.565.388-81.135.026C126.414,493.715,125.92,363.436,128.631,350.12Z"/>
      <path d="M797.752,522.084h28.635c.51,4.449,1.405,8.7,1.422,12.947.121,32.094.069,64.189.071,96.283,0,4.366,0,8.731,0,14.765H879v28.648H797.752Z"/>
      <path d="M507.218,504.048H476.629V393.94h30.589Z"/>
      <path d="M536.735,566.686H563.6c2.864,8.833,3.272,95.9.439,108.074H537.327C534.078,665.805,533.606,578.861,536.735,566.686Z"/>
      <path d="M475.124,381.365V349.6h33.37v31.764Z"/>
      <path d="M565.627,522.342V551.62H535.459V522.342Z"/>
    </g>
  </g>
</svg>
