<svg xmlns="http://www.w3.org/2000/svg" viewBox="0 0 1000 1000">
  <title>Magazine</title>
  <g id="Magazine">
    <g>
      <path d="M424.1,520.654c-3.793-1.718-3.324-4.336-3.313-6.574.091-17.782.175-35.565.46-53.344.174-10.809.968-21.611,1.011-32.418a390.561,390.561,0,0,1,5.134-61.7,7.808,7.808,0,0,0-.449-2.015,22.748,22.748,0,0,0-4.174,1.779,109,109,0,0,0-24.179,23.554,636.663,636.663,0,0,0-68.736,109.765c-7.07,14.448-13.58,29.169-20.4,43.742-1.161,2.482-2.582,4.842-4.047,7.562-3.3-2.573-2.786-5.412-2.737-7.862.407-20.415.368-40.863,1.6-61.232a564.3,564.3,0,0,1,12.773-91.938c7.442-32.51,14.8-65.163,28.952-95.61,4.826-10.384,11.056-20.231,17.569-29.688,8.3-12.051,20.624-17.673,35.073-18.463,11.6-.635,22.976,1.119,34.158,4.188a198.1,198.1,0,0,1,65.305,31.179c6.195,4.538,12.577,8.8,20.464,11.032l6.632-7.082c4.333-.513,6.236,1.8,7.872,4.152q5.953,8.549,11.574,17.33c8.209,12.813,26.277,17.5,39.741,10.205,1.467-.8,2.927-1.6,4.8-2.627,1.506-6.037,2.923-12.338,4.67-18.547,1.652-5.871,1.714-12.334,6.032-17.69,7.825,2.694,13.89,6.8,15.766,15.259,2.857,12.872,5.555,25.779,8.46,38.64,5.192,22.979,9.645,46.155,10.586,69.672.58,14.5,5.267,27.75,8.63,41.435a736.185,736.185,0,0,1,15.36,84.218c1.939,15.47,3.167,31.031,4.6,46.562.282,3.044.041,6.138.041,10.715-2.54-1.758-4.245-2.338-4.917-3.511-2.492-4.347-5.284-8.682-6.816-13.394-7.935-24.413-15.377-48.986-23.261-73.417a388.861,388.861,0,0,0-25.042-59.7c-2.53-4.875-5.972-9.287-9.119-13.827-.741-1.069-1.981-1.792-3.471-3.094-12.838,40.512-17.943,81.837-23.861,123l-1.631-.034c-.513-4.049-1.294-8.086-1.491-12.151-.724-14.876-.895-29.788-1.982-44.635a194.783,194.783,0,0,0-4.224-29.926c-2.763-11.856-10.824-19.861-21.249-25.181-5.361,2.258-7.414,6.593-9.409,10.519-5.649,11.117-11.671,22.168-15.96,33.829-9.774,26.579-18.906,53.413-25.687,80.96-1.6,6.513-2.748,13.14-4.149,19.7a35.939,35.939,0,0,1-1.216,3.6c-4.274-8.433-4.753-18.7-2.763-94.889.828-31.682,5.888-62.932,12.732-94.991a34.906,34.906,0,0,0-4.43,2.1A64.085,64.085,0,0,0,467.5,409.392q-14.538,24.015-27.858,48.763c-5.873,10.906-7.01,23.4-9.854,35.282-1.616,6.756-2.532,13.678-3.86,20.507C425.5,516.129,424.766,518.254,424.1,520.654Z"/>
      <path d="M218.773,665.571h19.761l16.639,38.767c-5.451,2.8-10.663,1.4-15.859,1.408l-3.82-4.089H221.848c-3.182,6.755-10.043,3.188-16.093,5.255.326,2.439.5,4.935,1.011,7.36,1.826,8.691,3.879,17.336,5.6,26.048.573,2.9,1.459,6.145-2.108,9.372-1.477-3.133-2.949-5.771-4-8.567-3.71-9.895-7.166-19.885-10.966-29.744-1.046-2.715-2.955-5.1-4.469-7.633l-1.769.394-2.577,26.584-.853.1c-.45-3.23-.737-6.494-1.388-9.683a96.429,96.429,0,0,0-3.29-13.192c-.694-1.943-2.9-3.345-4.483-5.057-7.24,4.156-9.04,10.7-10.861,17.123-1.308,4.609-2.159,9.346-3.259,14.016a15.518,15.518,0,0,1-2.972,6.759V698.463c-9.269,9.845-10.472,22.218-12.35,35.264-3.63-5.828-5.3-29.937-4.029-49.319,4.9-5.421,11.8-5.272,18.606-5.81,3.243-5.233,2.192-12.535,7.9-16.546,5.054,1.7,6.121,6.61,8.844,10.437l8.277-1.387c1.539-4.816,3.117-9.752,4.618-14.447,4.121-1.533,6.285.645,7.193,3.418a123.234,123.234,0,0,1,4.234,16.632c1.007,5.638,1.3,11.4,2.029,18.244,4.338-4.707,5.242-10.006,7.429-14.6C214.383,675.6,216.447,670.763,218.773,665.571Zm12.83,24.744c-.2-3.6-.67-6.593-3.716-9.383-1.141,3.338-2.055,6.01-3.209,9.383Z"/>
      <path d="M305.384,678.959H287.95c-6.4-4.872-12.47-5.41-16.5-1.331-3.182,3.217-3.554,10.793-.726,14.817,3.08,4.383,9.085,5.114,15.94,1.586l-4.077-3.177V682.92h22.474v19.046l1.674.264,15.908-36.75h19.855l16.543,38.773c-8.979,3.326-14.847,2.5-19.78-2.679H326.937c-10.633,8.107-21.136,2.9-34.035,3.4-5.679,2.776-14.418,3.178-23.352,1.694-11.556-1.92-17.7-8.705-17.937-19.793-.257-11.908,5.316-19.594,16.588-21.852a54.386,54.386,0,0,1,24.286.543C298.865,667.2,303.631,670.8,305.384,678.959Zm31.021,11.514-3.413-9.264-1.314.249c-.9,2.829-1.807,5.658-2.88,9.015Z"/>
      <path d="M665.406,700.984l-3.772,3.946H645.32c5.416-13.845,11.126-26.608,16.759-39.622H682.12l15.335,35.627,1.446-.2c.661-11.472-.141-23.026.429-34.488,1.342-.553,2.2-1.21,3.063-1.216,11.28-.087,22.569-.356,33.837,0,8,.249,12.624,5.287,11.692,12.346-.388,2.937-2.131,5.695-3.232,8.47.678,2.8,1.559,5.755,2.073,8.769.521,3.053.679,6.166,1.043,9.707-5.324,1.841-10.6,1.206-16.23.4-.763-3.618-1.481-7.02-2.282-10.814H716.667c-.331,3.295-.677,6.73-1.1,10.94-10.821,1.116-21.516.034-32.226.612l-4.732-4.467Zm50.941-20.1c6.907,2.293,9.825,2.035,13.93-1.123-2.372-4.417-4.364-4.84-13.658-2.724C716.533,678.257,716.438,679.6,716.347,680.88Zm-43.517.362-1.41-.135-3.064,8.683h7.777C674.8,686.347,673.817,683.8,672.83,681.242Z"/>
      <path d="M633.872,683.9c1.385-5.9,2.769-11.806,4.2-17.891,4.957-1.845,9.767-1.415,15.571-.172-3.1,13.356-7.508,25.931-11.2,39.047H626.4l-5.11-17.518c-3.428,5.946-3.131,11.887-5.744,17.088-5.048,1.537-10.177,1.087-16.053.25-3.749-12.721-7.509-25.477-11.543-39.16h15.677c1.485,5.875,3.038,12.024,4.592,18.172l1.474.128c1.593-6.048,3.187-12.1,4.866-18.471h13.049l4.651,18.548Z"/>
      <path d="M753.038,705.337V665.782a36.288,36.288,0,0,1,5.473-.886c8.644-.091,17.29-.138,25.931.019a29.631,29.631,0,0,1,8.5,1.281,15.737,15.737,0,0,1,6.77,3.845c6.511,7.25,6.011,15.956,3.511,24.449-2.267,7.7-8.657,10.634-16.183,10.789C776.024,705.506,765,705.337,753.038,705.337ZM769.6,694.662c6.458-.085,12.395,1.75,16.521-4,2.027-2.824,1.875-9.181-.423-11.556-4.692-4.847-10.326-3.13-16.1-2.619Z"/>
      <path d="M466.169,683.934V666.257c5.255-1.928,9.863-1.178,15.254-.533.486,13.3.23,26.124.129,38.993-5.735,2.1-11.017,1.547-16.136.777-1.751-.263-3.439-2.386-4.729-4-3.841-4.807-7.47-9.784-11.182-14.694l-1.524.417v17.015c-6.1,2.2-7.987,2.27-15.517.685a364.059,364.059,0,0,1-.071-39.707c5.64,0,10.65-.4,15.539.2,1.958.238,3.99,2.4,5.4,4.154,3.867,4.834,7.422,9.918,11.1,14.9Z"/>
      <path d="M856.005,676.992H838.686c-3.444-3.358-7.883-5.392-14.09-1.525,1.725,1,2.739,1.989,3.893,2.2,5.183.944,10.414,1.614,15.609,2.5a35.838,35.838,0,0,1,6.258,1.556c4.636,1.688,7.755,4.661,7.83,10.012.074,5.233-1.8,9.344-6.559,11.876A12.437,12.437,0,0,1,849,704.765a62.5,62.5,0,0,1-33.364-.009c-4.857-1.383-8.377-4.466-8.628-11.105,6.936-.552,13.562-2.213,20.11,1.131,4.985,2.545,7.412,2.335,12.057-1.91a68.4,68.4,0,0,0-6.9-2.082c-5.179-.971-10.452-1.482-15.585-2.636-6.255-1.406-9.052-4.688-9.459-10.166-.424-5.717,2.156-10.266,8.027-12.166a50.02,50.02,0,0,1,33.826.818C853.261,668.222,856.1,671.416,856.005,676.992Z"/>
      <path d="M486.027,665.3c14.181-.337,27.916-.256,42.18-.02v9.679c-8.43,2.866-17.782-1.045-26.056,3.265,7.561,3.792,15.784.987,24.151,2.848v8.936c-8.106.626-15.857,1.215-23.6,1.876-.2.017-.343.811-.694,1.705,3.52,4.007,8.372,1.435,12.488,2,4.2.572,8.541.126,13.509.126v9.928c-14.123.655-27.865.486-41.975.086Z"/>
      <path d="M386.532,695.035h19.243c.2,3.448.365,6.394.522,9.144-5.582,2.3-37.73,2.574-44.454.577-1.848-4.869-.454-8.642,3.629-11.89,3.935-3.13,7.566-6.641,11.329-9.987q2.876-2.558,5.746-5.121l-.64-1.54H363.175v-9.713c5.642-1.892,36.528-1.97,42.682-.137,2.09,5.437.376,9.511-4.081,13.144-5.009,4.082-9.621,8.653-14.374,13.045C387.106,692.831,387.087,693.406,386.532,695.035Z"/>
      <path d="M543.167,704.48l16.751-39.261h19.966l16.979,39.463H580.351l-3.866-3.7H563.621C558.2,705.953,555.759,706.417,543.167,704.48Zm30.724-14.5c-1.3-3.483-2.325-6.227-3.35-8.97l-1.321,0-3.085,8.566a23.654,23.654,0,0,0,3.482.863A32.114,32.114,0,0,0,573.891,689.983Z"/>
      <path d="M512.074,654.109h-11.5c-.095-12.192-.365-24.013.432-36.319h16.044l15.124,19.754c4.2-2.507,2.468-6.2,2.711-9.215.266-3.3.061-6.642.061-10.519h11.822c1.784,11.876.629,23.7.7,36.536-4.774.018-9.044.4-13.2-.122-1.8-.225-3.676-2.06-4.962-3.622-3.654-4.441-6.981-9.149-10.527-13.681a44.618,44.618,0,0,0-3.883-3.816C511.18,639.911,514.624,646.937,512.074,654.109Z"/>
      <path d="M287.216,617.641h15.538l16.44,21.686c3.5-7.565.967-14.409,2.554-21.371h10.914v36.528c-4.366,0-8.425.413-12.336-.168a10.364,10.364,0,0,1-5.692-3.674c-3.21-3.863-5.922-8.137-8.913-12.187-1.094-1.481-2.406-2.8-3.753-4.348-3.98,2.638-2.339,6.287-2.573,9.333-.253,3.3-.057,6.632-.057,10.5H287.216Z"/>
      <path d="M470.593,655.671c-6.257.34-12.434.331-18.058-3.251-4.376-2.787-7.215-6.4-7.209-11.63a64.024,64.024,0,0,1,.986-12.8c1.04-5.034,4.589-8.171,9.511-9.856,9.933-3.4,19.852-2.882,29.668.179,6.6,2.058,10.033,7.058,10.267,13.914q.1,2.877.061,5.758c-.151,10.483-5.458,16.48-15.881,17.633A85.379,85.379,0,0,1,470.593,655.671Zm.185-31.723c-7.857.053-12.512,4.891-12.269,12.753a12.505,12.505,0,0,0,12.7,12.065c7-.124,11.49-5.115,11.5-12.8C482.729,628.325,478.331,623.9,470.778,623.948Z"/>
      <path d="M354.156,617.72h17.59l15.72,36.3H375.031a18.794,18.794,0,0,0-24,.156H338.572C343.116,641.232,349.106,629.731,354.156,617.72Zm14.382,23.335c-1.2-4.724-2.007-9.1-5.966-12.489-3.47,4.144-4.5,8.576-4.938,13.509C361.4,643.316,364.745,644.015,368.538,641.055Z"/>
      <path d="M566.747,617.609h17.606c5.058,11.607,10.185,23.369,15.868,36.409l-12.15.593-4.306-4.02c-13.637-1.423-15.183-1.15-20.343,3.656H551.077C556.463,641.655,561.58,629.691,566.747,617.609Zm14.434,24.166c-2-4.441-1.066-9.724-6.352-13.786l-5.219,12.818C573.151,644.124,576.669,643.473,581.181,641.775Z"/>
      <path d="M407.239,654.012h-11.2c-2.071-4.485-.768-9.312-1.027-13.972-.262-4.707-.2-9.433-.291-14.833h-13.88c-.125-2.727-.218-4.762-.353-7.736,13.823-.339,27.109-.2,41-.128v7.635H408.554C406.685,634.659,408.663,644.261,407.239,654.012Z"/>
      <path d="M425.948,705.526H411.272a368.267,368.267,0,0,1,0-39.927h14.565C428.094,671.643,428.109,699.707,425.948,705.526Z"/>
      <path d="M641.842,646.172a38.8,38.8,0,0,1,.8,4.778,15.026,15.026,0,0,1-.664,3.11H606.846c-1.8-4.725-2.323-24.791-.876-36.165h11.459c2.168,8.934-.611,18.39,1.767,28.277Z"/>
      <path d="M427.347,617.848h12.06v36.044H427.888C426.489,648.84,426.133,628.094,427.347,617.848Z"/>
    </g>
  </g>
</svg>
