<?xml version="1.0" encoding="utf-8"?>
<!-- Generator: Adobe Illustrator 21.1.0, SVG Export Plug-In . SVG Version: 6.00 Build 0)  -->
<svg version="1.1" id="Facebook" xmlns="http://www.w3.org/2000/svg" xmlns:xlink="http://www.w3.org/1999/xlink" x="0px" y="0px"
	 viewBox="0 0 1000 1000" style="enable-background:new 0 0 1000 1000;" xml:space="preserve">
<style type="text/css">
	.st0{fill:#E50F41;}
</style>
<title>facebook</title>
<path class="st0" d="M228.9,745.6V254.9c4.7-12.6,13.6-21.2,26.1-26.1h490.6c20.5,7.4,25.7,22.7,25.6,43.4
	c-0.6,154.4-0.3,308.9-0.3,463.3c0,23.7-11.5,35.1-35.3,35.2c-39.4,0-78.9,0-118.3,0c-3.9,0-7.7-0.3-11.7-0.5V562.1
	c20.1,0,39.5-0.4,58.9,0.2c8.5,0.3,11.3-2.8,12.1-10.9c2-19.4,4.6-38.7,7.1-58.1c2-14.9,2.1-14.9-12.9-14.9c-21.6,0-43.2,0-65.3,0
	c0-22.2-1.1-43.2,0.4-63.9c1-15.2,10.1-22.5,25.7-24.6c6.8-0.9,13.7-1.3,20.5-1.4c11.5-0.2,23-0.1,36.2-0.1
	c0-24.1,0.2-47.1-0.3-70.1c0-1.9-4.7-5.2-7.3-5.3c-24.2-1-48.5-3.1-72.6-1.6c-44.8,2.9-78.4,32.4-86.4,76.6c-4,22.2-3,45.3-4,68
	c-0.3,7.1-0.1,14.2-0.1,22.4c-5.6,0-9.5,0-13.4,0c-15.9,0-31.8,0.2-47.7-0.1c-6.9-0.1-9.7,2.2-9.5,9.4c0.4,13,0.1,26,0.1,39.1
	c0,11.4,0,22.8,0,35.6h69.8v208.4h-13.4c-77,0-154.1-0.5-231.1,0.3C251.6,771.3,236.2,766.2,228.9,745.6z"/>
</svg>
