<?xml version="1.0" encoding="utf-8"?>
<!-- Generator: Adobe Illustrator 21.1.0, SVG Export Plug-In . SVG Version: 6.00 Build 0)  -->
<svg version="1.1" id="Twitter" xmlns="http://www.w3.org/2000/svg" xmlns:xlink="http://www.w3.org/1999/xlink" x="0px" y="0px"
	 viewBox="0 0 1000 1000" style="enable-background:new 0 0 1000 1000;" xml:space="preserve">
<style type="text/css">
	.st0{fill:#E50F41;}
</style>
<title>twitter</title>
<path class="st0" d="M175.6,707.8c71.2,3.3,135.4-13.9,195-57c-61.1-5.3-102.2-34.5-124.5-90.4l56.3-3.3l0.5-3.9
	c-29.8-8.3-55.7-22.5-74.9-47.1c-18.9-24.2-28.8-51.4-28.8-82.7l54.7,15.2l1.9-2.9c-57.5-48.9-72.2-106.7-40.7-174.1l4.8-2.5
	c10.6,11.2,20.6,23.1,31.9,33.6c65.2,61.1,142.6,95.3,231.3,104.4c8.4,0.9,9.4-2.1,8.7-9.5c-6-58.2,15.4-104.3,65.4-134.2
	c49-29.3,98.8-25.9,146.5,5.3c2.1,1.4,4.5,2.6,5.9,4.5c10.8,14.8,24.6,14.2,39.6,8.2c19-7.6,38-15.3,58-23.3
	c-8,28.7-26.5,49.6-49.7,67.1l1.2,3.4l65.7-17.8c-2.2,3.7-3.5,7.3-5.9,9.8c-15.5,16.4-30.7,33.3-47.3,48.5
	c-7,6.4-10.3,12.1-10.2,21.5c1,92.3-27.4,174.7-86.1,245.8c-67.3,81.5-154,128-259.5,138.5c-82.1,8.1-158.6-9.4-229.8-50.7
	c-2.5-1.4-4.8-3-7.2-4.5C177.4,709,176.5,708.4,175.6,707.8z"/>
</svg>
