<svg xmlns="http://www.w3.org/2000/svg" viewBox="0 0 1000 1000">
  <title>American</title>
  <g id="American">
    <g>
      <path d="M469.678,321.559c-30.859,46.586-28.9,88.973,3.753,119.174,30.048,27.793,75.732,29.953,107.082,4.836,19.38-15.527,30.033-35.832,31.462-60.677,1.391-24.186-6.722-45.108-25.221-63.419,52.6,5.342,105.778,43.646,133.4,94.371-61.474,57.5-136.456,63.348-215.024,57.082-70.413-5.617-112.446-54.907-160.982-99.933C385.016,349.929,424.576,332.24,469.678,321.559Z"/>
      <path d="M450.044,486.849c2-8.7,5.167-9.488,11.965-6.991,19.133,7.025,38.6,13.164,58.068,19.24,26.56,8.289,53.179,7.89,79.61-.76,42.947-14.057,85.366-28.991,120.2-59.692,9.232-8.137,10.371-14.35,5.435-26.164-20.276-48.528-55.307-82.6-99.765-108.655-23.586-13.822-49.364-16.609-75.74-17.264-52.9-1.314-102.162,12.3-148.841,36.489-11.264,5.837-22.723,11.3-34.738,17.256-3.8-4.457-7.856-7.8.4-12.1C421.346,299.7,477,276.257,540.7,275.49c49.328-.594,90.582,14.743,128.81,45.064,34.689,27.514,54.976,63.829,72.05,102.916,1.179,2.7-.474,8.46-2.816,10.571-13.126,11.834-25.667,24.992-40.644,33.964-34.508,20.671-71.848,35.278-111.113,44.653-35.524,8.482-68.767-1.957-101.925-12.376C473.373,496.611,462.129,491.533,450.044,486.849Z"/>
      <path d="M562,358.555l29.4-17.283c13.334,20.249,15.622,41.7,7.5,62.92-11.816,30.859-13.648,27.707-38.341,14.993-2.636-1.357-4.961-3.317-8.691-5.856C570.571,397.919,572.86,379.583,562,358.555Z"/>
      <path d="M412.691,581.566l-14.42,20.775L382.21,578.533v36.445H369.335V557.434c11.583-2.012,11.583-2.012,28.774,21.667,10.543-6.222,9.092-28.768,29.957-21.773v57.715l-12.789.755V581.929Z"/>
      <path d="M379.775,787.736,363.4,764.248V800.8H350.759V743.141c11.868-2.467,11.868-2.467,28.636,21.447,10.921-5.779,9.186-28.658,30.017-21.858V800.8l-12.247,1.113V767.414l-2.4-.774Z"/>
      <path d="M746.638,556.72h13.391v59.814c-21.965-2.326-23.484-25.388-38.563-34.453v32.976l-13.594.706V556.1c22.7-.814,23.382,23.143,38.766,32.1Z"/>
      <path d="M513.694,649.975c0,17.626.071,34.912-.03,52.2-.053,9.119-6.266,6.4-12.532,6.054v-33.3l-2.722-1.211L483.7,695.046c-5.188-7.477-9.825-14.162-16.324-23.528v36.39H454.714V649.894c20.172-6.153,19.046,14.868,29.006,21.741C493.977,665.652,492.207,643.782,513.694,649.975Z"/>
      <path d="M199.018,709.437v-60.1c10.6,0,20.624-.989,30.37.235,14.125,1.773,23.977,14.031,24.332,28.078.367,14.46-8.239,26.711-22.5,29.431C221.174,709,210.7,708.671,199.018,709.437Zm13.5-14.086c9.456,1.442,19.359,2.734,23.75-6.675,2.631-5.637,2.485-14.594-.217-20.237-4.425-9.239-14.184-8.268-23.533-6.818Z"/>
      <path d="M594.642,673.981v33.913H582.29V648.573c22.432.393,23.682,24.038,38.8,33.117V649.429l13.155-.612v60.414C612.283,707.156,610.456,683.952,594.642,673.981Z"/>
      <path d="M530.879,594.915l12.732,19.562c-9.462,2.994-15.49,1.514-20.164-6.768-3.268-5.789-6.063-14.411-16.784-9.847-.371,5.485-.751,11.11-1.171,17.32H493.383V556.465c11.4,0,22.422-1.521,32.7.58,5.99,1.225,13.1,7.222,15.626,12.89C546.162,579.909,540.891,588.544,530.879,594.915Zm-24.236-8.166c8.456-2.593,15.107-4.317,21.376-6.951.792-.332.309-7.591-.823-7.973-6.389-2.159-13.157-3.2-20.553-4.781Z"/>
      <path d="M774.325,690.779c-.357,5.82-.681,11.107-1.063,17.329l-12.231.77V649.9c11.765,0,24.094-1.447,35.777.671,5.083.921,10.7,8.492,12.776,14.234,3.411,9.443-2.139,16.95-11.267,22.955l12.655,19.321c-9.367,3.932-15.522,1.755-20.246-6.743C787.567,694.656,784.842,686.909,774.325,690.779Zm.2-11.63c7.688-2.134,14.313-3.6,20.534-6.084.971-.388.936-7.52-.048-7.9-6.243-2.433-12.884-3.845-20.486-5.888Z"/>
      <path d="M324.639,678.632c-.051,17.3-14.2,31-32.032,31.035-17.883.03-32.038-13.674-32.005-30.986.033-17.179,14.363-31.1,32.072-31.144C310.45,647.488,324.69,661.34,324.639,678.632Zm-14.114,1.411c.737-10.131-6.939-19.1-16.816-19.649-10.031-.557-17.723,6.122-18.768,16.3a18.435,18.435,0,0,0,16.112,20.4C300.9,698.122,309.775,690.35,310.525,680.043Z"/>
      <path d="M484,556.708V567.5H453.522c-.328,4.325-.569,7.5-.888,11.7h27.2c.2,4.344.355,7.791.559,12.282H453.47c-.3,4.115-.526,7.312-.869,12.084h31.763v11.412h-44.78V556.708Z"/>
      <path d="M541.367,684.216c-4.951,12.517,2.252,12.467,9.811,12.3,6.429-.139,12.863-.028,19.009-.028,3.16,8.958,1.45,12.824-7.58,12.47-11.467-.449-22.965-.108-35.454-.108v-59.4h42.809c2.916,8.169.871,12.01-8.49,11.345-6.811-.483-13.683-.094-21.117-.094v11.569h26.6c.26,4.1.462,7.286.758,11.941Z"/>
      <path d="M514.3,753.173v12c6.2,0,12.245.408,18.211-.1,8.836-.748,10.811,3.1,8.406,12.132-6.991,0-13.875-.488-20.622.262-2.393.267-4.451,3.548-6.662,5.453,2.275,2.231,4.375,6.126,6.856,6.386,7.926.828,15.993.307,23.886.307,3.2,8.849,1.187,12.474-7.639,12.168-11.473-.4-22.971-.1-35.319-.1v-59.2h43.435v10.681Z"/>
      <path d="M699.67,614.555c-8.234,2.323-13.384,2.287-17.057-6-1.425-3.212-8.257-5.383-12.719-5.552-5.731-.216-13.707-3.943-16.522,5.557-2.546,8.6-8.388,8.359-16.294,5.977,7.919-18.6,15.37-36.645,23.443-54.4,1.033-2.273,5.5-4.523,8.033-4.182,3.084.417,7.2,2.945,8.44,5.666C684.779,578.74,691.887,596.165,699.67,614.555Zm-23.861-24.289-7.847-18.21c-2.973,8.014-4.745,12.79-6.755,18.21Z"/>
      <path d="M298.319,614.615c8.053-18.958,15.364-36.71,23.29-54.183,1.059-2.336,5.377-4.722,7.919-4.463,3.067.311,7.3,2.758,8.519,5.427,7.831,17.117,14.976,34.548,22.688,52.678-7.971,3.049-13.8,3.346-16.5-5.886-2.616-8.932-10.11-4.994-15.609-5.343-5.3-.336-12.141-2.5-14.189,5.73C312.337,617,306.609,616.634,298.319,614.615Zm31.166-42.932c-3.042,7.691-4.963,12.547-7.278,18.4H336.75C334.484,584.344,332.579,579.518,329.485,571.683Z"/>
      <path d="M736.717,800.336c7.861-18.457,15.155-36.211,23.138-53.65,1.191-2.6,5.53-4.944,8.569-5.153,2.575-.177,6.785,2.269,7.85,4.641,8,17.829,15.4,35.927,23.1,54.211-8.47,2.567-13.864,2.01-17.3-6.794-1.134-2.9-7.736-5.08-11.832-5.072-5.786.012-13.919-4.185-16.842,5.054C750.81,801.765,745.6,803.146,736.717,800.336Zm31.305-42.547-7.5,17.972h14.608Z"/>
      <path d="M752.506,707.194c-9.242,3.29-13.561,1.182-17.247-6.311-1.568-3.188-8.45-5.252-12.865-5.165-5.3.105-13.375,1.555-15.232,5.072-3.918,7.418-8.136,9.329-17.273,6.771C698,688.6,705.64,669.932,714.048,651.614c2.483-5.411,12.465-4.788,15.029.9C737.1,670.32,744.507,688.4,752.506,707.194ZM713.8,682.811h14.625l-7.378-17.957C717.974,672.457,716.183,676.9,713.8,682.811Z"/>
      <path d="M432.282,649.454h13.011c0,13.7.958,27.19-.276,40.474-1.175,12.657-11.819,19.815-25.847,19.677-14.115-.139-23.1-7.5-25.048-20.6a48.943,48.943,0,0,1-.522-6.916c-.054-10.4-.023-20.8-.023-32.46l13.194-1.054c0,11.036-.035,21.276.011,31.516.04,8.934,2.365,16.835,13.034,16.818,10.88-.018,12.629-8.033,12.5-16.983C432.17,669.974,432.282,660.022,432.282,649.454Z"/>
      <path d="M596.35,749.4c-1.663,2.518-3.327,5.036-5.083,7.692a20.5,20.5,0,0,1-3.438-.4c-4.026-1.208-7.967-3.23-12.045-3.532-2.438-.181-5.071,2.271-7.617,3.54,1.69,2.218,2.926,5.368,5.165,6.457,4.451,2.164,9.547,2.953,14.207,4.748,7.547,2.907,11.961,8.144,11.5,16.745-.48,8.951-5.547,14.1-13.647,16.607-10.34,3.2-21.657.276-32.964-8.613l5.925-8.022c6.751,2.1,12.415,4.561,18.307,5.376,2.607.36,5.675-2.613,8.534-4.073-2.043-2.33-3.663-5.485-6.227-6.8-4.047-2.081-8.781-2.779-13.129-4.331-7.7-2.751-12.091-7.936-11.662-16.542.447-8.956,5.394-15.5,13.69-16.159,9.337-.746,18.918,1.561,28.392,2.54Q596.3,747.016,596.35,749.4Z"/>
      <path d="M625.29,598.1l7.4,7.833c-13.779,13.777-33.045,14.557-45.619,2.22a31.531,31.531,0,0,1-.735-43.872c12.076-12.619,32.2-12.653,45.888.418l-7.194,8.118c-15.547-7.081-24.014-6.7-29.53,1.695-5.5,8.363-5.045,16.911,1.59,24.507C603.478,606.336,611.245,606.042,625.29,598.1Z"/>
      <path d="M385.6,657.485l-6.8,8.351c-10.25-5.06-21.055-10.426-29.619,1.667-5.7,8.045-5.3,17.2,1.68,24.358,8.682,8.9,18.147,5.76,27.7-1.332l7.886,7.808c-13.948,14.2-33.476,14.88-46.022,2.509-11.618-11.456-11.76-32.236-.3-43.9C352.562,644.289,372.644,644.383,385.6,657.485Z"/>
      <path d="M712.889,782.666c4.573-12.151,8.112-21.483,11.6-30.836,4.079-10.941,4.058-10.949,17.746-9.159-7.288,18.377-14.238,36.623-21.806,54.609-2.815,6.69-12.472,6.985-15.236.472-7.634-17.987-14.584-36.264-21.884-54.627,10.473-4.078,15.547-.738,18.32,9.09C704.322,761.765,708.464,770.907,712.889,782.666Z"/>
      <path d="M446.6,801.689V742.213h44.586v11.456H460.1v12.616h27.133v12.232H460.078c-.351,8.035-.647,14.8-.985,22.508Z"/>
      <path d="M231.926,778.564c-.441,8.015-.814,14.793-1.228,22.305h-12.06V742.423h44.028c.271,3.2.543,6.419.918,10.852H233.258c-3.329,8.613-2.983,13.613,7.271,13,6.022-.358,12.082-.066,18.624-.066v12.351Z"/>
      <path d="M813.036,650.05c20.135-6.326,19.42,13.123,28.615,20.376,9.205-6.564,8.543-26.739,28.349-20.35-9.78,18.721-27.814,33.7-20.824,58.051h-15.2C840.872,683.945,822.847,669.017,813.036,650.05Z"/>
      <path d="M675.055,708.068H661.088V661.847l-17.41-1.442c-.357-3.148-.722-6.375-1.207-10.663h49.461c.249,2.993.516,6.2.862,10.355l-17.739,1.56Z"/>
      <path d="M621.777,754.49l-17.8-1.086V742.2H651.95v11.09L635.416,754.4v46.315l-13.639,1.162Z"/>
      <path d="M820.1,789.194H849.43c.378,4.056.678,7.264,1.076,11.526H807.865v-58.5l12.233-.776Z"/>
      <path d="M312.226,788.9H340.97v12.145H299.955V742.181l12.271-.584Z"/>
      <path d="M273.144,742.171h12.269V801.02H273.144Z"/>
      <path d="M661.584,800.935V742.511h12.667v58.424Z"/>
      <path d="M555.434,614.833V556.792L567.717,556v58.834Z"/>
      <path d="M351.476,273.113c3.494.925,8.192.735,10.267,2.975,7.3,7.884,13.7,16.6,21.06,25.768l-7.809,7.26L349.9,277.974Q350.69,275.544,351.476,273.113Z"/>
      <path d="M403.32,249.927,421.755,285.9l-9.158,5.138L394,255.245Z"/>
      <path d="M444.58,239.637H454.5c.93,10.477,1.837,20.7,2.732,30.772C445.419,274.214,445.419,274.214,444.58,239.637Z"/>
      <path d="M491.045,355.71c15.671-18.521,28.492-18.521,41.314-14.247s29.918,14.247,29.918,45.589c0,14.668-29.789,42.8-61.26,27.068C478.223,402.723,481.133,367.423,491.045,355.71Z"/>
    </g>
  </g>
</svg>
