<svg xmlns="http://www.w3.org/2000/svg" viewBox="0 0 1000 1000">
  <title>Investigative</title>
  <g id="Investigative">
    <g>
      <path d="M44.688,458.454l7.854-2.6c.074-1.166.237-2.6.244-4.044.03-5.922-.014-11.845.021-17.767.038-6.484,1.1-7.636,7.4-7.544,6.646.1,13.359-.128,19.917.74,9.645,1.276,16.221,9.414,16.3,19.229q.126,16.21,0,32.424a19.708,19.708,0,0,1-19.388,19.7c-6.215.154-12.436.082-18.654.03-4.358-.036-5.463-1.091-5.54-5.572-.11-6.364-.033-12.732-.036-19.1,0-1.605,0-3.211,0-4.793-2.859-1.29-6.122-.172-8.111-2.7Zm19.984,28.511c4.712,0,8.853.178,12.971-.049,4.212-.232,6.992-2.9,7.056-7.124.174-11.4.144-22.814.014-34.219a7.467,7.467,0,0,0-6.585-7.263c-4.369-.349-8.787-.083-13.429-.083v18.556a79.424,79.424,0,0,1,8.581.083c1.631.183,4.18.85,4.539,1.905a14.182,14.182,0,0,1,.3,7.292c-.537,2.453-3.079,2.308-5.193,2.328-2.744.025-5.488.124-8.253.192Z"/>
      <path d="M304.323,458.558c1.859,4.144,3.991,7.6,4.982,11.35a20.626,20.626,0,0,1-14.34,25.434,15.8,15.8,0,0,1-3.929.593c-6.813.067-13.627.094-20.439.032-3.687-.034-4.728-1.066-5.075-4.674-.1-1.028-.052-2.071-.052-3.108q0-27.993,0-55.987c0-7.444.933-8.421,8.5-8.334,6.059.07,12.18-.121,18.16.668,16.206,2.139,21.131,20.428,13.919,31.371C305.33,457,304.622,458.1,304.323,458.558ZM277.341,485.1c5.066-.259,9.652-.236,14.164-.805,3.771-.476,5.964-3.155,6.641-6.849.906-4.942-.624-8.944-4.018-10.977a4.147,4.147,0,0,0-1.62-.682,76.651,76.651,0,0,0-15.167.02Zm.011-31.324c4.458,0,8.574.26,12.642-.068a8.881,8.881,0,0,0,7.947-9.12c-.047-4.483-3.209-8.519-7.654-8.922-4.193-.38-8.449-.082-12.935-.082Z"/>
      <path d="M855.6,469.27v16.1c0,1.334,0,2.667,0,4-.02,6.26-2.026,7.84-8.223,6.546a3.124,3.124,0,0,1-2.829-2.935c-.107-1.177-.1-2.367-.1-3.551q-.007-29.333,0-58.664c0-.741-.027-1.483.017-2.222.181-3.009,1-4.375,3.806-4.481,8.273-.31,16.625-1.032,24.789.789s14.24,9.674,14.567,18.1c.075,1.924.009,3.852.039,5.777.1,6.544-2.622,11.725-7.6,15.819-.456.375-.968.682-1.434,1.047-.451.353-.874.74-1.6,1.358,1.76,1.822,3.4,3.5,5.013,5.193,5.5,5.781,7.162,12.767,6.453,20.506a3.244,3.244,0,0,1-3.438,3.3,34.537,34.537,0,0,1-3.554.013c-3.094-.188-4.137-.951-3.985-4.044.31-6.34-2.382-11.113-6.894-15.2a52.749,52.749,0,0,1-4.281-4.509C862.826,468.2,861.986,467.91,855.6,469.27Zm.153-12.03c4.7,0,8.985.329,13.191-.089,4.589-.455,7.244-3.978,7.566-8.979.432-6.691-1.627-11.243-6.3-12.26-4.707-1.025-9.567-.608-14.452-.168Z"/>
      <path d="M674.869,460.43c0,5.476.065,10.954-.013,16.429-.163,11.484-8.488,19.844-19.959,20.013a41.489,41.489,0,0,1-8.837-.426,19.512,19.512,0,0,1-15.8-18.918c-.234-11.688-.307-23.392.02-35.076.322-11.523,9.978-19.36,19.513-19.007,1.921.071,3.848-.026,5.771.019a19.3,19.3,0,0,1,19.273,19.2c.152,5.917.027,11.84.027,17.761Zm-11.6-.2c0-4.738-.238-9.491.05-14.211.57-9.318-4.467-11.956-11.779-11.431-.59.042-1.188-.007-1.775.055-4.879.517-7.88,3.517-7.93,8.469-.116,11.4-.1,22.8,0,34.2a7.745,7.745,0,0,0,6.038,7.8,20.424,20.424,0,0,0,6.132.589c6.206-.256,9.163-3.331,9.243-9.487C663.321,470.886,663.266,465.555,663.272,460.225Z"/>
      <path d="M166.83,460.319c0,5.636.075,11.273-.016,16.907a19.463,19.463,0,0,1-19.366,19.661c-1.482.046-2.969-.046-4.449.026-10.766.528-20.4-7.878-20.755-19.893-.327-11.261-.259-22.544,0-33.809a19.98,19.98,0,0,1,9.644-17.093c7.991-5.141,23.161-3.333,29.71,3.55a17.862,17.862,0,0,1,5.192,12.411c.079,6.079.019,12.16.019,18.24Zm-11.1.029c0-5.185.062-10.371-.016-15.555-.1-6.8-3.436-10.119-10.114-10.2-1.184-.016-2.376-.057-3.554.043-4.778.4-8.122,3.508-8.192,8.314-.169,11.553-.138,23.111.015,34.664a7.876,7.876,0,0,0,6.387,7.555,21.156,21.156,0,0,0,5.271.557c6.626-.147,10.1-3.662,10.189-10.262C155.781,470.423,155.727,465.386,155.727,460.348Z"/>
      <path d="M237.931,453.648c0,7.561.043,15.122-.011,22.683-.085,12.124-8.308,20.427-20.369,20.549a40.173,40.173,0,0,1-8.408-.421,19.383,19.383,0,0,1-15.829-18.925c-.23-16.156-.1-32.318-.057-48.478.011-3.892,1.544-5.21,5.517-5.2,4.343.013,5.892,1.29,6.016,5.289.12,3.851.035,7.709.036,11.563q0,17.124.012,34.247a19.719,19.719,0,0,0,.28,4.423c1.045,4.457,5.831,6.875,12.275,6.358,5.451-.437,8.521-3.218,8.856-8.1.1-1.476.055-2.964.055-4.446,0-14.232-.031-28.465.026-42.7.019-4.792,1.353-6.316,5.313-6.62,4.516-.347,6.254,1.2,6.277,5.753C237.961,437.637,237.932,445.642,237.931,453.648Z"/>
      <path d="M805.447,452.753c0-7.708-.029-15.417.012-23.126.023-4.4,1.317-5.728,5.391-5.77,4.279-.044,6.111,1.457,6.149,5.76.117,13.341.1,26.684.032,40.025a70.069,70.069,0,0,1-.629,10.613,19.283,19.283,0,0,1-19.06,16.625c-2.369.061-4.75.1-7.113-.054-9.38-.621-17.536-8.56-17.77-17.924-.407-16.291-.485-32.591-.549-48.888-.02-5.017,3-7.1,7.972-6,2.109.467,3.5,1.574,3.563,3.885.035,1.186.036,2.372.037,3.558q0,21.125,0,42.248c0,1.186-.058,2.38.057,3.556.439,4.492,2.976,7.407,7.44,8.132a22.043,22.043,0,0,0,6.612.079c5.074-.741,7.769-3.939,7.824-9.149.084-7.856.022-15.713.022-23.57Z"/>
      <path d="M510.678,450.2c2.663-3.593,4.894-6.721,7.25-9.75a16.737,16.737,0,0,0,3.554-10.732c-.012-5.142,4.716-7.762,9.131-5.038a4.789,4.789,0,0,1,1.87,3.2c.7,6.7-.432,13-4.728,18.46q-3.571,4.543-7.035,9.172c-.961,1.276-1.819,2.63-2.883,4.18,3.449,4.544,6.628,8.991,10.079,13.215,4.6,5.632,6.1,12.055,5.518,19.128-.24,2.9-.959,3.689-3.737,3.917a22.22,22.22,0,0,1-3.556,0c-2.793-.225-3.53-1-3.759-3.893-.081-1.033.1-2.1-.068-3.109-.315-1.882-.334-4.032-1.3-5.547-3.08-4.835-6.537-9.429-10.22-14.642-4.009,5.3-8.024,9.657-10.566,15.006-.841,1.769-.774,4.029-.877,6.077-.276,5.5-5.079,8.384-9.8,5.619a4.734,4.734,0,0,1-1.736-3.282,25.421,25.421,0,0,1,5.208-18.791c3.468-4.431,6.843-8.934,10.531-13.762-1.531-2.09-3.062-4.208-4.622-6.3-1.858-2.5-3.748-4.97-5.61-7.464-3.923-5.253-5.207-11.211-4.666-17.644.225-2.673,1.128-3.858,3.7-4.194,4.128-.54,8.127-.058,7.837,6.122a15.868,15.868,0,0,0,4.007,11.415C506.378,444.164,508.29,446.99,510.678,450.2Z"/>
      <path d="M723.42,423.453c8.592-.564,15.257,2.931,19.436,10.872,1.843,3.5,1.611,5.114-.747,6.518-4.169,2.483-7.157,2.145-9.176-1.039a12.34,12.34,0,0,0-16-4.025,8.738,8.738,0,0,0-2.154,13.388c2.376,2.7,5.629,3.652,8.859,4.784,4.038,1.415,8.234,2.648,11.92,4.738,8.041,4.56,11.484,13.895,9.061,23.041-2.491,9.4-9.647,15.018-19.445,15.154-4.579.063-9.156.316-13.583-1.52a19.653,19.653,0,0,1-10.677-10.746c-1.193-2.691-.332-4.6,2.395-5.685a19.6,19.6,0,0,1,3.855-1.025c2-.35,3.256.6,4.339,2.314,3.611,5.728,13.092,7.348,18.812,3.784,4.175-2.6,4.77-13.289-.243-15.474a93.905,93.905,0,0,0-9.945-3.72c-4.735-1.453-9.177-3.294-12.779-6.853a20.176,20.176,0,0,1-4.762-22.11c2.682-6.711,9.748-12.86,18.322-12.4C721.645,423.488,722.388,423.453,723.42,423.453Z"/>
      <path d="M573.389,468.523c0,6.559,0,12.325,0,18.091,0,1.778.088,3.564-.055,5.332-.215,2.673-1.252,3.732-3.835,3.985a24.557,24.557,0,0,1-4,0c-2.28-.149-3.45-1.525-3.69-3.708a28.494,28.494,0,0,1-.069-3.109q0-28.891,0-57.784c0-.741-.03-1.484.016-2.222.207-3.283,1.3-4.95,4.416-5.048,8.122-.256,16.322-1.076,24.341.815a17.737,17.737,0,0,1,12.66,10.277c3.388,7.564,3.514,15.273-.123,22.748-3.328,6.841-9.063,10.38-16.7,10.605C582.244,468.623,578.124,468.523,573.389,468.523Zm.286-11.119c1.818,0,3.268.012,4.717,0a78.546,78.546,0,0,0,7.98-.15c4.472-.5,7.145-3.5,7.409-8a47.2,47.2,0,0,0-.006-5.766c-.274-4.273-2.85-7.414-7.088-7.8-4.211-.388-8.486-.085-13.012-.085Z"/>
      <path d="M349.2,484.893h5.637c6.668,0,13.335-.028,20,.01,4.934.028,5.569.725,5.531,5.733,0,.3.008.593-.007.888-.174,3.566-.925,4.407-4.579,4.439-8.148.073-16.3.027-24.446.028-2.963,0-5.929.065-8.889-.025-3.377-.1-4.433-1.127-4.8-4.5a28.5,28.5,0,0,1-.063-3.109q0-28.224,0-56.45c0-.888-.034-1.782.045-2.665.342-3.86,1.8-5.236,5.644-5.386,4.35-.17,5.9,1.248,5.914,5.686.036,15.557.015,31.115.016,46.672Z"/>
      <path d="M933.923,435.453c-5.481,0-10.962.057-16.442-.018-4.074-.057-5.084-1.2-5.168-5.426-.092-4.592.916-6.11,4.952-6.159q16.883-.207,33.771,0c4.034.05,5.044,1.573,4.951,6.165-.086,4.225-1.095,5.365-5.178,5.419C945.181,435.51,939.552,435.453,933.923,435.453Z"/>
      <path d="M933.926,465.74c-5.479,0-10.959.061-16.437-.02-4.08-.06-5.091-1.206-5.176-5.428-.093-4.617.885-6.07,4.956-6.116q16.88-.193,33.762,0c4.078.047,5.049,1.491,4.956,6.117-.085,4.207-1.11,5.369-5.18,5.427C945.181,465.8,939.553,465.74,933.926,465.74Z"/>
      <path d="M429.287,465.742c-5.327,0-10.654.045-15.981-.013-4.414-.049-5.5-1.191-5.538-5.532-.04-4.482,1.068-6,5.142-6.037,11.1-.113,22.2-.057,33.3-.024,1.957.006,4.4.2,4.769,2.369a17.3,17.3,0,0,1-.574,7.68c-.263.868-2.753,1.442-4.246,1.488C440.537,465.844,434.91,465.741,429.287,465.742Z"/>
      <path d="M429.568,435.453c-5.477,0-10.954.049-16.43-.015-4.2-.048-5.265-1.154-5.37-5.239-.12-4.679,1.087-6.332,5.305-6.372,11.1-.108,22.2-.05,33.3-.012,1.988.006,4.167.406,4.727,2.554.661,2.534,1.137,5.426-.708,7.641-.776.932-2.594,1.343-3.955,1.379C440.819,435.538,435.192,435.451,429.568,435.453Z"/>
      <path d="M933.876,495.987c-5.48,0-10.961-.012-16.441.009-2,.007-4.13-.066-4.732-2.361-.671-2.563-1.1-5.371.788-7.623a4.616,4.616,0,0,1,3.2-1.063q17.514-.11,35.027-.014c3.04.019,3.915,1,4.23,3.968a15.659,15.659,0,0,1,.035,2.22c-.133,3.726-1.082,4.785-4.774,4.839C945.429,496.047,939.652,495.985,933.876,495.987Z"/>
      <path d="M429.7,495.987c-5.629,0-11.258.056-16.886-.018-4.076-.053-5.06-1.2-5.042-5.487s1.034-5.45,5.029-5.578c6.8-.217,13.6-.493,20.4-.52,4.727-.019,9.457.293,14.181.544,2.774.147,3.693,1.044,4.013,3.729a17.045,17.045,0,0,1,.042,3.106c-.211,3.235-1.084,4.152-4.41,4.2C441.25,496.046,435.472,495.986,429.7,495.987Z"/>
      <path d="M325.411,576.533c-1,.314-1.942.673-2.91.9-5.98,1.4-11.136-2.239-11.664-8.317a36.541,36.541,0,0,1-.007-6.215c.593-6.978,5.742-10.352,12.471-8.474,1.742.486,3.672.3,5.944.449.122,1.2.353,2.476.361,3.749.037,6.369.058,12.739,0,19.108-.043,4.757-2.765,8.139-6.994,8.9-5.534.992-8.942-.822-10.905-5.874,1.017-1.571,2.078-1.578,3.589-.4a10.926,10.926,0,0,0,4.475,2.46C323.7,583.47,325.74,581.1,325.411,576.533Zm.427-10.584H325.8a28.984,28.984,0,0,0-.023-3.526c-.4-3.224-1.918-4.4-5.442-4.363-3.61.037-4.951,1.154-5.169,4.559a50.285,50.285,0,0,0,0,6.175,5.086,5.086,0,0,0,5.421,5.115c3.024-.044,5.04-2.067,5.249-5.313C325.886,567.717,325.838,566.831,325.838,565.949Z"/>
      <path d="M617.673,577.917c0-4.472,0-8.872,0-13.272,0-1.332.024-2.669-.082-3.994a2.51,2.51,0,1,0-5.019.136c-.079,2.663-.058,5.329-.066,7.994-.008,2.946,0,5.892,0,9.105l-3.75.478c-.106-7.983-.113-15.578.04-23.37,3.8-.7,7.169-2.129,10.625.252.835-.317,1.636-.665,2.465-.93a6.508,6.508,0,0,1,8.3,3.863,11.761,11.761,0,0,1,.813,3.888c.1,4.44.137,8.886.007,13.323-.079,2.683-.4,2.8-4.238,2.6-.032-2.854-.073-5.759-.1-8.664-.024-2.813,0-5.626-.062-8.438-.033-1.487-.682-2.624-2.339-2.684-1.864-.067-2.686,1.08-2.7,2.793-.053,4.737-.035,9.475-.058,14.213C621.489,577.14,621.329,578.948,617.673,577.917Z"/>
      <path d="M866.885,577.931c-2.842.271-5.272.489-7.7.736-5.653.576-9.6-2.146-10.332-7.823a36.548,36.548,0,0,1,.253-10.524c.7-4.226,4.984-6.987,9.263-6.525,2.858.309,5.7.8,8.6,1.216C868.138,558.551,868.1,574.4,866.885,577.931Zm-14.159-11.666h.038a39.19,39.19,0,0,0,.022,3.969c.313,3.054,2.245,4.7,5.323,4.674s5.043-1.681,5.248-4.747a60.406,60.406,0,0,0-.006-7.937c-.177-2.721-1.489-3.866-4.208-4.143-4.527-.46-6.281,1.048-6.414,5.536C852.7,564.5,852.726,565.382,852.726,566.265Z"/>
      <path d="M717.991,572.6c-2.3,5.143-5.762,6.931-11.189,6.006-4.017-.684-6.737-3.836-7.085-8.477a59.072,59.072,0,0,1-.041-7.1c.256-5.65,4.3-9.462,9.751-9.306,5.756.165,9.14,3.8,9.05,9.768-.015,1.008-.206,2.013-.369,3.507-2.415.088-4.724.2-7.034.248-2.178.042-4.358.009-6.493.009-.774,3-1.039,5.279,1.455,6.862a6.4,6.4,0,0,0,7.374-.839C715.489,571.563,715.489,571.563,717.991,572.6Zm-3.436-9.411c-1.032-4.691-2.456-5.666-6.613-5.081-2.924.411-3.617,1.426-3.252,5.081Z"/>
      <path d="M478.786,567.142H465.6c-1.176,4.024-.773,5.834,1.3,7.076a6.2,6.2,0,0,0,7-.806c1.451-1.292,2.655-3.09,4.642-.8-1.485,4.6-4.079,6.285-9.346,6.105-4.591-.157-7.822-2.388-8.46-6.931a36.616,36.616,0,0,1,.227-11.421c.824-4.56,5.4-7.167,10.175-6.6,4.94.589,7.94,3.928,7.993,9C479.14,564.049,478.934,565.339,478.786,567.142Zm-3.841-3.983c-.369-4.421-1.742-5.514-6.015-5.079-3.212.326-4.053,1.491-3.516,5.079Z"/>
      <path d="M210.916,567.244H197.063c-1.05,3.715-.662,5.372,1.282,6.7a6.353,6.353,0,0,0,7.426-.534c2.206-1.752,2.206-1.752,4.677-.836a13.821,13.821,0,0,1-1.342,3.026c-2.285,2.976-6.92,4.05-10.959,2.7a8.614,8.614,0,0,1-5.829-8.091c-.113-2.51-.111-5.032-.014-7.544.21-5.46,3.99-8.977,9.5-8.949a8.934,8.934,0,0,1,9.31,8.716C211.185,563.739,211.014,565.057,210.916,567.244Zm-3.927-4.108c-.981-4.445-2.367-5.484-6.344-5.036-3.067.346-3.95,1.419-3.977,5.036Z"/>
      <path d="M359.588,554.994a184.985,184.985,0,0,1-.028,22.773c-3.2.349-5.851.689-8.509.918-5.4.466-9.321-2.543-9.923-7.939a42.53,42.53,0,0,1-.02-8.882c.571-5.708,6.139-9.166,11.7-7.7A51.211,51.211,0,0,0,359.588,554.994ZM345.379,566.27h.008c0,1.179-.05,2.36.01,3.536.182,3.608,1.7,5.077,5.192,5.1,3.264.023,5.221-1.719,5.443-5.054a59.641,59.641,0,0,0,.021-6.186c-.164-4.287-1.593-5.683-5.591-5.609-3.827.07-4.954,1.3-5.079,5.559C345.357,564.5,345.379,565.386,345.379,566.27Z"/>
      <path d="M102.779,578.418v-3.24l6.825-.757c.112-7.857.121-15.614-.045-23.805l-6.232-.738c-1-1.876-.814-3.326,1.5-3.4,4.991-.151,9.99-.046,14.892-.046.494,3.166.494,3.166-5.354,4.38v23.534c1.167.149,2.3.282,3.421.44.987.138,1.971.3,2.821.435.869,1.89.187,3.089-1.387,3.134C113.8,578.512,108.372,578.418,102.779,578.418Z"/>
      <path d="M150.728,578.159h-3.034c-.249-.544-.58-.935-.586-1.332-.068-4.433-.033-8.869-.133-13.3-.106-4.745-3.94-7.059-8.269-5.053-1.86.862-2.4,2.469-2.392,4.376q.011,5.544-.018,11.088a6,6,0,0,1-.2,2.616,3.561,3.561,0,0,1-2.121,1.709c-.509.1-1.27-.91-1.851-1.488-.169-.168-.147-.565-.148-.857-.007-6.915,0-13.831,0-20.824,3.873-.48,7.281-1.224,10.694-1.246a7.852,7.852,0,0,1,8,7.414C150.921,566.7,150.728,572.166,150.728,578.159Z"/>
      <path d="M746.561,560.318l-2.448,1.22c-1.756-2.132-3.655-4.2-6.652-3.366a4.749,4.749,0,0,0-2.862,2.173c-.722,1.651.517,2.8,2.068,3.3,1.825.585,3.716.958,5.562,1.482,3.574,1.014,5.6,3.453,5.5,6.559a7.049,7.049,0,0,1-6.315,6.9c-2.775.316-5.655.556-8.2-1.082-1.762-1.137-3.233-2.527-3.385-4.85,1.638-1.695,2.869-1.306,4.115.233,1.7,2.1,4.058,2.258,6.481,1.9,1.762-.258,3.128-1.261,3.266-3.107.137-1.83-1.344-2.443-2.856-2.828-1.861-.475-3.764-.824-5.573-1.448-3.447-1.189-5.387-3.678-5.193-6.376a8.128,8.128,0,0,1,6.3-7.172C740.948,552.907,744.933,555.367,746.561,560.318Z"/>
      <path d="M222.236,572.6c1.81-1.712,3.067-1.274,4.313.276,1.691,2.1,4.055,2.285,6.487,1.9a3.193,3.193,0,0,0,2.879-2.948c.215-1.853-.943-2.634-2.571-3-1.732-.391-3.472-.776-5.172-1.286-3.63-1.088-5.411-3.108-5.512-6.1a7.932,7.932,0,0,1,5.49-7.332c4.55-1.518,9.5,1.224,10.982,6.289l-2.306.881c-5.589-4.669-9.067-4.4-10.239,1.149,1.37.564,2.8,1.24,4.284,1.735,1.259.419,2.6.583,3.884.942,3.563,1,5.706,3.609,5.453,6.579a7.908,7.908,0,0,1-6.464,6.967C227.813,579.507,224.427,577.772,222.236,572.6Z"/>
      <path d="M689.458,546.728c.835,2.35.131,3.35-1.807,3.408-2.362.071-4.728.045-7.093.054-1.594.006-3.189,0-4.747,0-1.3,3.5-.924,6.51-.477,9.707,4.192,1.533,8.573-.05,12.834,1.043.994,1.861.49,3.114-1.637,3.356a54.383,54.383,0,0,1-5.757.108c-1.733.011-3.466,0-5.834,0v13.219c-2.193,1.144-3.19.584-3.581-1.018a11.3,11.3,0,0,1-.162-2.646c-.01-7.833-.021-15.666.011-23.5,0-1.142.237-2.283.4-3.734Z"/>
      <path d="M767.487,558.081c0,4.5-.074,8.168.029,11.834a4.776,4.776,0,0,0,3.061,4.509,4.186,4.186,0,0,0,5.154-1.416c1.229-1.447,2.411-2.166,4.092-.792-.554,3.989-3.274,6.372-7.377,6.481a8.4,8.4,0,0,1-8.677-7.267,65.2,65.2,0,0,1-.124-7.093c-.013-1.762,0-3.525,0-5.609l-5.658-.914c-.126-.807-.268-1.716-.453-2.9l5.649-.845c.289-1.7.576-3.385.853-5.019,2.921-.363,2.921-.363,3.987,5.264h10.144c.134,1.4.221,2.309.361,3.77Z"/>
      <path d="M539.16,560.456v3.778H526.447c-.124,2.723-.24,4.88-.313,7.037-.055,1.628.037,3.265-.1,4.884-.162,1.878-1.2,2.555-3.337,1.781v-31.4c5.648-.273,11.08-.2,16.5-.042,1.771.052,2.16,1.269,1.485,3.15-4.414,1.356-9.217-.109-14,.9a21.476,21.476,0,0,0-.077,9.907Z"/>
      <path d="M392.159,572.468c-1.574,4.413-4.13,6.325-8.139,6.229a7.964,7.964,0,0,1-7.9-6.5,37.125,37.125,0,0,1-.415-6.611c-.062-2.2-.013-4.4-.013-6.882l-5.731-.89c-.1-.87-.2-1.779-.323-2.926l5.115-.741c2.018-1.511-.786-6.175,4.231-5.4l.936,5.624H390.3c.083,1.4.137,2.306.222,3.737H379.576c0,4.419-.333,8.386.089,12.272.475,4.378,4.773,5.719,8.15,2.727C389.109,571.962,390.15,570.714,392.159,572.468Z"/>
      <path d="M256.308,558.533l-6.217-.594-.43-3.089,5.842-.686c.709-1.919,1.334-3.764,2.121-5.538.094-.21,1.072-.028,1.911-.028l.982,5.749h9.891V558.2H260.13c0,4.507-.29,8.487.078,12.406.4,4.227,4.517,5.482,7.94,2.672,1.893-1.555,1.893-1.555,3.995-1.093-.49,5.049-5.287,7.873-10.26,6.039a8.252,8.252,0,0,1-5.555-7.767C256.238,566.623,256.308,562.789,256.308,558.533Z"/>
      <path d="M900.771,572.618c-1.826,4.552-4.331,6.328-8.334,6.073a8.064,8.064,0,0,1-7.876-7.12,63.106,63.106,0,0,1-.573-8.828c-.105-3.551-.06-7.105-.118-10.658a6.186,6.186,0,0,0-.477-1.474l-5.355-.8c-.043-.986-.083-1.9-.136-3.119h9.971c.14,1.47.377,2.876.39,4.283.046,5.331.017,10.662.021,15.992q0,1.556.041,3.109a4.7,4.7,0,0,0,3.094,4.469,3.964,3.964,0,0,0,4.791-1.31C897.471,571.75,898.683,570.586,900.771,572.618Z"/>
      <path d="M589.816,546.72c.109,1.888.269,3.472.281,5.058.046,6.22.049,12.44.063,18.66a4.323,4.323,0,0,0,7.311,3.167c.426-.411.807-.87,1.24-1.272,1.4-1.3,2.617-1.049,3.669.44-1.749,4.352-4.984,6.41-9.165,5.866-4.131-.538-7.194-3.946-7.391-8.706-.2-4.731-.056-9.477-.062-14.216,0-1.6,0-3.2,0-5.019l-5.835-.892c-.083-.918-.166-1.828-.28-3.086Z"/>
      <path d="M430.392,554.763h3.748c.043,6.579,3.344,12.015,6.067,18.365,3.011-6.136,5.943-11.566,6.14-17.873,3.152-.678,4.036-.256,3.9,2.06a16.854,16.854,0,0,1-1.083,5.179c-1.868,4.658-3.826,9.289-5.988,13.817-1.412,2.956-4.349,3.113-5.642.151-2.643-6.058-6.437-11.708-7.125-18.518C430.317,557.087,430.392,556.214,430.392,554.763Z"/>
      <path d="M161.405,554.822h3.566c.847,3.238,1.436,6.27,2.453,9.151,1.025,2.9,2.475,5.651,4.088,9.247,2.763-6.421,6.022-11.819,6.149-18.178,2.168-.863,3.428-.286,3.295,1.681a29.264,29.264,0,0,1-1.282,7.792c-1.386,3.889-3.314,7.586-5.022,11.36-.625,1.383-1.314,2.651-3.162,2.646s-2.584-1.238-3.151-2.653c-2.194-5.478-4.424-10.944-6.476-16.476C161.387,558.108,161.561,556.584,161.405,554.822Z"/>
      <path d="M837.9,555.108c-.272,2.6-.081,5.193-.877,7.439-1.626,4.583-3.765,8.986-5.734,13.445-.626,1.42-1.659,2.789-3.309,2.37a4.676,4.676,0,0,1-2.772-2.354c-2.336-5.408-4.5-10.891-6.576-16.407-.49-1.3-.384-2.829-.6-4.621l3.555-.411c.915,3.423,1.562,6.571,2.617,9.576,1.011,2.883,2.446,5.617,4.085,9.291,2-6.206,5.719-10.723,5.781-16.625C834.091,554.868,835.163,554.222,837.9,555.108Z"/>
      <path d="M300.99,578.462c-6.856.1-12.992.24-19.26-.084V575.2l7.357-.868V558.566l-5.6-.736-.193-3.013h10.287c.121,6.509.24,12.942.348,18.823C296.035,576.064,300.67,572.8,300.99,578.462Z"/>
      <path d="M808.009,578.5c-5.9,0-11.348.06-16.8-.034-1.782-.031-2.707-1.024-1.886-3.354l7.075-.632V558.661l-5.4-.848c-.084-.877-.171-1.788-.292-3.057H801v19.581l7.011.827Z"/>
      <path d="M561.838,554.786v19.6l6.545.718c.9,1.958.6,3.311-1.67,3.366-4.868.117-9.741.081-14.611.025-1.7-.02-2.874-.73-2.257-3.247l7.761-.907V558.588l-5.882-.692c-.125-.9-.252-1.8-.434-3.11Z"/>
      <path d="M408.285,558.566l-5.6-.735c-.061-1-.11-1.813-.183-3.021h9.787v19.537c2.219.185,3.923.325,5.625.471,1.943.168,2.627,1.125,1.615,3.648-6,.161-12.251.141-18.418-.019a9.424,9.424,0,0,1-.4-1.884,6.109,6.109,0,0,1,.47-1.411l7.1-.813Z"/>
      <path d="M562.217,546.394v4.378H557.6c-.094-1.3-.174-2.4-.289-3.971Z"/>
      <path d="M408.21,550.8c-.063-1.379-.112-2.477-.184-4.047l4.75-.3V550.8Z"/>
      <path d="M796.882,550.676V546.71l4.335-.2c.131,1.277.572,2.369.26,3.167C800.672,551.73,798.932,551.126,796.882,550.676Z"/>
      <path d="M289.531,551.061v-4.252l3.959-.36c.173,1.438.316,2.631.511,4.263Z"/>
    </g>
  </g>
</svg>
