<svg xmlns="http://www.w3.org/2000/svg" viewBox="0 0 1000 1000">
  <title>Murrow</title>
  <g id="Murrow">
    <g>
      <path d="M501.445,214.821q165.759,0,331.518,0c4.541,0,4.108-.3,4.108,4.1q.006,279.788,0,559.575c0,4.333.371,4.027-3.933,4.027q-331.764,0-663.527,0c-4.3,0-3.994.342-3.994-3.974q0-279.91,0-559.82c0-4.22-.308-3.91,4.065-3.91Q335.563,214.818,501.445,214.821Zm.019,2.973q-164.4,0-328.81,0c-4.42,0-4.069-.3-4.069,4.168q0,276.711,0,553.423c0,4.431-.327,4.175,4.08,4.175H830.038c4.445,0,4.06.232,4.06-4.185q0-276.711,0-553.423c0-4.49.346-4.158-4.07-4.158Q665.747,217.793,501.464,217.794Z"/>
      <path d="M500.253,232.405H813.1c5.01,0,4.485-.263,4.485,4.525q.008,262.958,0,525.913c0,4.523.575,4.411-4.362,4.411q-73.233-.006-146.466.031a29.6,29.6,0,0,0-4.231.755,12.189,12.189,0,0,1-2.43.115c-5.472-.284-10.942-.851-16.413-.863q-54.312-.119-108.623-.041c-3.879,0-3.882,0-3.882-3.892V679.8c0-.573,0-1.147,0-1.72-.02-2.765-.021-2.766-2.69-2.8-.41,0-.819,0-1.229,0H495.068q-153.841,0-307.684,0c-5.262,0-4.57.037-4.57-4.467q-.013-217-.006-434c0-4.682-.415-4.413,4.355-4.413ZM811.087,569V565.38q0-161.2,0-322.41c0-4.357.26-4.045-3.941-4.045q-132.7,0-265.4,0c-4.428,0-4.052-.368-4.053,4.16q0,194.623,0,389.247c0,1.557-.023,3.114.016,4.669a11.477,11.477,0,0,0,.347,1.751c2.142-2.421,2.956-5.1,3.727-7.755a26.154,26.154,0,0,1,10.544-14.911c5.7-3.895,10.467-8.6,12.953-15.307a9.839,9.839,0,0,1,6.386-5.749,52.7,52.7,0,0,1,6.1-1.863,20.808,20.808,0,0,0,12.9-8.738c3.55-4.974,8.172-8.9,12.643-12.988,5.25-4.8,10.72-9.441,14.032-15.962.107-.21.4-.327.855-.689-.454,4.86-1.62,9.156-4.675,12.526a130.745,130.745,0,0,1-10.515,10.262c-4.964,4.37-9,9.238-10.7,15.811a5.281,5.281,0,0,1-2.1,2.81c-3.356,2.187-6.838,4.185-10.3,6.212-4.8,2.812-9.871,5.289-13.266,9.924a15.738,15.738,0,0,1-8.219,5.9c-3.188,1-5.156,3.032-5.429,6.507a5.639,5.639,0,0,1-2.106,4.286c-2.565,1.936-3.7,4.668-4.624,7.62a27.1,27.1,0,0,1-2.531,5.549,67.563,67.563,0,0,1-4.535,6.715,7.381,7.381,0,0,0-1.531,4.77q.042,52.1.029,104.193c0,.865.128,1.731.206,2.714h79.014c-.987-.322-1.575-.527-2.17-.705-3.451-1.034-6.926-2-10.352-3.108-4.154-1.349-3.647-.594-3.111-5.064l1.744-.7a24.4,24.4,0,0,1-2.249-3.488,45.163,45.163,0,0,1-2.109-6.2c-.339-1.3.415-2.165,1.809-2.384,5.421-.851,10.322.012,14.034,4.443,1.415,1.689,2.634,3.545,3.912,5.346,1.516,2.136,2.889,4.383,4.524,6.423a13.07,13.07,0,0,0,8.481,5.051,6.79,6.79,0,0,0,.558-1.768c0-3.107.128-6.231-.156-9.316-.747-8.121-4.577-14.931-9.424-21.273-2.013-2.634-3.956-5.322-5.931-7.985l.454-.473a11.84,11.84,0,0,1,1.984,1.545c2.583,3.056,5.093,6.174,7.636,9.263.879,1.068,1.392,2.548,3.265,2.983a17.206,17.206,0,0,0-.475-2.351,46.889,46.889,0,0,0-2.493-6.4c-2.527-4.679-5.29-9.23-7.932-13.848-.529-.924-.944-1.914-1.412-2.874l.439-.416c.75.229,1.52.408,2.246.7a14.353,14.353,0,0,1,7.476,6.813c1.732,3.243,3.24,6.61,4.736,9.972,2.334,5.247,4.983,10.17,10.683,12.571a3.034,3.034,0,0,1,1.285,1.671,23.66,23.66,0,0,0,7.374,9.659c3.952,3.309,8.11,6.39,11.307,10.5a4.152,4.152,0,0,0,3.636,1.576q40.054-.056,80.11-.035a20.054,20.054,0,0,0,2.021-.22c-.814-.9-1.408-1.551-1.8-1.982a32.973,32.973,0,0,0,.465-4.33c-.219-7.687-.419-15.377-.823-23.056-.563-10.7-1.082-21.412-2.022-32.083-.991-11.239-2.545-22.428-3.665-33.658a65.243,65.243,0,0,1-.257-12.217c.324-3.62,1.525-7.167,2.4-10.731.629-2.556,1.2-5.086.6-7.744-.613-2.711-.022-5.318.6-7.982a15.954,15.954,0,0,0,.434-6.488,27.554,27.554,0,0,0-5.373-11.216,11.2,11.2,0,0,0-10.962-4.614c-3.563.445-7.148.828-10.734.949-3.262.109-6.559-.447-9.8-.181a11.636,11.636,0,0,0-5.837,2.133,4.022,4.022,0,0,1-4.379.61,21.709,21.709,0,0,0-6.21-1.195c-2.156-.058-2.849,1.5-1.71,3.36a11.009,11.009,0,0,0,1.908,2.23c2.945,2.738,3.522,5.8,1.913,9.551-2.79,6.5-6.476,12.33-11.938,16.887a17.425,17.425,0,0,0-6.1,10.889c-.855,5-1.826,9.985-2.512,15.009-.739,5.415-.037,10.548,3.26,15.212,3.069,4.344,5.836,8.9,8.713,13.379.441.685.762,1.448,1.138,2.174l-.493.245c-1.645-2.6-3.138-5.3-4.968-7.762-3.471-4.66-7.077-9.222-10.733-13.738-5.34-6.6-10.136-13.48-12.7-21.7a36,36,0,0,0-2.2-5.464c-2.8-5.557-5.559-11.139-8.589-16.569-4.064-7.281-7.586-14.9-12.936-21.415a15.507,15.507,0,0,1-1.962-3.67,7.032,7.032,0,0,1-.123-4.777c1.616,1.79,2.973,3.081,4.08,4.56,2.989,4,5.687,8.231,8.865,12.069a18.912,18.912,0,0,1,4.028,7.9c1.831,7.574,5.718,14.242,9.76,20.818,2.772,4.51,6.053,8.8,6.536,14.369a5.5,5.5,0,0,0,.755,2.065,5.144,5.144,0,0,0,3.9,3,12.333,12.333,0,0,0,1.083-2.087c1.182-3.912,2.764-7.777,3.344-11.784,1.723-11.9,3.074-23.852,4.509-35.792A116.43,116.43,0,0,1,683.6,591a26.3,26.3,0,0,1,2.163-4.669c1.614-2.736,3.591-3.487,6.664-2.646,1.1.3,2.123.855,3.2,1.245,1.841.669,3.673,1.38,5.554,1.91.831.234,1.98.265,2.114-1,.207-1.97,1.459-2.017,2.819-1.577,3.1,1,6.207,2,9.2,3.253,3.985,1.67,4.79,1.462,6.56-2.45.033-.075.064-.151.094-.227,1.255-3.208,2.755-6.089,5.662-8.346,4.123-3.2,5.949-8.124,8.09-12.733,1.309-2.819,2.629-5.635,4.044-8.4,1.253-2.449,1.554-2.756,4.258-1.891,3.8,1.214,7.726,2.42,11.12,4.436,8.47,5.034,17.561,6.949,27.263,6.788,4.667-.077,9.34-.061,14,.077a26.273,26.273,0,0,1,13.123,3.588A14.491,14.491,0,0,0,811.087,569ZM346.566,323.934c0-12.035.078-24.07-.049-36.1a48.057,48.057,0,0,0-1.1-10.215c-2.6-11.273-9.353-18.7-20.85-21.374a41.469,41.469,0,0,0-20.651.317c-8.988,2.466-15.241,7.989-18.342,16.887a44.193,44.193,0,0,0-2.472,14.692c.022,23.66-.032,47.321.057,70.981a51.223,51.223,0,0,0,1.055,10.223c2.119,10.129,7.476,17.761,17.677,21.132a40.206,40.206,0,0,0,26.039-.017,25.332,25.332,0,0,0,16.128-15.743,39.762,39.762,0,0,0,2.513-14.429C346.547,348.168,346.566,336.051,346.566,323.934ZM810.581,717.819l.5-.049v-3.1q0-70.525,0-141.05c0-.492-.033-.985,0-1.474.113-1.61-.542-2.5-2.233-2.481-4.568.062-9.157-.139-13.7.241-8.1.679-16.1,1.315-24.067-1.295-5.2-1.7-7.324-.352-9.2,4.751-2,5.443-2.388,11.172-3.026,16.869-.535,4.789-1.405,9.54-2.007,14.322a8.707,8.707,0,0,0,.171,4.267,140.741,140.741,0,0,0,6.874,14.643c3.9,6.82,8.19,13.42,12.48,20.006,5.316,8.163,8.8,17.173,12.485,26.1,2.882,6.981,6.085,13.836,10.767,19.8a46.418,46.418,0,0,1,9.571,22.3C809.511,713.747,810.114,715.773,810.581,717.819ZM238.541,390.836q13.882,0,27.766-.008c2.353,0,2.5-.161,2.515-2.526.027-4.259.018-8.518.006-12.777-.008-2.88-.035-2.916-2.852-2.918q-16.832-.015-33.662-.006c-.655,0-1.311-.023-1.966-.009-1.218.026-1.768-.557-1.83-1.774a18.571,18.571,0,0,1,1.7-9.809,42.725,42.725,0,0,1,4.554-7.544c5.43-6.55,11.13-12.874,16.693-19.313,6.739-7.8,12.534-16.2,15.942-26.029,3.593-10.366,4.52-20.943,1.861-31.657-2.605-10.5-9.011-17.471-19.675-20.121A43.825,43.825,0,0,0,234,255.493c-12.767,1.426-21.6,9.151-24.484,21.657-1.718,7.449-.983,15-1.12,22.513-.027,1.517,1,1.653,2.157,1.651,4.587-.008,9.174,0,13.76,0,3.168,0,3.17-.011,3.186-3.08.023-4.5-.075-9.013.09-13.512.247-6.726,3.7-10.584,10-11.247a17.575,17.575,0,0,1,4.624.335,8.14,8.14,0,0,1,6.447,5.1,19.072,19.072,0,0,1,1.412,4.682,45.342,45.342,0,0,1-4.052,26.061c-3.152,6.749-7.705,12.521-12.628,18.043-4.683,5.252-9.5,10.408-13.869,15.912-7.575,9.541-11.669,20.38-11.172,32.756.154,3.844.012,7.7.028,11.548.012,2.834.082,2.913,2.889,2.917Q224.905,390.851,238.541,390.836Zm220.4-.37c1.267.1,2.061.221,2.855.223q8.353.018,16.707-.007c2.565-.009,2.581-.029,3.238-2.655q13.483-53.856,26.944-107.717a15.768,15.768,0,0,0,.5-3.629c.053-5.733.04-11.466.022-17.2-.008-2.593-.209-2.807-2.807-2.809q-28.5-.019-57,0c-2.514,0-2.653.147-2.662,2.641-.021,5.733-.013,11.466,0,17.2,0,3.087.017,3.1,3.184,3.1q16.707.009,33.415.014c1,0,2.009.165,3.3.278ZM270.712,614.48l-.366.059a9.911,9.911,0,0,1-.406-1.362q-1.269-8.372-2.5-16.748c-1.349-9.228-2.707-18.456-3.99-27.694a2.051,2.051,0,0,0-2.422-2.071c-2.455.047-4.913.037-7.369,0-1.479-.019-2.094.509-1.774,2.084.422,2.083.662,4.2,1.013,6.3q3.57,21.3,7.153,42.607c1.613,9.6,3.269,19.2,4.8,28.817.279,1.753,1,2.4,2.711,2.325,2.043-.09,4.1-.068,6.14-.007,1.565.048,2.339-.466,2.578-2.166,1.761-12.557,3.61-25.1,5.445-37.648.444-3.037.94-6.067,1.412-9.1a2.829,2.829,0,0,1,.782,1.644q1.829,11.763,3.637,23.529c1.1,7.115,2.188,14.234,3.336,21.342.372,2.308.489,2.347,2.863,2.379,1.965.028,3.931.037,5.9,0,2.086-.044,2.294-.283,2.626-2.4q3.864-24.609,7.735-49.217,2.2-14.065,4.35-28.14c.312-2.027.109-2.294-1.974-2.333-2.456-.046-4.913.017-7.369-.014-1.4-.017-2.03.587-2.216,2q-2.465,18.859-5.026,37.706c-.339,2.514-.766,5.016-1.152,7.523a1.264,1.264,0,0,1-.726-.939q-2.214-14.681-4.412-29.363c-.713-4.774-1.376-9.556-2.108-14.326-.373-2.435-.569-2.576-2.958-2.6q-3.317-.035-6.633,0c-2.389.026-2.676.281-2.986,2.582Q273.751,591.869,270.712,614.48Zm140.3-290.818q0-25.916,0-51.833c0-4.339-.038-8.68.014-13.019.019-1.565-.583-2.231-2.165-2.2-2.865.056-5.736.108-8.6-.023a2.905,2.905,0,0,0-3.4,2.379,19.146,19.146,0,0,1-1.348,3.159c-2.484,5.1-6.175,8.871-11.815,10.291a58.637,58.637,0,0,1-7.243,1.217,1.872,1.872,0,0,0-1.93,2.232c.057,3.028,0,6.059.02,9.088.019,2.532.135,2.653,2.629,2.671,3.767.027,7.534.041,11.3,0,1.629-.017,2.472.6,2.357,2.315-.05.733,0,1.473,0,2.21q0,47.166,0,94.331c0,.737.041,1.476,0,2.21-.092,1.574.6,2.18,2.187,2.163,5.24-.058,10.481,0,15.721-.036,2.024-.015,2.188-.24,2.265-2.305.027-.736.007-1.473.007-2.21Q411.01,354.983,411.009,323.662Zm-175.185,208.5-.441-.006a2.279,2.279,0,0,1-.332-.6q-2.019-10.24-4.012-20.485-3-15.434-5.982-30.868c-.467-2.4-.617-2.509-3.063-2.526-3.113-.021-6.226-.008-9.339,0-3.649,0-3.654,0-3.654,3.619q0,33.423,0,66.846c0,.655.021,1.31.015,1.965-.013,1.229.611,1.793,1.814,1.792,1.72,0,3.44.017,5.161.014,3.3-.007,3.309-.012,3.31-3.224q.006-21.5,0-43.007v-2.547l.56-.064c.266.907.577,1.8.792,2.722q4.834,20.693,9.656,41.388c1.115,4.757,1.154,4.748,5.972,4.733,3.3-.009,3.356,0,4.027-3.2q4.467-21.276,8.887-42.56c.25-1.2.608-2.377.916-3.564l.482.11v2.68q0,21.381,0,42.762c0,.737.017,1.474.024,2.211a1.366,1.366,0,0,0,1.513,1.528q3.563.018,7.126,0c1.123-.006,1.611-.641,1.617-1.718,0-.737.02-1.474.02-2.212q0-29,0-58c0-3.276.023-6.553-.011-9.83-.023-2.234-.189-2.409-2.363-2.433-3.358-.036-6.717-.027-10.076,0-2.368.016-2.42.03-2.863,2.378q-2.889,15.327-5.728,30.663Q237.852,521.444,235.824,532.164Zm237.053-12.919-.435-.027q-1.268-8.479-2.534-16.96c-1.1-7.362-2.187-14.727-3.316-22.085-.372-2.431-.423-2.43-2.977-2.451-1.638-.013-3.276-.009-4.914,0-3.155.015-3.264.16-2.752,3.186q4.05,23.961,8.084,47.927c1.165,6.94,2.329,13.882,3.409,20.836.248,1.6.913,2.323,2.549,2.25s3.275,0,4.912-.014c2.776-.018,2.9-.088,3.3-2.773,1.52-10.278,3.006-20.56,4.517-30.839.436-2.963.915-5.919,1.374-8.878a1.238,1.238,0,0,1,.621.917Q486.4,521,488.086,531.666c.957,6.062,1.944,12.119,2.836,18.191a2.054,2.054,0,0,0,2.437,2.059c1.717-.06,3.439.007,5.158-.014,2.5-.031,2.55-.056,2.943-2.542q5.321-33.577,10.614-67.158c.211-1.341.3-2.7.443-4-.467-.213-.684-.394-.9-.4-2.455-.046-4.911-.1-7.366-.079-2.2.014-2.492.292-2.788,2.5q-2.048,15.325-4.079,30.653c-.357,2.668-.762,5.329-1.145,7.993-.485-.258-.64-.463-.674-.687q-1.518-10.071-3.01-20.146c-.88-5.989-1.755-11.979-2.58-17.976-.227-1.649-.911-2.47-2.7-2.376-2.287.119-4.585.057-6.877.022-1.243-.018-1.943.348-2.123,1.746q-1.938,15.091-4,30.169C473.839,512.84,473.343,516.04,472.877,519.245ZM411.46,648.785c-.283-1.432-.425-2.377-.659-3.3-2.539-10-5.063-20-7.669-29.982a4.179,4.179,0,0,1,1.059-4.6,15.528,15.528,0,0,0,4.781-10.5c.17-6.12.31-12.267-.062-18.37-.548-9-6.831-14.948-15.845-15.246-6.544-.216-13.1-.106-19.651-.095-2.049,0-2.216.234-2.3,2.265-.021.491-.007.983-.007,1.474v74.681c0,.491.035.985,0,1.473-.116,1.541.509,2.27,2.124,2.217,2.126-.069,4.258.017,6.386-.022,2.175-.041,2.366-.218,2.378-2.432.029-5.487.01-10.973.011-16.46,0-3.439-.028-6.879.016-10.317.027-2.038.22-2.2,2.294-2.241,1.637-.035,3.276-.016,4.913-.007,2.77.014,2.792.013,3.44,2.689,1.986,8.2,3.938,16.4,5.935,24.591,1.114,4.572.454,4.166,5.237,4.186C406.263,648.794,408.688,648.785,411.46,648.785ZM424.235,607.7q0,19.155,0,38.308c0,2.691.08,2.767,2.748,2.775,5.4.016,10.806.076,16.206-.018a18.637,18.637,0,0,0,13.642-5.75,19.607,19.607,0,0,0,5.629-14.214q0-20.5-.018-41.008a47.187,47.187,0,0,0-.4-5.371c-.916-7.785-9.024-16.013-18.038-15.771-5.316.142-10.64.022-15.96.023-3.807,0-3.81,0-3.811,3.7Q424.233,589.035,424.235,607.7Zm-172.354,41c-.132-1.4-.172-2.451-.338-3.478-.683-4.2-1.4-8.394-2.113-12.589q-3.321-19.6-6.64-39.208c-1.356-8.071-2.655-16.152-3.992-24.226-.382-2.31-.612-2.5-3.058-2.517-3.522-.021-7.043-.014-10.564,0-2.88.008-2.943.066-3.421,2.938-1.224,7.345-2.412,14.7-3.665,22.037q-4.5,26.378-9.042,52.748c-.226,1.323-.331,2.667-.539,4.386,3.205,0,6.048.024,8.891-.008,2.267-.025,2.451-.214,2.818-2.467.8-4.926,1.648-9.845,2.371-14.783.21-1.433.822-1.977,2.231-1.941,2.292.059,4.586-.018,6.879.018,6.816.106,5.572-1.039,6.706,5.921.6,3.715,1.124,7.446,1.822,11.143.14.738.885,1.911,1.4,1.938C244.943,648.781,248.27,648.7,251.881,648.7Zm63.131.089c3.266,0,6.1.02,8.939-.007,2.428-.023,2.548-.157,2.945-2.6.789-4.842,1.642-9.676,2.34-14.532.221-1.535.834-2.108,2.367-2.074,3.354.073,6.712,0,10.067.027,2.506.018,2.537.092,2.911,2.561.724,4.771,1.509,9.533,2.2,14.309.243,1.692,1.035,2.42,2.767,2.33,1.878-.1,3.764-.015,5.647-.019,3.6-.007,3.622-.012,3.026-3.552-1.589-9.436-3.215-18.866-4.795-28.3Q349.411,592.97,345.457,569c-.273-1.658-.992-2.4-2.749-2.357-3.681.092-7.366.015-11.049.03-2.637.011-2.73.073-3.178,2.631-.72,4.108-1.388,8.225-2.086,12.337q-4.638,27.338-9.282,54.673C316.446,640.252,315.786,644.189,315.012,648.784Zm-.434-210.156-.529-.07c-.295-1.766-.622-3.529-.881-5.3-1.349-9.228-2.706-18.456-3.993-27.693-.2-1.429-.81-2.015-2.214-1.98-1.8.044-3.6.048-5.4,0-1.416-.039-2.026.563-2.206,1.986-.955,7.546-1.977,15.084-3,22.622-.491,3.628-1.028,7.249-1.544,10.874a123.45,123.45,0,0,1-2.345-12.606c-1.025-6.959-2-13.926-3.084-20.877-.106-.679-.763-1.781-1.224-1.813-2.562-.177-5.143-.085-7.951-.085.125,1.14.169,1.857.287,2.563,3.029,18.158,6,36.326,9.133,54.467,1.166,6.758-.365,5.576,7.168,5.73,1.666.035,2.294-.693,2.508-2.275,1.145-8.43,2.351-16.852,3.563-25.273.412-2.865.9-5.719,1.36-8.577l.492.024q1.728,10.889,3.456,21.777c.652,4.121,1.326,8.239,1.918,12.369a1.933,1.933,0,0,0,2.273,1.945c1.553-.057,3.111-.033,4.666-.014a1.7,1.7,0,0,0,1.941-1.718c.167-1.462.4-2.918.628-4.372q4.27-27.281,8.536-54.56a16.319,16.319,0,0,0,.012-2.181c-2.256,0-4.283-.022-6.309.006-2.224.03-2.465.249-2.775,2.5-.857,6.239-1.687,12.482-2.545,18.721C315.886,429.422,315.226,434.024,314.578,438.628Zm87.951,113.213c-.3-1.366-.453-2.237-.673-3.092-2.284-8.876-4.533-17.761-6.907-26.613-.516-1.923-.39-3.292,1.128-4.8a12.592,12.592,0,0,0,4.019-8.482,175.457,175.457,0,0,0-.054-17.618c-.535-7.6-5.677-12.805-13.287-13.335-6.436-.448-12.925-.133-19.39-.164-1.107,0-1.675.491-1.657,1.623.01.655-.015,1.31-.015,1.964q0,33.521,0,67.04c0,.327,0,.655,0,.982.042,2.431.113,2.52,2.456,2.559,1.637.027,3.274.014,4.911,0,2.937-.017,2.947-.021,2.95-3.048.007-7.695-.011-15.389.014-23.083.007-2.145.132-2.24,2.2-2.293,1.39-.036,2.788.069,4.173-.026,1.634-.113,2.331.633,2.644,2.174.521,2.563,1.2,5.1,1.825,7.637q2.016,8.226,4.053,16.446c.234.936.394,2.087,1.681,2.11C395.772,551.879,398.942,551.841,402.529,551.841Zm-47.841.036c-.275-1.371-.409-2.243-.627-3.093-2.32-9.039-4.623-18.082-7.011-27.1a3.675,3.675,0,0,1,.947-3.957,14.646,14.646,0,0,0,4.437-9.856c.095-5.238.173-10.485-.029-15.716-.321-8.289-6.218-14.134-14.481-14.376-5.891-.172-11.789-.07-17.684-.043-2.067.01-2.18.186-2.256,2.279-.015.409,0,.819,0,1.228q0,33.651,0,67.3c0,.573.025,1.146.014,1.719-.022,1.138.566,1.63,1.661,1.628,2.211,0,4.422-.021,6.632.013,1.479.023,2.047-.7,2.013-2.118-.039-1.636,0-3.274,0-4.912,0-6.3-.014-12.609.01-18.913.009-2.374.114-2.446,2.53-2.484,1.31-.02,2.622.05,3.929-.014a2.068,2.068,0,0,1,2.41,1.867c.45,2.08.985,4.141,1.491,6.208q2.245,9.183,4.5,18.363c.237.963.458,1.976,1.78,1.977C348.041,551.878,351.132,551.877,354.688,551.877Zm91.71-37.106q0-5.4,0-10.81c0-3.6.047-7.208-.037-10.81a17.219,17.219,0,0,0-11.817-15.65,17.694,17.694,0,0,0-18.909,5.394,18.568,18.568,0,0,0-4.155,12.288q-.024,19.039.014,38.081a29.958,29.958,0,0,0,.448,5.369,17.222,17.222,0,0,0,17.607,14.106,17.481,17.481,0,0,0,16.906-17.824C446.167,528.212,446.4,521.486,446.4,514.771Zm-139.633-6.008h.015V491.316c0-3.768.026-7.536-.015-11.3-.023-2.067-.21-2.225-2.266-2.282-1.473-.04-2.949-.017-4.423-.01-4.4.018-4.151-.389-4.151,4.09,0,17.692-.108,35.386.075,53.077.043,4.214-4.033,7.712-7.81,7.225a7.194,7.194,0,0,1-6.159-7.332c.114-17.692.049-35.385.048-53.078,0-.737-.03-1.475-.008-2.211.036-1.242-.558-1.783-1.785-1.769-1.965.023-3.932-.021-5.9,0-2.383.03-2.531.145-2.533,2.5-.013,18.43-.1,36.861.03,55.29.075,10.651,9.889,20.056,22.866,16.255,7.325-2.146,11.92-8.618,11.994-16.466C306.83,526.456,306.765,517.609,306.765,508.763Zm187.784,56.91c-9.344-.352-15.828,4.906-17.941,12.919-2.193,8.313-.8,16.1,4.774,22.88a71.957,71.957,0,0,0,5.12,5.625c3.967,3.9,8.11,7.628,12.025,11.581,3.789,3.826,5.575,8.408,4.386,13.878-.776,3.572-3.6,6.472-6.8,6.918a7.878,7.878,0,0,1-8.852-4.685,41.742,41.742,0,0,1-2.105-6.251c-.244-.811-.315-1.708-1.42-1.655-2.614.124-5.227.28-7.835.491-1.1.09-1.551.774-1.31,1.892.12.559.142,1.138.245,1.7,1.876,10.281,7.057,17.679,18.065,18.642,14.964,1.31,21.774-8.836,21.467-21.192-.149-5.989-2.8-11.312-6.73-15.756a135.446,135.446,0,0,0-10.327-10.1c-3.47-3.164-6.87-6.336-8.746-10.766-1.844-4.355-2.147-8.7.115-13.032a5.4,5.4,0,0,1,3.932-3.062c4.824-.778,7.272.391,9.206,4.526a11.218,11.218,0,0,1,.929,2.79c.292,1.7,1.29,2.127,2.817,1.85,2.093-.379,4.185-.766,6.282-1.126,1.378-.237,2.118-.945,1.627-2.374-.847-2.465-1.439-5.1-2.747-7.307C507.076,567.913,501.319,565.491,494.549,565.673Zm-92.366-99.29c-.327-1.529-.5-2.48-.734-3.413-1.844-7.214-3.671-14.434-5.579-21.632a3.76,3.76,0,0,1,.86-4.016,12.4,12.4,0,0,0,3.675-8.369,103.958,103.958,0,0,0-.29-13.959c-.776-6.956-5.035-10.882-12.049-11.309-4.975-.3-9.982-.066-14.975-.092a1.673,1.673,0,0,0-1.926,1.947c.009.573-.012,1.146-.012,1.719q0,27.871,0,55.744c0,.491.026.983,0,1.473-.061,1.3.45,2,1.85,1.955,1.635-.048,3.276-.063,4.91.007,1.522.065,2.036-.654,1.98-2.076-.056-1.39-.008-2.783-.007-4.174,0-5.157-.007-10.314.01-15.471,0-1.044-.15-2.119,1.429-2.362,4.857-.747,5.742-.207,6.9,4.529.019.08.035.16.055.239q2.123,8.58,4.249,17.159c.234.945.349,2.065,1.665,2.088C396.709,466.415,399.22,466.383,402.183,466.383Zm97.189,0c-.3-1.42-.465-2.371-.7-3.3-1.826-7.139-3.609-14.291-5.541-21.4a4.32,4.32,0,0,1,1.13-4.809,10.657,10.657,0,0,0,3.191-7.517c.071-4.585.143-9.177-.028-13.757-.232-6.173-3.984-10.775-10.108-11.469-5.745-.652-11.594-.388-17.4-.514-1.027-.022-1.46.578-1.466,1.554,0,.655-.021,1.31-.021,1.965q0,27.89,0,55.778c0,.573.025,1.147.006,1.72-.039,1.22.5,1.815,1.756,1.79,1.556-.031,3.114-.049,4.668.011,1.5.058,2.037-.642,2.008-2.073-.048-2.374-.007-4.75-.007-7.126,0-4.1-.016-8.19.009-12.285.014-2.461.119-2.62,2.431-2.582,6.072.1,4.588-1,6.277,4.979.022.079.024.163.043.242q2.007,8.361,4.022,16.719c.229.944.376,2.051,1.695,2.07C493.855,466.414,496.374,466.388,499.372,466.388ZM243.231,435.1q0,14.113,0,28.227c0,3.073.017,3.087,2.931,3.1,3.845.013,7.691.051,11.536-.009a14.639,14.639,0,0,0,14.6-14.752q.043-16.691,0-33.381a14.52,14.52,0,0,0-14.564-14.727c-3.845-.039-7.69-.018-11.536,0-2.919.01-2.962.053-2.965,3.078Q243.222,420.866,243.231,435.1Zm168.589-.288q0,14.48.007,28.96c0,2.54.107,2.634,2.628,2.648,4.008.021,8.018.07,12.025-.012a14.61,14.61,0,0,0,14.4-14.448q.079-16.935,0-33.869a14.554,14.554,0,0,0-14.524-14.535c-3.845-.042-7.69-.018-11.535-.006-2.946.009-3,.057-3,3.038Q411.81,420.7,411.82,434.813ZM361.773,466.4c-.13-1.322-.167-2.2-.309-3.065q-2.067-12.6-4.167-25.19-2.67-15.978-5.378-31.949c-.42-2.48-.554-2.577-2.957-2.6q-3.685-.034-7.37,0c-2.428.023-2.516.131-2.934,2.6q-4.346,25.653-8.695,51.307c-.484,2.861-.927,5.729-1.442,8.925,2.517,0,4.629-.062,6.737.02,1.644.063,2.3-.619,2.509-2.245.444-3.405,1.15-6.776,1.624-10.178.233-1.674.884-2.453,2.685-2.33,2.037.14,4.092.012,6.139.038,2.379.029,2.421.069,2.8,2.409.547,3.392,1.045,6.792,1.623,10.179.157.924.21,2.071,1.612,2.076C356.6,466.4,358.959,466.4,361.773,466.4ZM209,435.008v27.5c0,.654.023,1.309.01,1.964-.025,1.306.545,1.984,1.909,1.947,1.144-.031,2.291,0,3.437,0,6.139,0,12.278.011,18.417,0,2.591-.007,2.653-.085,2.69-2.57.019-1.228.021-2.456,0-3.683-.041-2.366-.146-2.5-2.521-2.513-4.256-.029-8.513.012-12.769-.022-2.171-.017-2.373-.219-2.389-2.412q-.049-6.628,0-13.26c.014-2.391.156-2.528,2.484-2.556,2.619-.03,5.239.016,7.858-.017,2.316-.029,2.447-.182,2.487-2.564.022-1.309.034-2.62,0-3.929-.059-2.051-.22-2.231-2.281-2.266-2.537-.044-5.075,0-7.612-.017-2.863-.015-2.925-.065-2.936-2.849q-.026-6.261,0-12.523c.011-2.825.089-2.9,2.89-2.914,4.174-.016,8.349.021,12.523-.019,2.072-.02,2.214-.2,2.272-2.261.032-1.145.012-2.292.006-3.438-.016-3.036-.018-3.053-2.961-3.058q-10.19-.016-20.381,0c-3.06,0-3.118.064-3.121,3.217Q208.99,420.888,209,435.008ZM737.5,578.972a4.958,4.958,0,0,0-.9-1.1c-.746-.5-1.588-1.271-2.358-1.235-1.094.052-1.411,1.148-1.388,2.236a7.33,7.33,0,0,1-2.488,5.394,19.042,19.042,0,0,0-3,3.511c-1.517,2.592-1.132,3.583,1.481,5.006.5.273.99.571,1.5.835a4.82,4.82,0,0,0,5.069-.076,53.5,53.5,0,0,0,11.231-9,3.379,3.379,0,0,0,.582-4.24,5.139,5.139,0,0,0-6.523-2.81C739.705,577.832,738.779,578.372,737.5,578.972ZM511.511,466.428c4.659-.036,4.53.531,4.518-4.525-.009-4.207,0-4.218-4.114-4.206-5.3.016-4.64-.423-4.653,4.541C507.251,466.851,506.813,466.4,511.511,466.428ZM810.776,757l-2.592,3.4C811.116,760.869,811.279,760.672,810.776,757Z"/>
      <path d="M377.722,716.933c-.043.946-.116,1.826-.118,2.705-.011,5.489,0,10.977-.011,16.466-.009,2.936-.658,3.633-3.611,3.637q-22.733.034-45.466,0c-2.686,0-3.552-.84-3.581-3.534-.061-5.57-.016-11.141-.03-16.712-.008-2.866-.034-2.892-2.868-2.9-3.769-.015-7.537-.023-11.3,0-2.471.017-2.6.15-2.611,2.691-.021,5.324.007,10.649-.013,15.974-.014,3.816-.67,4.487-4.4,4.49q-22.118.015-44.237,0c-3.486,0-3.992-.525-4-3.969q-.014-7.988,0-15.974v-2.9a18.708,18.708,0,0,0-2.252-.3q-6.144-.039-12.288-.006c-2.406.015-2.517.119-2.527,2.489-.024,5.488,0,10.977-.013,16.465-.008,3.523-.661,4.2-4.134,4.2q-22.24.015-44.482,0c-3.428,0-4.067-.628-4.069-3.975q-.017-22.486,0-44.974c0-3.141.588-3.733,3.727-3.735q22.611-.017,45.22,0c3.072,0,3.719.649,3.734,3.774.027,5.488,0,10.977.013,16.465.005,2.907.026,2.931,2.819,2.942q5.775.024,11.55,0c.794,0,1.587-.112,2.57-.187.05-1.064.126-1.941.128-2.817.011-5.571-.006-11.141.011-16.712.009-2.891.552-3.455,3.448-3.458q22.733-.024,45.466,0c2.866,0,3.651.714,3.689,3.628.073,5.488.021,10.977.034,16.466.006,3.05.03,3.077,2.957,3.088,3.768.014,7.537.023,11.305,0,2.394-.017,2.51-.128,2.521-2.5.023-5.407,0-10.814.011-16.22.006-3.9.55-4.458,4.342-4.459q22.119-.008,44.237,0c3.69,0,4.1.412,4.106,4.072.007,5.571-.01,11.141.009,16.712.009,2.316.062,2.379,2.326,2.4q6.144.045,12.288,0c2.352-.016,2.429-.1,2.437-2.567.019-5.652,0-11.3.013-16.957.009-3.023.6-3.647,3.569-3.65q22.856-.024,45.711,0c2.61,0,3.362.726,3.385,3.371.05,5.734.008,11.468.025,17.2.008,2.561.038,2.59,2.635,2.6,3.932.02,7.865.026,11.8,0,2.359-.018,2.539-.192,2.55-2.515.026-5.57,0-11.141.015-16.711.01-3.423.549-3.951,4.03-3.952q22.363-.011,44.728,0c3.3,0,3.674.38,3.675,3.673q.009,22.611,0,45.22c0,3.324-.465,3.79-3.87,3.793q-22.242.016-44.482,0c-3.514,0-4.072-.591-4.082-4.2-.014-5.488.01-10.977-.011-16.465-.009-2.4-.09-2.473-2.512-2.487q-6.021-.036-12.042,0c-2.378.017-2.422.071-2.43,2.56-.018,5.57.008,11.141-.013,16.711-.013,3.185-.7,3.877-3.931,3.88q-22.365.021-44.729,0c-3.392,0-4.01-.634-4.019-4.025-.016-5.571.01-11.141-.014-16.712-.01-2.277-.122-2.4-2.343-2.412-4.423-.026-8.846,0-13.27.026A6.709,6.709,0,0,0,377.722,716.933Zm38.248-5.8.862-.474a16.8,16.8,0,0,0,.965,1.618c2.559,3.395,5.236,6.706,7.676,10.183a3.836,3.836,0,0,0,4.771,1.671,2.761,2.761,0,0,0,.274-.763c.029-6.3.037-12.591.063-18.886.006-1.308-.732-1.658-1.886-1.662-1.2,0-2.117.232-2.114,1.706.007,2.78.006,5.56-.027,8.34-.01.851-.138,1.7-.212,2.55l-.766.424a16.821,16.821,0,0,0-.993-1.653c-2.378-3.122-4.787-6.219-7.173-9.335-1.755-2.292-2.751-2.57-5.708-1.485v20.782h4.268ZM216.132,716.8a9.909,9.909,0,0,1,1.073-.848c3.754-2.031,3.86-5.811,3.178-8.489-.745-2.921-3.274-4.536-7.019-4.629-2.537-.063-5.077-.034-7.616-.017-2.69.019-2.817.127-2.827,2.733q-.03,8.108,0,16.215c0,.785.14,1.57.221,2.423h4.093c0-1.776.046-3.395-.013-5.01-.054-1.5.666-2.015,2.081-2.033a2.972,2.972,0,0,1,2.9,1.418,50.606,50.606,0,0,0,3.035,4.467,3.444,3.444,0,0,0,1.891,1.26,25.61,25.61,0,0,0,4.058.056Zm286.249,7.554c-3.04-7.218-5.9-13.977-8.728-20.751-.615-1.475-1.85-1-2.929-1.114a2.144,2.144,0,0,0-2.411,1.577c-2.595,6.183-5.255,12.34-7.872,18.514a9.543,9.543,0,0,0-.376,1.563c3.909.463,3.953.481,5.349-2.926a2.41,2.41,0,0,1,2.544-1.807q3.066.095,6.136,0a2.212,2.212,0,0,1,2.39,1.661c.217.616.511,1.205.724,1.823a1.936,1.936,0,0,0,2.22,1.472C500.229,724.3,501.041,724.354,502.381,724.354ZM283.5,724.205v-12.75c0-4.492,0-4.492,4.514-4.709a2.007,2.007,0,0,1,.245,0c1.418.111,1.839-.645,1.833-1.942s-.479-1.987-1.858-1.981c-4.742.022-9.483.016-14.224.008-1.118,0-1.683.5-1.6,1.636.051.7.131,1.4.188,1.984a3.73,3.73,0,0,0,.717.235c1.143.033,2.287.038,3.431.073,2.14.066,2.368.246,2.392,2.439.043,4.087.006,8.175.024,12.262,0,.872.1,1.744.166,2.749Zm88.591-10.177a20.853,20.853,0,0,0-41.705-.25,20.853,20.853,0,1,0,41.705.25Z"/>
      <path d="M194.288,755.025l1.788,2.526c1.21-2.71,2.246-4.994,3.248-7.293.4-.923.785-2.048,2-1.692a3.367,3.367,0,0,1,1.791,1.671c1.156,2.4,2.139,4.885,3.223,7.421-1.436.6-2.257.5-3.12-.493a2.59,2.59,0,0,0-4.011-.249,5.188,5.188,0,0,1-7.206-.4,10.488,10.488,0,0,0-1.01-.922c-.243.177-.437.242-.486.365-.355.9-.117,2.342-1.786,2.056-1.459-.25-1.024-1.474-1.055-2.367-.062-1.8.015-3.6-.02-5.4-.023-1.23.48-1.832,1.742-1.78.981.04,1.973-.052,2.945.051,3.158.334,4.341,2.736,2.711,5.432C194.837,754.288,194.588,754.6,194.288,755.025Z"/>
      <path d="M403.4,754.086a17.452,17.452,0,0,1-1.065,2.692c-.323.55-.976,1.216-1.51,1.243a2.07,2.07,0,0,1-1.581-1.1c-1-2.57-1.835-5.205-2.723-7.8,2.193-.859,2.478-.769,3.105.969.383,1.062.687,2.153,1.174,3.7a24.833,24.833,0,0,1,1.215-3.444c.377-.7,1-1.582,1.672-1.752,1.26-.32,1.5.93,1.848,1.834.279.729.541,1.465.824,2.236,1.732-1.113.48-4.852,4.381-3.944-.387,1.341-.737,2.625-1.132,3.895a36.692,36.692,0,0,1-1.418,4.176c-.25.557-1.039,1.278-1.512,1.23a2.832,2.832,0,0,1-1.751-1.279,14.048,14.048,0,0,1-1.057-2.7Z"/>
      <path d="M343.243,749.869c-.556,1.919-1.706,1.434-2.977,1.287a2.972,2.972,0,0,0-2.437.988,3.261,3.261,0,0,0,.13,2.664c.489,1.012,1.536,1.307,2.9.638a6.035,6.035,0,0,1-1.39-1.1c-.5-.784-.453-1.845.534-1.955a5.708,5.708,0,0,1,3.588.576c1.007.685.36,3.627-.676,4.394a5.7,5.7,0,0,1-7.353-.851,5.149,5.149,0,0,1,.4-6.713A5.385,5.385,0,0,1,343.243,749.869Z"/>
      <path d="M454.418,748.436a4.862,4.862,0,0,1,5.251,4.926,5.012,5.012,0,0,1-5.02,4.99,4.936,4.936,0,0,1-5.223-5.006A4.748,4.748,0,0,1,454.418,748.436Zm.1,7.351a2.638,2.638,0,0,0,2.41-2.306,2.319,2.319,0,0,0-2.4-2.449,2.163,2.163,0,0,0-2.235,2.317A2.484,2.484,0,0,0,454.514,755.787Z"/>
      <path d="M320.5,753.174v-.733c0-3.784.018-3.818,1.771-3.973,3.924-.345,6.572,1.008,7.123,3.639.694,3.316-1.25,5.916-4.643,5.976C319.958,758.166,320.548,758.5,320.5,753.174ZM323.4,755.6c2.866-.234,4.029-1.51,3.143-3.142a3.543,3.543,0,0,0-2.114-1.221c-.186-.052-.862.964-.985,1.557A14.767,14.767,0,0,0,323.4,755.6Z"/>
      <path d="M312.416,752.817a12.869,12.869,0,0,1,.249-3.011,2.232,2.232,0,0,1,1.413-1.189c.269-.066,1.069.747,1.094,1.192.124,2.194.122,4.4.036,6.6-.02.54-.46,1.449-.813,1.5a2.529,2.529,0,0,1-1.929-.6,45.963,45.963,0,0,1-3.061-3.8,18.763,18.763,0,0,1-.267,3.323c-.13.476-.8,1.12-1.214,1.116a1.662,1.662,0,0,1-1.2-1.124,64.87,64.87,0,0,1-.024-7.083c.085-1.424,1.557-1.766,2.7-.614C310.4,750.151,311.227,751.347,312.416,752.817Z"/>
      <path d="M507.087,748.741c3.572-.86,3.645,2.8,5.858,3.777a10.869,10.869,0,0,1,.2-2.61,2.32,2.32,0,0,1,1.318-1.3c.257-.086,1.155.7,1.176,1.123a62.876,62.876,0,0,1,.016,7.107c-.091,1.422-1.586,1.738-2.725.567-1-1.029-1.829-2.229-3.045-3.743-.083,1.258-.14,2.031-.183,2.8-.05.914-.36,1.762-1.41,1.51a1.951,1.951,0,0,1-1.15-1.428C507.023,753.957,507.087,751.362,507.087,748.741Z"/>
      <path d="M384.3,752.287l.1-2.183c.041-.911.339-1.773,1.4-1.5a1.991,1.991,0,0,1,1.134,1.469,59.719,59.719,0,0,1,.015,6.375,1.9,1.9,0,0,1-.859,1.478,2.055,2.055,0,0,1-1.717-.525c-1.022-1.039-1.88-2.239-3.2-3.865a18.69,18.69,0,0,1-.215,3.209c-.127.5-.858,1.283-1.1,1.211-.554-.166-1.354-.752-1.386-1.213a60.367,60.367,0,0,1-.05-6.618c.021-.531.488-1.413.864-1.478a2.548,2.548,0,0,1,1.949.57,33.272,33.272,0,0,1,2.634,3.186Z"/>
      <path d="M300.448,748.436c3.07,0,4.928,1.8,4.95,4.8a4.8,4.8,0,0,1-5.019,5.111,4.952,4.952,0,0,1-5.063-4.9A4.862,4.862,0,0,1,300.448,748.436Zm2.245,4.941a2.169,2.169,0,0,0-2.214-2.347,2.276,2.276,0,0,0-2.409,2.2,2.649,2.649,0,0,0,2.412,2.565A2.351,2.351,0,0,0,302.693,753.377Z"/>
      <path d="M231.185,753.409a4.911,4.911,0,0,1-5.251,4.941,4.862,4.862,0,0,1-4.873-5.057,4.8,4.8,0,0,1,5.27-4.856A4.606,4.606,0,0,1,231.185,753.409Zm-5.205-2.381a2.167,2.167,0,0,0-2.211,2.357A2.532,2.532,0,0,0,226.3,755.8a2.627,2.627,0,0,0,2.116-2.592A2.281,2.281,0,0,0,225.98,751.028Z"/>
      <path d="M495.765,753.309a4.619,4.619,0,0,1,4.941-4.872,4.828,4.828,0,0,1,5.188,4.951,4.98,4.98,0,0,1-5.013,4.965A4.837,4.837,0,0,1,495.765,753.309Zm5.076-2.274a2.186,2.186,0,0,0-2.334,2.242,2.491,2.491,0,0,0,2.413,2.525,2.559,2.559,0,0,0,2.241-2.455A2.336,2.336,0,0,0,500.841,751.035Z"/>
      <path d="M206.943,753.243a3.192,3.192,0,0,1,.008-.732c.339-1.4-1-3.513,1.477-4,3.4-.665,6.461.7,7.3,3.055a4.675,4.675,0,0,1-4.194,6.494C206.087,758.266,207.029,758.287,206.943,753.243Zm2.648.161c.189.878-.458,2.265,1.289,2.287a2.34,2.34,0,0,0,2.325-2.309,2.116,2.116,0,0,0-2.242-2.28C209.248,751.112,209.712,752.405,209.591,753.4Z"/>
      <path d="M263.811,755.639a18.516,18.516,0,0,1,3.083.22c.463.105.8.768,1.195,1.178-.372.345-.725.962-1.119.989-1.629.115-3.271.052-4.908.053-1.084,0-1.406-.723-1.421-1.615-.034-2.128-.027-4.256-.006-6.384a1.444,1.444,0,0,1,1.683-1.615c1.391.035,2.8-.1,4.169.067.537.065,1,.749,1.5,1.152-.51.412-.961,1.008-1.543,1.191a12.084,12.084,0,0,1-2.558.263l-.046.562c.569.111,1.133.26,1.707.323.9.1,2.054.047,1.824,1.331-.087.483-1.095.893-1.755,1.153a9.029,9.029,0,0,1-1.952.326Z"/>
      <path d="M247.206,751.83c.63.068,1.259.148,1.891.2.9.077,2.057.046,1.836,1.323-.084.48-1.1.911-1.772,1.145a10.548,10.548,0,0,1-2.2.3l.027.743a18.637,18.637,0,0,1,2.975.286,5.662,5.662,0,0,1,1.6,1.077c-.5.395-.976,1.065-1.52,1.131-1.373.164-2.779.028-4.171.064-1.287.034-1.729-.618-1.709-1.819.032-1.965.043-3.932-.008-5.9-.034-1.326.458-1.985,1.851-1.93s2.794-.071,4.172.07c.5.051.94.649,1.408,1-.451.463-.829,1.176-1.369,1.335a15.486,15.486,0,0,1-3.028.308Z"/>
      <path d="M388.629,748.474c2.278,0,4.073-.089,5.849.054.536.043,1.02.729,1.527,1.121-.507.419-.954,1.036-1.535,1.209a14.313,14.313,0,0,1-2.782.3l-.041.66a12.268,12.268,0,0,1,2.427.284c.521.162.922.709,1.377,1.085-.472.441-.874,1.084-1.431,1.275a10.663,10.663,0,0,1-2.511.268l-.021.752c.952.1,1.9.223,2.856.29.858.06,1.84.129,1.608,1.26-.091.444-1,.97-1.572,1.027-5.748.568-5.751.543-5.751-5.077Z"/>
      <path d="M473.659,757.55c1.195-2.78,2.266-5.5,3.536-8.129a1.685,1.685,0,0,1,3.105.023c1.242,2.646,2.278,5.389,3.423,8.148-1.274.71-2.071.6-2.928-.41-1.265-1.483-2.748-1.476-4.076-.008C475.941,758.034,475.2,758.318,473.659,757.55Z"/>
      <path d="M432.1,758.18a7.077,7.077,0,0,1-2.219-.831c-1.89-1.6-2.731-1.614-4.467-.055a7.4,7.4,0,0,1-2.161.928l-.576-.576c1.184-2.808,2.277-5.659,3.594-8.4a1.644,1.644,0,0,1,2.959.181c1.26,2.628,2.318,5.353,3.459,8.038Z"/>
      <path d="M365.826,757.61c-1.384.653-2.139.541-2.939-.377-1.381-1.583-2.583-1.443-4.268.036a7.875,7.875,0,0,1-2.169.955l-.476-.479a20.37,20.37,0,0,1,.623-2.2c.793-1.97,1.571-3.952,2.5-5.86.809-1.665,2.576-1.72,3.344-.081C363.644,752.176,364.664,754.836,365.826,757.61Z"/>
      <path d="M448.3,749.31c-.442,3.369-2.509,1.2-4.3,1.92,1.229.538,1.982.87,2.736,1.2a2.88,2.88,0,0,1,2.038,3.244c-.222,1.523-1.334,2.359-3.179,2.466-2.171.127-2.885-.123-4.408-1.56.843-3.286,3.242.143,4.923-1.323-.872-.335-1.55-.6-2.234-.858-1.96-.728-2.746-1.8-2.488-3.41s1.642-2.661,3.657-2.509A18.937,18.937,0,0,1,448.3,749.31Z"/>
      <path d="M285.939,751.524c.819.31,1.657.577,2.453.938,1.385.629,2.28,1.646,1.965,3.263a2.771,2.771,0,0,1-2.968,2.375,10.653,10.653,0,0,1-3.331-.477,1.906,1.906,0,0,1-1.022-1.541c.182-.85.926-1.227,1.915-.789a12.831,12.831,0,0,0,2.1.55l.235-.686c-.771-.317-1.541-.639-2.315-.951a2.938,2.938,0,0,1,.97-5.713,7.643,7.643,0,0,1,2.837.476c.432.165.641.916.951,1.4a5.882,5.882,0,0,1-1.711.864,6.716,6.716,0,0,1-1.987-.312Z"/>
      <path d="M411.064,756.548c.772-3.187,3.1.2,4.641-1.292-.9-.378-1.664-.688-2.42-1.021-1.7-.747-2.322-1.831-1.961-3.48.355-1.618,1.513-2.223,3.053-2.309a4.064,4.064,0,0,1,3.675,1.423c-.4,2.9-2.66.484-4.323,1.522,1.1.395,1.814.63,2.511.909,1.728.693,2.551,1.872,2.342,3.312-.228,1.564-1.42,2.452-3.395,2.529C413.057,758.225,412.533,758.025,411.064,756.548Z"/>
      <path d="M433.1,756.5c.322-.853.661-1.652,1.882-1.289.805.24,1.62.448,2.43.67l.256-.681c-.759-.317-1.521-.626-2.276-.954-1.747-.759-2.394-1.82-2.076-3.425.325-1.644,1.5-2.26,3.015-2.363a4.222,4.222,0,0,1,3.777,1.23c-.34,3.049-2.526.862-3.8,1.189l-.094.579c.679.271,1.36.54,2.039.814,1.866.754,2.564,1.858,2.256,3.564-.271,1.5-1.309,2.23-3.274,2.3C435.107,758.222,434.6,758.024,433.1,756.5Z"/>
      <path d="M460.4,753.16a4.291,4.291,0,0,1,2.335-4.1,5.3,5.3,0,0,1,5.164-.045c.442.233.616.973.913,1.48a7.814,7.814,0,0,1-1.755.884c-.42.1-1-.417-1.391-.293-.788.248-1.888.583-2.139,1.183a3.15,3.15,0,0,0,.308,2.639c.376.524,1.517.543,2.336.681.268.045.633-.4.882-.341a12.793,12.793,0,0,1,1.806.728c-.263.531-.386,1.268-.812,1.557a4.915,4.915,0,0,1-5.133.222C461.119,756.881,460.381,755.293,460.4,753.16Z"/>
      <path d="M273.217,753.574c1.07-1.983,1.79-3.513,2.725-4.9.195-.29,1.185-.042,2.28-.042a49.11,49.11,0,0,1-3.622,8.954,1.548,1.548,0,0,1-2.641-.308c-1.236-2.734-2.308-5.542-3.477-8.4,1.761-.719,2.789-.459,3.337,1.159C272.179,751.1,272.64,752.13,273.217,753.574Z"/>
      <path d="M353.994,751.412c0,1.654.009,3.268,0,4.881-.007.846-.063,1.689-1.216,1.743-1.295.062-1.419-.823-1.423-1.787-.006-1.544,0-3.088,0-4.735a5.879,5.879,0,0,1-1.661-.562c-.45-.339-1.022-.947-.978-1.381a1.721,1.721,0,0,1,1.283-1.04,33.959,33.959,0,0,1,5.133-.013,2.161,2.161,0,0,1,1.617,1c.355.978-.384,1.44-1.336,1.551A13.368,13.368,0,0,0,353.994,751.412Z"/>
      <path d="M485.563,751.383c-.792-.181-1.294-.15-1.552-.387a10.032,10.032,0,0,1-1.172-1.533c.478-.329.938-.908,1.436-.943a37.737,37.737,0,0,1,5.122,0c.514.034,1,.578,1.492.888a9.8,9.8,0,0,1-1.114,1.578c-.246.24-.757.208-1.535.389,0,1.569.012,3.166,0,4.763-.01.92-.041,1.894-1.326,1.9s-1.324-.978-1.339-1.892C485.544,754.608,485.563,753.076,485.563,751.383Z"/>
      <path d="M240.5,751.461c0,1.648.008,3.265,0,4.882-.007.874-.171,1.666-1.29,1.693s-1.329-.746-1.359-1.629c-.028-.815-.01-1.632-.028-2.447-.028-1.344.345-2.885-1.78-3.1-.277-.028-.7-.907-.634-1.326a1.5,1.5,0,0,1,1.064-.982,35.028,35.028,0,0,1,5.132-.025c.549.042,1.051.695,1.574,1.068a12.979,12.979,0,0,1-1.315,1.431A4.6,4.6,0,0,1,240.5,751.461Z"/>
      <path d="M255.515,755.591a15.876,15.876,0,0,1,3.145.286c.459.142.747.832,1.112,1.276a12.7,12.7,0,0,1-1.226.918c-.184.109-.479.036-.723.035-5.932-.035-5.13.582-5.2-4.988-.01-.816-.025-1.633.01-2.447.041-.954-.139-2.106,1.333-2.149,1.617-.047,1.5,1.2,1.533,2.238C255.552,752.289,255.515,753.822,255.515,755.591Z"/>
      <path d="M369.23,755.6c1.1.073,1.888.124,2.68.178s1.785-.077,1.817,1.106c.037,1.38-1.079,1.21-1.938,1.209-6.062-.008-5.148.557-5.232-4.93a14.837,14.837,0,0,1,.013-1.956c.121-1.025-.509-2.584,1.278-2.647,1.833-.065,1.31,1.5,1.363,2.53C369.286,752.534,369.23,753.982,369.23,755.6Z"/>
      <path d="M345.089,753.277a18.9,18.9,0,0,1,.062-3.419c.095-.514.871-1.262,1.324-1.252a1.859,1.859,0,0,1,1.348,1.246,54.774,54.774,0,0,1,0,6.852,1.868,1.868,0,0,1-1.348,1.254c-.45.011-1.224-.745-1.319-1.263A19.07,19.07,0,0,1,345.089,753.277Z"/>
      <path d="M217.209,753.277c0-1.058-.012-2.115,0-3.172.013-.9.3-1.769,1.363-1.516a1.982,1.982,0,0,1,1.22,1.4,53.274,53.274,0,0,1,0,6.578,1.986,1.986,0,0,1-1.222,1.406c-1.065.247-1.344-.628-1.359-1.526C217.2,755.391,217.209,754.334,217.209,753.277Z"/>
      <path d="M491.905,753.294q0-1.587,0-3.175c0-.9.243-1.778,1.322-1.538a1.974,1.974,0,0,1,1.231,1.387,53.6,53.6,0,0,1,0,6.586,1.991,1.991,0,0,1-1.2,1.424c-1.065.26-1.348-.594-1.351-1.51C491.9,755.41,491.906,754.352,491.905,753.294Z"/>
      <path d="M472.891,753.2a26.22,26.22,0,0,1-.058,3.658,1.682,1.682,0,0,1-1.212,1.108,1.647,1.647,0,0,1-1.236-1.059c-.114-2.438-.1-4.887,0-7.326a1.459,1.459,0,0,1,1.068-.972c.5.053,1.3.541,1.359.936a24.585,24.585,0,0,1,.065,3.655Z"/>
      <path d="M281.579,753.085a27.393,27.393,0,0,1-.054,3.661c-.065.474-.734.865-1.128,1.3-.435-.464-1.215-.905-1.246-1.393a55.258,55.258,0,0,1-.015-6.6,1.967,1.967,0,0,1,1.136-1.452c1.105-.257,1.3.688,1.332,1.553.032.977.007,1.957.007,2.936Z"/>
      <path d="M294.023,753.274a24.452,24.452,0,0,1-.052,3.427c-.068.483-.695.887-1.069,1.326-.469-.437-1.314-.851-1.343-1.316a55.877,55.877,0,0,1,0-6.86c.028-.464.871-.879,1.338-1.316.377.435,1.009.833,1.078,1.312A24.15,24.15,0,0,1,294.023,753.274Z"/>
      <path d="M333.343,753.258c0,1.058.007,2.115,0,3.173-.007.9-.258,1.78-1.331,1.548a1.976,1.976,0,0,1-1.236-1.389,53.355,53.355,0,0,1-.006-6.583,1.992,1.992,0,0,1,1.2-1.419c1.056-.263,1.365.575,1.37,1.5C333.347,751.142,333.342,752.2,333.343,753.258Z"/>
      <path d="M569.2,429.273l4.559-.4a7.349,7.349,0,0,0-.135-1.494c-4.771-15.015-7.982-30.4-10.81-45.869-1.662-9.087-3.016-18.233-4.329-27.378a26.939,26.939,0,0,1,.909-11.171c1.951-6.985,5.042-13.487,7.877-20.106,1.192-2.784,2.34-5.594,3.341-8.45a42.387,42.387,0,0,1,20.1-23.576c5.928-3.3,12.1-6.163,18.159-9.235a41.347,41.347,0,0,0,6.277-3.327,22.917,22.917,0,0,1,14.3-4.376c12.769.044,25.542.132,38.3.527,7.1.22,14.225.664,21.124,2.727a39.644,39.644,0,0,1,11.7,5.559,3.124,3.124,0,0,1,1.54,3.713,16.832,16.832,0,0,0,.473,9.908,2.111,2.111,0,0,1-.582,2.657,7.13,7.13,0,0,0-2.715,5.182c-.239.173-.379.361-.5.349-3.522-.351-5.455,1.937-7.488,4.273a8.186,8.186,0,0,1-3.683,2.591,3.727,3.727,0,0,0-2.68,2.464,36.071,36.071,0,0,1-3.029,5.6,15.627,15.627,0,0,1-3.453,3.39c-.925.7-1.615,1.353-1.555,2.559.245,4.926-2.465,8.311-5.885,11.336a9.443,9.443,0,0,0-2.087,2.047c-2.169,3.775-5.825,4.418-9.638,4.776a26.735,26.735,0,0,0-2.695.078,9.386,9.386,0,0,0-3.358,1.091c-2.587,1.729-5.518,1.918-8.434,2.3a19.959,19.959,0,0,0-4.821.8,52.611,52.611,0,0,0-6.016,3.357l-3.407-1.617a10.1,10.1,0,0,0-.943,1.007,7.456,7.456,0,0,1-8.195,3.153c-3.019-.624-5.919-1.813-8.888-2.7a9.816,9.816,0,0,0-2.786-.5c-2.927.015-5.854.126-8.778.253a15.925,15.925,0,0,0-4.562.446,4.161,4.161,0,0,1-4.352-.575,2.78,2.78,0,0,0-3.57-.233,5.278,5.278,0,0,1-4.953.438c-1.644-.686-2.413.046-2.959,1.508-.941,2.522-2.163,4.96-2.879,7.541a25.838,25.838,0,0,0-.548,5.841c-.249,6.377-.53,12.755-.622,19.135a22.747,22.747,0,0,0,4.994,14.58,74.848,74.848,0,0,1,4.813,7.388,6.378,6.378,0,0,1-.046,7.2c-.871,1.329-.757,2.218.633,3.249,2.461,1.826,2.642,2.538,1.484,5.444-1.781,4.468-3.2,8.986-2.388,13.852.582,3.468,1.537,6.875,2.091,10.347a74.427,74.427,0,0,1,.7,8.287,2.114,2.114,0,0,1-.9,1.723,2.157,2.157,0,0,1-1.98-.484,9.9,9.9,0,0,1-1.491-3.241c-.89-3.3-1.432-6.714-2.509-9.95a18.49,18.49,0,0,0-8.084-10.472A55.55,55.55,0,0,1,569.2,429.273ZM624.226,327.1a10.956,10.956,0,0,0-7.958,2.017c-3.03,2.211-5.951,4.573-8.9,6.853C612.764,335.122,619.72,331.554,624.226,327.1Z"/>
      <path d="M716.7,427.026a21.955,21.955,0,0,1,2.565,2.394,13.994,13.994,0,0,1,2.208,3.628c.4,1.059-.266,1.749-1.558,1.894-4.807.54-5.875,1.741-5.771,6.6a27.745,27.745,0,0,0,.672,5.584c.616,2.691,1.906,3.458,4.675,3.076.888-.123,1.752-.42,2.637-.577.677-.12,1.37-.147,2.056-.215l.385.52c-.652.969-1.108,2.2-1.994,2.856A49.712,49.712,0,0,1,715,457.645a43.286,43.286,0,0,1-7.7,2.483c-1.713.46-2.378,1.535-1.935,3.067a17.481,17.481,0,0,0,1.887,3.911,31.653,31.653,0,0,1,2.252,3.814c-4.644-1.6-8.1-5.131-12.733-7.539.1,2.869,2.519,4.365,2.8,6.85l-1.7,1c.327,1.78,1.588,2.9,2.918,3.983,1.258,1.02,2.511,2.045,3.952,3.219l-1.715,1.542c.566.914,1.194,1.848,1.74,2.826a31.081,31.081,0,0,1,1.9,3.71c.776,1.977.284,2.813-1.791,3.437-.7.212-1.417.382-2.118.6-.136.042-.23.217-.693.68,1.272,2.277,2.461,4.779,3.991,7.051,1.964,2.915,4.22,5.634,6.32,8.459a23.423,23.423,0,0,1,4.4,19.254,38.9,38.9,0,0,0-.5,8.744c.05,1.369.963,2.735,1.608,4.042a1.8,1.8,0,0,0,2.408,1.094c1.136-.4,2.208-.856,2.194-2.281-.026-2.616-.125-5.232-.183-7.848a82.949,82.949,0,0,1-.1-9.56,17.657,17.657,0,0,1,2.052-6.207,3.292,3.292,0,0,0-.122-3.839c-.566-.8-1.167-1.583-1.7-2.408a8.259,8.259,0,0,1-1.486-6.715,8.509,8.509,0,0,0-.486-4.511,51.148,51.148,0,0,0-2.8-5.726c-.957-1.9-2.075-3.737-2.841-5.71-1.667-4.3-.552-7.752,3.349-10.174a4.778,4.778,0,0,0,2.581-4.032c.487-4.968,2.711-8.881,7.67-10.767,2.258-.859,2.8-.673,3.071,1.7.283,2.512.335,5.055.386,7.586.076,3.713.27,7.346,2.5,10.583a4.748,4.748,0,0,1,.344,2.829,134.57,134.57,0,0,0,.285,27.942c.57,4.519-.254,8.793-.865,13.157a18.414,18.414,0,0,0-.213,4.149,13.587,13.587,0,0,0,.99,3.026l.864-.1c.334-2.462.721-4.918.981-7.387.128-1.215-.065-2.463.05-3.681a8.384,8.384,0,0,1,.7-2.272c1.071-2.631,2.48-5.167,3.2-7.888,1.093-4.1,1.646-8.348,2.572-12.5.421-1.886.941-3.831,3-5.287A9.016,9.016,0,0,1,747.5,494.2a26.565,26.565,0,0,1,.936,6.294c-.467,12.272-.934,24.554-5.3,36.273a102.752,102.752,0,0,1-11.715,22.08c-2.726,3.99-5.546,7.916-8.211,11.945a16.591,16.591,0,0,0-1.6,3.793c-.663,1.932-1.2,3.908-1.832,5.85a1.84,1.84,0,0,1-2.014,1.4q-10.677-.24-21.355-.358c-5-.048-10-.139-14.987.066-7.418.3-13.8-2.237-19.626-6.559-3.9-2.894-7.935-5.637-12.682-6.846-5.781-1.472-10.023-5.012-13.811-9.324a79.951,79.951,0,0,1-13.712-23.133,10.757,10.757,0,0,1-.325-1.507,5.635,5.635,0,0,1,3.295,2.918c1.008,1.775,1.752,3.7,2.7,5.506,1.215,2.311,2.476,4.6,3.821,6.837a4.346,4.346,0,0,0,1.76,1.659c1.949.9,3.253,2.024,3.638,4.377.279,1.705,2.121,1.9,3.445.53a20.172,20.172,0,0,0,1.749-2.437c2.082.932,3,2.852,4.206,4.421,2,2.594,3.84,5.307,5.69,8.009a5.194,5.194,0,0,0,4,2.4c3.895.468,7.757,1.225,11.627,1.895,4.547.787,8.62-.09,12.063-3.313a5.056,5.056,0,0,1,.939-.534c.221.287.417.519.585.77s.32.537.46.774a2.309,2.309,0,0,0,.82-.012c1.841-.879,3.67-1.784,5.5-2.694a1.989,1.989,0,0,0,.586-.439c1.6-1.792,1.049-7.891-.816-9.442a3.145,3.145,0,0,0-3.424-.38,15.879,15.879,0,0,1-12.625-.938,2.946,2.946,0,0,1-.615-.4,2.635,2.635,0,0,1-.343-.49c1.581-2.31,3.184-4.655,4.789-7a2.239,2.239,0,0,1,2.568-.9c6.482,1.251,11.516-1.313,15.607-6.136,1.707-2.013,2.082-4.154,1.428-6.984-1.91.136-1.538,2.046-1.941,2.537-5.75,1.087-11.034,2.058-16.3,3.093-3.434.675-6.655-.108-9.856-1.216-2.937-1.016-5.849-2.133-8.841-2.958-2.325-.641-4.668-.722-6.626,1.286a2.354,2.354,0,0,1-3.094.453,4.759,4.759,0,0,1,5-4.445c3.9-.167,7.827.05,11.742.128,3.679.073,7.362.312,11.036.209a11.877,11.877,0,0,0,4.452-1.257c3.059-1.413,4.283-5.239,3.1-9.187-.917-3.049-3.037-5.2-5.466-7.074s-2.491-2.2-.358-4.494a31.843,31.843,0,0,0,2.841-3.05,25.66,25.66,0,0,0,1.81-3.628c2.009.074,3.972.318,4.811,2.569a7.681,7.681,0,0,0,5.853-8.794c-.831-4.281-4.351-7.018-8.432-6.557-.082.01-.161.034-.242.046-3.676.5-4.092,1.287-2.485,4.61.757,1.567,1.919,3.049,1.255,5.178a6.362,6.362,0,0,1-4.017-5.3,28.814,28.814,0,0,1-.546-5.854c.246-7.818-.871-15.509-1.8-23.231-.644-5.344-1.412-10.7-.834-16.128a17.374,17.374,0,0,1,2.56-8.109,3.326,3.326,0,0,0,.371-3.853,7.722,7.722,0,0,1-.664-1.845c-.624-2.449-.232-3.014,2.022-4.161s4.429-2.468,6.573-3.817a20.409,20.409,0,0,1,8.826-3.506,4.918,4.918,0,0,0,4.231-3.215c.456-.959.906-1.924,1.419-2.853a3.906,3.906,0,0,1,2.841-2.09,5.61,5.61,0,0,0,2.683-1.514,7,7,0,0,1,8.187-1.774c4.666,1.818,7.823,7.817,6.719,12.7a1.585,1.585,0,0,1-2.133,1.385c-.761-.144-1.544-.178-2.316-.261Q716.891,426.617,716.7,427.026Zm-19.9,18.942a9.677,9.677,0,0,0-2.346.2,2.964,2.964,0,0,0-1.655,1.209,5.269,5.269,0,0,0,2.124,6.242c2.86,1.691,5.839,1.041,8.823.36,2.122-.485,2.179-2.444,2.936-3.908.262-.508.461-1.049.714-1.563.568-1.152.166-1.832-.979-2.279-.845-.331-1.638-.791-2.454-1.194q.015-.292.032-.585c.772-.369,1.521-.8,2.322-1.093a31.634,31.634,0,0,0,3.489-1.143c.619-.311,1.391-1.151,1.378-1.737a8.089,8.089,0,0,1,2.476-5.943,8.557,8.557,0,0,0,.974-1.728c-1.483-1.018-2.595-2.431-4.7-1.96a6.071,6.071,0,0,0,.012,1.284c.844,3.5-1.9,6.834-5.108,7.445a10.751,10.751,0,0,1-9.019-2.019c-.426-.325-.909-.574-1.345-.846-2.1,2.556-1.98,4.015.367,5.866C695.849,443.385,696.977,444.121,696.793,445.968Zm9.274,106.743a38.314,38.314,0,0,0-.574-4.333c-.149-.6-.8-1.068-1.23-1.6-.483.452-1.236.822-1.405,1.371-1.008,3.276-3.559,4.516-6.563,5.173-1.273.278-2.594.337-3.874.591-1.57.312-2.077,1.5-1.331,2.922a3.2,3.2,0,0,0,3.07,1.622c2.439.1,4.891.13,7.311.413,1.975.231,2.93.037,3.645-1.839A26.262,26.262,0,0,0,706.067,552.711Zm-15.161-27.133c2.181.605,3.768-.2,5.318-1.107,2.193-1.283,4.38-2.5,7.045-2.572.5-.013,1.471-.9,1.4-1.169a16.534,16.534,0,0,0-1.618-3.967c-.168-.29-1.381-.318-1.852-.034-2.3,1.382-4.541,2.858-6.729,4.406C692.972,522.194,691.383,523.253,690.906,525.578Zm15.257,8.414a7.443,7.443,0,0,0,1.073-2.171,2.085,2.085,0,0,0-.728-1.7c-1.422-.829-3.671-.166-4.971,1.315C702.512,533.175,704.339,533.357,706.163,533.992Z"/>
      <path d="M729.685,318.574c-1.9,2.289-1.351,5.095.067,7.881.882,1.73,1.874,3.405,3.019,5.471l-4.448.759c1.568,3.531,2.751,7.009,6.35,8.8a3.385,3.385,0,0,1,2.212,2.9,12.352,12.352,0,0,0,1.276,3.143,26.715,26.715,0,0,1,1.389,3.377c.362,1.342.02,2.333-1.656,2.649-1.6.3-2.026,1.192-1.324,2.653a10.676,10.676,0,0,0,2.039,2.723,6.572,6.572,0,0,1,2.134,5.764,10.481,10.481,0,0,0,3.461,9.708c2.178,2.086,2.555,5.014,2.927,7.9a38.111,38.111,0,0,0,1.384,7.192c.963,2.88,1.861,3.038,4.438,1.479,3.476-2.1,6.566-1.547,9.1,1.638,3.638,4.569,4.408,13.6,1.581,18.7a8.49,8.49,0,0,1-.794,1.012c-2.242-.852-1.739-4.229-4.735-4.67a18.274,18.274,0,0,0,.129,2.568c.951,4.9,2.111,9.766,2.888,14.693.654,4.153.655,8.338-1.514,12.2-1.243,2.215-2.33,2.393-4.175.6-.91-.884-1.8-1.786-2.789-2.765-1.569,1.55-1.5,3.159-1.356,4.775.244,2.685.585,5.363.732,8.052a4.845,4.845,0,0,1-.686,2.535,2,2,0,0,1-1.613.717c-.387-.03-.856-.69-1.041-1.166a2.814,2.814,0,0,1-.114-1.69c1.2-4.146-.379-8.354.381-12.572a10.979,10.979,0,0,0-1.348-6.348c-2.744-5.427-2.118-10.556.418-15.783a61.667,61.667,0,0,0,2.69-6.847,15.85,15.85,0,0,0,.31-3.3c-1.439.733-2.321,1.272-3.27,1.631-.644.244-1.587.539-2.023.25-.409-.271-.462-1.287-.437-1.966.08-2.2.361-4.4.369-6.6a11.941,11.941,0,0,0-.726-2.9,3.207,3.207,0,0,0-2.689,2.712c-.458,1.65-.706,3.357-1.07,5.034-.354,1.632-.515,3.351-2.073,5.054-.23-1.374-.391-2.294-.537-3.217-.825-5.232-2.94-10.034-4.906-14.893-1.2-2.957-2.285-5.962-3.3-8.985a19.348,19.348,0,0,1-.689-9.221,23.273,23.273,0,0,0-.976-10.646c-1.187-3.808-2-7.731-2.977-11.605-.638-2.539-1.212-5.1-1.918-7.615a14.033,14.033,0,0,1-.242-8.221c.392-1.231-.087-1.911-.967-2.722-4.843-4.46-9.216-9.315-12.1-15.324a29.021,29.021,0,0,1-2.247-19.6c.442-1.918.967-2.328,2.9-1.989,3.28.574,6.3,1.472,7.911,4.923a82.541,82.541,0,0,0,4.275,7.45c1.351,2.241,2.828,4.406,4.152,6.661a12.517,12.517,0,0,1,.974,2.682C728.834,315.457,729.164,316.722,729.685,318.574Z"/>
      <path d="M613.719,458.262a16.367,16.367,0,0,1,2.832-9.893c-1.379-1.027-2.769-.7-4.089-.422a5.306,5.306,0,0,1-4.033-.273,1.952,1.952,0,0,0-1.849.466c-.3.393-.132,1.321.093,1.913a21.652,21.652,0,0,0,1.526,2.727,3.787,3.787,0,0,1-3.7-1.679c-1.327-1.753-2.686-3.49-3.875-5.334a2.19,2.19,0,0,1,.012-1.976,23.846,23.846,0,0,1,2.876-3.3c1.608-1.609,3.231-3.212,4.968-4.674a3.667,3.667,0,0,1,2.372-.83c4.4.319,8.795.739,13.18,1.225,2.381.264,4.591.394,6.884-.85a7.853,7.853,0,0,1,4.736-.5,37.629,37.629,0,0,1,6.042,1.968c1.21.426,2.4.915,3.722,1.424.374-.8.637-1.383.911-1.956.684-1.429,1.448-1.55,2.568-.416a3.609,3.609,0,0,1,.8,3.658c-.3,1.185-1.183,1.038-2.168.828a5.668,5.668,0,0,0-1.923.278,6.473,6.473,0,0,0,.494,2.453c.473.686,1.47.988,2.166,1.548a8.86,8.86,0,0,1,2.081,2c.769,1.239.318,2.2-1.1,2.6a17.29,17.29,0,0,1-2.9.463c-1.26.132-2.224.572-2.4,1.98s.262,2.474,1.756,2.757c1.185.224,1.788.853,1.588,2.017a76.242,76.242,0,0,1-1.75,8.847c-.394,1.325-1.763,2.36-2.69,3.526l-.783-.326a8.63,8.63,0,0,1,.131-1.9c.175-.615.695-1.132.866-1.747a2.847,2.847,0,0,0,.007-1.806c-.115-.25-1.022-.262-1.536-.175-1.046.177-2.057.558-3.1.73a13.577,13.577,0,0,1-2.183.023l-.221-.728c.719-.578,1.4-1.2,2.164-1.721.741-.5,1.6-.841,2.333-1.348a2.588,2.588,0,0,0,.971-3.633,16.417,16.417,0,0,1-2.072-6.479c-.127-1.847-3.353-3.494-5.035-2.686a3.06,3.06,0,0,0-1.232,1.835c-.284,1.007-.21,2.11-.417,3.147a4,4,0,0,1-4,3.6,11.4,11.4,0,0,1-7.106-1.374c-2.026-1.175-2.064-1.143-3.432.888C617.156,456.7,616.145,458.275,613.719,458.262Z"/>
      <path d="M618.566,525.849a20.512,20.512,0,0,1-3.045-3.222c-2.454-4.045-4.739-8.193-7.053-12.321-2-3.563-3.93-7.16-5.919-10.728a8.632,8.632,0,0,0-6.909-4.487,26.142,26.142,0,0,1-4.571-.879c-1.875-.586-3.656-1.438-3.967-4.089.857.06,1.553.116,2.25.158a37.158,37.158,0,0,0,3.909.2c2.4-.111,3-.789,3.008-3.171.007-4.417-.03-8.835-.03-13.252,0-.877.081-1.753.154-3.2.771.821,1.21,1.221,1.569,1.683,2.056,2.644,4.132,5.274,6.11,7.975a4.287,4.287,0,0,1,.912,2.4,15.754,15.754,0,0,0,2.094,7.733,16.273,16.273,0,0,1,1.721,9.922,15.279,15.279,0,0,0,1.478,7.55c1.565,3.576,3.772,6.87,5.665,10.306,1.241,2.251,2.7,4.423,3.1,7.027Z"/>
      <path d="M651.6,494.531a3.18,3.18,0,0,1,.274,3.59c-1.566,3.771-3.239,7.5-4.937,11.212-1.02,2.231-2.238,4.373-3.234,6.614a21.4,21.4,0,0,0-1.4,14.608,48.775,48.775,0,0,1,1.365,7.479c.259,2.483-.19,4.848-2.494,6.388-.305-.242-.526-.33-.535-.437-.385-4.552-2.011-8.74-3.7-12.923a22.392,22.392,0,0,1-1.16-4.252,9.043,9.043,0,0,1,1.569-7.175,49.227,49.227,0,0,0,3.745-7.689c1.18-2.609,2.182-5.3,3.45-7.866a16.331,16.331,0,0,1,2.678-3.784c1.34-1.446,2.814-2.734,3.347-4.753C650.659,495.18,651.175,494.928,651.6,494.531Z"/>
      <path d="M694.541,366.358c2.324,1.878,2.6,4.076,2.9,6.219.4,2.828.665,5.673,1.026,8.507A7.738,7.738,0,0,0,701.2,386.4c.493.4,1.153.963,1.2,1.5.28,3.47,3.049,5.014,5.218,7.032a7.243,7.243,0,0,1,.676.7,3.532,3.532,0,0,1,.283.726c-.79.526-1.617,1.136-2.5,1.653a4.777,4.777,0,0,0-2.662,4.109c-.058,1.249-2.967,3.182-4.157,2.773-1.241-.427-.866-1.462-.516-2.255a36.08,36.08,0,0,1,1.87-3.258c-1.174-.14-1.933-.267-2.7-.315-2.967-.188-3.429-.629-3.351-3.522.107-4,.384-7.994.375-11.99-.011-4.652-.256-9.3-.389-13.954C694.52,368.705,694.541,367.815,694.541,366.358Z"/>
      <path d="M575.257,466.988a37.5,37.5,0,0,1,6.78,5.336c.295.288.279.911.372,1.386q.863,4.422,1.707,8.85c.059.305.1.614.187,1.142a3.615,3.615,0,0,1-2.946-2.019,57.638,57.638,0,0,1-3.338-6.252c-1.177-2.595-2.147-5.284-3.207-7.932Z"/>
      <path d="M671.773,525.566c-.424-3.058-.969-6-1.158-8.967a3.735,3.735,0,0,1,1.445-2.63c1.873-1.448,3.384-.837,3.942,1.466a11.014,11.014,0,0,1-.777,7.861A3.8,3.8,0,0,1,671.773,525.566Z"/>
      <path d="M574.485,452.409a2.5,2.5,0,0,1-.9-.02,5.5,5.5,0,0,1-1.249-.746c-2.188-1.7-4.126-3.313-3.832-6.7.179-2.071-1.006-4.243-1.459-6.394-.217-1.029-.908-2.463.654-2.93,1.43-.428,2.342.722,2.681,1.941a43.194,43.194,0,0,1,1.2,5.974c.4,3.072.614,6.172,3.2,8.454Z"/>
      <path d="M580.091,461.416c4.92,2.839,9.179,6.26,10.452,12.33-3.259-2.86-7.344-4.774-9.688-8.62a22.775,22.775,0,0,1-1.38-3.3Z"/>
      <path d="M665.723,513.489a2.464,2.464,0,0,0-3.065,1.745c-.366,1.033-1.121,1.856-2.448,1.339a2.756,2.756,0,0,1-1.519-3.249,3.829,3.829,0,0,1,5.548-2.11,11.132,11.132,0,0,1,1.622,1.684Z"/>
      <path d="M755.01,453.03c-.335-3.815,2.058-6.646,3.533-9.963,1.97,2.305,1.783,4.722-.146,6.361a9.016,9.016,0,0,0-1.279,2c-.449.68-.938,1.334-1.41,2Z"/>
      <path d="M729.32,441.9c-.114,1.518-.447,2.357-1.722,2.42-1.147.057-1.857-.348-2-1.593a29.92,29.92,0,0,1-.516-3.609c.008-.658.5-1.712.991-1.854a2.188,2.188,0,0,1,1.9.926A24.223,24.223,0,0,1,729.32,441.9Z"/>
      <path d="M752.282,459.847c-1.474.435-2.694.4-3.724-.659-1.1-1.132-1.294-3.017-.572-5.213C750.4,454.46,751.754,456.245,752.282,459.847Z"/>
      <path d="M653.8,495.608a5.518,5.518,0,0,1,.1,7.949C652.359,501.9,652.277,498.644,653.8,495.608Z"/>
      <path d="M659.455,540.71c-1.962.948-3.725.082-5.481-.331a1.457,1.457,0,0,1,1.142-2.117C656.586,537.883,658.385,538.877,659.455,540.71Z"/>
      <path d="M326.384,323.906c0,12.2.048,24.392-.044,36.588a25.234,25.234,0,0,1-.976,6.758,9.2,9.2,0,0,1-8.908,6.818,27.721,27.721,0,0,1-3.435-.018c-3.717-.29-6.7-1.91-8.038-5.485a21.875,21.875,0,0,1-1.612-7.355c-.116-24.882-.087-49.765-.039-74.649a20.247,20.247,0,0,1,.755-5.324c1.641-5.9,5.826-7.95,11.271-7.816,5.833.144,9.437,3.259,10.5,8.783a29.176,29.176,0,0,1,.508,5.358C326.4,299.678,326.384,311.792,326.384,323.906Z"/>
      <path d="M382.008,592.09c0-3.845-.028-7.689.012-11.533.023-2.27.285-2.508,2.577-2.541s4.581-.049,6.87.007c3.72.092,6.2,2.079,6.821,5.76a42.578,42.578,0,0,1,.317,6.35c.047,2.616.058,5.235,0,7.851-.107,4.427-2.61,7.507-6.984,8.162a62.815,62.815,0,0,1-7.823.29c-1.617.037-1.811-1.071-1.784-2.323,0-.082,0-.163,0-.245Q382.007,597.979,382.008,592.09Z"/>
      <path d="M435.44,608q0-13.617,0-27.234c0-2.682.112-2.77,2.744-2.8,1.472-.018,2.956.117,4.415-.025,6.049-.588,9.257,4.332,9.171,9.255-.219,12.673-.073,25.352-.073,38.028,0,1.391.023,2.781-.007,4.171-.108,4.932-3.109,8.153-8.018,8.49-1.954.135-3.924.076-5.886.041-2.174-.04-2.337-.2-2.342-2.444Q435.42,621.739,435.44,608Z"/>
      <path d="M230.553,581.724c1.731,12.2,3.462,24.395,5.231,36.867H224.719l5.172-36.8Z"/>
      <path d="M337.237,581.721l5.253,36.99c-3.71.249-7.156.087-11.105.087,1.743-12.528,3.447-24.771,5.15-37.014Z"/>
      <path d="M376.015,500.529c0-3.354-.022-6.709.008-10.063.02-2.14.157-2.287,2.175-2.329,1.963-.041,3.933-.1,5.889.032,3.925.254,6.13,2.571,6.191,6.492s.061,7.855,0,11.781a6.718,6.718,0,0,1-6.687,6.732c-1.717.054-3.436.039-5.154.01-2.264-.037-2.392-.143-2.414-2.347C375.99,507.4,376.015,503.965,376.015,500.529Z"/>
      <path d="M328.3,500.663c0-3.429-.028-6.859.011-10.287.024-2.058.185-2.2,2.274-2.241,1.877-.038,3.76-.083,5.632.021,4.023.222,6.291,2.581,6.349,6.608.055,3.837.068,7.676,0,11.512a6.847,6.847,0,0,1-6.816,6.9c-1.631.059-3.266.036-4.9.012-2.392-.035-2.519-.142-2.54-2.48C328.279,507.358,328.3,504.01,328.3,500.663Z"/>
      <path d="M421.707,514.429c0-6.786-.035-13.573.013-20.36.031-4.5,3.093-7.283,7.575-7.024a6.467,6.467,0,0,1,6.113,5.12,21.374,21.374,0,0,1,.464,4.376q.054,18.03.007,36.06a21.949,21.949,0,0,1-.345,3.651,6.945,6.945,0,0,1-13.8-.973c-.077-6.949-.022-13.9-.022-20.85Z"/>
      <path d="M379.892,423.258c0-2.862-.031-5.725.011-8.586.03-2.037.21-2.193,2.293-2.246,1.471-.038,2.946-.055,4.415.013,3.286.152,5.254,1.822,5.462,5.124a87.556,87.556,0,0,1,0,10.782c-.193,3.174-2.384,5.2-5.586,5.531-1.619.165-3.267.047-4.9.071-1.276.018-1.706-.677-1.7-1.858.023-2.944.008-5.888.008-8.831Z"/>
      <path d="M476.866,423.079c0-2.777.041-5.553-.015-8.328-.034-1.647.615-2.42,2.309-2.344,1.63.072,3.273-.067,4.9.067,3.359.277,5.011,2.029,5.08,5.393q.1,5.019,0,10.042c-.079,3.56-2.229,5.765-5.8,6.013-1.462.1-2.938,0-4.407.039-1.451.042-2.076-.633-2.063-2.064.028-2.939.009-5.879.009-8.818Z"/>
      <path d="M251.711,434.819c0-6.465-.011-12.93.006-19.4.008-2.886.171-3.027,3.075-3.051,1.145-.01,2.294-.041,3.436.029a5.893,5.893,0,0,1,5.719,5.883c.074,2.289.022,4.582.023,6.874,0,8.593.045,17.186-.046,25.778a10.265,10.265,0,0,1-1.022,4.195,4.477,4.477,0,0,1-4.19,2.541q-1.965.028-3.928.019c-3.022-.014-3.064-.04-3.069-2.986Q251.7,444.763,251.711,434.819Z"/>
      <path d="M420.293,435q0-9.828,0-19.657c0-2.945.033-2.959,3.059-2.976.983,0,1.967-.02,2.949.01,3.746.115,6.105,2.4,6.223,6.168.088,2.782.026,5.569.026,8.353,0,8.027.059,16.054-.054,24.079a10.6,10.6,0,0,1-1.182,4.395,4.331,4.331,0,0,1-4.076,2.3c-1.474.012-2.949.035-4.422.01-2.344-.039-2.508-.178-2.517-2.535-.024-6.225-.009-12.449-.01-18.674Z"/>
      <path d="M349.353,443.337c-2.288,0-4.073.017-5.858-.009-.638-.009-1.274-.12-2.317-.225,1.282-9.064,2.544-17.985,3.805-26.906l.577-.02Z"/>
      <path d="M210.936,713.349c-3.739-.03-3.739-.03-3.7-3.79.026-2.795.094-2.874,2.888-2.89a21.91,21.91,0,0,1,3.172.1,3.2,3.2,0,0,1,2.98,3.291,3.346,3.346,0,0,1-2.9,3.152A18.919,18.919,0,0,1,210.936,713.349Z"/>
      <path d="M487.856,715.243c1.037-2.53,1.883-4.592,2.729-6.654l.67-.078c.885,2.1,1.77,4.19,2.843,6.732Z"/>
      <path d="M371.237,713.866a19.959,19.959,0,1,1-20.04-19.949A20.129,20.129,0,0,1,371.237,713.866Zm-25.517,12.98,15.708-12.3-15.708-13.4Z"/>
    </g>
  </g>
</svg>
