<svg xmlns="http://www.w3.org/2000/svg" viewBox="0 0 1000 1000">
  <title>Telluride</title>
  <g id="Telluride">
    <g>
      <path d="M164.871,556.729c-1.082,3.242-2.175,6.48-3.242,9.727q-3.107,9.454-6.193,18.916c-.2.607-.426,1.205-.653,1.8a3.821,3.821,0,0,1-3.857,2.67c-1.519.007-3.039.04-4.557.01-2.911-.059-3.85-.663-4.79-3.415-1.758-5.142-3.423-10.317-5.12-15.48q-2.21-6.72-4.409-13.444c-.093-.282-.126-.634-.571-.723a6.356,6.356,0,0,0-.147,2.314q-.019,13.192-.012,26.385c0,.64.017,1.281-.01,1.919-.084,2.053-.354,2.4-2.388,2.428-3.757.058-7.515.044-11.273.017-2.638-.019-2.783-.181-2.785-2.94q-.012-23.028,0-46.055c0-1.839-.032-3.679.017-5.517.052-1.962.278-2.223,2.25-2.233q9.714-.051,19.429,0c2.569.017,3.556.739,4.368,3.276,1.512,4.719,2.921,9.471,4.364,14.211.862,2.83,1.688,5.67,2.574,8.491A3.014,3.014,0,0,0,148.913,561a9.4,9.4,0,0,0,1.134-2.955q3.014-10.486,6.015-20.976c.95-3.3,1.814-3.961,5.285-3.972q9.115-.03,18.23,0c2.446.009,2.661.2,2.663,2.558q.025,25.906,0,51.812c0,2.086-.266,2.35-2.372,2.375-3.917.047-7.836.042-11.753.006-2.446-.022-2.722-.3-2.728-2.818-.024-9.2-.013-18.39-.015-27.585v-2.616Z"/>
      <path d="M746.992,556.41a4.656,4.656,0,0,0-.278,2.519q-.026,13.2-.011,26.393c0,.72.027,1.443-.023,2.159-.114,1.637-.364,1.924-2.047,1.978-2.077.068-4.158.027-6.237.029-1.76,0-3.521.032-5.279-.014-2.037-.055-2.267-.322-2.346-2.425-.015-.4-.007-.8-.007-1.2q0-24.474,0-48.947c0-3.691.007-3.7,3.727-3.7,5.678,0,11.357-.014,17.035.006,3.339.012,4.014.391,5.06,3.605,1.755,5.4,3.34,10.85,5,16.279.723,2.371,1.433,4.746,2.174,7.111.135.428.133.98.925,1.228a15.9,15.9,0,0,0,1.406-3.917c1.953-6.761,3.868-13.531,5.811-20.294.964-3.353,1.79-4,5.251-4.01q9-.034,18,0c2.583.009,2.8.2,2.8,2.694q.024,25.433,0,50.867c0,2.492-.24,2.694-2.793,2.71-3.6.023-7.2.017-10.8,0-3.022-.011-3.147-.121-3.151-3.075-.013-9.118,0-18.235-.017-27.353a5.09,5.09,0,0,0-.32-2.689,4.437,4.437,0,0,0-1.174,2.4q-4.244,12.871-8.454,25.754c-.124.38-.241.763-.37,1.141-1.191,3.466-1.672,3.809-5.363,3.822-1.36,0-2.724-.07-4.078.013-2.121.13-3.278-.973-3.9-2.837q-1.827-5.46-3.634-10.927c-1.973-6-3.925-12.006-5.9-18C747.827,557.244,747.81,556.606,746.992,556.41Z"/>
      <path d="M358.65,560.818c0-8.016,0-15.767,0-23.517,0-.8.021-1.6.019-2.4,0-1.165.529-1.788,1.734-1.788q6.715.006,13.429,0a1.506,1.506,0,0,1,1.7,1.58c.04.718.051,1.438.051,2.157q0,24.582,0,49.165c0,3.838-.011,3.843-3.883,3.85-2.638,0-5.279-.067-7.914.015a8.934,8.934,0,0,1-8.516-4.713c-4.887-8.066-9.885-16.065-14.843-24.089-.537-.868-1.1-1.719-1.8-2.8a4.505,4.505,0,0,0-.317,2.338q-.018,12.709-.011,25.421c0,.64.027,1.282-.018,1.918-.106,1.5-.346,1.845-1.891,1.868q-6.473.1-12.949,0c-1.611-.024-1.879-.4-2.011-2.052-.051-.635-.028-1.278-.028-1.917q0-24.463,0-48.925c0-3.831.007-3.833,3.831-3.836,3.678,0,7.358.089,11.032-.021,3.867-.117,6.461,1.585,8.364,4.893,4.1,7.136,8.359,14.186,12.565,21.263A2.923,2.923,0,0,0,358.65,560.818Z"/>
      <path d="M565.142,560.553q0-9.827,0-19.653c0-1.919-.041-3.84.027-5.756.06-1.7.324-2,1.975-2.024q6.474-.077,12.951,0c1.532.018,1.778.334,1.913,1.85.057.635.031,1.279.031,1.918q0,24.585,0,49.171c0,3.757-.035,3.79-3.688,3.8-2.559.008-5.12-.079-7.675.02-4.079.158-6.949-1.49-9.071-5.04-4.84-8.095-9.887-16.066-14.854-24.085-.374-.6-.78-1.187-1.307-1.985a4.608,4.608,0,0,0-.376,2.675q-.029,11.992-.013,23.986c0,.64.015,1.28-.01,1.919-.087,2.158-.352,2.466-2.574,2.492-3.837.046-7.675.037-11.513.011-2.692-.019-2.86-.191-2.864-2.871q-.018-14.033,0-28.064V537.094c0-.639-.021-1.281.017-1.918.1-1.721.316-2.037,1.946-2.052,4.716-.045,9.435-.058,14.15.029a7.107,7.107,0,0,1,6.268,3.787c3.048,5.162,6.13,10.3,9.2,15.454q2.5,4.188,5,8.37Z"/>
      <path d="M308.95,554.5c0,5.277.009,10.554,0,15.83a41.844,41.844,0,0,1-1.011,9.278c-1.185,5.173-5.053,9.54-11.356,9.987-5.2.368-10.385.209-15.575.25a101.482,101.482,0,0,1-11.975-.307c-5.725-.629-9.132-3.807-10.771-9.132a32.242,32.242,0,0,1-1.226-9.242c-.1-11.752-.067-23.5-.063-35.257,0-2.654.168-2.8,2.912-2.807q6.115-.026,12.232,0c2.547.015,2.742.194,2.747,2.73.019,10.314.006,20.627.013,30.941,0,1.439-.026,2.883.089,4.315.207,2.59,1.193,3.626,3.762,3.723,2.874.109,5.759.113,8.631-.013,2.459-.108,3.388-1.115,3.617-3.6.109-1.191.086-2.4.087-3.6q.009-15.231,0-30.461c0-.72-.03-1.443.029-2.158.125-1.524.369-1.839,1.9-1.856q6.955-.075,13.911,0c1.805.019,2.043.326,2.054,2.428.03,5.836.012,11.673.013,17.509q0,.72,0,1.439Z"/>
      <path d="M594.535,561.385V537.641c0-.479-.006-.959,0-1.439.057-2.732.289-2.989,3.067-2.992q19.306-.02,38.613,0c.48,0,.96.018,1.438.047a1.411,1.411,0,0,1,1.468,1.547q.027,4.916,0,9.831a1.485,1.485,0,0,1-1.655,1.623c-.64.014-1.279.033-1.918.034q-9.834,0-19.667,0c-.639,0-1.279.017-1.918.025-1.046.013-1.672.489-1.677,1.585-.01,2.558-.064,5.117.02,7.672.045,1.35.415,1.608,2.1,1.63,3.517.046,7.035.018,10.553.022,1.279,0,2.559-.032,3.836.018,1.823.072,2.134.332,2.172,2.089q.09,4.076.006,8.154c-.035,1.871-.333,2.157-2.332,2.18-4,.046-8,.016-11.992.019-.719,0-1.44-.022-2.158.013-1.912.092-2.2.335-2.222,2.3-.044,4.316-.017,8.634-.02,12.951,0,.8.027,1.6-.018,2.4-.1,1.781-.359,2.092-2.152,2.12-3.517.054-7.035.022-10.553.024-.879,0-1.76.022-2.638-.009-2.026-.072-2.267-.326-2.352-2.432-.025-.638-.009-1.279-.009-1.918Z"/>
      <path d="M409.168,533.09q10.912,0,21.826,0c.639,0,1.279.022,1.918.017,1.166-.007,1.793.527,1.793,1.729,0,3.357.051,6.716-.014,10.072-.029,1.547-.38,1.825-2.145,1.851-3.437.05-6.875.013-10.312.024-4.668.015-4.317-.387-4.32,4.223q-.009,17.388,0,34.777c0,.639.02,1.28-.012,1.918-.09,1.795-.324,2.11-2.133,2.132q-6.714.084-13.43.009c-2.064-.021-2.31-.3-2.322-2.429-.029-5.676-.012-11.352-.012-17.028q0-9.834,0-19.667c0-.56.013-1.12-.006-1.679-.07-2.026-.214-2.218-2.2-2.243-3.277-.04-6.555-.012-9.833-.015-.8,0-1.6.032-2.4-.024-1.547-.108-1.888-.36-1.915-1.843-.062-3.356-.011-6.714-.014-10.072,0-1.2.624-1.732,1.789-1.732,1.759,0,3.518-.019,5.276-.02Q399.934,533.086,409.168,533.09Z"/>
      <path d="M679.405,561.191V537.207c0-.56-.016-1.12.008-1.679.085-1.975.313-2.222,2.216-2.31.877-.041,1.758-.015,2.638-.015,3.118,0,6.236-.01,9.354,0,3.027.014,3.143.116,3.146,3.072q.018,14.391,0,28.782c0,2.958-.024,5.916.012,8.874.028,2.249.234,2.467,2.5,2.476,6.635.026,13.271.01,19.907.013.719,0,1.439.017,2.158.024,1.042.011,1.7.487,1.7,1.572q.031,4.916,0,9.831a1.488,1.488,0,0,1-1.672,1.61c-.64.008-1.279.027-1.918.027q-18.23,0-36.457,0c-3.588,0-3.6-.01-3.6-3.592Q679.4,573.544,679.405,561.191Z"/>
      <path d="M515.32,561.659v23.962c0,.639.019,1.279-.013,1.917-.1,1.908-.371,2.24-2.268,2.3-2.395.07-4.792.029-7.188.03-2.077,0-4.155.039-6.23-.025-1.82-.056-2.063-.343-2.161-2.106-.026-.478-.011-.958-.011-1.437q0-24.8,0-49.6c0-3.594.008-3.6,3.56-3.6q5.391-.008,10.782,0c3.517,0,3.524.01,3.526,3.648Q515.325,549.2,515.32,561.659Z"/>
      <path d="M648.7,561.318q0-11.879,0-23.756c0-.56-.009-1.12,0-1.68.055-2.412.248-2.638,2.589-2.668,2.64-.035,5.279-.012,7.919-.01,1.76,0,3.521-.041,5.278.029,1.53.061,1.784.352,1.921,1.858.051.555.026,1.119.026,1.679q0,24.476,0,48.951c0,3.759-.008,3.763-3.675,3.767s-7.359.013-11.038,0c-2.848-.013-3.012-.164-3.017-2.97Q648.687,573.916,648.7,561.318Z"/>
      <path d="M780.022,494.838h-102.2c-.8,0-1.6.025-2.4,0-1.272-.037-2.208.293-2.278,1.8-.056,1.209-.763,1.673-1.929,1.553-1.184-.122-1.342-.976-1.35-1.9-.018-2.079-.015-4.158,0-6.238,0-.943.2-1.766,1.378-1.876s1.854.367,1.914,1.573c.069,1.345.869,1.766,2.08,1.743.879-.017,1.759.008,2.638.008q102.324,0,204.648,0c.959,0,1.921,0,2.876.065.984.066,1.366.7,1.358,1.63a1.392,1.392,0,0,1-1.408,1.588c-.877.052-1.758.053-2.637.053Q831.364,494.841,780.022,494.838Z"/>
      <path d="M219.828,494.81H117.859c-.72,0-1.44.011-2.16,0-2.108-.044-2.614-.355-2.644-1.605-.031-1.3.493-1.665,2.527-1.715.8-.019,1.6-.006,2.4-.006h203.7c.88,0,1.761.02,2.639-.01,1.8-.061,1.867-.056,2.323-1.951a1.565,1.565,0,0,1,1.887-1.356c1.019.061,1.386.711,1.393,1.605.019,2.318.023,4.637-.016,6.955a1.373,1.373,0,0,1-1.53,1.468,1.529,1.529,0,0,1-1.716-1.286c-.555-2.056-.6-2.079-2.7-2.085-6.958-.018-13.916-.009-20.874-.009Z"/>
      <path d="M508.22,490.44c0,1.76-.067,3.522.012,5.278.281,6.2-4.174,10.178-11.091,9.083-3.825-.606-5.948-2.82-6.482-6.677-.684-4.933-.264-9.9-.269-14.853,0-1.408.6-1.818,1.976-1.815,1.348,0,1.837.41,1.858,1.882.053,3.678.022,7.358.03,11.037,0,.879-.032,1.764.056,2.636a4.227,4.227,0,0,0,4.211,4.077c4.115.292,5.956-1.341,6.033-5.52.074-4,0-8,.041-12,.017-1.634.386-2.029,1.64-2.1,1.342-.076,1.92.37,1.956,1.77.064,2.4.018,4.8.018,7.2Z"/>
      <path d="M392.383,492.776c0-2.876-.026-5.754.008-8.63.029-2.374.3-2.676,2.593-2.711,2.876-.044,5.753-.017,8.629.015.922.01,1.756.2,1.86,1.4.115,1.326-.306,1.946-1.692,2.015-1.755.087-3.516.014-5.273.057-1.991.05-2.148.23-2.223,2.229-.01.24-.005.48-.005.72,0,2.882.058,2.94,2.94,2.963,1.2.009,2.4-.037,3.595.041,1.36.089,1.722.515,1.715,1.762-.008,1.208-.382,1.64-1.774,1.72-1.514.087-3.037,0-4.553.069-1.569.07-1.861.309-1.894,1.828-.119,5.517-.2,4.655,4.278,4.724,1.278.019,2.558.005,3.835.051,1.117.04,1.483.752,1.479,1.772,0,1.049-.455,1.69-1.554,1.694q-5.154.022-10.308,0c-1.44,0-1.643-1.009-1.645-2.133q-.009-4.8,0-9.59Z"/>
      <path d="M627.983,492.948c0-3.04-.026-6.08.009-9.12.025-2.11.252-2.356,2.356-2.392,2.879-.051,5.76-.025,8.639,0,.88.008,1.807.021,2.048,1.2.276,1.344-.278,2.172-1.7,2.237-1.836.083-3.679,0-5.518.055-1.947.053-2.134.276-2.211,2.274-.136,3.528-.042,3.624,3.5,3.635,1.119,0,2.239.018,3.359.029,1.092.01,1.577.6,1.607,1.654.034,1.226-.357,1.758-1.659,1.834-1.6.094-3.2.01-4.8.067-1.726.062-1.921.268-2,1.956a24.979,24.979,0,0,0,.006,2.639c.1,1.629.345,1.888,2.053,1.943,1.918.062,3.842-.018,5.758.068,1.358.062,1.726.533,1.733,1.758.007,1.048-.428,1.7-1.533,1.709q-5.04.022-10.078,0c-1.284-.006-1.569-.866-1.568-1.944q.006-4.8,0-9.6Z"/>
      <path d="M364.739,481.44c2.316,0,4.633-.019,6.949.011.805.01,1.611.112,1.9,1.1a1.636,1.636,0,0,1-1.558,2.319c-.713.069-1.436.033-2.155.037-3.236.022-3.251.026-3.259,3.164-.01,4.154,0,8.307,0,12.461,0,.559.013,1.119-.009,1.677-.076,1.919-.414,2.31-1.947,2.291-1.467-.018-1.9-.454-1.933-2.363-.059-3.674-.024-7.349-.03-11.023,0-1.438.041-2.878-.029-4.312-.077-1.542-.338-1.775-1.868-1.875-.8-.052-1.6-.006-2.4-.024-2.1-.048-2.518-.329-2.561-1.671-.047-1.427.442-1.78,2.672-1.81,2.076-.028,4.153-.006,6.23-.006Z"/>
      <path d="M458.19,492.937c0-3.111-.009-6.221,0-9.332,0-1,.15-1.916,1.426-2.12,1.614-.257,2.394.3,2.412,2.019.047,4.546.022,9.092.024,13.638,0,3.959-.223,3.844,3.739,3.838,1.275,0,2.551.012,3.827.038,1.078.022,1.568.6,1.573,1.67,0,1.249-.347,1.768-1.666,1.8q-4.782.1-9.569.011c-1.412-.028-1.72-.382-1.751-1.988C458.148,499.318,458.191,496.127,458.19,492.937Z"/>
      <path d="M425.978,493.006c0-3.118-.036-6.237.015-9.355.028-1.686.5-2.158,1.862-2.181,1.255-.022,1.749.369,1.912,1.623a15.092,15.092,0,0,1,.059,1.916c0,4.478-.016,8.956.013,13.433.016,2.3.216,2.482,2.441,2.527,1.6.033,3.2-.03,4.8.036,1.523.063,1.964.528,1.942,1.809-.021,1.206-.4,1.654-1.806,1.682q-4.677.092-9.355,0c-1.541-.031-1.835-.381-1.865-2.137C425.939,499.244,425.978,496.125,425.978,493.006Z"/>
      <path d="M564.692,492.915c0-3.107-.04-6.216.016-9.323.03-1.695.644-2.217,2.144-2.125,1.019.062,1.652.513,1.7,1.6.017.4.043.8.043,1.194q0,8.727,0,17.452c0,.4-.022.8-.036,1.195-.042,1.229-.766,1.619-1.894,1.616-1.1,0-1.908-.312-1.94-1.565-.039-1.593-.04-3.187-.046-4.78-.007-1.753,0-3.506,0-5.26Z"/>
      <path d="M219.612,589.9c-4.577-.215-9.213.216-13.847-.373a11.762,11.762,0,0,1-9.488-6.828c-1.888-3.7-2.525-7.732-3-11.793a78.861,78.861,0,0,1,.845-24.351,32.982,32.982,0,0,1,1.345-4.6c1.934-5.5,5.835-8.56,11.656-8.748,8.314-.269,16.641-.3,24.954,0,6.244.227,10,3.395,12.083,9.566a39.9,39.9,0,0,1,1.773,8.195,87.837,87.837,0,0,1-.5,24.143,24.216,24.216,0,0,1-2.879,8.352,11.533,11.533,0,0,1-8.754,6.013C229.1,590.152,224.377,589.7,219.612,589.9Zm8.05-39.108c-.327-3.335-1.014-4.023-4.317-4.054q-3.718-.036-7.438,0c-3.216.029-4.038.8-4.33,4.083-.156,1.751-.259,3.507-.383,5.262a101.661,101.661,0,0,0,.474,16.524c.259,2.8,1.011,3.332,3.9,3.36q4.079.039,8.158,0c2.92-.031,3.655-.7,3.908-3.629a128.755,128.755,0,0,0,.027-21.544Z"/>
      <path d="M481.566,589.853c-2.4,0-4.8-.029-7.2.011a2.335,2.335,0,0,1-2.589-1.949c-.714-2.621-1.522-5.216-2.289-7.823-.608-2.064-.744-2.225-2.769-2.242q-6.238-.049-12.477,0c-2.051.018-2.271.186-2.866,2.174-.758,2.527-1.407,5.086-2.15,7.617-.585,1.992-.8,2.186-2.84,2.2q-6.6.058-13.2,0c-2.136-.023-2.361-.366-1.667-2.47q4.7-14.24,9.447-28.461,3.486-10.469,7-20.928.3-.91.646-1.807a4.943,4.943,0,0,1,4.971-3.429c2.159-.017,4.318-.019,6.478-.022,2.4,0,4.8-.015,7.2,0,3.961.029,5.185.892,6.5,4.709,1.4,4.084,2.744,8.189,4.108,12.286q6.141,18.436,12.274,36.874c1.033,3.108.926,3.242-2.335,3.263-2.08.014-4.159,0-6.239,0Zm-21.578-39.644c-1.292,4.349-2.6,8.694-3.841,13.059-.346,1.217-.054,1.578,1.3,1.635,1.988.083,3.983.077,5.972.019,1.475-.043,1.653-.278,1.231-1.792-1.174-4.219-2.416-8.419-3.637-12.624-.086-.3-.165-.62-.529-.722A.538.538,0,0,0,459.988,550.209Z"/>
      <path d="M590.056,492.958c0-3.038-.026-6.076.009-9.114.025-2.13.24-2.35,2.336-2.41a47.234,47.234,0,0,1,5.035.029c4.623.362,8.167,2.567,9.78,6.949,1.628,4.425,1.393,8.841-1.926,12.609a10.486,10.486,0,0,1-7.425,3.448c-1.91.133-3.837.1-5.753.038-1.771-.053-2.011-.308-2.039-2.194-.046-3.118-.012-6.237-.012-9.355Zm3.647,6.036c.006.813.066,1.588,1.07,1.891,2.613.789,6.847-.7,8.224-3.125a9.058,9.058,0,0,0,.12-9.146c-1.572-2.9-4.424-3.719-7.547-3.675-1.491.021-1.807.326-1.856,1.856-.063,1.991-.015,3.986-.016,5.98C593.7,494.848,593.688,496.921,593.7,498.994Z"/>
      <path d="M529.253,492.884c0-2.958-.036-5.916.009-8.874.035-2.236.321-2.522,2.479-2.576a49.4,49.4,0,0,1,5.033.051c3.5.272,5.632,1.909,6.463,4.788.848,2.939-.179,5.621-2.957,7.726-1.355,1.027-1.381,1.045-.453,2.411,1.257,1.851,2.576,3.66,3.834,5.511.424.623,1.142,1.3.248,2.073a2.264,2.264,0,0,1-3.032-.056,10.32,10.32,0,0,1-.862-1.15c-1.444-2.014-2.878-4.034-4.329-6.043-.461-.637-.889-1.491-1.867-1.164s-.766,1.3-.786,2.062c-.042,1.6.022,3.2-.042,4.8-.066,1.646-.419,2.02-1.687,2.064-1.426.049-1.863-.386-2.029-2.027a4.783,4.783,0,0,1-.02-.479Q529.254,497.44,529.253,492.884Zm3.766-3.812c.04,2.615.582,3.079,3.164,2.618,1.459-.26,2.834-.738,3.332-2.337a3.041,3.041,0,0,0-.693-3.323c-.977-.941-3.878-1.518-4.985-.939-1.2.626-.689,1.813-.816,2.785a3.629,3.629,0,0,0,0,.478C533.018,488.594,533.015,488.833,533.019,489.072Z"/>
      <path d="M846.709,533.09q15.591,0,31.182,0a18.355,18.355,0,0,1,2.394.076,4.013,4.013,0,0,1,3.682,3.791,15.617,15.617,0,0,1,.042,1.677q0,22.787,0,45.574a13.963,13.963,0,0,1-.05,1.676,4.263,4.263,0,0,1-3.679,3.864,16.953,16.953,0,0,1-2.631.109q-30.942.009-61.884,0c-.32,0-.64,0-.959,0-3.834-.069-5.395-1.589-5.4-5.413q-.034-16.429-.01-32.86,0-6.237,0-12.473c.007-4.867,1.178-6.021,6.134-6.023Q831.118,533.083,846.709,533.09Zm5.183,14.181c1.7,3.254,3.354,6.532,5.072,9.776.789,1.491,2.055,1.883,4.095,1.482,1.638-.322,1.275-1.624,1.288-2.665.046-3.513.021-7.026.015-10.539a14.551,14.551,0,0,0-.08-1.671c-.086-.719-.459-1.2-1.253-1.143a1.057,1.057,0,0,0-1.017,1.119c-.043.555-.05,1.116-.046,1.674.021,2.954.061,5.907.068,8.861,0,.515.219,1.132-.439,1.5-.895-.289-1.019-1.166-1.367-1.836-1.546-2.975-3.049-5.972-4.57-8.96-1.27-2.5-1.839-2.783-4.474-2.509-1.05.109-1.63.534-1.629,1.628,0,4.391,0,8.782.01,13.172,0,.835.374,1.359,1.3,1.359s1.289-.546,1.277-1.371c-.023-1.515-.052-3.031-.156-4.542a54.114,54.114,0,0,1-.045-7.8A5.083,5.083,0,0,1,851.892,547.271Zm24.746,19.648a3.117,3.117,0,0,0-2.958-2.385c-2.712-.094-5.43-.13-8.142-.069-1.408.032-1.64.364-1.665,2.049-.047,3.194-.021,6.389-.02,9.584q0,1.557.026,3.115c.013.721.3,1.254,1.094,1.3a1.219,1.219,0,0,0,1.473-1.2c.066-.874.046-1.755.092-2.632.034-.643.066-1.419.83-1.558a9.114,9.114,0,0,1,5.411.2c1.473.651,1.444,2.159,1.533,3.522.01.159.02.319.038.478.081.733.44,1.2,1.227,1.17s1.079-.589,1.112-1.3c.1-2.111.277-4.259-2.267-5.261C876.994,571.744,877.589,569.686,876.638,566.919Zm-32.692,5.432c0-1.434.107-2.878-.028-4.3a3.622,3.622,0,0,0-2.821-3.46,14.91,14.91,0,0,0-7.8.065,3.393,3.393,0,0,0-2.566,2.852,26.625,26.625,0,0,0,.061,9.749,3.288,3.288,0,0,0,2.533,2.878,16.066,16.066,0,0,0,7.116.2c2.287-.532,3.281-1.57,3.515-3.925.133-1.341.024-2.707.024-4.062Zm.478-25.95a3.937,3.937,0,0,0-3.991-3.97,36.6,36.6,0,0,0-5.491-.012c-2.342.164-3.367,1.167-3.811,3.546a26.378,26.378,0,0,0,.064,9.272,3.432,3.432,0,0,0,2.712,2.984,14.764,14.764,0,0,0,7.1.083c2.27-.521,3.2-1.653,3.418-4.02.116-1.264.02-2.548.021-3.822C844.446,549.107,844.549,547.743,844.424,546.4Zm2.668,30.14a3.728,3.728,0,0,0,3.277,3.829,17.843,17.843,0,0,0,5.722.158c3.022-.306,4.205-1.616,4.266-4.693.06-3.032.019-6.065.014-9.1a7.087,7.087,0,0,0-.091-1.192,1.038,1.038,0,0,0-1.154-.965,1,1,0,0,0-1.007.855,9.542,9.542,0,0,0-.142,1.663c-.016,2.075,0,4.15-.01,6.226-.014,4.754-1.283,5.831-5.939,5.043-.157-.027-.316-.048-.47-.087a2.075,2.075,0,0,1-1.76-1.989c-.053-.8-.051-1.6-.055-2.393-.013-2.633-.012-5.267-.03-7.9-.006-.8-.274-1.427-1.2-1.477-1.035-.056-1.427.553-1.433,1.487-.012,1.756,0,3.512,0,5.267S847.005,574.79,847.092,576.541Zm-25.554-3c0,1.836-.013,3.672,0,5.507.008.791.27,1.463,1.215,1.438s1.12-.743,1.151-1.511c.021-.559.024-1.118.025-1.676.006-2.874-.035-5.749.028-8.621.043-1.911.343-2.145,2.276-2.289.636-.048,1.277-.047,1.9-.143a.853.853,0,0,0,.045-1.678,5.269,5.269,0,0,0-1.181-.142q-4.311-.016-8.621,0a4.974,4.974,0,0,0-.952.087c-.517.1-.886.394-.845.971a.84.84,0,0,0,.775.782c.551.08,1.112.082,1.669.12,2.174.147,2.4.368,2.462,2.606.039,1.516.008,3.033.008,4.55Zm49.352-23.5c-.056,1.023-1.329,1.138-1.9,2.482,2.185-1.381,3.328-.636,4.176,1.16.1-2.156,1.478-2.594,3.383-2.885-2.608-.3-2.422-2.022-2.115-4.214-1.436,2.59-1.436,2.59-4.513,1.024C870.018,548.578,870.941,549.124,870.89,550.046ZM821.4,547.41c.032-.114-.1-.274-.161-.413-.133.071-.353.114-.386.217-.54,1.688-1.856,1.626-3.352,1.2.559,2.2,2.83,2.649,3.321,4.69,1.01-1.758,1.01-1.758,3.4-2.868C822.057,549.963,820.852,549.371,821.4,547.41Zm-3.611,4.69a.553.553,0,0,0-.387.137c-.066.073-.023.244-.029.372l.553-.139C818.025,552.238,817.971,552.105,817.792,552.1Zm53.366,20.6c2.364-.083,3.178-.9,3.174-3.194,0-2.16-.781-2.964-3.036-3.106-.636-.039-1.276-.028-1.915-.018-2.678.043-2.842.209-2.869,2.864-.034,3.4.025,3.457,3.449,3.456C870.36,572.7,870.76,572.715,871.158,572.7Zm-29.838-.325c0-1.195.026-2.39-.009-3.584a2.028,2.028,0,0,0-1.146-1.959,7.61,7.61,0,0,0-5.593-.106,1.852,1.852,0,0,0-1.2,1.4,19.5,19.5,0,0,0,0,8.523c.453,1.941,2.224,1.784,3.725,1.781,1.58,0,3.3.132,4.036-1.782a4.347,4.347,0,0,0,.2-1.409c.029-.956.009-1.912.009-2.868Zm.523-21.885c0-.717.008-1.434,0-2.152-.044-3.212-.921-4.069-4.166-4.06a8.619,8.619,0,0,0-1.428.1,2.784,2.784,0,0,0-2.7,2.843c-.135,1.423-.084,2.866-.082,4.3.006,4.493.927,5.316,5.417,4.874.159-.016.319-.021.476-.048a2.474,2.474,0,0,0,2.408-2.508c.108-1.105.021-2.229.021-3.345Z"/>
    </g>
  </g>
</svg>
