<svg id="Play" xmlns="http://www.w3.org/2000/svg" viewBox="0 0 1000 1000">
  <defs>
    <style>
      .cls-1 {
        fill: #1d1d1d;
      }

      .cls-2 {
        fill: #fff;
      }
    </style>
  </defs>
  <title>play</title>
  <polygon class="cls-1" points="300 300 300 700 700 500 300 300"/>
  <path class="cls-2" d="M299.512,714.5a15,15,0,0,1-6.72-28.419L649.548,507.705a9.174,9.174,0,0,0,0-16.411L292.792,312.917a15,15,0,0,1,13.416-26.833L705.891,485.925a15.354,15.354,0,0,1,8.332,10.683,15.007,15.007,0,0,1-8.014,16.308l-400,200A14.931,14.931,0,0,1,299.512,714.5Z"/>
</svg>
