<svg id="Facebook" xmlns="http://www.w3.org/2000/svg" viewBox="0 0 1000 1000">
  <title>facebook</title>
  <path d="M228.863,745.554V254.939c4.741-12.626,13.561-21.173,26.05-26.05H745.528c20.541,7.408,25.685,22.662,25.608,43.4-.567,154.443-.3,308.889-.32,463.335,0,23.748-11.468,35.132-35.337,35.157q-59.138.06-118.275-.011c-3.852,0-7.7-.318-11.735-.5V562.062c20.061,0,39.517-.413,58.941.191,8.463.263,11.333-2.823,12.145-10.87,1.957-19.405,4.561-38.749,7.135-58.087,1.982-14.887,2.138-14.882-12.861-14.893-21.593-.015-43.186,0-65.311,0,0-22.243-1.06-43.176.353-63.941,1.034-15.192,10.124-22.515,25.741-24.636a177.774,177.774,0,0,1,20.52-1.388c11.507-.219,23.021-.06,36.151-.06,0-24.084.18-47.089-.332-70.078-.042-1.9-4.712-5.195-7.333-5.3-24.182-.974-48.5-3.133-72.561-1.587-44.766,2.876-78.416,32.432-86.389,76.631-4,22.185-2.978,45.289-4.04,67.986-.331,7.084-.052,14.2-.052,22.374-5.579,0-9.478,0-13.377,0-15.915.006-31.834.234-47.742-.084-6.933-.138-9.718,2.172-9.475,9.375.438,13.006.117,26.038.115,39.059,0,11.424,0,22.848,0,35.634h69.75v208.41h-13.4c-77.042,0-154.088-.47-231.122.312C251.612,771.315,236.226,766.23,228.863,745.554Z"/>
</svg>
