<svg id="Twitter" xmlns="http://www.w3.org/2000/svg" viewBox="0 0 1000 1000">
  <title>twitter</title>
  <path d="M175.6,707.844c71.229,3.276,135.378-13.882,195-56.969-61.136-5.345-102.236-34.5-124.519-90.384l56.265-3.323.542-3.938c-29.776-8.33-55.722-22.49-74.936-47.12-18.907-24.235-28.763-51.409-28.789-82.7l54.669,15.2,1.936-2.876c-57.518-48.873-72.179-106.69-40.685-174.14l4.752-2.465c10.6,11.24,20.643,23.079,31.9,33.622,65.188,61.066,142.582,95.29,231.321,104.438,8.436.87,9.415-2.14,8.655-9.508-6-58.211,15.4-104.33,65.406-134.246,48.968-29.3,98.751-25.852,146.542,5.272,2.076,1.352,4.5,2.574,5.9,4.489,10.8,14.781,24.643,14.192,39.631,8.193,19-7.6,37.968-15.26,57.985-23.31-7.99,28.745-26.48,49.617-49.732,67.133l1.223,3.351L824.4,300.729c-2.2,3.71-3.525,7.269-5.931,9.807-15.55,16.4-30.7,33.275-47.343,48.513-6.986,6.4-10.333,12.087-10.236,21.468.962,92.256-27.449,174.669-86.09,245.767-67.258,81.546-154,128.034-259.474,138.48-82.056,8.127-158.6-9.408-229.844-50.671-2.453-1.421-4.82-2.991-7.22-4.5C177.363,709.024,176.487,708.427,175.6,707.844Z"/>
</svg>
