<svg id="Layer_1" data-name="Layer 1" xmlns="http://www.w3.org/2000/svg" viewBox="0 0 392 220.285">
  <defs>
    <style>
      .cls-1 {
        fill: #fff;
      }
    </style>
  </defs>
  <title>logo2_wStudios</title>
  <g>
    <g>
      <path class="cls-1" d="M345.837,260.5c2.969,2.03,4.912,1.33,6.373-.208a54.728,54.728,0,0,0,4.869-6.276,45.145,45.145,0,0,0,2.328-4.12l1,.27a5.57,5.57,0,0,1-.038,2.157c-2.059,4.4-4.47,8.538-8.344,11.685a13.775,13.775,0,0,1-11.48,2.764,7.372,7.372,0,0,1-6.06-6.922,27.335,27.335,0,0,1,.827-7.15c3.593-14.3,7.324-28.561,10.978-42.843,1.032-4.032,1.96-8.091,3.065-12.674l-9.581-.424-.068-1.168c3.1-1.569,6.7-.061,10.389-1.049l6.082-23.427H367.5l-5.83,23.809h31.114c-.387,1.712-.63,2.919-.933,4.111-4.632,18.231-9.306,36.451-13.867,54.7a45.741,45.741,0,0,0-.738,6.623c2.866,2.357,5.03,1.557,6.634-.255a80.269,80.269,0,0,0,5.345-7.362c.663-.947,1.227-1.964,1.837-2.949l.888.349a5.2,5.2,0,0,1-.033,1.93,31.759,31.759,0,0,1-7.93,11.521,13.779,13.779,0,0,1-11.718,3.226,7.225,7.225,0,0,1-6.327-7.042,38.243,38.243,0,0,1,1.169-9.01c4.23-16.757,8.612-33.475,12.93-50.209.248-.962.382-1.954.635-3.281H360.924c-1.114,4.157-2.275,8.293-3.33,12.456-3.685,14.537-7.378,29.072-10.95,43.636A52.68,52.68,0,0,0,345.837,260.5Z" transform="translate(-54 -139.858)"/>
      <path class="cls-1" d="M128,216.692H98.079L66.113,263.583h11.8c-.755,1.135-1,1.827-1.249,1.829-6.781.059-13.563.047-20.536.047,1.018-1.5,1.018-1.5,7.331-2.234l84.128-123.368,1.2.434c-1.557,20.5-4.524,40.873-6.624,61.322s-4.634,40.864-7.027,61.73l8.142.388.223.865c-.63.384-1.258,1.1-1.889,1.1-9.279.047-18.558.007-27.838-.058-.392,0-.78-.452-1.562-.936,3.379-2.346,7.027-.265,10.575-1.769Zm5.839-50.888-.809-.4L99.958,213.968h28.319Z" transform="translate(-54 -139.858)"/>
      <path class="cls-1" d="M256.558,201.049l1.855-5.9h11.263c-1.6,6.442-3.085,12.593-4.661,18.721-3.447,13.409-6.964,26.8-10.393,40.213-.587,2.3-1.458,4.7.3,7.009,2.176,1.561,4.24.7,5.758-.91a55.293,55.293,0,0,0,5-6.664,34.548,34.548,0,0,0,1.922-3.586l.876.106c.082.7.44,1.51.2,2.07-1.9,4.476-4.277,8.632-8.126,11.811a13.9,13.9,0,0,1-11.455,2.894,7.481,7.481,0,0,1-6.271-7.124c-.062-.877-.009-1.762-.009-3.457-1.666,2.079-2.847,3.652-4.129,5.138-5.921,6.865-15.178,7.71-21.262,1.949a14.417,14.417,0,0,1-4.242-9.542,40.233,40.233,0,0,1,.074-9.124c1.861-13.15,5.183-25.912,11.357-37.76,2.815-5.4,6.633-10.132,12.65-12.066a29.579,29.579,0,0,1,10.059-1.252C251.606,193.749,254.439,196.58,256.558,201.049Zm-2.175,5.251-.471-.116c-.064-1.013-.06-2.036-.2-3.037-.9-6.18-6.737-8.8-11.94-5.3a10.385,10.385,0,0,0-2.956,2.919c-1.554,2.457-3.334,4.927-4.171,7.653-3.314,10.8-6.54,21.633-9.3,32.581a58.577,58.577,0,0,0-1.726,15.083c.1,6.537,5.834,9.024,11.271,5.285a11.559,11.559,0,0,0,3.044-2.844c1.776-2.615,3.811-5.21,4.864-8.129,2.537-7.034,4.851-14.176,6.73-21.411C251.468,221.507,252.79,213.868,254.383,206.3Z" transform="translate(-54 -139.858)"/>
      <path class="cls-1" d="M329.758,250.534c-1.151,7.077-9.661,17.793-18.514,16.486-5.051-.746-8.39-3.878-7.564-8.945.939-5.759,2.351-11.451,3.771-17.118,2.5-9.988,5.227-19.922,7.732-29.91a34.627,34.627,0,0,0,1.142-7.9c.05-3.945-2.682-6-6.605-5.272-3.3.612-5.707,2.66-7.743,5.193-4.486,5.583-6.79,12.136-8.53,18.971-3.575,14.042-7.238,28.06-10.876,42.086a10.341,10.341,0,0,1-.614,1.349H270.744l17.511-68.24-9.859-.61c2.533-1.925,16.421-2.389,21.9-1.126l-1.832,7.368c2.821-2.334,5.569-4.93,8.641-7.059a14.566,14.566,0,0,1,9.876-2.181c6.892.647,11.266,5.635,10.284,12.5a169.236,169.236,0,0,1-3.663,16.739c-2.637,10.608-5.434,21.176-8.117,31.772-.557,2.2-1.227,4.48.454,6.53,2.334,1.487,4.371.578,5.825-1.12,2.048-2.391,3.711-5.111,5.536-7.692.581-.821,1.153-1.649,1.728-2.474Z" transform="translate(-54 -139.858)"/>
      <path class="cls-1" d="M210.125,144.5h-9.379l-.182-.791c.516-.379,1.029-1.083,1.549-1.088,6.584-.075,13.169-.049,20.251-.049-.943,3.968-1.714,7.511-2.629,11.017q-8.566,32.807-17.182,65.6c-2.923,11.181-5.878,22.354-8.643,33.575a51.06,51.06,0,0,0-.791,7.7c3.048,2.326,5.179,1.214,6.728-.513a87.932,87.932,0,0,0,5.618-7.635c.541-.753,1.044-1.533,2.03-2.987.2,1.407.494,2.037.319,2.481-2.24,5.688-5.532,10.565-10.961,13.705-3.162,1.829-6.611,1.83-10,1.091a6.662,6.662,0,0,1-5.089-7.533A90.963,90.963,0,0,1,184.18,246c4.011-15.884,8.2-31.723,12.288-47.588q6.513-25.267,12.962-50.551C209.647,147.014,209.788,146.146,210.125,144.5Z" transform="translate(-54 -139.858)"/>
      <path class="cls-1" d="M164.829,197.2l-8.482-.486-.064-1.008c2.633-1.867,5.983-.008,9.247-1.326l6.215-23.279h11.331l-5.932,23.557,11.236.51-.006,1.037c-3.637,1.878-7.8-.075-11.906,1.2-.341,1.1-.8,2.387-1.145,3.711-4.5,17.48-9.014,34.956-13.419,52.46a44.349,44.349,0,0,0-.738,6.509c2.773,2.72,5.005,1.873,6.611.125a84.846,84.846,0,0,0,5.9-7.888c.548-.758.989-1.593,1.945-3.154.277,1.4.606,2,.448,2.422a28.4,28.4,0,0,1-7.978,11.894,14.067,14.067,0,0,1-10.556,3.486c-4.885-.321-8-3.165-7.576-8.1a85.961,85.961,0,0,1,2.612-13.434c3.818-15.16,7.778-30.284,11.677-45.424C164.441,199.283,164.558,198.535,164.829,197.2Z" transform="translate(-54 -139.858)"/>
      <path class="cls-1" d="M435.171,245.26l1.813,1.352c-2.625,6.9-6.082,12.958-12.077,17.367-6.846,5.036-20.8,4.452-25.388-5.559a14.7,14.7,0,0,1-1.6-5.806,107.746,107.746,0,0,1,.731-16.33,108.853,108.853,0,0,1,8.52-28.4c4.661-10.352,13.981-15.709,24.873-14.406,7.824.936,12.324,6.344,11.794,14.086-.182,2.656-1.233,4.91-3.806,5.568a6.586,6.586,0,0,1-4.916-.843c-2.125-1.545-2.416-4.024-1.408-6.557a27.51,27.51,0,0,0,1.456-4.328c.621-2.894-.537-4.6-3.425-5.372a7.986,7.986,0,0,0-9.322,3.454,34.035,34.035,0,0,0-3.247,6.452c-4.911,12.857-9.076,25.926-10.047,39.769a36.168,36.168,0,0,0,.352,8.717c1.5,8.506,9.525,11.226,15.957,5.323a46.209,46.209,0,0,0,6.332-8.008A61.5,61.5,0,0,0,435.171,245.26Z" transform="translate(-54 -139.858)"/>
      <path class="cls-1" d="M81.194,181.04H77.058l8.772-34.658-2.6-1.829h7.212l-3.173,13.423a29.994,29.994,0,0,1,3.841-1.69c3.51-.955,6.276,1.311,5.584,4.88-.868,4.481-2.265,8.857-3.357,13.3-.348,1.417-.452,2.894-.667,4.344l.847.54,3.46-3.12c-.029,3.788-2.7,5.7-7.21,4.922-1.988-1.6-1.326-3.693-.858-5.627.958-3.951,2.149-7.844,3.115-11.793a39.684,39.684,0,0,0,.6-4.746c-2.4-1.191-4.027-.431-4.776,1.34-1.619,3.828-3.009,7.763-4.293,11.719C82.615,174.926,82,177.912,81.194,181.04Z" transform="translate(-54 -139.858)"/>
      <path class="cls-1" d="M59.419,152.467l1.8-7.937H82.342l-2.131,8.3-1.134-.121v-6.733l-4.974-.4-8.745,33.7,3.131.916-.075.765a50.239,50.239,0,0,1-11.038.147l-.088-.879c.528-.165,1.051-.354,1.587-.488.478-.12.971-.178,1.771-.319l8.626-33.482c-6.117-1.3-7.153,3.425-9.091,6.975Z" transform="translate(-54 -139.858)"/>
      <path class="cls-1" d="M104.6,179c3.831.576,3.831.576,8.318-4.647.344,3.134-2.791,6.7-6.328,7.193-3.857.54-6.786-1.394-6.985-5.153a21.9,21.9,0,0,1,7.525-18.331c3.072-2.714,7.109-2.661,8.925-.37,1.773,2.236.866,6.3-2.377,8.625-2.848,2.037-6.047,3.583-9.6,5.643A7.379,7.379,0,0,0,104.6,179Zm9.022-20.882c-4.363-.514-8.076,4.406-8.36,10.717C110.564,167.293,113.736,163.325,113.617,158.115Z" transform="translate(-54 -139.858)"/>
      <path class="cls-1" d="M398.091,175.116c-.011,3.9-2.877,7.021-6.452,7.02a6.14,6.14,0,0,1-5.931-6.539c.057-3.871,3.019-7.1,6.484-7.061C395.541,168.571,398.1,171.426,398.091,175.116Z" transform="translate(-54 -139.858)"/>
    </g>
    <g>
      <path class="cls-1" d="M54,339.363H70.955c.434,4.434,2.434,8.086,9.824,8.086,5.13,0,8-2.522,8-6.174,0-3.825-2.347-4.869-9.825-6-17.562-2.087-23.475-7.3-23.475-19.823,0-11.217,9.216-19.389,24.084-19.389,14.954,0,23.388,6.26,24.518,19.389H87.561c-.608-4.434-3.13-6.695-8-6.695-4.782,0-7.216,2.173-7.216,5.3,0,3.478,1.912,5.043,9.651,6.086,15.736,1.74,23.822,5.825,23.822,19.3,0,11.39-9.042,20.692-25.04,20.692C63.39,360.142,54.522,352.84,54,339.363Z" transform="translate(-54 -139.858)"/>
      <path class="cls-1" d="M124.421,310.671H108.336V296.935h50.08v13.737H142.331V359.1h-17.91Z" transform="translate(-54 -139.858)"/>
      <path class="cls-1" d="M165.8,333.885V296.935h17.824V333.1c0,8.782,2.174,13.041,9.738,13.041,7.39,0,9.738-4,9.738-13.3V296.935h18v36.69c0,18.084-10.608,26.518-27.735,26.518C175.8,360.142,165.8,351.274,165.8,333.885Z" transform="translate(-54 -139.858)"/>
      <path class="cls-1" d="M232.655,296.935h22.605c22.084,0,33.3,11.042,33.3,30.344v.7c0,19.388-11.476,31.126-33.386,31.126H232.655Zm22,48.428c10.608,0,15.3-5.564,15.3-17.128v-.7c0-11.824-4.695-16.867-15.476-16.867h-3.913v34.691Z" transform="translate(-54 -139.858)"/>
      <path class="cls-1" d="M297.6,296.935h18V359.1h-18Z" transform="translate(-54 -139.858)"/>
      <path class="cls-1" d="M324.547,328.409v-.7c0-18.954,14.258-31.648,32.864-31.648,18.954,0,32.953,11.912,32.953,31.213v.7c0,19.127-13.129,32.168-33.214,32.168S324.547,347.1,324.547,328.409Zm47.21-.174v-.7c0-11.042-5.564-17.563-14.346-17.563s-14.258,6.348-14.258,17.65v.7c0,11.3,5.739,17.824,14.346,17.824C366.28,346.145,371.756,339.363,371.756,328.235Z" transform="translate(-54 -139.858)"/>
      <path class="cls-1" d="M394.182,339.363h16.954c.435,4.434,2.434,8.086,9.824,8.086,5.13,0,8-2.522,8-6.174,0-3.825-2.347-4.869-9.826-6-17.562-2.087-23.475-7.3-23.475-19.823,0-11.217,9.216-19.389,24.084-19.389,14.954,0,23.388,6.26,24.519,19.389h-16.52c-.608-4.434-3.129-6.695-8-6.695-4.782,0-7.216,2.173-7.216,5.3,0,3.478,1.912,5.043,9.65,6.086,15.737,1.74,23.823,5.825,23.823,19.3,0,11.39-9.042,20.692-25.04,20.692C403.571,360.142,394.7,352.84,394.182,339.363Z" transform="translate(-54 -139.858)"/>
    </g>
  </g>
</svg>
