<svg id="YouTube" xmlns="http://www.w3.org/2000/svg" viewBox="0 0 1000 1000">
  <title>youtube</title>
  <path d="M496.612,767.305c-37.347-.628-78.064-1.046-118.766-2.088-28.28-.724-56.589-1.614-84.791-3.7-27.843-2.063-55.862-4.1-83.276-9.068-41.824-7.577-67.222-34.046-76.993-75.261-5.974-25.2-8.907-50.9-10.191-76.715-1.826-36.706-3.529-73.441-4.049-110.181-.338-23.874,1.046-47.808,2.513-71.662,2.05-33.318,4.5-66.646,12.495-99.229,9.737-39.661,39.488-67.332,80.216-73.167,24.048-3.445,48.307-5.757,72.549-7.446,74.467-5.186,149.087-6.109,223.694-6.09,46.759.012,93.527,1.346,140.272,2.726,27.66.817,55.335,2.266,82.907,4.58,21.18,1.778,42.674,3.47,63.207,8.531,38.53,9.5,61.878,35.359,70.835,73.976,5.851,25.23,8.882,50.91,10.167,76.72,1.828,36.706,3.529,73.441,4.049,110.182.338,23.874-1.021,47.81-2.516,71.662-2.164,34.518-4.061,69.219-13.53,102.693-10.66,37.683-35.938,61.15-74.315,68.65-20.975,4.1-42.477,5.9-63.833,7.578C651.621,765.928,575.783,766.171,496.612,767.305ZM423.717,385.5V614.2L621.669,499.847Z"/>
</svg>
