<svg xmlns="http://www.w3.org/2000/svg" viewBox="0 0 1000 1000">
  <title>Digiday</title>
  <g id="DigiDay">
    <g>
      <path d="M167.3,459.3c-2.541,2.521-4.975,4.877-7.342,7.3-4.327,4.425-8.606,8.9-12.921,13.334-1.956,2.011-4.03,4.1-7.132,2.576-2.645-1.3-1.769-3.986-1.776-6.164q-.091-28.2-.059-56.394c0-15.606.029-31.212.006-46.818,0-2.462-.22-4.923-.345-7.53-6.237-1.691-11.808-.336-17.789.486,0,3.656,0,7.233,0,10.811q-.039,114.291-.086,228.583c0,2.06.337,4.3-.365,6.119a5.727,5.727,0,0,1-3.817,3.056c-.924.15-2.639-1.66-3.194-2.94-.594-1.37-.3-3.15-.3-4.751q0-120.489.017-240.977c0-.918-.03-1.837.008-2.754.209-5.02,1.175-6.153,6.017-6.256,6.652-.143,13.312-.186,19.964-.056,6.329.123,7.58,1.489,7.586,7.747q.046,48.538.056,97.078c0,2.211,0,4.422,0,7.34,4.549-4.364,8.315-7.959,12.061-11.575,1.485-1.434,2.878-2.966,4.4-4.363,4.115-3.787,5.75-3.895,10.041-.343,4.946,4.093,9.75,8.357,14.659,12.5,1.726,1.455,3.58,2.759,5.394,4.147,2.75-2.612,1.88-5.724,1.815-8.6-.1-4.575-.582-9.145-.6-13.718q-.1-30.983,0-61.966c.031-7.328.395-14.655.647-21.982.172-4.994,1.071-6.225,6.093-6.171,9.621.1,19.238.621,28.855,1,21.726.864,42.8,5.052,62.405,14.52,27.175,13.123,46.519,33.713,56.428,62.585,5.873,17.113,7.554,34.829,7.395,52.793A165.536,165.536,0,0,1,352.505,520c-3.851,18.708-11.051,35.789-23.261,50.647-11.609,14.126-26.128,24.065-42.893,31.175a148.666,148.666,0,0,1-54.572,12.039c-27.506.71-55.029.751-82.545,1.078-2.058.025-4.117.015-6.174.083-2.8.091-4.905-.859-5.969-3.776.506-2.637,2.49-3.594,4.892-3.872a42.209,42.209,0,0,1,4.815-.08c22.721,0,45.442.112,68.162-.028,22.606-.139,44.954-3.055,65.945-11.474,31.1-12.473,52.552-34.474,61.4-67.531a163.921,163.921,0,0,0,2.97-70.8c-2.457-14.422-6.982-27.845-14.61-40.37-9.2-15.107-21.736-26.465-37.178-34.783-15.738-8.478-32.671-13.2-50.342-15.1-11.128-1.2-22.34-1.63-33.518-2.346-2.249-.144-4.514-.021-7.49-.021-.306,3.265-.765,5.9-.768,8.536q-.044,45.441.027,90.88c0,4.589.117,9.191-.207,13.76a6.748,6.748,0,0,1-2.225,4.536c-1.892,1.381-3.788.1-5.482-1.358-7.291-6.285-14.658-12.48-22.015-18.687C170.261,461.49,168.969,460.581,167.3,459.3Z"/>
      <path d="M401.828,427.128V356.6c12.879.544,25.386-.922,37.891,1.033,18.581,2.9,28.834,15.406,28.533,35.042-.317,20.622-11.95,32.854-32.515,34.178-10.036.647-20.119.554-30.182.748A27.628,27.628,0,0,1,401.828,427.128Zm23.894-51.085c-1.488,6.562-1.379,26.033.221,31.461,6.2.307,12.761.379,16.162-5.914a19.861,19.861,0,0,0-.128-19.7C438.445,375.74,432.017,375.551,425.722,376.043Z"/>
      <path d="M616.414,356.762c13.474.174,26.523-1.293,39.429,1.15,20.15,3.815,28.02,17.927,26.9,37.651-.549,9.672-3.522,18.538-12.039,24.3a36.292,36.292,0,0,1-10.345,5.155c-14.332,3.955-28.976,2.5-43.946,2.442Zm23.564,50.663c6.682.367,13.158.566,16.753-5.6a19.525,19.525,0,0,0-.15-20.288c-3.57-5.98-10.039-6.037-16.6-5.353Z"/>
      <path d="M572.089,368.515,557.553,380.8a73.732,73.732,0,0,0-6.49-3.715c-11.838-5.306-21.675.7-22.326,12.317a33.007,33.007,0,0,0,.414,8.181,14.727,14.727,0,0,0,20.229,10.523c2.644-1.1,3.379-2.8,1.981-5.817l-9.5-.688V384.693h32.331a16.643,16.643,0,0,1,.641,3.2c.046,8.021-.078,16.044.053,24.064a7.512,7.512,0,0,1-3.034,6.478c-5.038,4.131-10.471,7.3-16.947,8.64-7.957,1.653-15.9,2-23.792-.016-17.57-4.478-26.216-17.246-26.289-34.793-.072-17.443,7.672-30.123,24.691-34.465,13.76-3.512,27.809-3.249,39.666,6.853a18.46,18.46,0,0,1,1.932,1.943A12.164,12.164,0,0,1,572.089,368.515Z"/>
      <path d="M755.877,426.448c-1.073.53-1.657,1.065-2.244,1.07-7.314.057-14.629.037-22.471.037-1.137-3.216-2.249-6.358-3.469-9.808h-18.9c-1.105,3-2.255,6.135-3.509,9.548-7.645,0-15.127,0-22.612,0-.241-5.1,12.339-43.239,23.2-70.239h25.858C739.7,379.971,747.773,403.171,755.877,426.448Zm-33.045-27.332c-1.493-5.324-2.786-9.933-4.078-14.543l-1.2.039c-1.3,4.682-2.608,9.365-4.038,14.5Z"/>
      <path d="M790.587,427.254H767.666c-.053-4.117-.515-8.181-.079-12.148,1.208-10.986-1.761-20.541-7.942-29.655-5.122-7.553-9.193-15.821-13.683-23.8-.753-1.338-1.272-2.808-2.111-4.695H769.3c3.145,7.049,6.293,14.1,10.029,22.481,3.745-8.093,7.027-15.186,10.406-22.49h25.328a45.1,45.1,0,0,1-1.915,4.435c-6.025,10.526-11.994,21.086-18.206,31.5-2.785,4.667-4.347,9.414-3.98,14.921.319,4.791.1,9.619.047,14.43C790.993,423.786,790.756,425.334,790.587,427.254Z"/>
      <path d="M193.491,546.715c0-13.641-.2-25.983.1-38.313.126-5.137,1.051-5.477,7.165-5.208,1.006,11.482-.144,23.134.632,35.224,10.386-.044,20.591.666,30.661-1.6,17.224-3.866,27.72-14.695,31.211-31.8a92.08,92.08,0,0,0-.914-42.253c-4.557-17.279-15.438-27.656-33.586-29.712a30.687,30.687,0,0,1-6.075-1.049c-1.135-.37-2.755-1.538-2.8-2.421a5.062,5.062,0,0,1,1.736-3.958,8.444,8.444,0,0,1,5.126-1.1c22.327,2.307,38.187,15.452,43.292,36.83,3.954,16.562,4.444,33.181-.319,49.536-5.565,19.109-18.6,30.942-38.306,33.79C219.255,546.441,206.8,546.079,193.491,546.715Z"/>
      <path d="M475.337,357.028h22.33c1.306,5.691.489,11.6.632,17.414.141,5.72.031,11.447.031,17.17v34.712c-5.207,1.57-15.5,1.792-22.822.677C474.157,422.156,473.947,364.111,475.337,357.028Z"/>
      <path d="M606.084,427.247H583.362v-70.34c7.463-.51,14.879-.167,22.722-.183Z"/>
      <path d="M476.376,614.9c-4.708,1.313-5.709-.986-6.546-3.952-3.108-11.013-6.356-21.987-9.565-32.971q-4.23-14.473-8.5-28.958c5.154-1.159,5.334-1.212,6.552,2.9,3.5,11.851,6.83,23.756,10.267,35.628a83.536,83.536,0,0,0,6.053,16.156l17.278-55.47h5.762c5.845,18.682,11.625,37.156,17.406,55.631l1.2-.125q5.041-17.331,10.085-34.663c1.728-5.931,3.395-11.881,5.232-17.778.927-2.976,1.07-2.931,6.32-2.764l-19.343,66.57h-5.2l-18.293-58.088c-4.559,10.019-6.61,19.8-9.792,29.164C482.063,595.684,479.319,605.35,476.376,614.9Z"/>
      <path d="M833.165,523.876c-4,1.778-5.814-.58-7.654-3.034q-14.635-19.513-29.318-38.992c-3.688-4.892-7.439-9.736-12.028-15.735v57.668l-4.784.788c-1.278-5.22-1.695-54.164-.611-66.86,3.157-1.656,5.388-.4,7.4,2.278,7.449,9.877,14.977,19.7,22.461,29.547q8.308,10.936,16.551,21.921a9.721,9.721,0,0,1,.952,2.649l1.778-1.155V457.394h5.249Z"/>
      <path d="M516.924,524.336V457.185c7.026,0,13.837-.249,20.621.069,7.012.329,12.588,3.721,14.5,10.62s1.221,13.722-5.03,18.731l-2.661,2.132c1.127.6,1.809,1.018,2.537,1.335,7.333,3.192,12.006,9.04,11.634,14.589-.625,9.324-5.649,16.274-13.629,18.725a17.061,17.061,0,0,1-4.7.908C532.658,524.388,525.12,524.336,516.924,524.336Zm5.267-5.342c7.024,0,13,.436,18.893-.112,6.985-.651,11.357-6.174,11.367-13.179A12.448,12.448,0,0,0,541.315,493c-6.072-.567-12.238-.12-18.7-.12-.142,1.584-.391,3.132-.4,4.682C522.167,504.625,522.191,511.687,522.191,518.994Zm0-31.122c6.68-.634,12.432-.63,17.909-1.857a10.711,10.711,0,0,0,8.026-11.338c-.835-7.705-3.933-11.64-10.465-12.218-4.911-.435-9.891-.086-15.168-.086-.121,1.765-.284,3.091-.29,4.417C522.179,473.377,522.194,479.964,522.194,487.872Z"/>
      <path d="M907.452,467.4l-3.383,3.654c-1.8-1.583-3.319-2.951-4.875-4.269-11.378-9.642-34.367-8.965-42.655,7.941-5.384,10.979-5.476,22.252.665,32.929,6.18,10.741,16.411,14.109,28.166,13.19,5.2-.407,10.354-1.546,14.915-4.583,2.326-1.548,3.591-3.172,3.466-6.1-.2-4.772-.055-9.559-.055-15.084H883.374c-.116-1.851-.185-2.96-.284-4.546h25.88c0,7.9.117,15.628-.112,23.347-.04,1.332-1.314,2.883-2.421,3.889-13.856,12.6-40.509,10.289-51.992-4.427-12.23-15.673-8.564-41.238,7.374-52.1C875.044,452.24,896.6,454,907.452,467.4Z"/>
      <path d="M657.465,616.044V548.079c13.422.221,27.128-2.681,39.113,5.953,11.492,8.279,16.2,19.842,13.737,33.664-2.409,13.547-10.418,23.233-24.079,26.123C677.177,615.735,667.63,615.344,657.465,616.044Zm5.633-6.194c6.777,0,13.244.782,19.449-.162,13.152-2,22.478-13.6,22.817-27.126.347-13.8-8.675-25.964-21.789-28.814-6.693-1.454-13.523-1.218-20.477-.353Z"/>
      <path d="M628.409,584.513l19.68,30.017c-4.036,1.646-6.4.782-8.419-2.447-4.748-7.578-10.1-14.8-14.5-22.566-2.881-5.085-6.5-5.679-11.97-4.168V614.98h-5.3V548.06c7.69-.01,15.4-.985,23.008.741,8.328,1.891,13.3,7.906,13.833,15.886.58,8.714-3.3,14.829-11.627,18.229C631.853,583.432,630.529,583.8,628.409,584.513ZM613.4,579.6c3.654,0,7.027.092,10.392-.037a26.989,26.989,0,0,0,5.395-.821c6.717-1.665,10.125-6.04,10.063-12.751-.061-6.538-3.873-11.6-10.457-12.448-5.054-.655-10.262-.131-15.393-.131Z"/>
      <path d="M738.11,524.255h-4.957V492.339c-5.171-1.635-30.271-2.141-41.212-.945v32.347l-4.819.854c-1.3-5.177-1.712-54.455-.579-67.18l4.794-.248v27.524c5.208,1.547,27.881,1.957,41.365.812V457.445h5.408Z"/>
      <path d="M582.362,595.7H550.4c-2.157,5.18-4.5,10.588-6.656,16.07-1.194,3.038-2.9,4.525-6.905,2.8q4.743-11.295,9.467-22.533c3.209-7.6,6.228-15.281,9.733-22.738,3.391-7.216,5.33-15.239,11.4-23.059,10.163,23.728,19.666,45.917,29.139,68.037-.733.507-1.076.942-1.446.966-1.351.085-2.711.033-4.287.033Zm-29.742-5.468h27.6c-4.569-11.152-8.917-21.768-13.806-33.7C561.5,568.521,557.2,579.031,552.62,590.232Z"/>
      <path d="M394.785,614.734c9.674-22.644,19.072-44.643,28.31-66.269,3.036-1.041,3.714.608,4.471,2.41,2.563,6.106,5.222,12.172,7.832,18.259q8.923,20.8,17.822,41.607c.531,1.242.89,2.557,1.479,4.276l-5.672.37-8.373-19.406H408.546c-2.2,5.1-4.578,10.732-7.061,16.318C400.232,615.12,400.147,615.082,394.785,614.734Zm15.844-24.107c5.407,0,9.728.033,14.048-.009,4.391-.043,8.781-.16,13.712-.255-2.514-6.2-4.576-11.5-6.809-16.734s-3.735-10.864-7.357-16.6C419.509,568.678,415.251,579.2,410.629,590.627Z"/>
      <path d="M493.263,457.36h4.745c.31.667.654,1.064.655,1.462.048,14.436.283,28.878-.052,43.307a30.665,30.665,0,0,1-2.962,12.511c-4.4,8.918-14.168,12.749-25.22,10.946-8.32-1.357-16.429-7.892-17.783-17.6a30.5,30.5,0,0,1-.545-4.08c-.039-15.32-.025-30.641-.025-46.434l4.65-.319a9.139,9.139,0,0,1,.668,2.2c.046,13.291-.023,26.584.116,39.874a40.947,40.947,0,0,0,1.185,9.48c2,7.947,8.388,12.48,16.78,12.28,8.709-.208,14.844-4.693,16.658-12.548a44.739,44.739,0,0,0,1.081-9.516c.125-11.457.049-22.916.049-34.375Z"/>
      <path d="M629.462,513.831l3.186-2.36a6.706,6.706,0,0,1,1.652,1.038c3.792,4.508,8.2,7.963,14.256,8.826,7.741,1.1,16.162-3.875,17.558-10.065,1.224-5.427.3-10.1-4.275-13.388A57.742,57.742,0,0,0,652.814,493c-3.1-1.47-6.428-2.471-9.466-4.044-6.508-3.37-10.887-8.345-10.955-16.143a15.314,15.314,0,0,1,7-13.419c9.714-6.694,23.025-4.531,30.861,5.161l-2.888,3.066c-1.007-.8-1.913-1.434-2.716-2.178-4.764-4.419-10.4-5.494-16.605-4.358-5.449,1-8.934,4.211-9.968,9.126a12.167,12.167,0,0,0,5.462,12.452,61,61,0,0,0,7.4,3.6c2.918,1.32,5.9,2.5,8.815,3.828,8.946,4.07,13.159,10.333,12.516,18.517-.639,8.133-6.679,14.487-15.905,16.732C645.7,527.941,635.871,523.886,629.462,513.831Z"/>
      <path d="M402.8,457.146c6.838,0,13.236-.37,19.572.1,7.638.561,13.6,4.334,16.2,11.8a16.787,16.787,0,0,1-3.714,17.858c-3.618,3.912-8.314,5.563-13.485,5.808-4.106.194-8.229.039-13.211.039-.7,10.37.027,20.575-.429,31.175l-4.933.635Zm5.39,30.54c4.844,0,9.176.29,13.45-.078,4.695-.4,8.876-2.094,11.072-6.846,3.822-8.269-.838-17.2-10.014-18.332-4.664-.575-9.457-.1-14.508-.1Z"/>
      <path d="M719.284,604.551l3.071-2.35a12.009,12.009,0,0,1,1.637,1.262c3.257,3.587,6.532,7.131,11.54,8.27,6.188,1.407,11.873.551,16.629-3.935,5.845-5.514,5.548-14.379-.8-19.252a37.9,37.9,0,0,0-7.257-3.836c-4.155-1.929-8.5-3.481-12.532-5.635-6.937-3.706-10.439-10.462-9.582-17.6.824-6.848,6.239-12.31,14.011-14.3,8.322-2.136,20.208,1,23.584,8.345-1.794,3.078-3.6,2.615-5.973.4-4.522-4.217-10.012-5.264-15.991-4.032-5.808,1.2-9.417,4.576-10.043,9.861s1.309,9.584,6.135,12.039c4.9,2.492,10.035,4.5,14.975,6.912a31.078,31.078,0,0,1,6.947,4.28,17.481,17.481,0,0,1-3.37,28.906c-10.309,5.528-25.834,1.9-32.6-7.64A5.871,5.871,0,0,1,719.284,604.551Z"/>
      <path d="M577.179,519.556c6.219,0,11.66,0,17.1,0a35.584,35.584,0,0,1,4.814.066c2.521.349,2.763,1.962,1.674,4.451H572.115V457.62l5.064-.707Z"/>
      <path d="M761.41,524.262h-4.654V457.535l4.654-.509Z"/>
      <path d="M612.152,457.315h4.688V524.18h-4.181C611.441,519.358,611.015,471.385,612.152,457.315Z"/>
    </g>
  </g>
</svg>
