<svg xmlns="http://www.w3.org/2000/svg" viewBox="0 0 1000 1000">
  <title>FlagStaff</title>
  <g id="FlagStaff">
    <g>
      <path d="M286.024,369.405l15.327-.787c1.553-11.958,2.941-23.615,4.638-35.227.679-4.643-1.655-6.274-5.54-6.524-3.747-.24-7.521-.052-12.187-.052-.276-5.949-.527-11.383-.787-17,43.4,0,85.7.021,128-.008,28.551-.019,57.1-.159,85.653-.154,27.06,0,54.12.183,81.181.18,25.422,0,50.844-.169,76.266-.214,17.753-.031,35.507.048,53.261.007,3.039-.007,5.824.129,5.252,4.232-.478,3.433,2.6,8.739-4.264,9.115-3.578.2-7.175.035-11.31.035v35.22l1.788.127,1.929-7.29,1.523.034v14.859c7.618-1.455,8.7,2.565,9.954,7.874a137.815,137.815,0,0,1,2.745,44.086c-1.3,14.939-.29,30.064-.826,45.088-.95,26.637-2.417,53.255-3.4,79.89-.233,6.309.724,12.654.813,18.986.025,1.724-1.115,3.465-1.72,5.2l-2.115-.431c.232,1.2.129,2.612.748,3.554,5.948,9.05,6.5,18.317,1.6,27.984a10.252,10.252,0,0,0-.581,3.708c-1.517,18.83,1.779,37.419,2.715,56.127.557,11.137.1,22.324.1,33.853a12.809,12.809,0,0,1-1.985.392c-10.02.679-10.158.644-12.164,10.821-1.466,7.441-2.608,14.951-3.716,22.456-1.368,9.268.1,11.977,9.425,12.182,7.05.154,10.233,1.888,9.535,9.145-.129,1.338.75,2.772,1.5,5.292H278.62c.171-2.961-.954-7.861.992-10.469,2.04-2.735,6.916-3.924,10.759-4.584,3.817-.655,7.893.189,12.734.417V698.361l-22.319-8.1c1.248-6.2,3.27-13.91,4.236-21.747a129.135,129.135,0,0,0,.665-21.228c-.332-7.794-2-15.538-2.217-23.329-.551-19.429-1.256-38.891-.655-58.3.44-14.219,2.721-28.393,4.427-42.557,1.739-14.444,4.422-28.792-1.143-43.13-1.393-3.589-1.342-7.931-1.185-11.9.865-21.769,2.186-43.522,2.861-65.3.207-6.7-1.269-13.442-1.7-20.182C285.8,378.271,286.024,373.916,286.024,369.405ZM693.4,680.644c.422-2.658,1.533-6.336,1.5-10-.21-26.229-.716-52.456-1-78.685-.225-20.646-.107-41.3-.435-61.939-.533-33.6-1.154-67.2-2.077-100.8-.261-9.473-1.7-18.912-2.6-28.367l-.825.036-1.252,6.438-1.815.371-2.125-6.551-1.4,4.489-4.577-4.349,10.644-6.676c-.737-2.681-1.64-4.845-1.889-7.082-.715-6.42-3.828-8.833-10.532-8.872-13.262-.076-26.519-1.171-39.777-1.853-6.023-.309-12.045-.9-18.067-.9-12.012.018-24.023.509-36.035.524-7.5.009-15.017-1.013-22.483-.659-13.888.657-27.73,2.492-41.618,2.869-11.345.308-22.727-.835-34.1-1.237-2.9-.1-5.807.11-8.7.282-7.719.456-15.768,2.578-23.071,1.065a78.8,78.8,0,0,0-28.73-.656c-4.966.772-10.291,1.249-15.157.314-23.3-4.478-46.7-2.462-70.006-1.114-4.3.249-10.525,5.367-11.985,9.58-4.114,11.88-7.51,24.325-8.784,36.793-1.73,16.922-1.428,34.069-1.62,51.124-.164,14.558.25,29.122.327,43.684.134,25.094.061,50.19.352,75.282.2,17.339.828,34.675,1.341,52.01.307,10.356.677,20.711,1.184,31.058.233,4.741,3.331,6.423,7.74,6.478,22,.279,44.005.792,66.009.843,16.671.038,33.343-.656,50.016-.728,16.038-.068,32.078.339,48.117.372q53.642.108,107.285.024c25.181-.069,50.365-.258,75.542-.714C679.094,682.985,685.373,681.639,693.4,680.644ZM544.141,702.109c-4.362,12.743.249,25.62,2.6,37.581,7.616-.513,14.929-1,22.241-1.5,9.691-.671,19.388-1.28,29.063-2.138,1.34-.119,3.615-1.422,3.688-2.322.929-11.359,1.724-22.74,2-34.129.038-1.55-2.938-4.54-4.533-4.55-15.856-.094-31.715.281-47.571.6a4.356,4.356,0,0,0-2.707,1.122C547.213,698.435,545.719,700.315,544.141,702.109Zm-68.728,2.713-1.723-.559c0,5.892-.211,11.795.059,17.675.278,6.062,1.024,12.1,1.717,19.853l60.42-3.329c-1.651-3.07-3.73-5.378-4.123-7.945-1.436-9.375-2.3-18.836-3.4-28.262-.814-6.986-2.509-8.328-9.318-7.972-5.48.286-10.977.224-16.459.47-9.046.4-18.086.933-27.129,1.41l.032,1.9,9.86.983Zm-150.122-1.594-1.3.136c0,10.794-.092,21.591.169,32.379.022.9,2.364,2.4,3.726,2.52,7.946.714,15.915,1.344,23.888,1.537,10.306.249,20.623.061,30.9.061-.7-10.559-1.891-20.6-1.846-30.642.029-6.309-6.38-7.234-7.953-11.87-.106-.313-1.151-.431-1.76-.432-14.321-.023-28.642-.018-44.622-.018l6.18,3.265-3.751,2.377c-.115,2.584-.2,4.457-.282,6.33l-1.769-.07Zm350.3,36.322c0-3.948-.006-8.525,0-13.1.01-5.875-.472-11.806.171-17.612.869-7.847-2.533-13.061-10.3-13.856-3.348-.343-6.744-.295-10.118-.3-11.045-.034-22.09-.013-31.905-.013V739.55ZM519.438,324.965c-4.282,0-8.046-.051-11.809.009-13.13.208-26.264.756-39.387.568-7.481-.107-7.451-.641-6.028,7.133,1.6,8.719,4.817,17.565,4.211,26.136-.522,7.369,2.5,7.193,7.161,7.214,11.207.052,22.417.178,33.619-.063,9.045-.195,12.437-4.311,12.269-13.48C519.309,343.447,519.438,334.407,519.438,324.965ZM394.3,323.623a25.025,25.025,0,0,0,.048,5.053c1.957,10.552,4.357,21.03,5.977,31.63.625,4.088,2.231,5.468,6.025,5.452,13.656-.056,27.312-.022,42.319-.022.619-5.387,1.542-10.513,1.7-15.662.132-4.4-.8-8.813-.943-13.231-.39-11.692-.327-11.461-12.368-11.685C423.08,324.9,409.11,324.176,394.3,323.623ZM637.849,325.5q-.186-.918-.373-1.836c-4.251,1.429-8.458,3.013-12.767,4.239-3.47.988-4.83,2.747-4.12,6.466,1.419,7.427,3.159,14.884,3.539,22.39.29,5.727,2.619,7.4,7.711,7.34,11.114-.121,22.23-.2,33.344-.1,9.235.082,12.6-3.313,12.881-12.836.186-6.3.828-12.59,1.382-18.874.364-4.123-.177-6.965-5.486-6.862C661.927,325.664,649.887,325.5,637.849,325.5ZM400.876,735.716a13.672,13.672,0,0,0,2.892.776c13.887.037,27.775-.033,41.662.092,1.792.017,5.046.836,5.118,1.54.4,3.921,2.773,3.832,4.724,2.2,1.7-1.422,3.637-4.307,3.291-6.132-1.805-9.53-4.181-18.961-6.6-28.364-2.344-9.118-2.467-8.974-11.525-8.6-5.073.211-10.166-.035-15.249-.046-7.279-.016-14.557,0-21.7,0C402.541,711.216,401.712,723.416,400.876,735.716Zm148.1-374.129c3.024,2.347,5.4,5.773,7.851,5.824,11.283.235,22.586-.436,33.879-.851,7.865-.288,11.053-2.979,10.9-10.774-.21-10.45-1.293-20.883-2.085-32.548-11.941,0-23.3.158-34.656-.073-4.979-.1-10.206-.206-14.838-1.753-4.664-1.557-5.456.31-5.315,3.824.356,8.838.9,17.672,1.535,26.5.239,3.335.917,6.638,1.465,10.439Zm-226.3-.427c3.084-.23,4.882-.612,6.632-.455,12.16,1.094,24.305,2.342,36.467,3.408,1.329.117,3.866-.461,3.931-.963.983-7.619,3.678-.089,4.924-.346,7.794-13.091,2.23-26.2,2.311-38.642l-48.5,4.969c-1.03-.341-3.338-1.911-4.974-1.386-1.22.392-2.244,3.51-2.193,5.382C321.521,342.391,322.159,351.645,322.674,361.16Z"/>
      <path d="M369.733,820.821,359.34,800.506l-2.716,18.067H336.669c1.985-16.208,3.926-32.051,5.865-47.88a14.253,14.253,0,0,1,2.047-.485c15.914-1.193,15.9-1.185,22.519,13.318.684,1.5,1.567,2.907,3.2,5.9,2.568-5.874,4.783-10.5,6.607-15.266,1.246-3.26,3.173-4.54,6.677-4.319,4.4.277,8.838.067,13.937.067,1,8.322,1.963,16.439,2.949,24.553.963,7.926,1.947,15.85,2.962,24.1H383.418c-.843-5.222-1.7-10.552-2.865-17.732C376.638,808.062,373.525,813.815,369.733,820.821Z"/>
      <path d="M790.061,311.245a6.674,6.674,0,0,1,.646,1.214c1.771,14.589,1.766,14.581-11.008,21.139-2.606,1.339-5.166,2.768-8.727,4.681,5.493,2.748,10.054,5.316,14.845,7.342,4.329,1.831,6.156,4.487,5.409,9.273-.48,3.071-.09,6.277-.09,9.893h-53.77V347.529h15.343l.425-1.548-18.824-8.046,18.485-7.5-.339-1.216H737.323V311.245Z"/>
      <path d="M779.378,732.491h10.876v17.624H737.231V733.033c8.372.68,15.605-1.878,22.263-8.858H737.313V706.881h51.834c5.276,11.875,1.328,19.893-11.564,24.263Z"/>
      <path d="M758.368,522.9H737.349V505.781h51.818c5.364,11.921,1.008,19.582-10.111,25.01h11.2v18.027H737.238V533.659l21.837-8.041Z"/>
      <path d="M763.873,376.871c5.677,2.063,11.825,3.328,16.939,6.345,13.246,7.814,15.533,25.334,5.393,36.809-11.16,12.63-33.923,12.739-44.871.043-6.685-7.752-8.157-16.625-4.118-26.09C741.3,384.4,751.821,378.168,763.873,376.871Zm8.893,26.923c-.014-4.388-3.961-7.953-8.888-8.028-5.062-.076-9.454,3.912-9.26,8.409.182,4.2,4.58,7.87,9.293,7.758C768.747,411.818,772.779,408.112,772.766,403.794Z"/>
      <path d="M790.265,443.184v18.2c-7.053-.357-13.724-.786-20.4-1a77.791,77.791,0,0,0-11.408.265c-3.507.408-6.406,2-6.386,7.107h38.22v18.222c-6.8,0-13.695-.141-20.586.036-8.874.228-17.757.507-26.6,1.19-3.358.259-5.757-.249-5.673-3.83.109-4.612-5.273-9.179-.066-13.976.578-.532-.788-3.1-1.151-4.74-2.36-10.7,2.878-20.286,13.474-21.2C763.034,442.315,776.557,443.184,790.265,443.184Z"/>
      <path d="M465.337,253.47a87.686,87.686,0,0,0-6.632,5.8c-2.952,3.168-5.509,3.7-9.862,1.727-3.039-1.379-8.49-1.044-10.954.921-2.5,1.99-4.038,7.193-3.405,10.492.563,2.937,4.268,6,7.326,7.531,3.282,1.638,7.35,1.289,10.462-3.111l-8.3-.86V265.189c6.949,0,13.678-.176,20.383.155,1.266.062,3.224,1.962,3.524,3.311,3.119,14.04-3.233,23.276-17.542,25.406a46.308,46.308,0,0,1-12.587.313c-15.1-1.948-24.117-11.877-23.748-25.587.359-13.306,11.138-24.08,25.526-25.215C449.268,242.8,457.885,245.405,465.337,253.47Z"/>
      <path d="M261.959,626.734v17.032c-7.821-.4-14.653,1.557-20.266,8.788h20.113v17.39H213.618c-.455-4.676-2.548-10.237-.963-14.4s6.847-6.9,11.43-11.127l-10.821-.511V626.734Z"/>
      <path d="M737.216,660.292V643.971l7.94-6.177-6.414-5.7-1.451,1.155V614.619c6.463.472,12.931-.017,18.829,1.588,10.38,2.824,20.4,6.971,30.6,10.472,3.361,1.153,4.975,2.707,4.748,6.842-.684,12.454-.343,12.7-12.275,17.074-11.6,4.253-22.52,11.112-35.637,10.081C741.679,660.529,739.8,660.446,737.216,660.292Zm31.394-21.549-.222-2.843H759a33.828,33.828,0,0,0,.644,3.887C762.641,639.61,765.624,639.149,768.61,638.743Z"/>
      <path d="M650.434,286.347c-7.07-.387-7.07-.387-8.839,7.023-5.707,0-11.591.124-17.459-.128a3.793,3.793,0,0,1-2.557-2.709c.215-5.031-.078-10.37,1.542-15,3.21-9.172,7.632-17.914,11.393-26.9,1.416-3.383,3.59-3.918,7.19-4.492,12.344-1.966,17.854,4.361,21.531,14.818,3.327,9.463,10.032,17.682,9.276,28.635-.328,4.763-1.622,6.527-6.42,5.673a21.218,21.218,0,0,0-7.6-.049C652.921,294.308,649.87,292.7,650.434,286.347Zm-2.643-21.758-2.412.223-2.409,9.337,6.786-1.647Z"/>
      <path d="M391.319,293a10.743,10.743,0,0,1-2.186.432c-5.875.04-11.75.022-15.841.022l-6.134-7.637-6.949,5.98.962,1.387H340.693c.954-6.73.979-13.29,2.938-19.21,2.91-8.793,7.253-17.106,10.851-25.68,1.339-3.191,3.542-3.6,6.81-4.155,12.166-2.075,17.744,4.188,21.684,14.491C387.209,269.7,395.043,279.728,391.319,293Zm-23-28.127-3.36-.223q-.454,4.194-.91,8.387l4.7.206Q368.536,269.058,368.321,264.873Z"/>
      <path d="M757.082,816.7H739.325c-3.16-3.137-4.945-6.2-7.33-6.778-1.374-.331-3.718,3.367-5.626,5.251q.5.727,1.01,1.454H706.564c.57-5.865.113-11.956,1.913-17.284,3.169-9.382,7.823-18.254,11.632-27.432,1.5-3.6,3.744-4.86,7.429-3.887a5.176,5.176,0,0,0,2.5.3c10.46-2.939,13.635,4.145,17.28,11.72C757.919,802.066,758.486,803.359,757.082,816.7Zm-23.389-28.307-3.369.042-.56,8.387,4.771-.018Q734.114,792.6,733.693,788.392Z"/>
      <path d="M237.748,404.677c-16.422-.046-28.095-10.419-27.25-24.213.752-12.283,14.327-21.957,29.405-20.955,15.455,1.026,26.305,11.467,25.33,24.373C264.325,395.9,252.673,404.719,237.748,404.677Zm.186-15.739c4.4-2.646,10.95-4.939,10.837-6.833-.347-5.8-6.369-5.488-10.831-5.527-4.315-.038-10.1.019-10.435,5.31C227.38,383.86,233.752,386.244,237.934,388.938Z"/>
      <path d="M238.018,455.81c-12.24.076-22.9-6.38-26.454-16.017-3.969-10.772,2.168-22.541,14.426-27.077a37.769,37.769,0,0,1,10.478-2.169c15.428-1.021,28.56,9.184,28.825,22.134C265.557,445.58,253.608,455.713,238.018,455.81Zm-.291-15.631c4.529-2.906,11.246-5.538,11.039-7.4-.627-5.607-6.774-5.7-11.127-5.116-3.717.5-7.144,3.16-10.7,4.865Z"/>
      <path d="M707.537,768.6c-7.741,16.025-14.925,31.068-22.363,45.985-.627,1.257-2.913,2.245-4.508,2.374-14.727,1.192-14.708,1.117-21.039-12.454-4.654-9.977-9.4-19.909-14.059-29.885-.781-1.674-1.3-3.469-2.241-6,7,0,13.286-.2,19.544.164,1.272.073,2.991,2.037,3.529,3.49,1.982,5.357,3.5,10.883,5.31,16.307a11.079,11.079,0,0,0,4.044,5.608c2.848-6.935,5.884-13.8,8.462-20.835,1.262-3.442,2.84-5.146,6.793-4.845C696.051,768.892,701.144,768.6,707.537,768.6Z"/>
      <path d="M496.6,298.93c-.793-5.426-1.521-10.411-2.341-16.019a55.493,55.493,0,0,0,8.077-.476,6.622,6.622,0,0,0,3.862-2.671c.328-.5-1.17-2.338-2.024-3.421A7.879,7.879,0,0,0,502.1,274.9c-6.348-4.031-10.754-9.139-8.632-17.28C495.657,249.228,502,245,509.912,243.7c8.514-1.4,16.74.484,24.72,5.123l-4.6,14.411c-2.79-1.165-5.188-2.566-7.766-3.1-1.762-.368-3.776.469-5.678.767a52.266,52.266,0,0,0,3.129,4.5c.489.58,1.507.707,2.277,1.057,5.2,2.357,9.845,5.293,10.137,11.77.315,7.007-3.019,12.188-8.833,15.762C515.229,298.948,506.4,300.219,496.6,298.93Z"/>
      <path d="M550.714,786.894c-3.276-1.3-6.115-2.723-9.122-3.471-1.252-.312-2.863.818-4.311,1.292.687,1.322,1.141,2.871,2.135,3.9.812.837,2.3.987,3.433,1.549,4.836,2.4,9.431,5.057,9.9,11.272.517,6.755-2.318,12-7.829,15.616-8.264,5.415-17.392,7.17-27.491,5.705-.824-5.347-1.617-10.494-2.549-16.548,2.7,0,5.148.323,7.461-.109,1.658-.31,3.127-1.63,4.68-2.5-.876-1.316-1.7-2.673-2.654-3.928a5.977,5.977,0,0,0-1.563-1.065c-6.02-3.949-10.406-8.722-8.7-16.717,1.722-8.052,7.422-13.2,14.731-13.817,7.7-.648,15.679,1.576,23.455,2.993.98.179,2.283,3.226,2.015,4.684C553.676,779.222,552.188,782.54,550.714,786.894Z"/>
      <path d="M229.593,711.368c-1.175,3-2.548,5.452-3.007,8.063-.3,1.721.711,3.673,1.135,5.521a27.219,27.219,0,0,0,4.017-3.163c.795-.894.959-2.325,1.5-3.469,5.276-11.056,16.685-12.569,24.386-2.9,6.831,8.576,8.332,18.619,6.826,29.483l-15.895,2.114c0-2.666.337-5-.111-7.18-.337-1.64-1.681-3.072-2.578-4.6-1.315.869-2.651,1.708-3.932,2.625-.317.227-.458.7-.679,1.062-3.926,6.4-8.919,11.065-17.122,8.943-8.182-2.115-12.7-8.471-13.237-16.129-.489-6.938,1.531-14.091,2.751-21.1.617-3.538,2.985-4.078,6.2-2.683C222.73,709.213,225.785,710.059,229.593,711.368Z"/>
      <path d="M250.921,568.5c9.567,4.238,14.413,16.662,12.214,29.853-2.247,13.481-10.5,21.947-22.451,23.019-12.06,1.081-22.147-5.453-26.608-17.238-4.673-12.344-1.174-26.589,8.534-33.389a108.032,108.032,0,0,1,7.588,9.112c.772,1.137.586,3.5-.042,4.917-3.018,6.8-2.583,11.695,1.711,14.87a11.249,11.249,0,0,0,14.052-.726c3.823-3.641,4.095-9.473.93-14.979a5.339,5.339,0,0,1-.579-3.872C247.549,576.3,249.209,572.663,250.921,568.5Z"/>
      <path d="M210.047,769.634c12.336,0,24.555-.1,36.767.138a5.051,5.051,0,0,1,3.729,3.058c.747,3.848.746,7.84,1.051,11.97h-20.06l-.149,2.311,16.39.96V801.56c-4.3,0-8.43.108-12.556-.032-3.6-.123-4.906,1.462-4.731,4.973.2,3.975.046,7.968.046,12.274H210.047Z"/>
      <path d="M208.236,355.211c1.4-10.182,2.055-18.948,3.954-27.437,1.224-5.47,4.9-9.853,11.209-10.769,6.433-.933,11.013,1.876,14.463,7.065a27.622,27.622,0,0,0,2.2,2.536c.789-1.21,1.418-2.045,1.913-2.955,2.438-4.477,5.953-7,11.279-6.6,5.579.416,8.827,3.775,10.762,8.577,3.6,8.936,3.157,18.145,1.689,28.29l-12.252-1.728c0-3.358.378-6.511-.135-9.511-.334-1.954-1.966-3.686-3.016-5.517-.869,1.91-1.824,3.788-2.562,5.748-.276.733-.044,1.656-.044,3.089l-11.4,1.547c-.287-2.148-.148-3.928-.8-5.347a86.117,86.117,0,0,0-4.334-7.561c-1.277,2.767-3.1,5.427-3.674,8.333-.54,2.753.237,5.765.465,9.1Z"/>
      <path d="M446.775,785.462l16.415.836V799.83c-4.024,0-7.951.169-11.856-.046-4.159-.229-5.862,1.5-5.509,5.609.308,3.573.43,7.161.663,11.247H425.6V768.476c8.549,0,17.374.246,26.18-.055,14.677-.5,14.672-.649,15.05,14.834H446.87Q446.823,784.359,446.775,785.462Z"/>
      <path d="M249.4,500.526c.127-9.117-5.9-12.682-11.95-15.736-2.233-1.127-5.453-.3-8.222-.361-.019,2.793-.369,5.639.066,8.36.272,1.7,1.725,3.217,3.063,5.535-5.5.69-10.376,1.514-15.278,1.756-1.149.057-3.275-1.725-3.451-2.888-1.058-6.967-3.247-14.274-2.089-20.951,1.935-11.152,15.1-15.12,26.153-8.913,2.519,1.413,4.8,3.244,7.932,5.39l.526-9.961h18.287c0,11.1.1,21.569-.13,32.032a5.049,5.049,0,0,1-2.847,3.762C257.857,499.543,254.059,499.824,249.4,500.526Z"/>
      <path d="M212.939,244.263c11.958,0,23.967-.136,35.965.174,1.5.038,3.79,2.209,4.219,3.8.922,3.412.869,7.088,1.273,11.245H234.163l-.14,2.124,16.428,1.082v13.444c-4.084,0-7.848.17-11.59-.046-4-.231-5.937,1.14-5.677,5.4.229,3.755.048,7.536.048,11.733H212.939Z"/>
      <path d="M493.073,802.624l12.344.655c-.461,4.671-.92,9.321-1.356,13.74h-31.67v-48.6h30.517c.563,4.012,1.218,8.681,1.933,13.782l-11.637.73-.1,2.258,10.6,1.194v12.66l-10.576.565Z"/>
      <path d="M231.081,531.33H244.5v10.654l2.419.082.907-12.561,13.7,1.552v31.777H213.067V532.041l13.744-1.85c.235,4.047.452,7.808.67,11.57l2.122.159Z"/>
      <path d="M604.967,258.859c-2.874,0-5.8.2-8.69-.049-3.848-.333-5.378,1.17-5.324,5.033.132,9.491.043,18.985.043,29.03H570.634V259.505H556.471c.644-5.055,1.223-9.595,1.9-14.888h46.6Z"/>
      <path d="M737.215,597.318V578.3h37.2V565.589l16.665,1.693v41.763H775.205V597.318Z"/>
      <path d="M595.711,816.694h-20.32V783.3h-14.16c.615-5.086,1.183-9.786,1.828-15.116h46.422c.2,4.4.4,8.967.643,14.475a78.941,78.941,0,0,1-8.56-.059c-4.331-.477-6.09.9-5.942,5.53C595.921,797.4,595.711,806.7,595.711,816.694Z"/>
      <path d="M788.5,276.493H777.229v16.746h-20.9V244.378c9.681,0,19.529-.1,29.37.138,1.058.025,2.749,1.836,2.977,3.04.7,3.661.817,7.431,1.232,11.927h-12.34l-.151,1.969,11.083,1.341Z"/>
      <path d="M726.162,275.47c-4.057,2.728-10.339-3.043-11.571,4.258-.722,4.279-.132,8.78-.132,13.5H694.045V244.311c9.679,0,19.356-.12,29.022.155,1.176.033,2.991,2.029,3.3,3.389.784,3.463.882,7.081,1.346,11.513H714.971q-.063,1.158-.127,2.316l11.318.961Z"/>
      <path d="M297.1,818.716V770.632h20.092c0,8.611-.006,16.987,0,25.363.007,8.426.012,8.423,8.468,7.714,1.013-.085,2.029-.124,3.774-.228-.42,5.282-.81,10.191-1.21,15.235Z"/>
      <path d="M281.551,293.177V245.086h20.676v33.555l11.752-.615c-.383,5.227-.733,10-1.11,15.151Z"/>
      <path d="M763.547,816.847v-47.9h20.826v32.863h11.684c-.38,5.217-.724,9.952-1.094,15.041Z"/>
      <path d="M212.3,700.548V680.039h48.165v20.509Z"/>
      <path d="M262.687,770.575h20.727v47.88H262.687Z"/>
      <path d="M617.885,768.935h20.739v47.552H617.885Z"/>
      <path d="M790.393,673.691V692H737.382V673.691Z"/>
      <path d="M688.371,663.486,678.157,650.18l-5.622,6.354-1.765-1.264L669.585,637.4l-1.07-.4c-.588,1.936-1.573,3.848-1.692,5.813-.463,7.62-.811,15.257-.789,22.887a5.3,5.3,0,0,0,3.041,3.975c6.638,1.69,13.4,2.877,21.171,4.452-1.16,1.109-2.012,2.644-3.137,2.88-7.181,1.51-14.433,3.913-21.641,3.849-30.863-.275-61.715-1.662-92.577-1.972q-59.922-.6-119.854-.112c-35.674.3-71.341,1.419-107.014,1.981-7.129.113-14.272-.659-22.165-1.061,2.182-3.943,4.221-7.419,6.037-11.007a32.307,32.307,0,0,0,1.609-4.964c-1.883-.464-3.755-.985-5.656-1.366a24.912,24.912,0,0,0-3.679-.027c0-3.1.044-6.113-.007-9.122-.36-21.118-.645-42.237-1.148-63.352-.3-12.456-1.323-24.906-1.27-37.355.024-5.578,1.985-11.134,2.874-16.731.315-1.981.932-4.976-.079-5.93-5.354-5.052-1.684-7.352,1.966-11.009,8.172-8.189,15.522-17.193,23.486-25.6,1.951-2.06,4.894-4.225,7.525-4.423,16.374-1.232,28.6-10.193,40.361-20.4,4.9-4.248,10.96-4.529,14.846.4,10.509,13.328,25.3,20.15,39.775,27.4,9.613,4.811,19.7,8.678,29.635,12.841,4.367,1.831,8.227,2.186,12.966-.783,3.332-2.087,8.666-1.4,13.08-1.234,5.967.223,9.065-4.086,11.064-7.957,3.8-7.363,6.933-6.82,14.319-6.221,10.432.846,20.559,4.065,31.464.74,5.3-1.617,12.433-.215,17.807,2.036,9.1,3.814,14.918-1.017,21.159-5.6,6.411-4.7,12.515-9.833,19.026-14.387,1.232-.862,4.155-.575,5.585.32,7.632,4.782,15.54,9.327,22.41,15.079,11.487,9.616,23.159,18.658,36.672,22.724,1.091,36.613,2.159,72.445,3.241,108.73h-2.1l3.674,40.491ZM581.7,573.409l-14.054,1.471c-1.347-.218-1.919,1.593-3.022,2.982-4.976,6.268-5.056,17.381.243,22.892,3.453,3.592,7.246,6.86,10.921,10.236,2.9,2.668,5.955,3.6,8.58-.205,3.17-4.588,7.607-4.077,12.36-4.2,2.74-.073,6.576-1.826,7.9-4.033,3.387-5.66,7.466-8.958,14.186-8.414.4,1.429.747,2.7,1.047,3.785,2.675-4.415,6.111-8.227,7.349-12.653s.271-9.461.271-14.229l-2.068.069c-.427,2.145-.855,4.29-1.589,7.972-11.6-5.884-15.416-17.066-22.529-25.986-.258,2.871,1.1,5.876.483,8.4-.7,2.892-3.153,5.36-5,8.254l-4.543-4.133-4.128,9.642-1.232-.527c-.351-2.361-.7-4.722-1.078-7.253-.992.377-1.3.4-1.371.536C583.56,569.665,582.734,571.336,581.7,573.409ZM334.315,650.83c.794,5.068,1.389,8.617,1.9,12.18,1.011,7.064,6.905,6.867,11.876,7.972,1.324.3,3.23.781,4.04.137,5.683-4.517,10.981-4.112,16.8-.079,1.279.886,4.86.138,6.179-1.119,2-1.905,3.216-4.806,4.288-7.476,3.453-8.6,7.264-11.453,16.6-11.7.136-2.613.274-5.253.453-8.7-19.642-3.313-37.122-.941-51.983,12.7ZM656.7,640.89c2.089-4.365,4.246-9.218,6.707-13.912,2.343-4.47,5.791-8.529,7.258-13.235a16.191,16.191,0,0,0-.992-11.092c-2-3.959-5.107-.346-7.378.937-2.878,1.625-5.281,5.137-8.179,5.5-9.921,1.227-13.062,11.99-22.407,13.633l-4.067-2.515c-.934,1.629-1.836,3.277-2.811,4.881A16.944,16.944,0,0,1,622.79,628c-6.328,6.664-6.605,6.88-.551,13.815,2.007,2.3,5.838,4.341,8.668,4.142,2.091-.148,4.648-3.835,5.668-6.462,1.274-3.279,2.708-6.219,6.293-5.835,3.829.409,7.52,2.114,11.391,3.289l1.992-2.78C656.47,637.45,656.615,639.628,656.7,640.89ZM521.871,630.745c2.09-5.111,3.693-11.7,7.212-17.016,5.283-7.985,9.584-15.9,7.709-25.716-.805-4.217-3.652-8.308-3.488-12.371.16-3.954-1.4-5.768-3.973-7.535-2.4-1.65-4.988-3.033-7.494-4.534-.316-1.239-2.856-.708-4.047.853-3.986,5.22-2.961,10.336,1.72,14.9,1.748,1.706,2.581,4.415,3.625,6.759.732,1.645.882,3.565,1.7,5.153a16.113,16.113,0,0,1-.347,16.248c-.86,1.491-2.957,2.269-4.491,3.377-1.772,3.421-3.19,7.451-5.669,10.66-4.192,5.426-4.2,9.1.754,13.5l5.653-8.4C521.583,629.7,521.966,631.086,521.871,630.745Zm-58.05-39.92,11.632-5.628c-3.2-3.827-5.277-7.985-8.637-10-8-4.787-14.18-11.522-19.413-18.665-8.565-11.694-15.683-24.445-23.47-36.713-1.446-2.278-3.165-4.383-4.758-6.568l-1.978,1.227c1.4,2.857,2.789,5.722,4.206,8.571,4.836,9.722,10.816,19.069,14.156,29.279,2.528,7.725,5.564,15.148,8.688,22.58.7,1.673,2.169,3.018,3.244,4.542,1.686,2.393,3.338,4.809,5.165,7.448l2.508-2.853Zm-50.444,18.962,2.056.464c1.116-5.664,3.119-11.335,3.073-16.99-.038-4.706-2.727-9.339-3.777-14.106-.723-3.281-.2-6.851-1.028-10.09-1.605-6.3-3.7-12.487-5.714-18.679-2.14-6.568-4.427-13.088-6.65-19.629L399.2,531c-.713,4.929-.978,9.974-2.225,14.765-3.472,13.343,2,23.2,11.5,31.743,4.407,3.966,4.9,9.052,3.194,14.251-1.34,4.076-3.484,7.888-5.271,11.817l2.168.809q.344-2.351.686-4.7l2.078-.154Q412.35,604.66,413.377,609.787Zm202.437,28.477-1.985-.16c-2.464,5.077-4.682,10.3-7.513,15.161-1.127,1.936-3.609,3.084-5.474,4.59a59.881,59.881,0,0,1-2.887-7.04c-1.007-3.657-1.617-7.423-2.4-11.143l-1.716.415c.738,8.964,1.476,17.929,2.267,27.526l3.035-4.156c1.18,2.321,1.991,3.918,2.062,4.056l17.477,4.118.186-.754-13.521-8.722.73-1.687c1.234.164,2.485.247,3.7.507,6.354,1.362,12.651,3.316,19.071,3.873,2.337.2,4.959-2.885,7.451-4.471-1.136-1.248-2.149-3.428-3.428-3.6C622.13,655.361,615.549,650.2,615.814,638.264Zm-219.36-18.755c.432-2.435.2-4.2.977-5.029,6.43-6.914,3.56-14.644.954-21.445-3.357-8.762-8.422-16.875-12.85-25.216a17.875,17.875,0,0,0-2.869-3.146c-3.242,7.282.03,42.269,4.213,45.637.266-2.915.513-5.622.761-8.329l1.359-.16ZM470,541.847l-26.2-18.112c.63,4.2,1.887,8.066,4.349,10.872,7.95,9.058,16.351,17.72,24.563,26.548,3.24,3.483,6.22,1.109,7.8-1.279,1.216-1.84.99-5.1.45-7.512-.666-2.976-2.739-5.633-3.44-8.608-.783-3.327-.711-6.856-1.175-12.169Zm-47.779,103.16,1.509-.378c0-3.074-.647-6.324.136-9.184,1.6-5.857.436-9.747-4.864-13.355-5.867-3.994-9.467-3.941-15.336,2.475-4.681,5.117-4.643,9.307-.212,14.157,1.009,1.105,1.355,2.893,1.79,4.428,1.294,4.566,2.479,9.163,3.707,13.748,1.784-5.058,5.86-10.034-.405-14.291-.754-.512.425-3.87.8-6.59l7.091,8.616,4.133-4.614C421.283,642.158,421.754,643.582,422.224,645.007Zm14.051-21.145c0,2.956-.3,5.1.064,7.117a4.4,4.4,0,0,0,7.62,2.464c4.5-4.711,7.679-10.194,7.669-16.932,0-1.45-.884-3.91-1.848-4.182-5.861-1.656-11.679-6.689-17.983-.893a5.092,5.092,0,0,1-3.4,1.339c-5.016-.407-5.2,3.318-4.46,6.148.479,1.831,3.195,3.516,5.276,4.361C431.179,624.083,433.626,623.7,436.275,623.862Zm228.793-65.969c-.825,4.754-.629,9.32-2.454,12.836-2.879,5.544-7.324,10.253-10.667,15.59-1.2,1.917-2.352,5.537-1.409,6.8,2.371,3.175,5.243,1.283,7.241-1.27,1.794-2.291,3.332-4.782,4.355-6.271,3.414,0,6.375.911,8.043-.171,4.937-3.2,8.678-14.8,6.97-19.823a12.984,12.984,0,0,0-2-2.862c-.245,1.181-.445,2.142-.767,3.694ZM526.677,531.2a31.689,31.689,0,0,0,.606,5.384c.241.917,1.474,1.575,2.257,2.35.386-.982,1.306-2.118,1.075-2.923-2.163-7.514-.008-14.289,3.358-20.848,1.859-3.621,3.961-7.118,6.168-11.055-18.573.318-25.823,14.2-25.536,28.46ZM354.1,601.334c-.689-2.269-.719-4.222-1.705-5.3-6.051-6.647-12.232-13.185-18.619-19.507-.818-.81-3.653-.789-4.51-.008-.829.756-.785,3.152-.307,4.548,3.007,8.782,5.245,18.14,14.351,23.106,2.207,1.2,4.824,2.944,6.944,2.59C351.808,606.5,352.858,603.219,354.1,601.334Zm-2.437-54.991c1.506-8.063,1.623-8.966-4.146-12.979a84.575,84.575,0,0,0-15.444-7.978c-1.1-.464-4.525,1.366-4.67,2.439-.571,4.206-1.645,9.14,4.136,11.066,4.015,1.338,5.4,4.088,5.179,8.115a21.114,21.114,0,0,0,.688,4.447l1.359.053,1.874-9.447C347.187,547.534,347.187,547.534,351.663,546.343Zm254.711-6.774,2.288-1.7c0-4.388-.254-8.794.053-13.161.634-9-3.735-14.983-12.657-16.438-1.4-.229-3.6.184-4.315,1.137-.735.978-.484,3.113,0,4.514,1.875,5.446,3.5,11.082,6.225,16.1C599.942,533.651,603.514,536.416,606.374,539.569ZM487.731,616.292c1.415-3.057,2.659-6.066,4.178-8.928,1.223-2.3,3.754-4.329,4-6.658.706-6.694.433-12.718-7.987-15.874-3.31-1.24-6.033-2.758-7.919-.167-1.168,1.606.015,5.2.654,7.768.69,2.771,2.173,5.337,2.962,8.092C485.164,605.923,486.467,611.391,487.731,616.292ZM510.3,565.13c2.494-8.115,4.782-15.559,7.313-23.8-2.06,1.542-3.778,2.63-5.266,3.974a88.932,88.932,0,0,0-20.512,26.386c-1.043,2.1-2,6.247-1.1,6.92,2.268,1.7,5.617,1.96,8.533,2.8.665-2.676,1.653-5.328,1.867-8.04.117-1.477-1.08-3.057-1.695-4.616l8.605-9.434C508.832,561.348,509.594,563.31,510.3,565.13ZM393.175,483.009l-1.228-1.347-14.208,11.431-22.488,5.917,2.319,8.762C373.272,503.712,387.675,499.255,393.175,483.009Zm48,24.021c4.976,16.84,21.416,14.173,29.619,23.484,2.711-6.368,1.178-11.79-3.621-14.1-2.431-1.168-5.139-1.749-7.693-2.673C453.9,511.725,448.325,509.656,441.177,507.03Zm214.032,4.677,2.322,5.654-5.084,6.674,8.27.607c2.242.164,4.482.373,6.727.488,4.288.219,8.58.385,12.87.573q.25-1.209.5-2.418L660.9,509.071Zm-254.973-34.09c8.328,8.129,12.9,21.335,29.328,20.894-1.174-2.649-1.633-5.178-3.112-6.74-3.978-4.2-8.665-7.735-12.563-12C408.949,474.368,404.5,473.467,400.236,477.617ZM649.109,504.54c-1.522-2.127-2.726-4.023-4.146-5.739-1.858-2.243-4.356-4.079-5.756-6.555-4.676-8.274-10.225-8.7-16.795-.964C630.025,497.463,637.3,504.277,649.109,504.54Zm-61.3,24.009c-3.678-15.884-11.881-25.884-23.471-22.013C570.645,515.864,578.7,522.708,587.8,528.549Zm-49.312,86.37c-2,3.237-7.673,3.134-6.637,8.88.7,3.9.953,7.892,1.4,11.842l1.777-.292C541.1,618.365,541.1,618.365,538.493,614.919Zm15.221,17.7,2.026-4.417c.713.784,1.441,1.583,3,3.295.36-5.131.632-9.012.92-13.115a15.794,15.794,0,0,0-2.99-1.127c-1.906-.3-3.845-.369-5.771-.535a28.625,28.625,0,0,0,.058,5.363C551.545,625.124,552.5,628.1,553.714,632.618Zm120.855-9.7c-.324,6.11-.623,11.73-.922,17.35l1.866.02c3.742-9.571,2.445-18.65-3.913-21.3.1,2.055.182,3.694.263,5.332Zm-344.84,18.119,1.824.15c5.922-11.428,5.913-12.73-1.1-16.053C330.2,630.718,329.965,635.877,329.729,641.036Zm100.455-59.927c2.245-3.142-2.887-11.11,7.074-7.926l-3.978-8.559C428.3,569.728,426.976,576.763,430.184,581.109Zm115.509,44.4c3.82-8.92,2.737-14.892-2.791-18.34C543.9,613.73,544.8,619.619,545.693,625.508Zm-169.017-6.294-8.622-2.739c.29,3.253.562,6.3.843,9.438l7.022-1.009C376.187,622.89,376.459,620.844,376.676,619.214ZM685.028,590.4l-2.871,0v17.469l2.081-.014Q684.632,599.122,685.028,590.4Zm-175.049,3.946-2.415.257q1.05,9.9,2.1,19.8l2.295-.254Q510.97,604.244,509.979,594.343Zm4.554-10.163-2.684.758q1.965,6.9,3.928,13.8l3-.863Q516.655,591.028,514.533,584.18ZM377.706,606.967l1.551,0V587.681h-1.551ZM645.422,610.3c-.645-5.851-1.147-10.391-1.648-14.931C640.51,602.409,640.969,605.978,645.422,610.3ZM389.677,655.5l-2-1.2c-1.118,1.851-3.19,3.755-3.093,5.54.1,1.858,2.3,3.6,3.578,5.395l1.52-.735Zm38.058-73.564-2.8.329q.837,6.573,1.672,13.148l2.606-.294Zm157.042,43.579c-.52,6.849,4.334,3.765,7.215,5.612-.143-2.89-.24-4.865-.342-6.923ZM363.639,616.84c-5.014,6.329-1.421,10.3-.18,14.48l1.635-.134C364.67,627.007,364.247,622.829,363.639,616.84Zm-31.364-70.2-2.937.711,2.91,12.018,2.027-.451Q333.275,552.784,332.275,546.645Zm140.642,71.832-2.754.192q.66,6.336,1.321,12.672l1.433-.155Zm103.039,3.979-1.881.108v11.56l1.881-.027Z"/>
      <path d="M605.5,419.692c11.527,5.951,24.159,3.437,36.518,4.5-5.205,3.955-10.275,7.05-17.314,5.359a212.53,212.53,0,0,0-24.243-4.385c-8.707-1.046-14.817,3.693-19.286,10.668-1.963,3.062.3,6.913,3.881,7.449,3.442.515,6.842,1.309,10.26,1.98l.321,2.53c-3.67,2.143-7.122,4.946-11.068,6.255-4.5,1.493-9.5,1.421-14.172,2.525a6.7,6.7,0,0,0-4.059,3.5c-1.763,4.39-4.373,5.857-8.864,4.127-1.491-.574-3.758-1.4-4.711-.735-5.313,3.71-10.045.683-15.058-.565-6.915-1.722-13.931-3.037-20.908-4.506a1.931,1.931,0,0,0-1.254.038c-10.239,6.258-19.183-1.109-28.712-2.531-2.414-.36-5.127.9-7.635,1.637-6.951,2.056-13.8,4.547-20.855,6.094-1.386.3-3.531-2.856-5.607-4.663-5.883,3.944-12.553,3.043-18.97.58-6.6-2.535-12.687-6.869-19.455-8.422-6.963-1.6-14.9-2.417-21.654-.658-10.848,2.825-20.777-.411-31.043-1.688-.543-.068-1.478-4.364-.907-4.754,2.709-1.85,5.842-4.122,8.889-4.22,6.519-.211,13.083,1.3,19.618,1.222,6.8-.077,13.791-.394,20.352-2.009,14.844-3.655,28.978-8.524,45.089-4.084,6.174,1.7,14.518-3.933,21.72-6.635,8.608-3.229,16.8-7.88,25.633-10.115,10.058-2.547,10.276-1.684,18.887,5.747-1.779,2.477-3.577,4.982-5.9,8.215,17.16,2.2,32.283-10.444,50.05-4.335V418.7c11.271.056,19.689-14.05,33.634-6.766,3.251-11.466,11.725-9.582,19.95-8.743a7.887,7.887,0,0,0,4.934-1.489c11.7-8.447,23.528-15.516,38.174-6.388.724.451,1.947.225,2.92.131,6.125-.589,8.9,3.2,6.426,8.916-3.568,8.238-11.6,9.46-18.843,10.725-5.882,1.027-12.144-.305-18.232-.212-3.286.051-6.556.921-9.84,1.372a41.165,41.165,0,0,1-4.194.362c-4.84.166-9.681.285-14.522.422Zm-83.687,30.564c12.093.492,22,13.546,34.7,6.036-1.115-6.68-5.651-7.042-11.184-5.746-1.264.3-2.793-.681-4.223-.937C534.707,448.463,528.31,445.034,521.812,450.256Zm-107.62-5.374c8.956,1.49,17.491,2.959,26.05,4.271,1.049.161,2.744-.188,3.209-.9.51-.785.374-2.95-.232-3.336-2.834-1.809-5.778-4-8.956-4.6C427.039,438.954,419.976,439.635,414.192,444.882Zm70.115-.473c5.945,7.454,12.714,9.549,20.677,8.032,1.461-.278,2.682-1.819,4.014-2.777-1.432-1.283-2.744-3.482-4.317-3.687C498.312,445.147,491.862,444.93,484.307,444.409Zm-8.732,3.151-17.595,6.805c5.656,4.246,8.647,4,19.975-1.738C477.1,450.8,476.234,448.962,475.575,447.56Zm178.351-42.717c-6.145-7.053-16.367-4.972-19.641,3.206ZM481.81,435.4c8.288,1.588,13.447-2.909,18.729-7.652C496.122,424.009,489.927,426.6,481.81,435.4Zm107.479-15.285c-7.333-4.409-13.443-.726-16.088,9.539Z"/>
      <path d="M449.7,410.016c5.4-3.361,10.756-6.781,16.234-10a3.143,3.143,0,0,1,2.849.638c5.5,5.484,10.691,2.649,16.585.34,9.92-3.885,20.12-8.029,31.5-2.96l-42.208,11c.616-5-3.642-4.163-7.551-3.348-5.894,1.229-11.728,2.749-17.588,4.145Z"/>
      <path d="M331.047,448.966c3.757-4.071,5.528-11.259,12.937-7.717.655.313,2.356-1.94,3.739-2.7a69.048,69.048,0,0,1,14.811-6.486c-5.994,5.728-10.389,13.563-20.59,13.769l4.441,5.055Z"/>
      <path d="M360.908,394.78,335.964,402.1c-3.914,2.822-9.858,4.12-12.23,1.928,9.142-8.143,21.571-6.952,32.652-10.408a8.048,8.048,0,0,1,2.519-.219C359.205,393.4,359.5,393.783,360.908,394.78Z"/>
      <path d="M359.2,409.559c1.449-1.035,2.84-2.863,4.357-2.974,9.343-.685,17.252-6.755,26.642-6.895,1.485-.023,2.989,1.244,5.814,2.511l-36.135,8.527Z"/>
      <path d="M411.4,399.6l6.683,1.6c-8.618,7.3-16.343,12.62-26.009,14.8C397.416,409.941,406.984,408.667,411.4,399.6Z"/>
      <path d="M607.62,438.133c-5.641.338-11.862.751-18.089,1-.481.019-1.007-1.108-2.187-2.5,3.917-1.416,7.172-2.733,10.524-3.717a4.7,4.7,0,0,1,3.355.635C603.482,434.946,605.558,436.631,607.62,438.133Z"/>
      <path d="M428.656,397.389l16.893-4.166c-.252,5.159-.745,6.244-6.648,7.046-3.265.444-6.808-1.159-10.226-1.84Z"/>
      <path d="M468.625,415.319,447.271,425.7l-1.025-1.9,20.941-10.746Z"/>
      <path d="M521.947,411.216H508.4C511.41,406.613,511.41,406.613,521.947,411.216Z"/>
      <path d="M449.518,409.834c-5.585,5.166-8.885,6.182-16.972,4.045q8.573-1.934,17.15-3.865S449.518,409.834,449.518,409.834Z"/>
      <path d="M343.369,711.225l14.636,3.263-.327,1.72-14.816-2.273Z"/>
      <path d="M448.194,701.176q1.352,10.977,2.7,21.952l-2.23.4q-1.553-10.846-3.106-21.693Z"/>
      <path d="M593.3,350.071l3.4-4.447c.521,2.578,1.27,4.775,1.283,6.977.007,1.114-1.488,3.282-2.012,3.2-5.848-.961-12.511-.869-17.242-3.812-7.037-4.379-7.037-9.684-2.224-20.039.793,5.614,1.436,10.173,2.15,15.236,7.233-3.027,4.915-9.02,5.912-15.1C587.765,338.676,590.389,344.081,593.3,350.071Z"/>
      <path d="M561.886,349.331c1.16-4.259,2.127-7.805,3.093-11.352l.826-.026c.418,3.729.836,7.458,1.336,11.915Z"/>
    </g>
  </g>
</svg>
