<svg xmlns="http://www.w3.org/2000/svg" viewBox="0 0 1000 1000">
  <title>HotSprings</title>
  <g id="HotSprings">
    <g>
      <path d="M327,375q11.127,6.047,22.252,12.1c3.484,1.9,8.249,3.047,10.048,5.992s.763,7.724.764,11.7q.037,98.993.116,197.985c.009,4.229-1.082,6.53-5.059,8.356-8.308,3.816-16.329,8.26-24.444,12.491-1.289.672-2.454,1.582-3.677,2.382h-2q-10.518-5.64-21.038-11.275c-4.658-2.482-9.34-4.919-14.23-7.491V518.111H221.387V524.2c0,25.655-.107,51.311.1,76.964.037,4.531-1.123,7.1-5.425,9.163C205.875,615.2,196,620.732,186,626h-2a49.748,49.748,0,0,0-4.385-2.94C170.1,618,160.542,613.012,151,608V393c9.542-5.012,19.1-10,28.615-15.061A49.517,49.517,0,0,0,184,375h3a33.347,33.347,0,0,0,3.874,2.776c8.684,4.567,17.34,9.2,26.166,13.481,3.3,1.6,4.462,3.573,4.432,7.246-.174,21.149-.091,42.3-.074,63.449,0,1.915.159,3.83.24,5.681h68.313V393.622c3.888-2.023,7.435-3.83,10.947-5.7Q312.963,381.486,325,375ZM187.673,518.592V621.676c1.931-.878,3.437-1.489,4.877-2.229,7.247-3.727,14.4-7.643,21.747-11.164,3.28-1.572,4.521-3.539,4.5-7.244-.159-25.811-.079-51.624-.1-77.437,0-1.6-.183-3.208-.293-5.01Zm136.041.163H292.7a20.828,20.828,0,0,0-.3,2.318c-.015,27.157.014,54.315-.07,81.471-.008,2.569,1,3.881,3.19,4.978,8.333,4.174,16.579,8.52,24.88,12.756a23.028,23.028,0,0,0,3.318,1.077Zm-31.126-52.194a30.406,30.406,0,0,0,3.794.54c7.661.043,15.322.081,22.983,0,4.261-.043,4.355-.239,4.539-4.638.035-.831.03-1.665.037-2.5q.306-36.714.606-73.427c.02-2.4,0-4.809,0-7.928-9.97,5.142-19.038,9.981-28.27,14.487-2.984,1.457-4.007,3.209-3.983,6.516.152,20.818.074,41.637.085,62.455C292.383,463.389,292.5,464.7,292.588,466.561Zm-74.414.226a13.9,13.9,0,0,0,.47-2.147c.031-22.147,0-44.294.115-66.441.014-2.689-1.365-3.8-3.426-4.841-7.268-3.683-14.487-7.465-21.733-11.194-1.852-.953-3.735-1.846-5.819-2.873v87.5ZM356.506,588.211c-5.662,1.266-6.5,2.774-3.924,7.073C357.273,593.407,357.273,593.407,356.506,588.211Zm-.284-33.246-5.01,1.587c0,1.613-.046,2.756.022,3.893a5.135,5.135,0,0,0,.457,1.335C357.176,561.262,357.364,561,356.222,554.965Zm-4.7-98.987v5.892l5.139.757v-5.36a16.556,16.556,0,0,0-2.25-.956A22.261,22.261,0,0,0,351.517,455.978ZM159.768,489.45c-5.718.011-6.013.424-4.492,6.049l4.492-.448Zm196.74,22.339v-5.926l-4.992.455v5.471Zm.019-98.517c.609-5.823.609-5.823-4.66-6.985C350.742,411.6,350.816,411.716,356.527,413.272ZM155.107,588.258c-1.284,5.393-.8,6.089,4.609,6.617C160.059,589.571,160.059,589.571,155.107,588.258Zm196.431-9.5c5.857-1.532,6.022-1.8,4.393-6.755C350.924,572.933,350.924,572.933,351.538,578.753Zm.26-105.874c-.823,6.121-.764,6.186,4.871,5.7a17.777,17.777,0,0,0,.233-2.3c-.018-.943-.192-1.883-.311-2.936-1.043-.184-1.826-.365-2.62-.448C353.338,472.826,352.693,472.879,351.8,472.879Zm4.773-43.152c.546-6.11.3-6.408-4.887-6.428C351.039,428.444,351.039,428.444,356.571,429.727Zm.114,65.743v-5.832l-5.1-.328V495.2ZM159.808,422.708c-5.856,1.31-6.01,1.556-4.585,7.213l4.585-1.657Zm-.367-16.552c-5.424,1.452-5.632,1.785-4.248,6.813C160.473,411.8,160.473,411.8,159.441,406.156Zm192.37,33.416c-1.1,5.759-.522,6.469,4.806,5.895C357.023,440.26,357.023,440.26,351.811,439.572Zm-.288,83.44v5.971l5.365-1.03-.27-5.455a14.657,14.657,0,0,0-2.105-.1C353.7,522.507,352.9,522.721,351.523,523.012Zm4.786,16.249c-5.413-.168-5.835.389-4.348,5.751C357.27,544.77,357.3,544.737,356.309,539.261ZM154.7,479.136l4.906-.62v-5.869l-4.906.686Zm.323,42.9v6.071l4.694.795v-5.828Zm4.834-65.956c-5.793.677-6.262,1.465-4.211,6.591l4.211-.971Zm-.117-16.8c-5.574,1.222-5.574,1.222-4.5,6.894l4.5-1.135Zm-5.259,66.88.443,5.852,4.785-.237v-5.615Zm.55,32.644c-.688,6.236-.507,6.431,4.745,5.835v-5.1Zm4.774,23.258v-5.684c-1.143-.366-2.067-.695-3.012-.948a8.808,8.808,0,0,0-1.445-.152C154.059,560.716,154.126,560.831,159.8,562.061Zm-.119,16.754c.593-6.042.593-6.042-4.372-6.771C154.167,577.205,154.167,577.205,159.684,578.815Zm-4.843-181.876c5.171-1.972,5.171-1.972,4.452-6.037C157.172,392.417,153.547,392.426,154.841,396.939Z"/>
      <path d="M851,539H837.192l-.1-.508,2.819-1.042V523.494l-2.864-.86.05-.482h8.261c-3.435.81-4.251,2.308-4.07,4.77.253,3.435.064,6.9.064,10.695h7.657L851,532Z"/>
      <path d="M712.081,459.54c3.033,0,6.031-.313,8.909.139,1.329.209,2.7,1.718,3.576,2.971,4,5.722,7.818,11.568,11.728,17.353a9.963,9.963,0,0,0,3.364,3.28V459.874H751.52v48.111c-3.057,0-6.03.295-8.9-.13-1.34-.2-2.787-1.568-3.646-2.787-3.922-5.572-7.643-11.284-11.46-16.931a11.437,11.437,0,0,0-3.721-3.714v23.263H712.081Z"/>
      <path d="M804.923,467.786l-8.281,7.264c-1.4-1.1-2.63-2.156-3.952-3.086a13.645,13.645,0,0,0-17.449,1.092,14.024,14.024,0,0,0-2.662,17.347,13.782,13.782,0,0,0,16.372,6.316c4.721-1.669,6.57-3.272,4.779-9.036H782.324V476.53h23.385c0,6.693.094,13.451-.091,20.2-.032,1.139-1.122,2.371-1.968,3.347a25.295,25.295,0,1,1-3.809-36.93C801.521,464.429,802.98,466,804.923,467.786Z"/>
      <path d="M499.671,483.5A25.255,25.255,0,1,1,474.6,458.182,25.5,25.5,0,0,1,499.671,483.5Zm-25.332-13.518A13.446,13.446,0,1,0,487.7,483.393,13.517,13.517,0,0,0,474.339,469.981Z"/>
      <path d="M430.929,487.517H416v20.138h-11.7V459.78h11.416v15.693h14.93v-15.69h11.654v47.861H430.929Z"/>
      <path d="M650.785,487.77v19.809H639.454V459.993c6.888,0,13.942-.814,20.723.2,9.02,1.349,12.835,13.174,7.443,21.169-.818,1.214-1.84,2.29-2.974,3.684l17.2,22.945c-4.67,0-8.457.227-12.191-.12a6.623,6.623,0,0,1-3.836-2.527c-3.975-4.913-7.747-9.989-11.611-14.992-.78-1.011-1.637-1.962-2.459-2.94Zm.341-16.628c.017,3.986,1.484,5.072,5.066,4.111.768-.206,1.983-1.279,1.884-1.675-.228-.9-1.017-2.138-1.8-2.329C654.764,470.881,653.1,471.142,651.126,471.142Z"/>
      <path d="M591.833,466.554l-7.252,8.622c-10-5.6-11.9-5.738-15.789-.667a42.658,42.658,0,0,0,5.19,2.42c2.687.85,5.514,1.256,8.206,2.094,7.9,2.461,11.669,7.888,10.994,15.616-.607,6.95-6.336,12.5-13.922,13.44-9.09,1.122-16.572-2.214-23.429-8.55l7.519-8.738c1.752,1.256,3.1,2.631,4.73,3.3a27.472,27.472,0,0,0,8.452,2.415,5.716,5.716,0,0,0,4.525-2.928c.909-2.529-1.775-3.094-3.628-3.652-3.338-1.006-6.773-1.7-10.075-2.807-6.328-2.114-9.94-6.8-10.134-12.785s3.562-11.392,9.716-13.756C576.307,456.976,584.105,460.255,591.833,466.554Z"/>
      <path d="M811.962,499.415l7.507-8.6a24.969,24.969,0,0,0,4.169,2.941,35.32,35.32,0,0,0,8.374,2.841c2.274.353,5.061-.471,5.41-3.279.312-2.509-2.236-2.931-4.13-3.474-3.354-.962-6.787-1.683-10.084-2.807-6.082-2.075-9.548-6.633-9.832-12.5-.282-5.842,3.192-11.2,9.054-13.673,9.694-4.085,17.759-.741,25.5,5.711l-7.264,8.725c-5.012-2.737-9.733-7.387-16.332-1.213a43.337,43.337,0,0,0,5.58,2.806c2.681.87,5.516,1.259,8.214,2.088,8,2.459,11.918,7.95,11.205,15.489-.685,7.249-6.491,12.787-14.309,13.647C826.666,509.038,819.578,506.437,811.962,499.415Z"/>
      <path d="M613.007,487.023v20.732H601.534V459.633c7.359-.028,14.811-1.115,22.077.755,6.011,1.548,9.42,7.935,8.647,14.613a13.435,13.435,0,0,1-12.064,12C618.067,487.162,615.916,487.023,613.007,487.023Zm.4-15.821c.03,3.872,1.809,5.122,5.173,4.006a2.734,2.734,0,0,0,1.635-1.93,2.626,2.626,0,0,0-1.6-1.982A29.7,29.7,0,0,0,613.405,471.2Z"/>
      <path d="M525.937,507.857H514.11v-36.55H503.334V459.854h33.332v11.179H525.937Z"/>
      <path d="M687.318,459.833h11.337v47.88H687.318Z"/>
      <path d="M682.036,531.6c3.407-3.006,2.078-9.247,8.129-9.959a36.648,36.648,0,0,0-.08,17.225h-4.2c4.628-4.06.584-9.312,2.541-13.729l-1.21-.41c-1.459,3.125-2.917,6.25-4.825,10.338l-4.967-9.8c-1.719,7.436-1.177,11.355,2.192,13.609l-5.018.312V522.232c3.271-1.387,3.728,1.283,4.644,3.324C680.118,527.507,681.035,529.439,682.036,531.6Z"/>
      <path d="M504.185,532.031l-5.227-1.389V537.7h8.694l.823-3.087.513.046v4.274H495.736c2.345-2.616,1.319-5.678,1.375-8.545.053-2.738-.334-5.486-.537-8.371h11.935c.12,1.337.23,2.562.341,3.787l-.616.3-1.578-2.862H498.97v6.129l4.991-.893C504.016,529.357,504.1,530.737,504.185,532.031Z"/>
      <path d="M457.862,522.1h3.856c-.625,1.081-1.729,2.168-1.837,3.347a55.15,55.15,0,0,0,.015,8.477,4.577,4.577,0,0,0,9.137.027,58.08,58.08,0,0,0,.006-8.975c-.083-.973-1.351-1.843-2.153-2.857h4.186c-.157,3.006-.37,5.863-.442,8.723-.149,5.957-2.328,9.069-6.359,8.936-3.853-.128-5.858-3.132-5.987-8.81C458.218,528.094,458.015,525.22,457.862,522.1Z"/>
      <path d="M713.933,522H728.2v4l-.592.12c-.313-.969-.626-1.937-.953-2.947h-8.42v6.407l5.047-1.135v3.7l-5.11-1.575v7.069l4.045.726-.056.547h-7.2c-.146-.212-.3-.376-.275-.409,3.444-4.627,1.209-9.788,1.318-14.717C716.014,523.377,715.078,522.953,713.933,522Z"/>
      <path d="M528.058,522.18c-2.219,5.479-.2,11.2-1.491,17.476-4.5-4.3-5.977-9.922-10.343-14.91.461,5.453-1.566,10.062,1.823,14.143H513.73c2.14-4.128,1.657-14.2-.773-16.517,2.507-1.248,3.949-.271,5.184,1.966a83.607,83.607,0,0,0,7.1,10.926c-.024-4.36,2.091-8.88-1.033-13.084Z"/>
      <path d="M404.854,539.07V522.025c3.968.135,8.762-1.821,11.892,2.935a9.935,9.935,0,0,1,.4,10.444C414.322,540.8,409.212,538.877,404.854,539.07Zm2.251-1.352c3.987.551,7.272.47,9.031-3.229a8.386,8.386,0,0,0-.6-8.927c-2.155-3.012-5.165-2.909-8.432-2.062Z"/>
      <path d="M823.518,523.529l-3.547-.812.007-.514H826.4c2.085,5.312,4.29,10.933,6.53,16.639h-5.183l3.245-1.586c-.914-1.284-1.6-3.317-2.693-3.56a14.192,14.192,0,0,0-6.824.233c-1.724.5-1.337,3.164.757,5.018h-4.6C819.534,533.954,821.45,528.94,823.518,523.529Zm5.194,8.286-3.479-9.131c-1.373,3.67-2.326,6.219-3.415,9.131Z"/>
      <path d="M557.687,522.1c2.261,5.65,4.452,11.126,6.744,16.857l-5.429.331c3.667-1.967,3.222-4.684,1.4-5.277-2.4-.782-5.469-.295-8,.467-1.457.438-.826,2.856,1.309,4.476h-4.778c1.966-5.088,3.943-10.2,5.962-15.426l-3.356-.914.063-.514Zm-4.358,9.571h6.742c-1.208-3.006-2.222-5.532-3.556-8.852C555.254,526.319,554.316,528.927,553.329,531.669Z"/>
      <path d="M735.225,523.217v6.393l5.269-1.048c.1,1.021.208,2.244.323,3.488l-5.646-1.262v6.843h8.756c.362-.834.853-1.968,1.731-3.994V538.8a14.039,14.039,0,0,1-2.05.328c-3.808.029-7.617.015-11.609.015,2.56-3.523,2.43-13.949-.186-17.111h12.934q.166,2.042.332,4.075l-.641.131c-.321-.948-.643-1.9-1.026-3.025Z"/>
      <path d="M431.879,522.823c5.7,3.4,5.9,12.7.351,15.937a6.827,6.827,0,0,1-8.9-1.719,10.472,10.472,0,0,1-.1-12.854c2.443-2.961,5.343-3.353,8.825-1.194-6.832-.282-10.195,2.724-9.554,8.54.448,4.072,3.21,6.887,6.59,6.721a6.21,6.21,0,0,0,5.743-6.855C434.6,528.479,432.916,525.677,431.879,522.823Z"/>
      <path d="M761.381,522.168v3.686c-.638-.342-1-.509-1.333-.719-1.2-.755-2.307-1.914-3.607-2.2-2.056-.451-4.171.118-4.775,2.49-.671,2.632,1.275,3.437,3.362,3.925.969.227,1.942.442,2.911.667,2.51.583,4.276,1.83,4.162,4.721a4.7,4.7,0,0,1-4.332,4.706c-1.739.279-3.605-.228-5.415-.384l.112-1.008c1.8,0,3.765.452,5.337-.142a5.245,5.245,0,0,0,2.871-3.438c.148-.875-1.463-2.42-2.622-3.051-1.407-.766-3.394-.535-4.711-1.384-1.353-.873-3.177-2.65-3.033-3.813.2-1.58,1.834-3.841,3.269-4.214C755.958,521.392,758.669,522.045,761.381,522.168Z"/>
      <path d="M453.525,536.178c-3.377,3.838-6.388,4.526-9.85,2.448-3.489-2.094-5.222-7.532-3.534-12.042,2.642-7.061,8.184-4.96,13.463-3.921v4.158c-3.172-3.6-6.381-5.7-10.316-2.58-2.653,2.105-3.231,7.452-1.4,10.637C444.2,538.879,447.807,539.234,453.525,536.178Z"/>
      <path d="M567.943,538.923c2.458-3.369,2.424-13.488-.2-17.038,2.834,0,5.573-.435,8.076.145a8.146,8.146,0,0,1,4.8,3.468c.522.912-.986,3.044-1.69,4.577a23.563,23.563,0,0,1-1.548,2.547l-5.79-1.239c-1.008,5.434-1.008,5.434,2.053,7.54Zm3.235-8.954a29.37,29.37,0,0,0,4.508-.044c2.019-.33,4.26-1.267,3.759-3.6-.277-1.287-2.286-2.5-3.777-3.134-1.215-.512-2.819-.1-4.49-.1Z"/>
      <path d="M622,522.045h13.661v4.013c-.26-.083-.679-.136-.69-.234-.255-2.265-1.5-3.04-3.725-2.825-1.8.174-3.636.036-5.847.036v6.408l5.174-.756V532l-5.294-1.365v7.02l4.14.666-.042.568h-7.3C624.511,535.7,624.5,525.324,622,522.045Z"/>
      <path d="M806.284,539.269l-7.075-17.239,5.089-.273-2.775,2.147,5.089,13c4.635-7.355,5.919-12.461,3.6-14.8H814.7l-6.915,17.076Z"/>
      <path d="M488.136,524.254l-3.762,9.9-1.253-.045q-2.164-4.543-4.33-9.087c.092,4.661-2.923,9.625,1.3,13.887h-4.012V521.894c5.995.142,4.256,7.008,7.656,9.611l4.069-7.685C487.922,523.962,488.032,524.106,488.136,524.254Z"/>
      <path d="M777.844,523.24h-4.321v14.2l3.959,1.383h-9.575l3.8-1.318V523.27h-4.4c-.221,1.294-.455,2.66-.689,4.025l-.721-.03c-.074-1.545-.148-3.09-.241-5.041h13.714v5.011l-.777.143C778.352,526.054,778.113,524.729,777.844,523.24Z"/>
      <path d="M532.3,527.34v-5.188h13.619V527.1l-.515.152-.8-3.918h-4.41v14.2l3.021.831-.046.489h-7.147c.789-1.039,2.37-2.174,2.479-3.437.341-3.933.125-7.914.125-12.1l-4.592-.253c-.332,1.522-.63,2.882-.927,4.242Z"/>
      <path d="M589.271,538.926c3.756-1.911,4.656-5.043,2.472-8.8-1.569-2.7-3.485-5.193-5.381-7.977l2.387-.279,4.245,8.163c1.9-2.879,4.433-4.482,3.463-7.992h4.012c-3.348,4.658-7.842,8.579-6.188,15.434l3.107,1.034-.056.418Z"/>
      <path d="M661.194,537.8h7.686c.185-1.664.354-3.2.523-4.727l.738.014v5.743H656.256c5.082-1.5,3.449-5.244,3.331-8.149-.12-2.976,2.239-7.147-2.958-8.642h7.294l.109.485-2.838,1.028Z"/>
      <path d="M487.808,523.82c.2-2.811,2.089-1.68,3.375-1.851v16.976l-4.62.2c3.1-2.465,3.652-9.8,1.573-14.893C488.032,524.106,487.922,523.962,487.808,523.82Z"/>
      <path d="M793.223,538.988h-9.345l-.11-.536,3.991-.863v-14.2l-4-.672.028-.551H793.2l.139.326-3.88,1.067v14.024l3.837.689Z"/>
      <path d="M646.329,523.453v14.1l4.153.828-.076.554h-9.763l-.062-.538,4.187-.821V523.3L641,522.831l-.312-.558,9.668-.523.075.874Z"/>
    </g>
  </g>
</svg>
