<svg xmlns="http://www.w3.org/2000/svg" viewBox="0 0 1000 1000">
  <defs>
    <style>
      .cls-1 {
        fill: #fff;
      }
    </style>
  </defs>
  <title>StaffPick</title>
  <g id="StaffPick">
    <g id="Layer_1-2" data-name="Layer 1-2">
      <circle cx="499" cy="500" r="347"/>
      <path class="cls-1" d="M349.79,454.127v28.731h18.044V429.212H342.711a13.879,13.879,0,0,1-14.222-13.529c0-.117,0-.234,0-.351V352.317a13.88,13.88,0,0,1,13.524-14.227q.353-.009.7,0h32.271a13.88,13.88,0,0,1,14.223,13.528c0,.118,0,.235,0,.352v34.7H367.834V358.91H349.79v48.58h25.123a14.3,14.3,0,0,1,14.227,14.227V489.8a14.227,14.227,0,0,1-14.227,13.88h-32.2a14.366,14.366,0,0,1-14.227-13.88V453.71Zm70.233-94.662H401.077V338.09h59.337v21.375H441.4v144.7H420.023Zm91.608,112.22H487.9l-3.331,32.479H463.259L480.817,338.09h37.962l17.072,166.074h-20.82ZM490.256,450.31h19.015l-9.508-90.845Zm58.851,53.854V338.09h53.368v21.375H570.482v45.8h22.555v21.375H570.482v77.52Zm67.873,0V338.09h53.369v21.375H637.8v45.8h22.555v21.375H637.8v77.52ZM373.664,525.539h46.5a14.3,14.3,0,0,1,14.227,14.227v62.46a14.228,14.228,0,0,1-14.227,13.88H394.9v75.577H373.664Zm39.419,21.375H394.9V594.87h18.044Zm35.533-21.375h21.375V691.683H448.616Zm79.74,49.829V546.914H510.312V670.308h18.044V641.576h21.375v36.088a14.226,14.226,0,0,1-14.227,13.88H503.233a14.366,14.366,0,0,1-14.227-13.88v-137.9a14.575,14.575,0,0,1,14.227-14.227H535.5a14.3,14.3,0,0,1,14.227,14.227v35.6Zm58.366-49.829V588l16.586-62.46h22.555l-22.763,77.1,25.123,88.97H606.431l-19.709-72.592v72.662H565.416V525.539Z"/>
      <path class="cls-1" d="M788.4,451.42l.625,3.956c0,2.359.9,5.482,1.318,8.675l1.18,12.7s-4.789-4.789-9.508-9.161l-3.47-3.192-3.192-2.707-3.123-2.568-.555-3.678c-.417-2.221-.694-5.2-1.319-8.12L767.786,435.6s5.205,3.678,10.48,7.7l3.886,2.984,3.192,2.707Zm16.517-25.053,2.915,13.324c.694,3.332,1.11,6.94,1.527,9.231l.624,4.233L807.83,456.9l-2.221,3.747c-.833,1.388-1.8,2.846-2.776,4.3-3.817,5.76-7.634,11.243-7.634,11.243l-1.18-12.839c-.416-3.193-.971-6.385-1.318-8.745l-.625-3.955,2.152-3.679,2.151-3.817,2.29-4.372C801.931,432.682,804.915,426.367,804.915,426.367Zm-23.041-5,1.111,3.817c.763,2.29,1.318,5.413,2.012,8.536l1.874,8.536.625,2.846v1.11s-1.249-1.041-3.262-2.637l-6.94-5.483-6.94-5.274c-1.943-1.388-3.331-2.29-3.331-2.29l-3.262-11.521c-.416-1.457-.763-2.915-1.249-4.233l-1.249-3.609-1.25-3.539,2.707,2.151c2.082,1.18,5.066,2.776,7.773,4.511A111.9,111.9,0,0,1,781.874,421.37Zm13.811-26.442,1.388,4.026,1.457,4.094c.556,1.527.9,3.193,1.458,4.789l3.747,13.116s-.624,1.6-1.8,3.956-2.637,5.483-4.164,8.536-3.123,6.038-4.233,8.259-2.013,3.678-2.013,3.678v-1.11L790.48,441.5l-1.874-8.675c-.694-3.123-1.318-6.316-2.012-8.606l-1.111-3.886s2.776-6.107,5.413-12.492c1.319-3.193,2.36-6.385,3.262-8.814Zm-23.318-2.567.416,1.041.972,2.706L776.6,404.3c1.041,2.985,2.151,5.969,2.776,8.328l1.11,3.817-3.47-2.29-3.539-2.29-4.233-2.5c-5.761-3.332-11.382-6.316-11.382-6.316l-1.249-3.539-3.193-7.634-3.192-7.634-1.388-3.262,3.748,1.6c2.29.972,5.135,2.36,8.05,3.817,5.691,2.568,11.729,5.969,11.729,5.969ZM783.54,364.6l1.874,3.817,3.678,8.675,3.609,8.675,1.457,4.025s-2.221,6.94-4.58,13.047l-1.735,4.65-1.735,4.025-1.666,3.886-1.11-3.886c-.556-2.36-1.735-5.344-2.776-8.4l-2.915-8.4-.972-2.776-.416-1.041s2.013-6.315,3.956-12.908c.9-3.262,1.943-6.94,2.5-9.161Zm-23.8-.139,5.621,11.451c1.388,2.845,2.5,5.829,3.47,8.05l1.527,3.678s-5.968-3.053-11.8-5.829c-2.915-1.388-6.038-2.637-8.328-3.54l-3.748-1.526-1.665-3.332-1.666-3.47c-.694-1.249-1.457-2.5-2.151-3.817l-6.038-10.548s6.038,1.943,12.284,4.164l8.605,3.123Zm8.12-28.732L774.8,347.6c.832,1.457,1.665,2.984,2.429,4.372l1.943,3.886,1.874,3.817-.9,4.234c-.555,2.567-1.249,5.829-2.151,9.16-1.874,6.94-3.886,13.048-3.886,13.048l-1.527-3.748c-.972-2.221-2.082-5.274-3.54-8.12l-5.69-11.59.971-4.164c.486-2.429,1.041-5.76,1.666-9.16Zm-23.527,2.36,2.151,3.331c1.25,2.013,3.123,4.65,4.65,7.426l6.316,11.1s-6.316-2.429-12.492-4.511-12.423-3.887-12.423-3.887l-6.524-10.063-6.94-9.646s6.246,1.249,12.77,2.776c3.262.694,6.385,1.665,8.744,2.359Zm5.066-29.426,8.12,10.9,7.426,11.451s-.625,6.94-1.805,13.88-2.359,13.325-2.359,13.325l-6.385-11.243c-1.527-2.845-3.4-5.483-4.65-7.565l-2.221-3.4.486-4.234c0-2.5.694-5.968.833-9.369C749.256,315.674,749.4,308.664,749.4,308.664Zm-23.041,4.719,2.568,3.054c1.527,1.8,3.331,4.442,5.275,6.94l5.205,6.94c.694.972,1.249,1.8,1.665,2.36l.625.9-3.956-1.111-8.883-2.082-8.745-1.873-2.845-.556h-1.11l-7.634-9.23-2.846-3.4-2.637-2.776-2.776-2.776,4.025.347a58.171,58.171,0,0,1,8.953,1.041C719.692,312.2,726.354,313.383,726.354,313.383Zm1.666-29.7,2.915,3.123L733.919,290l3.192,3.817,8.675,10.479v4.372a94.324,94.324,0,0,1-.347,9.508c-.347,3.4-.347,6.94-.555,9.3s-.416,4.233-.416,4.233l-.625-.9a19.282,19.282,0,0,0-1.665-2.429l-5.275-6.94c-1.943-2.568-3.747-5.275-5.344-6.94l-2.567-3.123v-13.88c0-3.47-.347-6.94-.556-9.439Zm-22.069,6.94.763.764,1.943,2.082,5.969,6.384c2.151,2.36,4.372,4.65,5.829,6.524l2.568,3.054-4.094-.694-4.164-.694-4.858-.556c-6.94-.763-12.978-1.249-12.978-1.249l-2.568-2.776-5.968-5.691-5.9-5.968-3.054-2.082h12.978C699.15,290.134,705.951,290.62,705.951,290.62Zm-1.041-29.772,3.262,2.776,6.94,6.454,6.94,6.454,2.914,3.123s.625,6.94,1.041,13.88v13.533l-2.567-3.123c-1.458-1.943-3.748-4.233-5.9-6.94l-6.038-6.454L709.49,288.4l-.833-.763s-.694-6.94-1.6-13.394c-.486-3.4-.9-6.94-1.388-9.439Zm-21.653,9.3,9.716,8.259c2.429,2.082,4.65,4.372,6.385,5.968l2.915,2.776s-6.94-.416-13.186-.624H675.97l-2.845-2.429-2.915-2.5-3.54-2.637-9.577-6.94s6.316-.625,12.909-1.11l9.438-.694Zm-3.817-29.634,10.9,8.19,4.025,2.984,3.331,2.845,3.262,2.776.833,4.234c.486,2.567,1.18,5.829,1.665,9.23.972,6.94,1.666,13.533,1.666,13.533l-2.915-2.776c-1.8-1.666-4.025-3.956-6.454-6.038l-9.855-8.328L685.131,263c-.555-2.429-1.319-5.691-2.152-9.022C681.106,247.315,679.44,240.513,679.44,240.513Zm104.1,332.079a10.227,10.227,0,0,1-1.041,3.817l-2.36,8.4c-.832,3.053-1.873,6.107-2.637,8.328l-1.249,3.747L774.726,593c-.971-2.29-2.151-5.344-3.47-8.328-2.776-6.038-5.621-11.8-5.621-11.8s.416-1.457.971-3.609l1.874-8.05c.694-2.915,1.388-5.83,1.735-8.051l.625-3.678,2.151,3.47c1.249,2.082,2.984,4.928,4.511,7.773C780.556,566.555,783.54,572.592,783.54,572.592Zm24.984-16.239-.763,4.233c-.417,2.5-1.18,5.83-1.944,9.161l-2.082,9.161c-.624,2.5-1.11,4.094-1.11,4.094s-5.691,4.164-11.243,7.981c-2.845,1.944-5.76,3.748-7.911,5.067l-3.609,2.22,1.318-3.817c.764-2.29,1.874-5.343,2.707-8.466l2.429-8.537c.694-2.29,1.041-3.886,1.041-3.886s5.344-3.956,10.757-8.259a68.569,68.569,0,0,0,6.94-6.037Zm-19.085-13.741v1.11a7.977,7.977,0,0,1-.416,2.845l-1.527,8.606-.833,4.58-.9,3.956-.9,3.887-1.944-3.679c-1.179-2.22-2.637-5.066-4.372-7.911-3.331-5.691-6.94-11.1-6.94-11.1v-1.041a7.3,7.3,0,0,1,.417-2.707l1.041-8.189.555-4.372v-7.565l2.429,3.193c1.457,1.943,3.539,4.58,5.274,6.94C785.83,536.921,789.439,542.612,789.439,542.612Zm23.18-18.738v8.605l-1.319,5-1.18,9.3a5.777,5.777,0,0,1-.486,3.053v1.18s-5.205,4.719-10.41,9.091c-2.5,2.221-5.343,4.3-7.287,5.83l-3.331,2.568.9-3.956.9-4.025.832-4.65,1.527-8.744a20.652,20.652,0,0,1,.417-2.915V543.1s4.927-4.511,9.854-9.3c2.568-2.429,4.789-4.858,6.593-6.94Zm-20.4-11.729v4.025l-.694,8.745a60.406,60.406,0,0,1-.833,8.744l-.486,3.956-2.29-3.47c-1.388-2.082-3.192-4.789-5.205-7.426-3.956-5.344-7.842-10.341-7.842-10.341V492.366l2.776,2.984c1.6,1.8,4.025,4.234,6.038,6.94C788.051,506.94,792.215,512.145,792.215,512.145Zm21.167-20.959v27.2s-4.719,5.205-9.438,10.132a75.019,75.019,0,0,1-6.94,6.593l-3.054,2.915.486-4.025c.347-2.429.624-5.621.833-8.814l.694-8.814v-4.025s4.441-5,8.883-10.271c2.29-2.637,4.233-5.344,5.829-7.426Zm-21.445-9.646.417,12.769V506.94l-2.637-3.192c-1.527-1.944-3.609-4.442-5.9-6.94-4.442-4.928-8.953-9.508-8.953-9.508v-3.748c0-2.221-.486-5.205-.694-8.189l-.763-8.189a33.2,33.2,0,0,0-.417-3.748l.833.694,2.221,1.943,6.523,6.108,6.524,6.384,2.151,2.152Zm18.947-23.18a42.081,42.081,0,0,1,.485,4.233l.9,9.647c0,3.4.694,6.94.763,9.369v4.233s-4.164,5.691-8.259,11.035a66.96,66.96,0,0,1-5.9,6.94l-2.776,3.192V494.1l-.416-12.908.694-.9,1.735-2.5,5.274-7.7,5.2-7.981,1.666-2.707ZM637.8,760.458l-.972.555-2.567,1.319-7.773,4.025c-2.846,1.527-5.76,2.707-7.912,3.678l-3.609,1.666s2.915-6.038,5.552-12.006,4.789-12.145,4.789-12.145l3.331-1.735,6.94-4.1c2.568-1.527,5.205-2.915,6.94-4.233l3.123-2.013-1.11,3.887-1.18,4.025-1.527,4.511C640.16,754.143,637.8,760.458,637.8,760.458Zm28.87,7.357-3.608,2.29c-2.152,1.457-5.136,3.053-8.051,4.788l-8.12,4.65-3.817,1.943s-6.94-1.318-13.463-2.845-13.117-3.539-13.117-3.539l3.678-1.666c2.152-1.041,5.2-2.221,8.051-3.748l7.911-4.025,2.568-1.318.972-.556s6.523,1.25,13.325,2.291l5,.763,4.373.486Zm-2.845-23.388-.9.624-2.36,1.6-7.356,4.719-3.956,2.5-3.539,2.013-3.47,2.012L643.63,754c.832-2.36,1.943-5.413,2.914-8.606,1.944-6.384,3.54-12.561,3.54-12.561l.9-.555,2.221-1.527,6.94-4.789,3.609-2.567,3.053-2.36,2.915-2.29-.694,3.956c-.486,2.359-.972,5.69-1.735,8.813C665.56,737.9,663.825,744.427,663.825,744.427Zm29.5,4.372-3.331,2.637-3.47,2.707-4.1,2.915-7.634,5.413-2.568,1.735-.971.624s-6.94-.624-13.88-1.457c-3.331-.416-6.94-1.041-9.3-1.388l-4.164-.694,3.47-2.013,3.609-2.082,4.025-2.5,7.634-4.858,2.429-1.666.9-.624s6.94.555,13.88.971H689.3Zm-5.274-22.971-2.985,2.637-6.94,5.413c-2.5,1.943-5,3.956-6.94,5.274l-3.261,2.291,1.041-4.026.971-4.094.972-4.789c1.249-6.523,2.29-12.769,2.29-12.769l.763-.625,2.082-1.8,6.246-5.414c2.291-1.943,4.373-4.094,6.038-5.621l2.707-2.568s-.486,6.385-1.111,12.978S688.046,725.828,688.046,725.828Zm29.842,1.318-3.054,2.915c-1.874,1.735-4.233,4.164-6.94,6.385l-6.94,6.107-2.36,2.013-.9.763H670.21l3.262-2.36c2.012-1.318,4.511-3.4,6.94-5.343l6.94-5.483,3.192-3.123s6.94,0,13.88-.416S717.888,727.146,717.888,727.146ZM710.323,704.8l-2.776,2.915c-1.6,1.8-3.956,3.956-6.246,6.107l-6.385,6.038-2.984,2.637s1.041-6.523,1.6-13.116c0-3.262.555-6.524.764-8.883a21.012,21.012,0,0,0,0-4.026l8.536-9.091,7.842-9.091v22.069Zm29.773-1.665-8.953,10.34-9.369,9.855a26.309,26.309,0,0,0-4.3.486l-9.438.833c-6.94.624-13.88.694-13.88.694l3.053-2.637,6.455-6.108c2.359-2.22,4.719-4.441,6.315-6.246l2.776-2.914,4.164-.486a58.4,58.4,0,0,0,9.3-1.319C733.225,704.522,740.1,703.134,740.1,703.134Zm-9.855-21.445-2.429,3.123c-1.458,1.874-3.4,4.372-5.552,6.94l-5.76,6.94-1.944,2.152-.416.416V674.888l2.29-2.984c1.319-1.8,3.331-4.1,5-6.524l4.789-6.94,1.6-2.221.555-.832v4.025c0,2.429.625,5.621.972,8.883s.624,6.94.694,9.091Zm29.5-4.719-.625.972-1.8,2.5-5.413,7.634c-1.944,2.845-4.164,5.413-5.691,7.426l-2.637,3.331-4.164.972-9.369,1.8-8.953,1.6-4.233.555.763-.832,1.943-2.152,5.83-6.94c2.151-2.429,4.164-4.927,5.621-6.94l2.5-3.192,4.164-.9c2.5-.556,5.76-1.388,9.022-2.291l9.091-2.29,3.054-.9ZM747.73,656.636l-2.152,3.331c-1.318,2.013-2.915,4.719-4.788,7.356l-5.067,6.94-1.665,2.36-.625.9v-4.164s-.486-5.829-.833-9.022-.694-6.454-1.11-8.883l-.625-4.025,2.013-3.123,2.082-3.262c.763-1.18,1.457-2.5,2.221-3.817l4.094-6.94c.556-.972.972-1.8,1.319-2.36l.486-.9s.416,1.6.971,3.956,1.18,5.483,1.8,8.744,1.249,6.524,1.665,8.953Zm28.87-7.773-.555,1.041c0,.694-.833,1.6-1.458,2.707L769.66,660.8c-.833,1.457-1.666,2.984-2.5,4.3l-2.36,3.678-2.29,3.609-4.095,1.388c-2.429.832-5.76,1.8-9.091,2.776l-9.022,2.429-4.025,1.041.624-.9,1.666-2.359,5.135-6.94c1.874-2.637,3.54-5.413,4.858-7.426l2.152-3.4,4.025-1.318,8.744-3.262,8.814-3.47Zm-13.88-18.946-5.83,11.312-6.315,11.035s-1.18-6.94-2.429-13.048c-.625-3.192-1.457-6.384-2.082-8.744l-1.041-3.956,1.735-3.331a79.032,79.032,0,0,0,3.47-7.495c1.18-2.776,2.5-5.483,3.4-7.5l1.388-3.47,1.388,3.817c.832,2.359,1.735,5.343,2.706,8.536s1.874,6.315,2.568,8.744S762.72,629.917,762.72,629.917Zm27.76-10.757-1.6,3.956c-1.041,2.359-2.429,5.482-3.817,8.536s-2.776,6.246-4.025,8.467l-1.944,3.817-3.955,1.8c-2.36,1.041-5.414,2.5-8.675,3.678-6.455,2.5-12.7,4.789-12.7,4.789l6.455-11.174,5.829-11.173s1.6-.625,3.817-1.735l8.4-4.1c3.053-1.526,6.176-3.123,8.4-4.372Zm-15.893-17.35-4.927,11.867c-1.11,2.984-2.568,5.83-3.539,8.051l-1.666,3.608s-1.8-6.454-3.748-12.7-4.372-12.284-4.372-12.284l1.388-3.47c.833-2.082,1.666-5,2.707-7.772A78.522,78.522,0,0,0,763,581.267l1.041-3.608,1.735,3.678c1.11,2.221,2.359,5.205,3.608,8.189C772.158,595.494,774.587,601.81,774.587,601.81Zm26.511-13.6A128.781,128.781,0,0,1,797,601.255c-1.111,3.192-2.152,6.454-3.054,8.883l-1.527,3.956s-6.038,3.539-12.006,6.94a131.571,131.571,0,0,1-12.214,6.037l1.665-3.678c.972-2.221,2.429-5.135,3.54-8.12l4.719-12.006s5.691-3.4,11.52-6.94c2.915-1.874,5.83-3.747,7.912-5.274ZM610.04,773.644l-11.867,4.65-12.076,4.1s3.539-5.761,6.94-11.382c1.666-2.776,3.123-5.76,4.233-7.912l1.805-3.608,3.47-1.388c2.151-.764,4.788-2.082,7.564-3.332l7.5-3.4,3.331-1.735s-2.29,6.107-5.066,12.006c-1.388,2.984-2.776,5.968-3.887,8.259S610.04,773.644,610.04,773.644Zm28.176,10.341-3.817,1.943-8.536,3.886c-3.123,1.388-6.176,2.846-8.605,3.748l-3.956,1.6-4.164-1.249c-2.5-.763-5.691-1.735-8.953-2.984-6.523-2.36-12.7-4.789-12.7-4.789l12.214-4.164,12.007-4.719,4.025,1.18,9.022,2.429C631.415,782.666,638.216,783.985,638.216,783.985Zm-438.33-333.4-.625,3.956c-.347,2.36-.9,5.552-1.318,8.744l-1.18,12.839s-3.817-5.482-7.634-11.242c-.9-1.458-1.943-2.915-2.776-4.3l-2.221-3.748-2.151-3.747.624-4.234c.417-2.5.833-5.9,1.527-9.23l2.915-13.325s2.984,6.385,6.107,12.353l2.29,4.373,2.152,3.817Zm24.568-15.407-2.568,11.729c-.625,2.915-.972,5.9-1.319,8.12l-.555,3.678-3.123,2.568-3.192,2.706-3.47,3.193c-4.858,4.58-9.647,9.3-9.647,9.3l1.18-12.7c.416-3.192.971-6.315,1.318-8.675l.556-3.678,3.123-2.707,3.192-2.706,3.886-2.984C219.249,438.859,224.454,435.18,224.454,435.18Zm-17.975-14.851-1.11,3.886c-.764,2.29-1.319,5.483-2.013,8.606l-1.874,8.675-.9,2.984v1.11s-.9-1.457-2.013-3.678-2.706-5.2-4.233-8.258-3.054-6.177-4.164-8.537-1.8-3.955-1.8-3.955l3.747-13.117c.486-1.666.9-3.331,1.458-4.789l1.457-4.094,1.388-4.025,1.457,4.094c.9,2.429,1.944,5.622,3.262,8.814C203.772,414.222,206.479,420.329,206.479,420.329Zm26.094-12.7-1.249,3.539-1.249,3.609c-.486,1.318-.833,2.776-1.249,4.233L225.5,430.6s-1.388.9-3.332,2.29l-6.94,5.275-6.94,5.482c-2.012,1.527-3.261,2.637-3.261,2.637v-1.11l.624-2.845,1.874-8.537c.694-3.123,1.249-6.246,2.013-8.536l1.11-3.817s5.552-3.747,11.035-6.94c2.706-1.735,5.69-3.331,7.772-4.511ZM216.126,390.9l-.417,1.041-.971,2.776-2.915,8.12c-1.041,3.054-2.221,6.038-2.776,8.4l-1.111,3.887-1.665-3.887-1.735-4.025L202.8,402.84c-2.36-6.385-4.581-13.047-4.581-13.047l1.458-4.025,3.609-8.675,3.608-8.953,1.874-3.817.972,4.164c.555,2.5,1.6,5.9,2.5,9.161C214.46,384.588,216.126,390.9,216.126,390.9Zm27.343-9.924L241.8,384.31l-3.193,7.634-3.331,7.634-1.249,3.54s-5.622,3.053-11.382,6.315l-4.233,2.5-3.54,2.291-3.47,2.29,1.111-3.817c.555-2.29,1.735-5.275,2.776-8.328l3.053-8.467.972-2.707.416-1.041s5.969-3.123,11.868-5.968c2.984-1.388,5.829-2.845,8.05-3.817ZM228.9,362.727l-5.691,11.59c-1.388,2.914-2.567,5.9-3.539,8.119l-1.527,3.748s-2.012-6.385-3.886-13.047c-.9-3.331-1.6-6.94-2.152-9.161l-.9-4.233,1.874-3.817,1.943-3.887c.764-1.388,1.6-2.915,2.429-4.372l6.94-11.867s.972,6.94,2.152,13.88c.555,3.4,1.179,6.94,1.665,9.16ZM257,355.579l-5.9,10.41c-.763,1.318-1.527,2.567-2.151,3.817l-1.666,3.47-1.665,3.331-3.748,1.527c-2.221.971-5.344,2.151-8.328,3.539-5.83,2.776-11.8,5.83-11.8,5.83l1.527-3.679c.971-2.151,2.082-5.2,3.47-8.05l5.621-11.451,3.817-1.6,8.606-3.123C250.964,357.522,257,355.579,257,355.579ZM244.51,336.008l-2.221,3.4c-1.318,2.013-3.123,4.72-4.649,7.565l-6.385,11.243s-1.249-6.524-2.36-13.325-1.8-13.88-1.8-13.88l7.5-11.451,8.05-10.965s0,6.94.556,13.88a82.572,82.572,0,0,0,.832,9.369Zm28.732-4.234-6.94,9.647-6.524,10.063s-6.315,1.666-12.422,3.886-12.492,4.511-12.492,4.511l6.315-11.1c1.527-2.845,3.331-5.413,4.58-7.425l2.152-3.332,3.956-1.179c2.359-.694,5.482-1.6,8.744-2.36C266.926,333.093,273.242,331.774,273.242,331.774Zm-10.2-20.82-2.568,3.123c-1.6,1.874-3.4,4.511-5.344,6.94l-5.274,6.94c-.763.972-1.249,1.805-1.666,2.429l-.624.9a28.482,28.482,0,0,0-.417-4.234c-.416-2.5-.347-5.829-.555-9.3s0-6.94-.347-9.508v-3.956l8.675-10.479L258.113,290,261.1,286.8l2.915-3.123v4.3c0,2.637-.486,5.9-.556,9.438C263.04,304.292,263.04,310.954,263.04,310.954Zm28.732-1.179-2.568,2.706-2.637,2.776-2.846,3.4-7.634,9.23h-1.11l-2.846.555-8.744,1.874L254.5,332.4l-3.956,1.11.625-.9a19.542,19.542,0,0,1,1.665-2.359l5.205-6.94c1.943-2.568,3.678-5.2,5.275-6.94l2.567-3.054s6.94-1.249,13.048-2.221c3.192-.555,6.523-.763,8.952-1.041Zm-8.328-21.861-.833.763-2.013,2.151-6.038,6.455a56.252,56.252,0,0,0-5.9,6.94l-2.567,3.123v-13.88c.416-6.94,1.041-13.88,1.041-13.88l2.914-3.123,6.94-6.455,6.94-6.454,3.262-2.776-.833,4.234c-.485,2.5-.9,6.037-1.388,9.438C283.86,281.321,283.444,287.914,283.444,287.914Zm29.009,1.8-2.915,2.082-5.968,5.691-5.969,5.691-2.568,2.776s-6.384.485-12.977,1.249l-4.858.555-4.164.694-4.095.694,2.568-3.054c1.457-1.873,3.678-4.164,5.829-6.523l5.969-6.385,1.943-2.082.763-.763s6.94-.486,13.256-.764h8.883Zm-6.038-22.555-9.855,8.328c-2.5,2.082-4.719,4.442-6.454,6.038l-2.915,2.776s.694-6.94,1.666-13.533c.486-3.4,1.18-6.94,1.665-9.23l.833-4.234,3.262-2.776,3.331-2.845,4.025-2.984,10.9-8.19s-1.874,6.94-3.539,13.395c-.833,3.331-1.6,6.593-2.152,9.022Zm28.593,4.65-9.577,6.94-3.54,2.637-2.915,2.5-2.845,2.429H303.084c-6.454,0-13.186.625-13.186.625l2.915-2.776c1.735-1.6,3.955-3.886,6.384-5.968l9.716-8.259h4.095l9.161.555C328.692,270.98,335.008,271.813,335.008,271.813ZM204.813,573.5a10.387,10.387,0,0,0,1.041,3.886l2.429,8.536c.833,3.123,1.874,6.177,2.707,8.467l1.319,3.817L208.7,595.98c-2.152-1.318-5.066-3.123-7.912-5.066-5.621-3.817-11.312-7.634-11.312-7.634s-.486-1.666-1.11-4.1l-2.152-9.785c-.763-3.331-1.527-6.94-1.943-9.161l-.763-4.233,3.261,2.845c1.944,1.666,4.511,3.956,6.94,6.038C199.47,569.4,204.813,573.5,204.813,573.5ZM221.4,549.552l.625,3.678c0,2.221,1.041,5.135,1.735,8.05l1.735,8.12c.555,2.151.971,3.609.971,3.609s-2.845,5.76-5.621,11.8c-1.319,2.984-2.568,6.038-3.47,8.328l-1.527,4.025L214.46,593.2c-.763-2.29-1.8-5.274-2.637-8.328l-2.29-8.536c-.694-2.29-1.041-3.817-1.041-3.817s3.053-6.038,6.107-11.729c1.527-2.845,3.192-5.69,4.511-7.772ZM198.845,543.1v1.111a8.329,8.329,0,0,0,.416,2.915l1.735,8.4.833,4.65.9,4.025.9,3.956-3.054-2.221c-2.013-1.527-4.789-3.678-7.287-5.83-5.136-4.372-10.41-9.091-10.41-9.091v-1.18a7.829,7.829,0,0,0-.486-3.053l-1.665-9.3-.972-5v-8.605l2.915,3.192c1.8,1.874,4.025,4.372,6.593,6.94C193.64,538.656,198.845,543.1,198.845,543.1Zm18.807-22.277v7.565l.556,4.372,1.041,8.189a5.314,5.314,0,0,0,.416,2.707v1.041s-3.4,5.413-6.94,11.1c-1.735,2.845-3.192,5.76-4.372,7.911l-.833,3.887-.9-3.887-.9-3.956-.833-4.58-1.666-8.675a19.611,19.611,0,0,0-.416-2.845v-1.111s3.609-5.691,7.287-11.034a55.8,55.8,0,0,1,5.274-6.94ZM196,512.284v4.025l.694,8.814a61.469,61.469,0,0,0,.832,8.814l.486,4.025-3.053-2.915c-1.874-1.735-4.373-4.1-6.94-6.593-4.72-4.858-9.439-10.132-9.439-10.132v-27.2l2.568,3.47c1.6,2.082,3.539,4.788,5.83,7.426C191.558,507.356,196,512.284,196,512.284Zm21.028-20.057V516.24s-3.956,5-7.842,10.34c-2.013,2.637-3.817,5.413-5.205,7.426l-2.291,3.47-.485-3.956c-.07-2.29-.625-5.76-.625-8.675l-.694-8.744v-4.025s4.164-5.136,8.328-10.2c2.013-2.5,4.372-4.928,6.038-6.94Zm-20.751-10.9-.416,12.909v12.7l-2.776-3.192c-1.666-1.944-3.887-4.581-5.9-6.94-4.164-5.344-8.259-11.035-8.259-11.035V481.54c.139-2.36.833-6.038.833-9.3l.9-9.369a42.215,42.215,0,0,1,.555-4.511l.625,1.041,1.666,2.707,5.2,7.981,4.927,7.842,1.735,2.5Zm22.9-17.835a32.952,32.952,0,0,0-.416,3.747L218,475.432c0,2.985-.624,5.969-.694,8.19v3.747s-4.441,4.581-8.952,9.508c-2.29,2.429-4.372,5-5.9,6.94l-2.707,3.123v-12.7l.417-12.77.416-.694,2.151-2.151,6.871-6.385,6.524-6.107,2.22-1.943ZM352.427,763.72l.972.555,2.568,1.319,7.911,4.025c2.846,1.527,5.83,2.707,8.051,3.748l3.678,1.665s-6.454,1.8-13.117,3.54-13.463,2.845-13.463,2.845l-3.817-1.943-8.12-4.65c-2.984-1.735-5.969-3.331-8.051-4.789l-3.539-2.22,4.3-.417,4.372-.486,5-.763c6.732-1.11,13.255-2.429,13.255-2.429Zm-6.107-28.246,3.123,2.013c1.874,1.249,4.511,2.706,6.94,4.233l6.94,4.1,3.331,1.735s2.221,6.038,4.789,12.145S377,771.7,377,771.7l-3.609-1.666c-2.151-1.041-5.136-2.22-7.912-3.678l-7.772-4.025-2.568-1.319-.972-.555s-2.359-6.315-4.441-12.492l-1.527-4.511-1.18-4.025Zm-20.265,12.145.9.625,2.429,1.665,7.5,4.789,4.025,2.5,3.609,2.082,3.47,2.013-4.164.694c-2.5.416-5.9,1.041-9.3,1.388-6.94.833-13.88,1.457-13.88,1.457l-.972-.624-2.567-1.735-7.5-5.691-4.094-2.915-3.47-2.706-3.331-2.638h13.741C319.462,748.174,326.055,747.619,326.055,747.619Zm-3.47-28.87,2.915,2.29,3.054,2.36,3.608,2.567,6.94,4.789,2.221,1.527.9.555s1.666,6.177,3.54,12.561c.971,3.193,2.082,6.177,2.915,8.606l1.388,3.886-3.47-2.012-3.54-2.013-3.956-2.5-7.356-4.719-2.36-1.6-.9-.624s-1.735-6.524-3.192-12.839c-.764-3.123-1.319-6.454-1.735-8.814Zm-21.1,10.271,3.053,2.637,6.94,5.483c2.568,2.012,5.066,4.025,6.94,5.344l3.262,2.359H294.2l-.9-.763-2.082-1.18-6.94-6.107c-2.637-2.221-5-4.65-6.94-6.385l-3.053-2.915s6.94.694,13.88,1.18S301.488,729.02,301.488,729.02ZM301,699.733l2.706,2.568c1.666,1.527,3.748,3.678,6.038,5.621l6.246,5.414,2.082,1.8.764.625s1.041,6.315,2.29,12.769l.971,4.789.972,4.094,1.041,4.026-3.262-2.291c-2.012-1.318-4.441-3.331-6.94-5.274l-6.94-5.413-2.984-2.637s-1.11-6.94-1.874-13.048S301,699.733,301,699.733Zm-22,7.773,2.776,2.915c1.6,1.8,4.025,3.956,6.315,6.246s4.65,4.441,6.455,6.107l3.053,2.637s-6.94,0-13.88-.694l-9.438-.833a16.887,16.887,0,0,1-4.3-.485l-9.438-9.855-8.606-10.41s6.94,1.388,13.88,2.5c3.331.625,6.94,1.041,9.3,1.319Zm2.429-28.87,7.842,8.744,8.467,9.022v4.025s.416,5.622.763,8.883c.556,6.94,1.6,13.117,1.6,13.117l-2.985-2.637-6.315-5.969c-2.29-2.22-4.65-4.372-6.246-6.107l-2.776-2.915V691.544a125.444,125.444,0,0,1-.347-12.908Zm-22.624,5.413,2.5,3.192c1.457,1.943,3.47,4.442,5.621,6.94l5.83,6.94,1.943,2.152.764.832-4.234-.555-9.161-1.527-9.369-1.8-4.164-.972-2.637-3.331c-1.527-2.012-3.747-4.65-5.691-7.426l-5.482-8.05-1.805-2.5-.624-.972,1.11.347,3.054.9,9.091,2.568c3.262.9,6.524,1.8,9.022,2.29ZM264.15,655.6l.556.833,1.6,2.22,4.788,6.94c1.666,2.5,3.679,4.72,5,6.524l2.29,2.984v26.372l-.763-.763-1.943-2.152-5.76-6.94a71.081,71.081,0,0,1-5.552-6.94l-2.429-3.123v-4.164c0-2.429.347-5.76.694-9.091s.694-6.524.971-8.883V656.5Zm-23.11,3.053,2.152,3.4c1.318,2.013,2.984,4.789,4.858,7.426l5.135,6.94,1.666,2.359.624.9-4.025-1.041-9.23-2.152c-3.331-.9-6.94-1.943-9.091-2.776l-4.095-1.388-2.29-3.609-2.36-3.678c-.833-1.388-1.665-2.845-2.5-4.3l-4.372-8.05c-.625-1.11-1.111-2.082-1.458-2.707l-.555-1.041,3.956,1.735,8.814,3.47,8.744,3.262Zm8.12-27.76.486.9a6.372,6.372,0,0,0,1.318,2.359l4.095,6.94c.763,1.319,1.457,2.637,2.221,3.817l2.082,3.262,2.012,3.123-.624,4.025c-.417,2.429-.764,5.622-1.111,8.883s-.624,6.524-.832,9.022a22.11,22.11,0,0,0,0,4.164l-.625-.9-2.082-2.012-5.066-6.94c-1.874-2.568-3.47-5.344-4.789-7.357l-2.151-3.331.555-4.1c.416-2.5,1.041-5.76,1.666-8.952s1.318-6.385,1.8-8.745S249.16,630.888,249.16,630.888Zm-23.11.972,5.9,11.52,6.454,11.174s-6.246-2.221-12.7-4.789c-3.262-1.249-6.316-2.637-8.675-3.678l-3.956-1.8-1.943-3.817c-1.249-2.221-2.568-5.414-4.025-8.467s-2.846-6.246-3.817-8.536l-1.6-3.956,3.748,2.151c2.221,1.249,5.413,2.846,8.4,4.372l8.4,4.1a29.969,29.969,0,0,1,3.817,1.735Zm11.173-27.066,1.388,3.47c.9,2.082,2.152,4.789,3.4,7.5s2.429,5.483,3.47,7.5l1.735,3.332-1.041,3.955c-.625,2.36-1.458,5.622-2.082,8.745-1.319,6.385-2.429,13.047-2.429,13.047l-6.385-11.1-5.83-11.312a11.333,11.333,0,0,1,1.041-4.025c1.041-2.429,1.6-5.622,2.568-8.745s1.874-6.176,2.707-8.536Zm-23.318-1.666,4.719,12.007c1.18,2.984,2.637,5.9,3.539,8.119l1.666,3.679s-6.038-2.846-12.214-6.038-12.007-6.94-12.007-6.94L198.082,610c-.9-2.36-1.944-5.621-3.054-8.883-2.29-6.454-4.095-13.047-4.095-13.047l3.54,2.5c2.082,1.527,4.927,3.4,7.911,5.274C208.145,599.728,213.905,603.128,213.905,603.128Zm13.88-25.539,1.041,3.609c.555,2.151,1.6,5,2.568,7.842s1.873,5.691,2.706,7.773l1.388,3.47s-2.29,6.038-4.372,12.284-3.748,12.7-3.748,12.7l-1.665-3.609c-.972-2.221-2.36-5.066-3.54-8.05l-4.649-11.868s2.429-6.315,4.927-12.353c1.249-2.984,2.5-5.968,3.609-8.189ZM380.326,777.184l12.006,4.719,12.215,4.164s-6.177,2.429-12.7,4.788c-3.261,1.25-6.454,2.152-8.952,2.985l-4.164,1.249-3.956-1.6c-2.429-.9-5.483-2.36-8.606-3.748l-8.536-3.886-3.817-1.944s6.94-1.318,13.464-3.123l9.022-2.429Zm-9.3-27.344,3.332,1.735,7.5,3.4c2.706,1.249,5.413,2.567,7.564,3.331l3.47,1.388,1.805,3.609c1.11,2.151,2.568,5.205,4.233,7.911,3.193,5.622,6.94,11.382,6.94,11.382l-12.075-4.1-11.868-4.65s-.763-1.457-1.874-3.747-2.5-5.275-3.886-8.259C373.317,755.808,371.026,749.84,371.026,749.84Z"/>
      <path class="cls-1" d="M788.4,451.42l.625,3.956c0,2.359.9,5.482,1.318,8.675l1.18,12.7s-4.789-4.789-9.508-9.161l-3.47-3.192-3.192-2.707-3.123-2.568-.555-3.678c-.417-2.221-.694-5.2-1.319-8.12L767.786,435.6s5.205,3.678,10.48,7.7l3.886,2.984,3.192,2.707Zm16.517-25.053,2.915,13.324c.694,3.332,1.11,6.94,1.527,9.231l.624,4.233L807.83,456.9l-2.221,3.747c-.833,1.388-1.8,2.846-2.776,4.3-3.817,5.76-7.634,11.243-7.634,11.243l-1.18-12.839c-.416-3.193-.971-6.385-1.318-8.745l-.625-3.955,2.152-3.679,2.151-3.817,2.29-4.372C801.931,432.682,804.915,426.367,804.915,426.367Zm-23.041-5,1.111,3.817c.763,2.29,1.318,5.413,2.012,8.536l1.874,8.536.625,2.846v1.11s-1.249-1.041-3.262-2.637l-6.94-5.483-6.94-5.274c-1.943-1.388-3.331-2.29-3.331-2.29l-3.262-11.521c-.416-1.457-.763-2.915-1.249-4.233l-1.249-3.609-1.25-3.539,2.707,2.151c2.082,1.18,5.066,2.776,7.773,4.511A111.9,111.9,0,0,1,781.874,421.37Zm13.811-26.442,1.388,4.026,1.457,4.094c.556,1.527.9,3.193,1.458,4.789l3.747,13.116s-.624,1.6-1.8,3.956-2.637,5.483-4.164,8.536-3.123,6.038-4.233,8.259-2.013,3.678-2.013,3.678v-1.11L790.48,441.5l-1.874-8.675c-.694-3.123-1.318-6.316-2.012-8.606l-1.111-3.886s2.776-6.107,5.413-12.492c1.319-3.193,2.36-6.385,3.262-8.814Zm-23.318-2.567.416,1.041.972,2.706L776.6,404.3c1.041,2.985,2.151,5.969,2.776,8.328l1.11,3.817-3.47-2.29-3.539-2.29-4.233-2.5c-5.761-3.332-11.382-6.316-11.382-6.316l-1.249-3.539-3.193-7.634-3.192-7.634-1.388-3.262,3.748,1.6c2.29.972,5.135,2.36,8.05,3.817,5.691,2.568,11.729,5.969,11.729,5.969ZM783.54,364.6l1.874,3.817,3.678,8.675,3.609,8.675,1.457,4.025s-2.221,6.94-4.58,13.047l-1.735,4.65-1.735,4.025-1.666,3.886-1.11-3.886c-.556-2.36-1.735-5.344-2.776-8.4l-2.915-8.4-.972-2.776-.416-1.041s2.013-6.315,3.956-12.908c.9-3.262,1.943-6.94,2.5-9.161Zm-23.8-.139,5.621,11.451c1.388,2.845,2.5,5.829,3.47,8.05l1.527,3.678s-5.968-3.053-11.8-5.829c-2.915-1.388-6.038-2.637-8.328-3.54l-3.748-1.526-1.665-3.332-1.666-3.47c-.694-1.249-1.457-2.5-2.151-3.817l-6.038-10.548s6.038,1.943,12.284,4.164l8.605,3.123Zm8.12-28.732L774.8,347.6c.832,1.457,1.665,2.984,2.429,4.372l1.943,3.886,1.874,3.817-.9,4.234c-.555,2.567-1.249,5.829-2.151,9.16-1.874,6.94-3.886,13.048-3.886,13.048l-1.527-3.748c-.972-2.221-2.082-5.274-3.54-8.12l-5.69-11.59.971-4.164c.486-2.429,1.041-5.76,1.666-9.16Zm-23.527,2.36,2.151,3.331c1.25,2.013,3.123,4.65,4.65,7.426l6.316,11.1s-6.316-2.429-12.492-4.511-12.423-3.887-12.423-3.887l-6.524-10.063-6.94-9.646s6.246,1.249,12.77,2.776c3.262.694,6.385,1.665,8.744,2.359Zm5.066-29.426,8.12,10.9,7.426,11.451s-.625,6.94-1.805,13.88-2.359,13.325-2.359,13.325l-6.385-11.243c-1.527-2.845-3.4-5.483-4.65-7.565l-2.221-3.4.486-4.234c0-2.5.694-5.968.833-9.369C749.256,315.674,749.4,308.664,749.4,308.664Zm-23.041,4.719,2.568,3.054c1.527,1.8,3.331,4.442,5.275,6.94l5.205,6.94c.694.972,1.249,1.8,1.665,2.36l.625.9-3.956-1.111-8.883-2.082-8.745-1.873-2.845-.556h-1.11l-7.634-9.23-2.846-3.4-2.637-2.776-2.776-2.776,4.025.347a58.171,58.171,0,0,1,8.953,1.041C719.692,312.2,726.354,313.383,726.354,313.383Zm1.666-29.7,2.915,3.123L733.919,290l3.192,3.817,8.675,10.479v4.372a94.324,94.324,0,0,1-.347,9.508c-.347,3.4-.347,6.94-.555,9.3s-.416,4.233-.416,4.233l-.625-.9a19.282,19.282,0,0,0-1.665-2.429l-5.275-6.94c-1.943-2.568-3.747-5.275-5.344-6.94l-2.567-3.123v-13.88c0-3.47-.347-6.94-.556-9.439Zm-22.069,6.94.763.764,1.943,2.082,5.969,6.384c2.151,2.36,4.372,4.65,5.829,6.524l2.568,3.054-4.094-.694-4.164-.694-4.858-.556c-6.94-.763-12.978-1.249-12.978-1.249l-2.568-2.776-5.968-5.691-5.9-5.968-3.054-2.082h12.978C699.15,290.134,705.951,290.62,705.951,290.62Zm-1.041-29.772,3.262,2.776,6.94,6.454,6.94,6.454,2.914,3.123s.625,6.94,1.041,13.88v13.533l-2.567-3.123c-1.458-1.943-3.748-4.233-5.9-6.94l-6.038-6.454L709.49,288.4l-.833-.763s-.694-6.94-1.6-13.394c-.486-3.4-.9-6.94-1.388-9.439Zm-21.653,9.3,9.716,8.259c2.429,2.082,4.65,4.372,6.385,5.968l2.915,2.776s-6.94-.416-13.186-.624H675.97l-2.845-2.429-2.915-2.5-3.54-2.637-9.577-6.94s6.316-.625,12.909-1.11l9.438-.694Zm-3.817-29.634,10.9,8.19,4.025,2.984,3.331,2.845,3.262,2.776.833,4.234c.486,2.567,1.18,5.829,1.665,9.23.972,6.94,1.666,13.533,1.666,13.533l-2.915-2.776c-1.8-1.666-4.025-3.956-6.454-6.038l-9.855-8.328L685.131,263c-.555-2.429-1.319-5.691-2.152-9.022C681.106,247.315,679.44,240.513,679.44,240.513Zm104.1,332.079a10.227,10.227,0,0,1-1.041,3.817l-2.36,8.4c-.832,3.053-1.873,6.107-2.637,8.328l-1.249,3.747L774.726,593c-.971-2.29-2.151-5.344-3.47-8.328-2.776-6.038-5.621-11.8-5.621-11.8s.416-1.457.971-3.609l1.874-8.05c.694-2.915,1.388-5.83,1.735-8.051l.625-3.678,2.151,3.47c1.249,2.082,2.984,4.928,4.511,7.773C780.556,566.555,783.54,572.592,783.54,572.592Zm24.984-16.239-.763,4.233c-.417,2.5-1.18,5.83-1.944,9.161l-2.082,9.161c-.624,2.5-1.11,4.094-1.11,4.094s-5.691,4.164-11.243,7.981c-2.845,1.944-5.76,3.748-7.911,5.067l-3.609,2.22,1.318-3.817c.764-2.29,1.874-5.343,2.707-8.466l2.429-8.537c.694-2.29,1.041-3.886,1.041-3.886s5.344-3.956,10.757-8.259a68.569,68.569,0,0,0,6.94-6.037Zm-19.085-13.741v1.11a7.977,7.977,0,0,1-.416,2.845l-1.527,8.606-.833,4.58-.9,3.956-.9,3.887-1.944-3.679c-1.179-2.22-2.637-5.066-4.372-7.911-3.331-5.691-6.94-11.1-6.94-11.1v-1.041a7.3,7.3,0,0,1,.417-2.707l1.041-8.189.555-4.372v-7.565l2.429,3.193c1.457,1.943,3.539,4.58,5.274,6.94C785.83,536.921,789.439,542.612,789.439,542.612Zm23.18-18.738v8.605l-1.319,5-1.18,9.3a5.777,5.777,0,0,1-.486,3.053v1.18s-5.205,4.719-10.41,9.091c-2.5,2.221-5.343,4.3-7.287,5.83l-3.331,2.568.9-3.956.9-4.025.832-4.65,1.527-8.744a20.652,20.652,0,0,1,.417-2.915V543.1s4.927-4.511,9.854-9.3c2.568-2.429,4.789-4.858,6.593-6.94Zm-20.4-11.729v4.025l-.694,8.745a60.406,60.406,0,0,1-.833,8.744l-.486,3.956-2.29-3.47c-1.388-2.082-3.192-4.789-5.205-7.426-3.956-5.344-7.842-10.341-7.842-10.341V492.366l2.776,2.984c1.6,1.8,4.025,4.234,6.038,6.94C788.051,506.94,792.215,512.145,792.215,512.145Zm21.167-20.959v27.2s-4.719,5.205-9.438,10.132a75.019,75.019,0,0,1-6.94,6.593l-3.054,2.915.486-4.025c.347-2.429.624-5.621.833-8.814l.694-8.814v-4.025s4.441-5,8.883-10.271c2.29-2.637,4.233-5.344,5.829-7.426Zm-21.445-9.646.417,12.769V506.94l-2.637-3.192c-1.527-1.944-3.609-4.442-5.9-6.94-4.442-4.928-8.953-9.508-8.953-9.508v-3.748c0-2.221-.486-5.205-.694-8.189l-.763-8.189a33.2,33.2,0,0,0-.417-3.748l.833.694,2.221,1.943,6.523,6.108,6.524,6.384,2.151,2.152Zm18.947-23.18a42.081,42.081,0,0,1,.485,4.233l.9,9.647c0,3.4.694,6.94.763,9.369v4.233s-4.164,5.691-8.259,11.035a66.96,66.96,0,0,1-5.9,6.94l-2.776,3.192V494.1l-.416-12.908.694-.9,1.735-2.5,5.274-7.7,5.2-7.981,1.666-2.707ZM637.8,760.458l-.972.555-2.567,1.319-7.773,4.025c-2.846,1.527-5.76,2.707-7.912,3.678l-3.609,1.666s2.915-6.038,5.552-12.006,4.789-12.145,4.789-12.145l3.331-1.735,6.94-4.1c2.568-1.527,5.205-2.915,6.94-4.233l3.123-2.013-1.11,3.887-1.18,4.025-1.527,4.511C640.16,754.143,637.8,760.458,637.8,760.458Zm28.87,7.357-3.608,2.29c-2.152,1.457-5.136,3.053-8.051,4.788l-8.12,4.65-3.817,1.943s-6.94-1.318-13.463-2.845-13.117-3.539-13.117-3.539l3.678-1.666c2.152-1.041,5.2-2.221,8.051-3.748l7.911-4.025,2.568-1.318.972-.556s6.523,1.25,13.325,2.291l5,.763,4.373.486Zm-2.845-23.388-.9.624-2.36,1.6-7.356,4.719-3.956,2.5-3.539,2.013-3.47,2.012L643.63,754c.832-2.36,1.943-5.413,2.914-8.606,1.944-6.384,3.54-12.561,3.54-12.561l.9-.555,2.221-1.527,6.94-4.789,3.609-2.567,3.053-2.36,2.915-2.29-.694,3.956c-.486,2.359-.972,5.69-1.735,8.813C665.56,737.9,663.825,744.427,663.825,744.427Zm29.5,4.372-3.331,2.637-3.47,2.707-4.1,2.915-7.634,5.413-2.568,1.735-.971.624s-6.94-.624-13.88-1.457c-3.331-.416-6.94-1.041-9.3-1.388l-4.164-.694,3.47-2.013,3.609-2.082,4.025-2.5,7.634-4.858,2.429-1.666.9-.624s6.94.555,13.88.971H689.3Zm-5.274-22.971-2.985,2.637-6.94,5.413c-2.5,1.943-5,3.956-6.94,5.274l-3.261,2.291,1.041-4.026.971-4.094.972-4.789c1.249-6.523,2.29-12.769,2.29-12.769l.763-.625,2.082-1.8,6.246-5.414c2.291-1.943,4.373-4.094,6.038-5.621l2.707-2.568s-.486,6.385-1.111,12.978S688.046,725.828,688.046,725.828Zm29.842,1.318-3.054,2.915c-1.874,1.735-4.233,4.164-6.94,6.385l-6.94,6.107-2.36,2.013-.9.763H670.21l3.262-2.36c2.012-1.318,4.511-3.4,6.94-5.343l6.94-5.483,3.192-3.123s6.94,0,13.88-.416S717.888,727.146,717.888,727.146ZM710.323,704.8l-2.776,2.915c-1.6,1.8-3.956,3.956-6.246,6.107l-6.385,6.038-2.984,2.637s1.041-6.523,1.6-13.116c0-3.262.555-6.524.764-8.883a21.012,21.012,0,0,0,0-4.026l8.536-9.091,7.842-9.091v22.069Zm29.773-1.665-8.953,10.34-9.369,9.855a26.309,26.309,0,0,0-4.3.486l-9.438.833c-6.94.624-13.88.694-13.88.694l3.053-2.637,6.455-6.108c2.359-2.22,4.719-4.441,6.315-6.246l2.776-2.914,4.164-.486a58.4,58.4,0,0,0,9.3-1.319C733.225,704.522,740.1,703.134,740.1,703.134Zm-9.855-21.445-2.429,3.123c-1.458,1.874-3.4,4.372-5.552,6.94l-5.76,6.94-1.944,2.152-.416.416V674.888l2.29-2.984c1.319-1.8,3.331-4.1,5-6.524l4.789-6.94,1.6-2.221.555-.832v4.025c0,2.429.625,5.621.972,8.883s.624,6.94.694,9.091Zm29.5-4.719-.625.972-1.8,2.5-5.413,7.634c-1.944,2.845-4.164,5.413-5.691,7.426l-2.637,3.331-4.164.972-9.369,1.8-8.953,1.6-4.233.555.763-.832,1.943-2.152,5.83-6.94c2.151-2.429,4.164-4.927,5.621-6.94l2.5-3.192,4.164-.9c2.5-.556,5.76-1.388,9.022-2.291l9.091-2.29,3.054-.9ZM747.73,656.636l-2.152,3.331c-1.318,2.013-2.915,4.719-4.788,7.356l-5.067,6.94-1.665,2.36-.625.9v-4.164s-.486-5.829-.833-9.022-.694-6.454-1.11-8.883l-.625-4.025,2.013-3.123,2.082-3.262c.763-1.18,1.457-2.5,2.221-3.817l4.094-6.94c.556-.972.972-1.8,1.319-2.36l.486-.9s.416,1.6.971,3.956,1.18,5.483,1.8,8.744,1.249,6.524,1.665,8.953Zm28.87-7.773-.555,1.041c0,.694-.833,1.6-1.458,2.707L769.66,660.8c-.833,1.457-1.666,2.984-2.5,4.3l-2.36,3.678-2.29,3.609-4.095,1.388c-2.429.832-5.76,1.8-9.091,2.776l-9.022,2.429-4.025,1.041.624-.9,1.666-2.359,5.135-6.94c1.874-2.637,3.54-5.413,4.858-7.426l2.152-3.4,4.025-1.318,8.744-3.262,8.814-3.47Zm-13.88-18.946-5.83,11.312-6.315,11.035s-1.18-6.94-2.429-13.048c-.625-3.192-1.457-6.384-2.082-8.744l-1.041-3.956,1.735-3.331a79.032,79.032,0,0,0,3.47-7.495c1.18-2.776,2.5-5.483,3.4-7.5l1.388-3.47,1.388,3.817c.832,2.359,1.735,5.343,2.706,8.536s1.874,6.315,2.568,8.744S762.72,629.917,762.72,629.917Zm27.76-10.757-1.6,3.956c-1.041,2.359-2.429,5.482-3.817,8.536s-2.776,6.246-4.025,8.467l-1.944,3.817-3.955,1.8c-2.36,1.041-5.414,2.5-8.675,3.678-6.455,2.5-12.7,4.789-12.7,4.789l6.455-11.174,5.829-11.173s1.6-.625,3.817-1.735l8.4-4.1c3.053-1.526,6.176-3.123,8.4-4.372Zm-15.893-17.35-4.927,11.867c-1.11,2.984-2.568,5.83-3.539,8.051l-1.666,3.608s-1.8-6.454-3.748-12.7-4.372-12.284-4.372-12.284l1.388-3.47c.833-2.082,1.666-5,2.707-7.772A78.522,78.522,0,0,0,763,581.267l1.041-3.608,1.735,3.678c1.11,2.221,2.359,5.205,3.608,8.189C772.158,595.494,774.587,601.81,774.587,601.81Zm26.511-13.6A128.781,128.781,0,0,1,797,601.255c-1.111,3.192-2.152,6.454-3.054,8.883l-1.527,3.956s-6.038,3.539-12.006,6.94a131.571,131.571,0,0,1-12.214,6.037l1.665-3.678c.972-2.221,2.429-5.135,3.54-8.12l4.719-12.006s5.691-3.4,11.52-6.94c2.915-1.874,5.83-3.747,7.912-5.274ZM610.04,773.644l-11.867,4.65-12.076,4.1s3.539-5.761,6.94-11.382c1.666-2.776,3.123-5.76,4.233-7.912l1.805-3.608,3.47-1.388c2.151-.764,4.788-2.082,7.564-3.332l7.5-3.4,3.331-1.735s-2.29,6.107-5.066,12.006c-1.388,2.984-2.776,5.968-3.887,8.259S610.04,773.644,610.04,773.644Zm28.176,10.341-3.817,1.943-8.536,3.886c-3.123,1.388-6.176,2.846-8.605,3.748l-3.956,1.6-4.164-1.249c-2.5-.763-5.691-1.735-8.953-2.984-6.523-2.36-12.7-4.789-12.7-4.789l12.214-4.164,12.007-4.719,4.025,1.18,9.022,2.429C631.415,782.666,638.216,783.985,638.216,783.985Zm20.4-532.021.9.556,2.36,1.665,6.94,5.066c2.568,1.874,5.205,3.679,6.94,5.205l3.123,2.5h-8.328l-4.858.416c-6.94.625-12.978,1.388-12.978,1.388l-3.054-2.151-6.94-4.372-6.94-4.373-3.261-1.8,4.025-.9c2.429-.555,5.552-1.041,8.814-1.527Zm-6.94-29.009,3.748,2.082,7.981,4.928,7.911,5,3.47,2.429s2.013,6.94,3.817,13.256c.417,1.665.9,3.262,1.249,4.788l.972,4.3.9,4.164-3.123-2.5c-1.874-1.6-4.511-3.4-6.94-5.275l-6.94-5.135-2.359-1.666-.972-.555s-2.013-6.315-4.233-12.839c-1.111-3.192-2.291-6.593-3.262-8.953Zm-23.11,22.416,28.94,3.123-19.224-21.861-28.871-3.123Zm-295.644,6.593-.9.556-2.36,1.665-6.94,5.066c-2.568,1.874-5.2,3.679-6.94,5.205l-3.123,2.5h8.328l4.858.416c6.94.625,12.978,1.388,12.978,1.388l3.053-2.151,6.94-4.372,6.94-4.373,3.262-1.8-4.025-.9c-2.429-.555-5.552-1.041-8.814-1.527C339.38,252.8,332.926,251.964,332.926,251.964Zm7.079-29.009-3.748,2.082-7.981,4.928-7.912,5-3.47,2.429s-2.012,6.94-3.817,13.256c-.416,1.665-.9,3.262-1.249,4.788l-.971,4.3-.9,4.164,3.123-2.5c1.874-1.6,4.511-3.4,6.94-5.275l6.94-5.135,2.36-1.666.972-.555s2.012-6.315,4.233-12.839c1.11-3.192,2.29-6.593,3.262-8.953Zm23.11,22.416-28.94,3.123L353.4,226.633l28.94-3.123ZM199.886,450.587l-.625,3.956c-.347,2.36-.9,5.552-1.318,8.744l-1.18,12.839s-3.817-5.482-7.634-11.242c-.9-1.458-1.943-2.915-2.776-4.3l-2.221-3.748-2.151-3.747.624-4.234c.417-2.5.833-5.9,1.527-9.23l2.915-13.325s2.984,6.385,6.107,12.353l2.29,4.373,2.152,3.817Zm24.568-15.407-2.568,11.729c-.625,2.915-.972,5.9-1.319,8.12l-.555,3.678-3.123,2.568-3.192,2.706-3.47,3.193c-4.858,4.58-9.647,9.3-9.647,9.3l1.18-12.7c.416-3.192.971-6.315,1.318-8.675l.556-3.678,3.123-2.707,3.192-2.706,3.886-2.984C219.249,438.859,224.454,435.18,224.454,435.18Zm-17.975-14.851-1.11,3.886c-.764,2.29-1.319,5.483-2.013,8.606l-1.874,8.675-.9,2.984v1.11s-.9-1.457-2.013-3.678-2.706-5.2-4.233-8.258-3.054-6.177-4.164-8.537-1.8-3.955-1.8-3.955l3.747-13.117c.486-1.666.9-3.331,1.458-4.789l1.457-4.094,1.388-4.025,1.457,4.094c.9,2.429,1.944,5.622,3.262,8.814C203.772,414.222,206.479,420.329,206.479,420.329Zm26.094-12.7-1.249,3.539-1.249,3.609c-.486,1.318-.833,2.776-1.249,4.233L225.5,430.6s-1.388.9-3.332,2.29l-6.94,5.275-6.94,5.482c-2.012,1.527-3.261,2.637-3.261,2.637v-1.11l.624-2.845,1.874-8.537c.694-3.123,1.249-6.246,2.013-8.536l1.11-3.817s5.552-3.747,11.035-6.94c2.706-1.735,5.69-3.331,7.772-4.511ZM216.126,390.9l-.417,1.041-.971,2.776-2.915,8.12c-1.041,3.054-2.221,6.038-2.776,8.4l-1.111,3.887-1.665-3.887-1.735-4.025L202.8,402.84c-2.36-6.385-4.581-13.047-4.581-13.047l1.458-4.025,3.609-8.675,3.608-8.953,1.874-3.817.972,4.164c.555,2.5,1.6,5.9,2.5,9.161C214.46,384.588,216.126,390.9,216.126,390.9Zm27.343-9.924L241.8,384.31l-3.193,7.634-3.331,7.634-1.249,3.54s-5.622,3.053-11.382,6.315l-4.233,2.5-3.54,2.291-3.47,2.29,1.111-3.817c.555-2.29,1.735-5.275,2.776-8.328l3.053-8.467.972-2.707.416-1.041s5.969-3.123,11.868-5.968c2.984-1.388,5.829-2.845,8.05-3.817ZM228.9,362.727l-5.691,11.59c-1.388,2.914-2.567,5.9-3.539,8.119l-1.527,3.748s-2.012-6.385-3.886-13.047c-.9-3.331-1.6-6.94-2.152-9.161l-.9-4.233,1.874-3.817,1.943-3.887c.764-1.388,1.6-2.915,2.429-4.372l6.94-11.867s.972,6.94,2.152,13.88c.555,3.4,1.179,6.94,1.665,9.16ZM257,355.579l-5.9,10.41c-.763,1.318-1.527,2.567-2.151,3.817l-1.666,3.47-1.665,3.331-3.748,1.527c-2.221.971-5.344,2.151-8.328,3.539-5.83,2.776-11.8,5.83-11.8,5.83l1.527-3.679c.971-2.151,2.082-5.2,3.47-8.05l5.621-11.451,3.817-1.6,8.606-3.123C250.964,357.522,257,355.579,257,355.579ZM244.51,336.008l-2.221,3.4c-1.318,2.013-3.123,4.72-4.649,7.565l-6.385,11.243s-1.249-6.524-2.36-13.325-1.8-13.88-1.8-13.88l7.5-11.451,8.05-10.965s0,6.94.556,13.88a82.572,82.572,0,0,0,.832,9.369Zm28.732-4.234-6.94,9.647-6.524,10.063s-6.315,1.666-12.422,3.886-12.492,4.511-12.492,4.511l6.315-11.1c1.527-2.845,3.331-5.413,4.58-7.425l2.152-3.332,3.956-1.179c2.359-.694,5.482-1.6,8.744-2.36C266.926,333.093,273.242,331.774,273.242,331.774Zm-10.2-20.82-2.568,3.123c-1.6,1.874-3.4,4.511-5.344,6.94l-5.274,6.94c-.763.972-1.249,1.805-1.666,2.429l-.624.9a28.482,28.482,0,0,0-.417-4.234c-.416-2.5-.347-5.829-.555-9.3s0-6.94-.347-9.508v-3.956l8.675-10.479L258.113,290,261.1,286.8l2.915-3.123v4.3c0,2.637-.486,5.9-.556,9.438C263.04,304.292,263.04,310.954,263.04,310.954Zm28.732-1.179-2.568,2.706-2.637,2.776-2.846,3.4-7.634,9.23h-1.11l-2.846.555-8.744,1.874L254.5,332.4l-3.956,1.11.625-.9a19.542,19.542,0,0,1,1.665-2.359l5.205-6.94c1.943-2.568,3.678-5.2,5.275-6.94l2.567-3.054s6.94-1.249,13.048-2.221c3.192-.555,6.523-.763,8.952-1.041Zm-8.328-21.861-.833.763-2.013,2.151-6.038,6.455a56.252,56.252,0,0,0-5.9,6.94l-2.567,3.123v-13.88c.416-6.94,1.041-13.88,1.041-13.88l2.914-3.123,6.94-6.455,6.94-6.454,3.262-2.776-.833,4.234c-.485,2.5-.9,6.037-1.388,9.438C283.86,281.321,283.444,287.914,283.444,287.914Zm29.009,1.8-2.915,2.082-5.968,5.691-5.969,5.691-2.568,2.776s-6.384.485-12.977,1.249l-4.858.555-4.164.694-4.095.694,2.568-3.054c1.457-1.873,3.678-4.164,5.829-6.523l5.969-6.385,1.943-2.082.763-.763s6.94-.486,13.256-.764h8.883Zm-6.038-22.555-9.855,8.328c-2.5,2.082-4.719,4.442-6.454,6.038l-2.915,2.776s.694-6.94,1.666-13.533c.486-3.4,1.18-6.94,1.665-9.23l.833-4.234,3.262-2.776,3.331-2.845,4.025-2.984,10.9-8.19s-1.874,6.94-3.539,13.395c-.833,3.331-1.6,6.593-2.152,9.022Zm28.593,4.65-9.577,6.94-3.54,2.637-2.915,2.5-2.845,2.429H303.084c-6.454,0-13.186.625-13.186.625l2.915-2.776c1.735-1.6,3.955-3.886,6.384-5.968l9.716-8.259h4.095l9.161.555C328.692,270.98,335.008,271.813,335.008,271.813ZM204.813,573.5a10.387,10.387,0,0,0,1.041,3.886l2.429,8.536c.833,3.123,1.874,6.177,2.707,8.467l1.319,3.817L208.7,595.98c-2.152-1.318-5.066-3.123-7.912-5.066-5.621-3.817-11.312-7.634-11.312-7.634s-.486-1.666-1.11-4.1l-2.152-9.785c-.763-3.331-1.527-6.94-1.943-9.161l-.763-4.233,3.261,2.845c1.944,1.666,4.511,3.956,6.94,6.038C199.47,569.4,204.813,573.5,204.813,573.5ZM221.4,549.552l.625,3.678c0,2.221,1.041,5.135,1.735,8.05l1.735,8.12c.555,2.151.971,3.609.971,3.609s-2.845,5.76-5.621,11.8c-1.319,2.984-2.568,6.038-3.47,8.328l-1.527,4.025L214.46,593.2c-.763-2.29-1.8-5.274-2.637-8.328l-2.29-8.536c-.694-2.29-1.041-3.817-1.041-3.817s3.053-6.038,6.107-11.729c1.527-2.845,3.192-5.69,4.511-7.772ZM198.845,543.1v1.111a8.329,8.329,0,0,0,.416,2.915l1.735,8.4.833,4.65.9,4.025.9,3.956-3.054-2.221c-2.013-1.527-4.789-3.678-7.287-5.83-5.136-4.372-10.41-9.091-10.41-9.091v-1.18a7.829,7.829,0,0,0-.486-3.053l-1.665-9.3-.972-5v-8.605l2.915,3.192c1.8,1.874,4.025,4.372,6.593,6.94C193.64,538.656,198.845,543.1,198.845,543.1Zm18.807-22.277v7.565l.556,4.372,1.041,8.189a5.314,5.314,0,0,0,.416,2.707v1.041s-3.4,5.413-6.94,11.1c-1.735,2.845-3.192,5.76-4.372,7.911l-.833,3.887-.9-3.887-.9-3.956-.833-4.58-1.666-8.675a19.611,19.611,0,0,0-.416-2.845v-1.111s3.609-5.691,7.287-11.034a55.8,55.8,0,0,1,5.274-6.94ZM196,512.284v4.025l.694,8.814a61.469,61.469,0,0,0,.832,8.814l.486,4.025-3.053-2.915c-1.874-1.735-4.373-4.1-6.94-6.593-4.72-4.858-9.439-10.132-9.439-10.132v-27.2l2.568,3.47c1.6,2.082,3.539,4.788,5.83,7.426C191.558,507.356,196,512.284,196,512.284Zm21.028-20.057V516.24s-3.956,5-7.842,10.34c-2.013,2.637-3.817,5.413-5.205,7.426l-2.291,3.47-.485-3.956c-.07-2.29-.625-5.76-.625-8.675l-.694-8.744v-4.025s4.164-5.136,8.328-10.2c2.013-2.5,4.372-4.928,6.038-6.94Zm-20.751-10.9-.416,12.909v12.7l-2.776-3.192c-1.666-1.944-3.887-4.581-5.9-6.94-4.164-5.344-8.259-11.035-8.259-11.035V481.54c.139-2.36.833-6.038.833-9.3l.9-9.369a42.215,42.215,0,0,1,.555-4.511l.625,1.041,1.666,2.707,5.2,7.981,4.927,7.842,1.735,2.5Zm22.9-17.835a32.952,32.952,0,0,0-.416,3.747L218,475.432c0,2.985-.624,5.969-.694,8.19v3.747s-4.441,4.581-8.952,9.508c-2.29,2.429-4.372,5-5.9,6.94l-2.707,3.123v-12.7l.417-12.77.416-.694,2.151-2.151,6.871-6.385,6.524-6.107,2.22-1.943ZM352.427,763.72l.972.555,2.568,1.319,7.911,4.025c2.846,1.527,5.83,2.707,8.051,3.748l3.678,1.665s-6.454,1.8-13.117,3.54-13.463,2.845-13.463,2.845l-3.817-1.943-8.12-4.65c-2.984-1.735-5.969-3.331-8.051-4.789l-3.539-2.22,4.3-.417,4.372-.486,5-.763c6.732-1.11,13.255-2.429,13.255-2.429Zm-6.107-28.246,3.123,2.013c1.874,1.249,4.511,2.706,6.94,4.233l6.94,4.1,3.331,1.735s2.221,6.038,4.789,12.145S377,771.7,377,771.7l-3.609-1.666c-2.151-1.041-5.136-2.22-7.912-3.678l-7.772-4.025-2.568-1.319-.972-.555s-2.359-6.315-4.441-12.492l-1.527-4.511-1.18-4.025Zm-20.265,12.145.9.625,2.429,1.665,7.5,4.789,4.025,2.5,3.609,2.082,3.47,2.013-4.164.694c-2.5.416-5.9,1.041-9.3,1.388-6.94.833-13.88,1.457-13.88,1.457l-.972-.624-2.567-1.735-7.5-5.691-4.094-2.915-3.47-2.706-3.331-2.638h13.741C319.462,748.174,326.055,747.619,326.055,747.619Zm-3.47-28.87,2.915,2.29,3.054,2.36,3.608,2.567,6.94,4.789,2.221,1.527.9.555s1.666,6.177,3.54,12.561c.971,3.193,2.082,6.177,2.915,8.606l1.388,3.886-3.47-2.012-3.54-2.013-3.956-2.5-7.356-4.719-2.36-1.6-.9-.624s-1.735-6.524-3.192-12.839c-.764-3.123-1.319-6.454-1.735-8.814Zm-21.1,10.271,3.053,2.637,6.94,5.483c2.568,2.012,5.066,4.025,6.94,5.344l3.262,2.359H294.2l-.9-.763-2.082-1.18-6.94-6.107c-2.637-2.221-5-4.65-6.94-6.385l-3.053-2.915s6.94.694,13.88,1.18S301.488,729.02,301.488,729.02ZM301,699.733l2.706,2.568c1.666,1.527,3.748,3.678,6.038,5.621l6.246,5.414,2.082,1.8.764.625s1.041,6.315,2.29,12.769l.971,4.789.972,4.094,1.041,4.026-3.262-2.291c-2.012-1.318-4.441-3.331-6.94-5.274l-6.94-5.413-2.984-2.637s-1.11-6.94-1.874-13.048S301,699.733,301,699.733Zm-22,7.773,2.776,2.915c1.6,1.8,4.025,3.956,6.315,6.246s4.65,4.441,6.455,6.107l3.053,2.637s-6.94,0-13.88-.694l-9.438-.833a16.887,16.887,0,0,1-4.3-.485l-9.438-9.855-8.606-10.41s6.94,1.388,13.88,2.5c3.331.625,6.94,1.041,9.3,1.319Zm2.429-28.87,7.842,8.744,8.467,9.022v4.025s.416,5.622.763,8.883c.556,6.94,1.6,13.117,1.6,13.117l-2.985-2.637-6.315-5.969c-2.29-2.22-4.65-4.372-6.246-6.107l-2.776-2.915V691.544a125.444,125.444,0,0,1-.347-12.908Zm-22.624,5.413,2.5,3.192c1.457,1.943,3.47,4.442,5.621,6.94l5.83,6.94,1.943,2.152.764.832-4.234-.555-9.161-1.527-9.369-1.8-4.164-.972-2.637-3.331c-1.527-2.012-3.747-4.65-5.691-7.426l-5.482-8.05-1.805-2.5-.624-.972,1.11.347,3.054.9,9.091,2.568c3.262.9,6.524,1.8,9.022,2.29ZM264.15,655.6l.556.833,1.6,2.22,4.788,6.94c1.666,2.5,3.679,4.72,5,6.524l2.29,2.984v26.372l-.763-.763-1.943-2.152-5.76-6.94a71.081,71.081,0,0,1-5.552-6.94l-2.429-3.123v-4.164c0-2.429.347-5.76.694-9.091s.694-6.524.971-8.883V656.5Zm-23.11,3.053,2.152,3.4c1.318,2.013,2.984,4.789,4.858,7.426l5.135,6.94,1.666,2.359.624.9-4.025-1.041-9.23-2.152c-3.331-.9-6.94-1.943-9.091-2.776l-4.095-1.388-2.29-3.609-2.36-3.678c-.833-1.388-1.665-2.845-2.5-4.3l-4.372-8.05c-.625-1.11-1.111-2.082-1.458-2.707l-.555-1.041,3.956,1.735,8.814,3.47,8.744,3.262Zm8.12-27.76.486.9a6.372,6.372,0,0,0,1.318,2.359l4.095,6.94c.763,1.319,1.457,2.637,2.221,3.817l2.082,3.262,2.012,3.123-.624,4.025c-.417,2.429-.764,5.622-1.111,8.883s-.624,6.524-.832,9.022a22.11,22.11,0,0,0,0,4.164l-.625-.9-2.082-2.012-5.066-6.94c-1.874-2.568-3.47-5.344-4.789-7.357l-2.151-3.331.555-4.1c.416-2.5,1.041-5.76,1.666-8.952s1.318-6.385,1.8-8.745S249.16,630.888,249.16,630.888Zm-23.11.972,5.9,11.52,6.454,11.174s-6.246-2.221-12.7-4.789c-3.262-1.249-6.316-2.637-8.675-3.678l-3.956-1.8-1.943-3.817c-1.249-2.221-2.568-5.414-4.025-8.467s-2.846-6.246-3.817-8.536l-1.6-3.956,3.748,2.151c2.221,1.249,5.413,2.846,8.4,4.372l8.4,4.1a29.969,29.969,0,0,1,3.817,1.735Zm11.173-27.066,1.388,3.47c.9,2.082,2.152,4.789,3.4,7.5s2.429,5.483,3.47,7.5l1.735,3.332-1.041,3.955c-.625,2.36-1.458,5.622-2.082,8.745-1.319,6.385-2.429,13.047-2.429,13.047l-6.385-11.1-5.83-11.312a11.333,11.333,0,0,1,1.041-4.025c1.041-2.429,1.6-5.622,2.568-8.745s1.874-6.176,2.707-8.536Zm-23.318-1.666,4.719,12.007c1.18,2.984,2.637,5.9,3.539,8.119l1.666,3.679s-6.038-2.846-12.214-6.038-12.007-6.94-12.007-6.94L198.082,610c-.9-2.36-1.944-5.621-3.054-8.883-2.29-6.454-4.095-13.047-4.095-13.047l3.54,2.5c2.082,1.527,4.927,3.4,7.911,5.274C208.145,599.728,213.905,603.128,213.905,603.128Zm13.88-25.539,1.041,3.609c.555,2.151,1.6,5,2.568,7.842s1.873,5.691,2.706,7.773l1.388,3.47s-2.29,6.038-4.372,12.284-3.748,12.7-3.748,12.7l-1.665-3.609c-.972-2.221-2.36-5.066-3.54-8.05l-4.649-11.868s2.429-6.315,4.927-12.353c1.249-2.984,2.5-5.968,3.609-8.189ZM380.326,777.184l12.006,4.719,12.215,4.164s-6.177,2.429-12.7,4.788c-3.261,1.25-6.454,2.152-8.952,2.985l-4.164,1.249-3.956-1.6c-2.429-.9-5.483-2.36-8.606-3.748l-8.536-3.886-3.817-1.944s6.94-1.318,13.464-3.123l9.022-2.429Zm-9.3-27.344,3.332,1.735,7.5,3.4c2.706,1.249,5.413,2.567,7.564,3.331l3.47,1.388,1.805,3.609c1.11,2.151,2.568,5.205,4.233,7.911,3.193,5.622,6.94,11.382,6.94,11.382l-12.075-4.1-11.868-4.65s-.763-1.457-1.874-3.747-2.5-5.275-3.886-8.259C373.317,755.808,371.026,749.84,371.026,749.84Z"/>
      <path class="cls-1" d="M583.737,197.347a11.382,11.382,0,0,0-9.577-4.234,20.824,20.824,0,0,0-16.378,6.94,18.808,18.808,0,0,0-5.622,14.3v1.11h-.694a36.15,36.15,0,0,1-13.88,3.331,5.622,5.622,0,0,1-4.927-2.29,27.761,27.761,0,0,0,14.574-6.94,12,12,0,0,0,5.066-9.508q-.555-6.939-9.438-6.94a22.554,22.554,0,0,0-16.656,6.94,20.267,20.267,0,0,0-6.524,13.88,16.307,16.307,0,0,0,0,2.36,5.141,5.141,0,0,1-2.29,1.041c-1.18,0-1.874,0-2.151-.694a4.992,4.992,0,0,1-.347-2.637,47.67,47.67,0,0,1,1.11-5.552,41.6,41.6,0,0,0,1.11-6.871,8.049,8.049,0,0,0-1.457-5.691,6.942,6.942,0,0,0-6.246-2.082,13.875,13.875,0,0,0-6.94,2.707,23.515,23.515,0,0,0-4.1,3.886l-1.388,1.18a8.883,8.883,0,0,0-1.457-5.691,6.94,6.94,0,0,0-6.315-2.082,16.1,16.1,0,0,0-9.369,4.095,16.922,16.922,0,0,0-3.193,3.609,7.987,7.987,0,0,0,0-1.735,8.537,8.537,0,0,0-1.457-4.928,4.026,4.026,0,0,0-3.817-1.943q-1.389,0-5.136,3.609l-5.691,5.274,2.152,2.429a9.975,9.975,0,0,1,3.053-1.8c.625,0,.9.555.833,1.6a50.619,50.619,0,0,1-.833,6.524,34.5,34.5,0,0,1-.694,4.511,10,10,0,0,1-4.511,2.706c-1.943,0-2.845-1.318-2.845-3.886q1.388-8.468,2.568-13.88a7.57,7.57,0,0,0-1.041-5.275,4.442,4.442,0,0,0-4.372-1.735,12.981,12.981,0,0,0-5.83,3.609l-2.707,2.5c0-4.3-2.082-6.455-5.829-6.94q-8.4,0-11.382,9.507a7.509,7.509,0,0,1,2.984-.694q3.054,0,2.707,3.47a15.745,15.745,0,0,1-2.707,6.108q-2.568,4.025-3.817,4.025t-2.984-6.177q-.486-1.8-1.665-9.23T417.8,192.7a13.307,13.307,0,0,0-5.968,3.609l-5.9,5.274,1.873,2.429A12.426,12.426,0,0,1,411,202.135q2.082,0,3.886,6.524l3.262,11.937q2.428,6.523,5.968,6.523,5.691,0,13.88-10.687a45.62,45.62,0,0,0,7.7-12.076,9.022,9.022,0,0,1,2.845-1.735c1.111,0,1.666.763,1.666,2.36,0,0-.625,2.567-1.805,6.94a42.611,42.611,0,0,0-1.873,9.23,6.936,6.936,0,0,0,1.388,4.719,5.272,5.272,0,0,0,4.3,1.8A18.661,18.661,0,0,0,464.3,222.4l1.041-1.041a7.356,7.356,0,0,0,1.666,3.4,11.173,11.173,0,0,0,8.813,2.637,19.035,19.035,0,0,1-.624-6.94,26.436,26.436,0,0,1,2.984-11.1q2.637-5.2,4.927-5.136c1.735,0,2.568,1.111,2.429,3.331a22.9,22.9,0,0,1-.9,5.136,24.321,24.321,0,0,0-.9,5.83,7.979,7.979,0,0,0,2.082,6.94,12.775,12.775,0,0,0,8.883,2.082,13.386,13.386,0,0,1-.763-5.969,25.055,25.055,0,0,1,3.747-11.451q3.262-5.621,5.622-5.621c1.457,0,2.151,1.18,2.082,3.47a32.6,32.6,0,0,1-1.111,6.315,33.006,33.006,0,0,0-1.11,6.94q0,6.523,5.691,6.524A18.672,18.672,0,0,0,521,222.4l.416.763a11.592,11.592,0,0,0,10.48,4.928,38.725,38.725,0,0,0,19.5-5.552l2.082-1.249a12.9,12.9,0,0,0,1.388,2.29,13.12,13.12,0,0,0,10.9,4.65,19.154,19.154,0,0,0,14.435-6.038,21.586,21.586,0,0,0,6.177-14.366A14.572,14.572,0,0,0,583.737,197.347Zm-52.744,16.309a5.291,5.291,0,0,1,0-1.18,12.634,12.634,0,0,1,2.915-6.94,7.5,7.5,0,0,1,5.483-3.956c1.388,0,2.082.833,2.012,2.429a8.813,8.813,0,0,1-2.706,4.719A20.828,20.828,0,0,1,530.993,213.656Zm42.681,1.8a8.257,8.257,0,0,1-6.94,4.789,3.055,3.055,0,0,1-2.776-2.013,7.705,7.705,0,0,1-.832-4.025,17.423,17.423,0,0,1,2.706-8.745,8.742,8.742,0,0,1,7.634-5c.972,0,1.735.694,2.221,2.012a11.516,11.516,0,0,1,.694,4.511A17.21,17.21,0,0,1,573.674,215.46ZM453.2,178.956a9.233,9.233,0,0,1,5.968-2.152,4.025,4.025,0,0,1,3.193,1.458,4.231,4.231,0,0,1,1.18,3.053,6.386,6.386,0,0,1-2.291,4.3,8.053,8.053,0,0,1-5.829,2.36c-3.47,0-5.136-1.527-5-4.511A6.243,6.243,0,0,1,453.2,178.956Z"/>
    </g>
  </g>
</svg>
