<svg xmlns="http://www.w3.org/2000/svg" viewBox="0 0 1000 1000">
  <title>WebbyAward</title>
  <g id="WebbyAward">
    <g>
      <path d="M363.648,304.628V696.493H321.155c0-1.107.013-2.18,0-3.253-.253-19.191-.531-38.382-.733-57.573a12.235,12.235,0,0,0-1.581-5.735c-5.271-10.112-13.956-14.872-24.876-16.3-7.138-.934-14.272-1.9-21.628-3.225.941-.359,1.888-.7,2.82-1.081,9.371-3.838,18.786-7.572,28.079-11.59a43.391,43.391,0,0,0,8-4.954,24.833,24.833,0,0,0,4.828-4.595c3.163-3.99,2.959-7.968-.819-11.359a35.51,35.51,0,0,0-7.775-5.231c-8.592-4.3-17.889-6.491-27.207-8.539-4.326-.95-8.687-1.74-13.079-2.97,4.352-1.283,8.781-2.352,13.038-3.894,8.565-3.1,17.111-6.286,25.5-9.815a30.614,30.614,0,0,0,8.29-5.557c3.978-3.572,3.74-7.086-.336-10.551-3.938-3.347-8.655-5.324-13.5-6.816-10.943-3.371-21.967-6.478-32.954-9.709a14.45,14.45,0,0,1-4.28-1.915c4.031-.813,8.07-1.586,12.09-2.447,10.018-2.146,20.019-4.4,29.462-8.492a43.617,43.617,0,0,0,8.976-5.034c4.825-3.646,4.966-8.09.356-11.958a47.6,47.6,0,0,0-9.411-6.081c-10.128-5.02-20.963-8.111-31.824-11.084a11.5,11.5,0,0,1-3.527-1.48c.954-.336,1.9-.69,2.862-1,11.286-3.672,22.588-7.335,32.875-13.417a36.27,36.27,0,0,0,7.231-5.5c4.391-4.411,4.266-8.876-.5-12.821a35.3,35.3,0,0,0-9.5-5.9c-9.259-3.557-18.7-6.633-28.1-9.826-3.445-1.17-6.961-2.134-11.161-3.41a20.275,20.275,0,0,1,2.363-.856c11.76-2.277,23.489-4.742,34.421-9.815a44.636,44.636,0,0,0,10.192-6.489c4.374-3.752,4.341-8.557-.062-12.315a46.692,46.692,0,0,0-10.181-6.534c-10.132-4.816-20.983-7.524-31.9-9.836-8.131-1.723-16.346-3.049-24.541-4.451a3.285,3.285,0,0,0-2.625.685c-4.279,5-8.423,10.111-12.989,15.653,4.807.71,9.166,1.209,13.468,2.018q15.383,2.893,30.712,6.068a17.292,17.292,0,0,1,5.024,2.09c1.768,1.025,1.765,2.291-.054,3.138a23.235,23.235,0,0,1-6.321,2.071c-9.232,1.343-18.462,2.89-27.75,3.605-18.722,1.44-37.478,2.469-56.229,3.5-9.934.546-19.887.745-29.831,1.091a5.651,5.651,0,0,1-1.025-.184V304.628Z"/>
      <path d="M467.161,593.223c-2.824-14.549-5.5-28.345-8.181-42.141h-.57l-8.362,42.1c-9.316,1.5-18.611.747-28.263.958-6.646-27.78-13.28-55.507-20-83.587h22.761c4.155,17.332,8.351,34.83,12.546,52.329l.514.064c3.486-17.555,6.972-35.11,10.511-52.934,6.852-2.2,13.92-.562,21.1-1.24,3.513,18.115,6.965,35.909,10.416,53.7l.448.058,15-52.959h22.751c-1.806,6.412-3.583,12.728-5.365,19.043Q503.836,559.2,495.2,589.772c-.974,3.451-.985,3.45-4.721,3.451C482.788,593.224,475.1,593.223,467.161,593.223Z"/>
      <path d="M611.945,510.592a5.875,5.875,0,0,1,1.157-.258c15.3-.318,30.593-.762,45.891-.875a21.948,21.948,0,0,1,20.785,15.046,22.342,22.342,0,0,1-7.212,24.656c-.623.5-1.257.99-2.125,1.673.668.506,1.176.917,1.71,1.293a23.1,23.1,0,0,1,9.237,25.684,22.778,22.778,0,0,1-21.547,16.713c-9.011.19-18.034-.26-27.053-.369-5.68-.068-11.362-.031-17.043-.041-1.2,0-2.4,0-3.8,0Zm20.85,67.4c2.034,0,3.928.019,5.822,0,5.263-.063,10.551.147,15.781-.3,4.94-.426,8.537-5.084,8.386-9.973-.151-4.851-3.849-9.354-8.545-9.539-6.969-.274-13.958-.034-20.938.006-.149,0-.3.236-.506.414Zm.032-33.935c4.82,0,9.458.008,14.1-.007a18.209,18.209,0,0,0,3.031-.154,9.994,9.994,0,0,0-1.365-19.879c-1.52-.049-3.042-.013-4.563-.013h-11.2Z"/>
      <path d="M695.449,511.457c.288-.131.461-.276.638-.28,15.4-.366,30.8-.918,46.2-1.007a21.974,21.974,0,0,1,21.135,15.452c2.935,9.249-.172,18.737-8.153,24.9-.393.3-.783.613-1.407,1.1.93.644,1.728,1.168,2.5,1.732a23.243,23.243,0,0,1,8.665,24.858c-2.6,9.4-10.762,16.7-20.418,16.926-16.309.388-32.633.106-49.153.106Zm20.918,47.293v19.8a16.345,16.345,0,0,0,1.65.185c5.983.012,11.965.034,17.947-.015a12.041,12.041,0,0,0,3.287-.517,10.06,10.06,0,0,0,7.013-10.236c-.449-4.911-4.234-9.023-9-9.169C730.387,558.594,723.5,558.75,716.367,558.75Zm.031-34.042V544.6c.638.06,1.038.13,1.439.131,4.766.007,9.534.084,14.3-.018a9.984,9.984,0,0,0,.385-19.956C727.263,524.529,721.988,524.708,716.4,524.708Z"/>
      <path d="M537.114,552.752c.277,1.43.385,2.411.659,3.342a23.314,23.314,0,0,0,38.508,10.437,5.2,5.2,0,0,1,4-1.634c6.29.078,12.581.031,19.388.031-.472,1.226-.794,2.211-1.219,3.148-7.039,15.534-23.439,27.1-43.425,24.845-16.622-1.877-31.75-15.582-35.853-32.945-4.953-20.959,4.815-42.25,23.473-51.162,22.436-10.716,49.1,1.013,57.5,25.2,2.077,5.983,3.2,12.007,2.181,18.739Zm44.763-12.438c-3.066-9.694-12.894-15.85-23.733-15.146-8.767.571-18.068,7.811-19.333,15.146Z"/>
      <path d="M155.452,453.408v-32.2c5.3.435,10.422.808,15.537,1.287,14.135,1.322,28.279,2.566,42.4,4.066,18.241,1.937,36.5,3.847,54.43,7.919a45.082,45.082,0,0,1,6.391,1.936,25.387,25.387,0,0,1,3.768,2.243l.051.906c-1.32.762-2.555,1.877-3.977,2.222-5.5,1.337-11.012,2.932-16.614,3.522q-29.942,3.153-59.951,5.647c-13.138,1.09-26.319,1.655-39.481,2.445C157.217,453.449,156.427,453.408,155.452,453.408Z"/>
      <path d="M815.875,593.105H796.914c-.062-1.2-.166-2.27-.167-3.343-.013-10.051-.06-20.1.033-30.152a9.178,9.178,0,0,0-1.75-5.63C785.055,539.431,775.2,524.8,765.308,510.2a2.694,2.694,0,0,1-.124-.569c.742-.077,1.469-.215,2.2-.217,5.279-.019,10.56.074,15.836-.057a4.042,4.042,0,0,1,3.939,2.073c5.473,8.3,11.05,16.532,16.594,24.786.613.913,1.247,1.811,2.033,2.949,3.92-5.8,7.666-11.332,11.408-16.869,2.216-3.278,4.453-6.542,6.624-9.85a3.144,3.144,0,0,1,2.911-1.743c6.189.073,12.379.031,19.112.031-.749,1.222-1.266,2.142-1.854,3.014q-13.275,19.683-26.592,39.336a8.428,8.428,0,0,0-1.551,5.072c.071,10.456.034,20.913.034,31.37Z"/>
      <path d="M155.413,570.35c8.1.491,15.8.914,23.494,1.436,13.368.907,26.742,1.751,40.1,2.852,15.771,1.3,31.584,2.332,47.138,5.484,2.621.531,5.417.877,7.473,3.135-.679,2.012-2.473,2.482-4.046,2.848-6.609,1.537-13.2,3.394-19.906,4.236-25.668,3.222-51.379,6.11-77.078,9.086-4.636.537-9.289.954-13.942,1.317-3.084.241-3.366-.073-3.372-3.066q-.021-12.336,0-24.674C155.271,572.218,155.352,571.432,155.413,570.35Z"/>
      <path d="M155.431,550.133V519.991c8.716,1.034,17.249,2.112,25.8,3.046,12.812,1.4,25.642,2.64,38.452,4.056,16.432,1.816,32.936,3.148,49.125,6.726,2.22.491,4.611.818,6.3,2.816-.564,1.989-2.373,2.241-3.82,2.551-5.349,1.148-10.71,2.346-16.128,3.046-31.433,4.057-63.067,5.773-94.665,7.887C158.89,550.226,157.278,550.133,155.431,550.133Z"/>
      <path d="M155.438,503.792V473.506c.813,0,1.5-.048,2.174.007,13.85,1.127,27.706,2.189,41.547,3.423,13.232,1.18,26.476,2.31,39.662,3.9,10.454,1.257,20.839,3.109,31.229,4.845,2,.335,3.887,1.358,5.922,2.1-.817,2.268-2.4,2.59-3.814,2.84-6.98,1.234-13.94,2.74-20.978,3.444-24.521,2.456-49.078,4.555-73.607,6.936-6.956.676-13.863,1.853-20.794,2.79A11.464,11.464,0,0,1,155.438,503.792Z"/>
      <path d="M493.807,694.635q-13.481-35.451-27.016-71.045l3.872-1.612,23.348,60.572c7.363-22.05,14.5-43.415,21.629-64.779l.519-.025,22.281,63.522.608.007c7.078-19.644,14.157-39.288,21.343-59.233l3.936,1.452c-8.433,23.74-16.8,47.294-25.166,70.848l-.61.142-22.08-62.916-.694-.031-21.219,63.1Z"/>
      <path d="M534.761,443.767V470.93h44.453v6.106H529.323V405.957h47.621V411.4H534.83v26.413H575.7v5.955Z"/>
      <path d="M511.577,477.246h-5.021V443.8H462.83v32.25h-5.947V405.745c.878-.072,1.752-.172,2.628-.207.9-.036,1.8-.008,3.068-.008v32.877h43.713v-32.3h5.285Z"/>
      <path d="M678.321,663.317l20.28,25.931c-1.046.883-1.943,1.642-3.124,2.641-.7-.833-1.345-1.552-1.94-2.31-6.264-7.977-12.57-15.924-18.739-23.974a5.011,5.011,0,0,0-4.559-2.2c-7.18.113-14.362.044-21.806.044v27.43h-4.155c0-1.183,0-2.274,0-3.366q-.159-30.894-.32-61.788c-.016-3.263.966-4.319,4.135-4.354,10.55-.119,21.1-.138,31.65-.346,4.527-.089,7.912,1.758,10.919,4.99,6.242,6.708,7.266,14.557,5.009,22.96-1.862,6.935-6.917,11-13.547,13.247C681,662.605,679.834,662.885,678.321,663.317Zm-29.92-4.191a10.668,10.668,0,0,0,1.348.17c8.824-.132,17.647-.262,26.47-.436a9.61,9.61,0,0,0,2.673-.491c12.37-3.924,16.931-15.7,10.392-26.888a11.034,11.034,0,0,0-10.219-5.921c-9.23.067-18.462.014-27.693.027-.978,0-1.956.108-2.971.168Z"/>
      <path d="M713.605,692.757V621.686c2.579,0,4.993-.022,7.406,0,7.1.079,14.234-.253,21.289.355,16.871,1.454,25.985,9.446,30.5,25.819a46.788,46.788,0,0,1,1.24,19.874c-1.851,11.925-8.99,19.121-20.411,21.831a125.157,125.157,0,0,1-18.662,2.449c-6.265.513-12.572.516-18.86.734C715.314,692.781,714.524,692.757,713.605,692.757Zm4.211-4.177c9.333-.543,18.43-.877,27.483-1.694a45.48,45.48,0,0,0,11.174-2.682c7.364-2.657,11.656-8.131,13.17-15.791,1.813-9.175.357-17.958-3.372-26.4-3.662-8.3-10.05-13.294-18.944-15.038a37.948,37.948,0,0,0-6.609-.953c-7.574-.117-15.152-.045-22.9-.045Z"/>
      <path d="M466.7,690.017l-4.153,1.086L453.582,672.7c-12.241-.237-24.4-.523-36.566-.689-6.266-.085-4.485-1.118-7.35,4.551-2.5,4.954-4.875,9.976-7.39,15.143l-3.8-1.756,34-70.653C443.96,643.031,455.232,666.321,466.7,690.017Zm-52.694-22.368,37.506.779-19.022-38.819Z"/>
      <path d="M634.767,689.955l-4.208.983c-2.993-6.155-5.948-12.233-8.919-18.341-13.324-.287-26.5-.535-39.682-.9-1.664-.045-2.338.7-2.956,2-2.4,5.031-4.857,10.036-7.3,15.048-.437.9-.91,1.776-1.438,2.8l-3.751-1.708,34-70.662C612.015,642.936,623.281,666.217,634.767,689.955Zm-52.739-22.379,37.528.72-19.022-38.8C594.257,642.416,588.291,654.691,582.028,667.576Z"/>
      <path d="M785.2,681.142l3.531-2.929a33.916,33.916,0,0,0,19.014,8.752,32.137,32.137,0,0,0,10.259-.368c6.893-1.511,10.7-6.556,12.882-12.948a2.919,2.919,0,0,0-.3-2.288c-1.545-2.205-2.848-5-5.007-6.267a101.054,101.054,0,0,0-14.794-6.9c-4.138-1.6-8.581-2.4-12.8-3.826-10.56-3.554-13.535-9.094-10.733-19.846,2.026-7.774,6.929-12.774,14.88-14.311a34.872,34.872,0,0,1,20.882,1.905,13.6,13.6,0,0,1,6.8,5.51l-2.757,2.557c-.8-.486-1.537-.963-2.3-1.4-6.589-3.774-13.487-6.283-21.174-4.175-9.638,2.644-12.443,10.315-12.527,17.616a5.239,5.239,0,0,0,2.269,3.6,37.9,37.9,0,0,0,7.272,3.73c6.5,2.55,13.185,4.674,19.594,7.434a37.082,37.082,0,0,1,9.727,6.046c7.77,6.841,7.242,16.833-.887,23.309a25.531,25.531,0,0,1-14.379,5.185A38.168,38.168,0,0,1,793,686.734C790.384,685.288,788.1,683.249,785.2,681.142Z"/>
      <path d="M420.567,475.758h-6.548v-63.63H391.66v-5.735H446.6v5.586H420.567Z"/>
    </g>
  </g>
</svg>
