<svg xmlns="http://www.w3.org/2000/svg" viewBox="0 0 1000 500">
  <title>GoogleNewsLab</title>
  <g id="GoogleNewsLab">
    <g>
      <path d="M131.587,219.158l-10.122,7.864c-.415-.269-1.9-1.159-3.3-2.15-14.009-9.853-33.9-6.546-44.344,7.386-10.335,13.795-8,34.211,5.13,44.784,14.025,11.3,34.071,10,45.077-3.368,2.709-3.292,3.885-7.845,6.418-13.2H99.812V247.9h42.047a38.6,38.6,0,0,1-4.539,29.573c-13.218,22.363-45.039,27.059-66.535,10.152-19.944-15.687-23.5-43.724-8.037-63.442,15.768-20.113,45.173-24.008,64.9-8.58C128.762,216.47,129.755,217.5,131.587,219.158Z"/>
      <path d="M277.366,306.1l11.1-4.459c5.517,8.293,12.422,12.715,22.082,8.632,7.809-3.3,8.373-10.351,8.312-18.419a24.737,24.737,0,0,1-23.293,4.557,27.656,27.656,0,0,1-15.341-11.4,29.554,29.554,0,0,1,3.03-37.635c9.407-9.968,22.033-11.323,35.008-3.674l1.92-2.908h10.843c.391.859.89,1.44.884,2.017-.182,19.306.239,38.65-.873,57.9-.7,12.106-9.218,20.187-20.428,22.5-12.557,2.588-24.778-2.292-31.017-12.441C278.848,309.562,278.355,308.2,277.366,306.1Zm42.307-37.863c.037-10.061-6.258-17.43-15.023-17.585s-16.126,7.731-16.175,17.309c-.05,9.764,6.9,17.41,15.889,17.468C313.177,285.485,319.636,278.231,319.673,268.235Z"/>
      <path d="M469.808,234.465v62.263h-11.26V215.646h13.768l37.713,60.106,1.05-.314V215.612h10.948V296.8H510.2c-12.863-20.562-26.014-41.586-39.165-62.61Z"/>
      <path d="M673.092,241.233H684.65l-18.635,55.688H654.266l-13.915-39.55-1.17-.115-13.919,39.705h-11.5l-18.653-55.57h11.832l12.36,39.163,1.137.082c4.589-13.054,9.177-26.108,13.873-39.468H645.75l13.8,39.2,1.184.12C664.833,267.481,668.926,254.473,673.092,241.233Z"/>
      <path d="M900.3,291.688l-1.048,5.136H889.48v-79.4h10.112v29.844c8.46-6.938,16.685-10.313,26.456-7.274a27.263,27.263,0,0,1,14.789,11.316c8.305,12.3,6.383,30.634-4.27,40.822C926.575,301.689,914.017,301.586,900.3,291.688Zm19.558-42.252c-11.658.1-17.908,6.562-19.427,17.191-1.365,9.547,3.964,19,12.124,21.507a15.784,15.784,0,0,0,18.766-7.526c4.217-7.3,4.14-15.015.375-22.372C928.765,252.5,923.685,249.438,919.861,249.436Z"/>
      <path d="M175.98,238.41c16.992-.05,30.313,12.973,30.317,29.64a30.133,30.133,0,0,1-60.265-.165C146.06,251.388,159.2,238.46,175.98,238.41ZM191.951,268.1c0-10.217-6.356-16.953-15.956-16.9-9.172.047-15.864,7.03-15.972,16.666-.108,9.559,7.088,17.414,15.969,17.434C185.2,285.318,191.949,278.049,191.951,268.1Z"/>
      <path d="M403,277.479l9.761,6.707a27.018,27.018,0,0,1-14.119,11.731c-13.249,4.9-27.594.491-35.006-10.55-7.715-11.494-6.8-27.907,2.4-38.014,7.605-8.35,17.254-10.937,27.935-7.8,10.342,3.037,16.077,10.778,19.226,21.493l-38.254,16.02C379.533,287.551,389.409,287.76,403,277.479Zm-6.466-21.369c-4.144-5.679-9.8-6.763-15.944-3.723-5.722,2.83-8.721,8.119-7.086,13.431Z"/>
      <path d="M210.425,268.244c-.005-16.864,13.082-29.726,30.191-29.671a29.529,29.529,0,0,1,29.909,29.556c.224,16.166-13.781,29.755-30.512,29.6A29.805,29.805,0,0,1,210.425,268.244Zm13.728-.213c.045,9.779,7.377,17.5,16.509,17.388,8.836-.108,16.236-8.045,16.156-17.329-.082-9.646-7.508-17.444-16.6-17.426C231.452,250.682,224.109,258.618,224.153,268.031Z"/>
      <path d="M581.234,278.514l8.739,3.951c-2.281,7.465-7.255,11.874-13.726,14.47-10.563,4.237-20.971,3.523-29.838-3.915-9.257-7.767-12.033-18.34-9.816-29.987,4.136-21.735,26.631-31.305,43.914-18.892,7.653,5.5,12.564,18.2,9.848,26.947H548.71a15.4,15.4,0,0,0,8.542,16.114C565.389,291.079,572.45,288.649,581.234,278.514Zm-31.819-17.049h29.046c-.372-6.888-5.727-11.523-13.215-11.98C556.973,248.981,550.628,253.634,549.415,261.465Z"/>
      <path d="M836.64,257.4l-9.473-3.2c3.327-8.478,9.257-13.018,17.406-14.45,18.923-3.324,30.722,6.606,30.884,25.75.073,8.61.042,17.221,0,25.831-.009,1.733-.288,3.464-.474,5.559h-9.568l-1.211-5.219c-1.348,1.045-2.545,2.006-3.775,2.921a24.154,24.154,0,0,1-26.615,1.263c-10.882-6.689-11.209-23.573-.452-30.457,7.684-4.918,16.22-5.206,24.934-3.728,1.736.294,3.448.734,5.125,1.1,1.524-4.347-.156-8.49-4.315-11.181C852.512,247.325,845.162,249.087,836.64,257.4Zm27.094,16.411c-5.245-3.36-15.865-4.22-20.7-1.7-3.777,1.964-5.958,4.9-5.567,9.4.375,4.3,3.342,5.921,6.932,7.145C852.9,291.548,864.671,282.766,863.734,273.812Z"/>
      <path d="M684.087,283.1l9.836-4.218c1.26,1.678,2.261,3.1,3.353,4.449,4.588,5.668,12.48,7.905,18.31,4.558,2.047-1.176,4.34-4.082,4.292-6.147-.047-2.091-2.438-5.055-4.533-5.978-4.254-1.874-9.031-2.529-13.533-3.884a40.706,40.706,0,0,1-8.139-3.135,14.152,14.152,0,0,1-4.822-20.229c7.828-11.973,31.54-12.445,39.736-.755a43.345,43.345,0,0,1,2.454,4.725l-9.125,3.865c-3.8-4.734-8.311-7.99-14.646-6.974-1.586.254-3.55.248-4.614,1.186-1.789,1.579-4.041,3.775-4.121,5.79-.065,1.637,2.46,4.081,4.384,4.936,3.211,1.428,6.894,1.752,10.313,2.764,3.564,1.054,7.3,1.906,10.525,3.66,10.232,5.573,11.008,19.456,1.7,26.487-10.209,7.714-26.454,6.7-35.364-2.446C687.929,289.527,686.481,286.6,684.087,283.1Z"/>
      <path d="M771.643,215.57h11.071v70.922h38.472v10.562H771.643Z"/>
      <path d="M340.446,209.667h12.733v85.992H340.446Z"/>
    </g>
  </g>
</svg>
