<?xml version="1.0" encoding="utf-8"?>
<!-- Generator: Adobe Illustrator 22.0.1, SVG Export Plug-In . SVG Version: 6.00 Build 0)  -->
<svg version="1.1" id="Layer_1" xmlns="http://www.w3.org/2000/svg" xmlns:xlink="http://www.w3.org/1999/xlink" x="0px" y="0px"
	 viewBox="0 0 859.4 130" style="enable-background:new 0 0 859.4 130;" xml:space="preserve">
<style type="text/css">
	.st0{fill:#FFFFFF;}
</style>
<g>
	<title>logo2_wStudios</title>
	<g>
		<g>
			<path class="st0" d="M113.4,4.6L32.8,123.2h-6.5l-0.4,1.8H46l0.4-1.8H35.2l30.9-45.5H95l-5.1,45.5h-9.5l-0.4,1.8h29.4l0.4-1.8
				h-8.3L114.8,4.6H113.4z M95.2,75.8H67.4l33-48.4h0.3L95.2,75.8z"/>
			<path class="st0" d="M277,121.5c-2.7,0-3.3-1.5-3.3-3.4c0-1.5,0.3-3.1,0.7-4.8l9.5-36.8c0.9-3.4,1.8-6.4,1.8-10.4
				c0-4.5-3-10.1-11.4-10.1c-9.7,0-14.9,7.9-16.9,11.3l2.5-10.1h-20.4L239,59h9.7l-16.9,66h10.7L254,80.2c2.7-10.1,8.9-20.5,16-20.5
				c4.3,0,5.6,2.8,5.6,5.5c0,2.4-0.7,4.9-1.5,7.9l-9.4,36.5c-0.6,2.4-1.6,6.5-1.6,9.4c0,4,2.7,7.3,8.6,7.3c10.7,0,16-14.1,16.8-15.7
				l-1.5-0.6C285.6,112.9,281.6,121.5,277,121.5z"/>
			<path class="st0" d="M348,32c-3.6,0-6.1,2.8-6.1,6.8c0,3.3,2.2,5.9,5.5,5.9c3.4,0,6.1-2.8,6.1-6.7C353.5,34.6,351.3,32,348,32z"
				/>
			<path class="st0" d="M348.4,57.2h-30l5.8-22.9h-10.7l-5.8,22.9h-9.8l-0.4,1.8h9.8l-12.9,50.7c-0.7,2.8-1.6,5.8-1.6,9.1
				c0,4,2.7,7.6,8.6,7.6c10.7,0,16-14.1,16.6-15.7l-1.5-0.6c-1,2.4-5.2,11.6-10.2,11.6c-2.1,0-3-1.2-3-3.6c0-1.5,0.3-3,0.7-4.6
				L317.8,59h19.6l-13.1,50.7c-0.7,2.7-1.6,5.9-1.6,8.8c0,4.2,2.7,7.9,8.8,7.9c10.7,0,16-14.1,16.6-15.7l-1.5-0.6
				c-1,2.2-5.3,11.6-10.1,11.6c-2.7,0-3.1-1.5-3.1-3.7c0-1.5,0.3-2.8,0.7-4.5L348.4,57.2z"/>
			<path class="st0" d="M383,55.7c-12.8,0-19.5,9.1-23.3,20.6c-2.5,7.4-6.5,19.5-6.5,32.8c0,6.8,3.1,17.1,16.6,17.1
				c14.1,0,20.2-17.7,21.1-19.8l-1.9-0.9c-1.9,4.6-7.1,16.8-16.2,16.8c-5.8,0-8.9-4.5-8.9-12.8c0-12,3.7-24.5,7-34.3
				c4-12,6.5-17.7,12.5-17.7c3.9,0,6.2,1.8,6.2,4.2c0,3.4-2.2,5-2.2,8.2c0,2.8,2.1,4.9,4.8,4.9c3.3,0,5.3-2.7,5.3-7
				C397.5,63.5,394.9,55.7,383,55.7z"/>
			<path class="st0" d="M216.1,113.4l14.4-56.1h-10.7l-1.8,7.3c-0.4-1.5-1.8-8.8-11.3-8.8c-12.6,0-18.9,10.4-22.9,20.8
				c-2.4,6.2-7.3,21.8-7.6,32.4c-0.4,11.3,5.1,17.4,13.7,17.4c8.2,0,13.4-8.2,15.3-12.3c-0.1,0.6-0.4,2.8-0.4,4.5
				c-0.1,4.2,2.8,7.9,8.6,7.9c11.1,0,16-14.3,16.6-15.7l-1.5-0.6c-1,2.4-5,11.6-10.2,11.6c-2.2,0-3.1-1.5-3-4
				C215.3,116.5,215.6,115,216.1,113.4z M207.6,103.6c-3.4,10.8-8.8,19.2-15.1,19.2c-4.5,0-6.5-2.7-6.4-8.6c0.4-13.2,8.2-36.8,10-42
				c3-8.8,7.1-13.8,12.5-13.8c4.9,0,7.3,4.3,7.1,9.2C215.3,74.7,211.9,89.3,207.6,103.6z"/>
			<path class="st0" d="M159.9,121.5c-2.2,0-3-1.2-3-3.6c0-1.5,0.1-2.8,0.6-4.6L185.2,7h-20.6l-0.4,1.8h9.7l-25.8,100.9
				c-0.7,3-1.6,6.1-1.6,9.4c0,3.7,2.2,7.3,8.3,7.3c11,0,16.3-13.7,17.1-15.7l-1.5-0.6C169.1,112.5,164.7,121.5,159.9,121.5z"/>
			<path class="st0" d="M129.5,121.5c-1.9,0-3.1-1.2-3.1-3.6c0-1.2,0.3-3,0.7-4.6l14-54.4h11.4l0.4-1.8h-11.4l5.9-22.9h-10.7
				l-5.9,22.9h-8.8l-0.4,1.8h8.8l-12.9,50.7c-0.7,2.8-1.6,5.6-1.6,9.4c0,3.6,2.2,7.3,8.3,7.3c11.3,0,16.2-13.8,17.1-15.7l-1.5-0.6
				C138.7,112.3,134.4,121.5,129.5,121.5z"/>
		</g>
		<g>
			<path class="st0" d="M405.5,103.3h18.8c0.5,4.9,2.7,9,10.9,9c5.7,0,8.9-2.8,8.9-6.8c0-4.2-2.6-5.4-10.9-6.6
				c-19.5-2.3-26-8.1-26-22c0-12.4,10.2-21.5,26.7-21.5c16.6,0,25.9,6.9,27.2,21.5h-18.3c-0.7-4.9-3.5-7.4-8.9-7.4
				c-5.3,0-8,2.4-8,5.9c0,3.9,2.1,5.6,10.7,6.7c17.4,1.9,26.4,6.5,26.4,21.4c0,12.6-10,22.9-27.7,22.9
				C416,126.3,406.1,118.2,405.5,103.3z"/>
			<path class="st0" d="M483.6,71.5h-17.8V56.2h55.5v15.2h-17.8v53.7h-19.8V71.5z"/>
			<path class="st0" d="M529.5,97.2V56.2h19.8v40.1c0,9.7,2.4,14.5,10.8,14.5c8.2,0,10.8-4.4,10.8-14.7V56.2h19.9v40.7
				c0,20-11.8,29.4-30.7,29.4C540.6,126.3,529.5,116.5,529.5,97.2z"/>
			<path class="st0" d="M603.7,56.2h25.1c24.5,0,36.9,12.2,36.9,33.6v0.8c0,21.5-12.7,34.5-37,34.5h-25V56.2z M628,109.9
				c11.8,0,17-6.2,17-19v-0.8c0-13.1-5.2-18.7-17.2-18.7h-4.3v38.4H628z"/>
			<path class="st0" d="M675.7,56.2h19.9v68.9h-19.9V56.2z"/>
			<path class="st0" d="M705.5,91.1v-0.8c0-21,15.8-35.1,36.4-35.1c21,0,36.5,13.2,36.5,34.6v0.8c0,21.2-14.6,35.6-36.8,35.6
				S705.5,111.8,705.5,91.1z M757.9,90.9v-0.8c0-12.2-6.2-19.5-15.9-19.5c-9.7,0-15.8,7-15.8,19.6V91c0,12.5,6.4,19.8,15.9,19.8
				C751.8,110.8,757.9,103.3,757.9,90.9z"/>
			<path class="st0" d="M782.8,103.3h18.8c0.5,4.9,2.7,9,10.9,9c5.7,0,8.9-2.8,8.9-6.8c0-4.2-2.6-5.4-10.9-6.6
				c-19.5-2.3-26-8.1-26-22c0-12.4,10.2-21.5,26.7-21.5c16.6,0,25.9,6.9,27.2,21.5H820c-0.7-4.9-3.5-7.4-8.9-7.4c-5.3,0-8,2.4-8,5.9
				c0,3.9,2.1,5.6,10.7,6.7c17.4,1.9,26.4,6.5,26.4,21.4c0,12.6-10,22.9-27.7,22.9C793.2,126.3,783.3,118.2,782.8,103.3z"/>
		</g>
	</g>
</g>
</svg>
