<?xml version="1.0" encoding="utf-8"?>
<!-- Generator: Adobe Illustrator 22.0.0, SVG Export Plug-In . SVG Version: 6.00 Build 0)  -->
<svg version="1.1" id="YouTube" xmlns="http://www.w3.org/2000/svg" xmlns:xlink="http://www.w3.org/1999/xlink" x="0px" y="0px"
	 viewBox="0 0 1000 1000" style="enable-background:new 0 0 1000 1000;" xml:space="preserve">
<title>youtube</title>
<path d="M496.6,767.3c-37.3-0.6-78.1-1-118.8-2.1c-28.3-0.7-56.6-1.6-84.8-3.7c-27.8-2.1-55.9-4.1-83.3-9.1
	c-41.8-7.6-67.2-34-77-75.3c-6-25.2-8.9-50.9-10.2-76.7c-1.8-36.7-3.5-73.4-4-110.2c-0.3-23.9,1-47.8,2.5-71.7
	c2.1-33.3,4.5-66.6,12.5-99.2c9.7-39.7,39.5-67.3,80.2-73.2c24-3.4,48.3-5.8,72.5-7.4c74.5-5.2,149.1-6.1,223.7-6.1
	c46.8,0,93.5,1.3,140.3,2.7c27.7,0.8,55.3,2.3,82.9,4.6c21.2,1.8,42.7,3.5,63.2,8.5c38.5,9.5,61.9,35.4,70.8,74
	c5.9,25.2,8.9,50.9,10.2,76.7c1.8,36.7,3.5,73.4,4,110.2c0.3,23.9-1,47.8-2.5,71.7c-2.2,34.5-4.1,69.2-13.5,102.7
	c-10.7,37.7-35.9,61.2-74.3,68.7c-21,4.1-42.5,5.9-63.8,7.6C651.6,765.9,575.8,766.2,496.6,767.3z M423.7,385.5v228.7l198-114.4
	L423.7,385.5z"/>
</svg>
