<svg xmlns="http://www.w3.org/2000/svg" viewBox="0 0 1000 1000">
  <title>AltRight</title>
  <g id="AltRight">
    <g>
      <g>
        <path d="M116.567,416.339h24.738c.93,6.649,3.591,11.038,12.368,11.038,7.847,0,11.438-5.852,11.438-13.432,0-8.512-4.655-13.566-12.9-13.566-7.714,0-12.5,3.059-15.693,6.783H120.291l2-55.991h64.1V371.12H141.969l-.531,21.013c3.59-5.186,10.373-10.107,22.209-10.107,17.423,0,28.861,11.7,28.861,32.318,0,20.215-14.5,33.514-38.569,33.514C128.67,447.858,117.232,434.16,116.567,416.339Z"/>
        <path d="M201.148,400.778v-3.99c0-30.057,18.753-46.947,43.889-46.947,25,0,43.889,15.56,43.889,46.415v3.724c0,30.19-17.29,47.878-44.421,47.878C217.906,447.858,201.148,430.7,201.148,400.778Zm60.514-.266v-3.857c0-17.422-5.054-26.2-16.625-26.2-11.437,0-16.624,8.645-16.624,26.2v3.99c0,17.688,5.187,26.067,16.89,26.067S261.662,418.067,261.662,400.512Z"/>
        <path d="M302.884,351.171h35.51l18.22,50.671,18.22-50.671h34.845v95.091H382.548V387.079l-23.274,59.183H350.23l-23.008-59.183v59.183H302.884Z"/>
        <path d="M446.773,351.171h29.393l19.284,66.763,19.417-66.763H540.4l-31.121,95.091H478.294Z"/>
        <path d="M551.7,351.171H579.23v95.091H551.7Z"/>
        <path d="M597.979,351.171h65.7v21.013H625.11v16.358h30.722V407.96H625.11v17.289h40.7v21.013H597.979Z"/>
        <path d="M672.054,351.171h27.529l12.236,59.316,12.768-59.316h24.205l13.831,59.848,12.9-59.848h25.27l-22.21,95.091H750.122l-14.63-60.379-14.763,60.379h-26.6Z"/>
        <path d="M804.375,416.073H830.31c.665,6.782,3.723,12.368,15.028,12.368,7.847,0,12.235-3.857,12.235-9.443,0-5.851-3.591-7.447-15.028-9.176-26.865-3.192-35.908-11.172-35.908-30.323,0-17.157,14.1-29.658,36.839-29.658,22.876,0,35.776,9.575,37.5,29.658H855.712c-.932-6.783-4.788-10.241-12.236-10.241-7.315,0-11.038,3.325-11.038,8.113,0,5.32,2.925,7.714,14.762,9.309,24.072,2.661,36.441,8.911,36.441,29.525,0,17.423-13.831,31.653-38.3,31.653C818.739,447.858,805.173,436.687,804.375,416.073Z"/>
      </g>
      <g>
        <path d="M116.359,484.1h24.669l10.963,53.15,11.441-53.15h21.689l12.394,53.627L209.074,484.1h22.642l-19.9,85.207h-25.5l-13.108-54.1-13.228,54.1H136.142Z"/>
        <path d="M234.1,527.242v-.954c0-25.979,19.544-43.378,45.047-43.378,25.979,0,45.166,16.327,45.166,42.782v.954c0,26.217-17.995,44.092-45.524,44.092S234.1,552.863,234.1,527.242Zm64.71-.239v-.953c0-15.135-7.627-24.073-19.663-24.073s-19.544,8.7-19.544,24.192v.953c0,15.492,7.865,24.43,19.663,24.43C291.305,551.552,298.813,542.256,298.813,527Z"/>
        <path d="M336.234,484.1H369.6c22.285,0,34.679,9.056,34.679,27.051v.477c0,12.156-6.435,18.948-15.373,22.4l20.378,35.275H383.545L366.265,538.8h-5.72v30.508H336.234Zm32.176,38.849c8.223,0,12.275-3.456,12.275-10.367v-.477c0-6.912-4.29-9.653-12.156-9.653h-7.984v20.5Z"/>
        <path d="M419.3,484.1h24.549V550.36h32.176v18.949H419.3Z"/>
        <path d="M487.823,484.1h30.985c30.268,0,45.641,15.135,45.641,41.59v.954c0,26.575-15.73,42.663-45.761,42.663H487.823Zm30.15,66.377c14.539,0,20.974-7.627,20.974-23.476v-.953c0-16.207-6.435-23.119-21.212-23.119h-5.362v47.548Z"/>
        <path d="M566.837,484.1H591.5l10.965,53.15,11.44-53.15H635.6l12.393,53.627,11.56-53.627h22.642l-19.9,85.207h-25.5l-13.109-54.1-13.228,54.1H586.619Z"/>
        <path d="M692.565,484.1h24.668v85.207H692.565Z"/>
        <path d="M734.036,484.1H765.02c30.269,0,45.642,15.135,45.642,41.59v.954c0,26.575-15.73,42.663-45.762,42.663H734.036Zm30.149,66.377c14.539,0,20.974-7.627,20.974-23.476v-.953c0-16.207-6.435-23.119-21.211-23.119h-5.363v47.548Z"/>
        <path d="M822.582,484.1h58.871v18.829h-34.56v14.658h27.528v17.4H846.893v15.491h36.466v18.83H822.582Z"/>
      </g>
      <g>
        <path d="M120.9,625.627h-3.921v-7.246H120.9v-2.733c0-7.722,4.811-11.4,12.177-11.4a18.975,18.975,0,0,1,4.871.653v7.782a9.791,9.791,0,0,0-2.911-.416c-2.5,0-3.564,1.366-3.564,3.386v2.733h6.3v7.246h-6.3v23.82H120.9Z"/>
        <path d="M139.376,634.3v-.475c0-9.979,7.425-16.276,17.048-16.276,9.563,0,16.929,6.118,16.929,15.979V634c0,10.1-7.425,16.156-16.988,16.156S139.376,644.338,139.376,634.3Zm23.166-.179v-.475c0-5.227-2.079-8.137-6.118-8.137-3.98,0-6.177,2.791-6.177,8.019V634c0,5.346,2.078,8.256,6.177,8.256C160.4,642.259,162.542,639.289,162.542,634.121Z"/>
        <path d="M177.986,618.381h10.633v6.177c1.96-4.633,5.227-6.653,10.038-6.593v9.919c-6.474-.178-10.038,1.842-10.038,6.832v14.731H177.986Z"/>
        <path d="M226.337,606.976h15.741l13.484,42.471h-12.89l-2.257-7.9H226.337l-2.257,7.9H212.734Zm2.376,26.2h9.326l-4.634-16.336Z"/>
        <path d="M260.433,606.976h12.236V640h16.038v9.445H260.433Z"/>
        <path d="M297.974,616.36H286.985v-9.384H321.2v9.384H310.21v33.087H297.974Z"/>
        <path d="M322.21,625.865h18V634.3h-18Z"/>
        <path d="M347.336,606.976h16.632c11.108,0,17.286,4.514,17.286,13.484v.237c0,6.059-3.208,9.445-7.663,11.168l10.157,17.582h-12.83l-8.613-15.207h-2.852v15.207H347.336Zm16.038,19.364c4.1,0,6.118-1.722,6.118-5.168v-.238c0-3.444-2.138-4.811-6.059-4.811h-3.98V626.34Z"/>
        <path d="M388.975,606.976h12.3v42.471h-12.3Z"/>
        <path d="M407.388,628.479V628c0-12.949,9.5-21.681,22.275-21.681,10.039,0,18.949,4.574,19.781,15.622H437.385c-.594-3.979-3.148-6.059-7.662-6.059-6,0-9.623,4.633-9.623,12.3v.475c0,6.891,2.554,12.237,9.92,12.237,5.94,0,8.2-3.03,8.434-6.416H430.5v-8.493h19.958v5.227c0,10.811-7.068,18.948-20.79,18.948C415.229,650.159,407.388,641.191,407.388,628.479Z"/>
        <path d="M456.393,606.976h12.236v16.216h13.959V606.976h12.177v42.471H482.588V632.7H468.629v16.751H456.393Z"/>
        <path d="M511.1,616.36H500.111v-9.384h34.215v9.384H523.337v33.087H511.1Z"/>
        <path d="M549.175,628.479V628c0-13.068,9.266-21.681,21.681-21.681,11.048,0,18.711,5.108,19.72,16.335H578.043c-.475-4.336-2.851-6.712-7.128-6.712-5.465,0-8.91,4.277-8.91,12v.475c0,7.663,3.267,12,9.089,12,4.276,0,7.3-2.257,7.9-6.95h12.117c-.831,10.989-8.791,16.691-19.78,16.691C556.481,650.159,549.175,641.487,549.175,628.479Z"/>
        <path d="M594.2,628.479V628c0-12.949,9.742-21.622,22.453-21.622,12.95,0,22.513,8.139,22.513,21.325v.475c0,13.068-8.97,21.978-22.691,21.978S594.2,641.249,594.2,628.479Zm32.254-.119v-.476c0-7.543-3.8-12-9.8-12s-9.741,4.337-9.741,12.059v.475c0,7.722,3.92,12.177,9.8,12.177C622.711,640.6,626.453,635.963,626.453,628.36Z"/>
        <path d="M639.64,606.976h13.128l8.614,29.819,8.672-29.819h11.4l-13.9,42.471h-13.84Z"/>
        <path d="M686.269,606.976h29.345v9.384H698.388v7.307h13.721v8.673H698.388v7.721h18.176v9.386H686.269Z"/>
        <path d="M722.622,606.976h16.632c11.108,0,17.286,4.514,17.286,13.484v.237c0,6.059-3.208,9.445-7.663,11.168l10.157,17.582H746.2l-8.613-15.207H734.74v15.207H722.622ZM738.66,626.34c4.1,0,6.119-1.722,6.119-5.168v-.238c0-3.444-2.139-4.811-6.06-4.811H734.74V626.34Z"/>
        <path d="M774.3,606.976h15.741l13.484,42.471H790.635l-2.256-7.9H774.3l-2.258,7.9H760.7Zm2.375,26.2H786l-4.633-16.336Z"/>
        <path d="M804.06,628.479V628c0-12.949,9.5-21.681,22.275-21.681,10.038,0,18.948,4.574,19.78,15.622H834.057c-.594-3.979-3.149-6.059-7.663-6.059-6,0-9.622,4.633-9.622,12.3v.475c0,6.891,2.553,12.237,9.919,12.237,5.94,0,8.2-3.03,8.435-6.416h-7.96v-8.493h19.959v5.227c0,10.811-7.069,18.948-20.79,18.948C811.9,650.159,804.06,641.191,804.06,628.479Z"/>
        <path d="M853.064,606.976h29.345v9.384H865.183v7.307H878.9v8.673H865.183v7.721h18.176v9.386h-30.3Z"/>
      </g>
    </g>
  </g>
</svg>
