<svg xmlns="http://www.w3.org/2000/svg" viewBox="0 0 1000 1000">
  <title>BestShorts</title>
  <g id="BestShorts">
    <g>
      <path d="M386.13,453.3c10.841-11.963,15.164-27.086,18.953-42.039,6.325-24.966,7.313-50.006-5.178-74.014l1.974-1.533,16.5,15.342q5.031,10.105,10.061,20.212c-.023,1.575-.067,3.15-.067,4.725,0,12.98,1,26.058-.279,38.909-1.088,10.917-4.8,21.572-7.357,32.343l-9.894,23.563,2.475,1.537c37.557-17.67,66.11-44.346,81.835-83.85,2.661-11.678,5.321-23.357,8.042-35.3,9.312,10.407,12.764,23.612,10.751,38.06a107.03,107.03,0,0,1-25.719,56.632c-4.837,5.548-9.434,11.3-14.719,17.658l2.791,1.873c-17.737,13.885-33.024,30.894-57.169,36.137,3.693,5.287,7.487,9.871,10.2,15.023,1.07,2.029.373,5.583-.605,8-7.856,19.449-16.2,38.7-23.931,58.2-5.548,13.994-10.45,28.246-15.461,42.446-.883,2.5-.882,5.315-1.289,7.985l2.025,1.309c5.263-5.277,10.662-10.426,15.764-15.855,13.934-14.828,27.751-29.765,41.6-44.675,9.344-10.062,23.119-10.349,34.641-15.6,1.8-.821,4.58-.474,6.571.252,24.8,9.045,49.523,18.277,74.285,27.417,4.929,1.82,9.927,3.454,14.743,6.256H556.9l5.315-3.841-42.893-11.32c7.323,20.824,7.615,20.315,27.907,21.559,15,.92,29.884,3.91,44.8,6.091.736.107,1.312,1.3,1.962,2l-38.845-3.757-.195,2.723,38.971,1.042c10.575-3.162,17.6,3.4,23.55,9.981,11.742,12.975,22.543,26.8,33.733,40.275l-1.4,1.841-9.626-1.039c2.876,9.881-3.109,10.5-9.889,9.546-31.836-4.5-63.383-1.962-94.821,3.6-7.48,1.324-11.4-2.624-13.369-9.116-1.1-3.62-1.021-7.692-2.571-11.054-1.635-3.55-4.574-6.5-7.081-9.895-15.063,13.311-28.366,25.544-42.187,37.16-17.014,14.3-34.726,27.5-55.856,35.6-13.186,5.053-25.446,4.608-37.279-2.8q-23.786-14.9-47.222-30.362c-8.486-5.62-12.4-13.814-12.953-24.159-1.352-25.528,7.4-48.665,16.448-71.688,5.331-13.564,11.786-26.682,17.471-40.113,1.5-3.552,2.029-7.518,3.73-14.11-10.656,2.175-18.738,4.362-26.963,5.331-6.469.762-13.626,1.585-19.585-.358-15.611-5.088-31.33-10.512-45.889-17.979-15.771-8.089-22.232-23.625-25.3-40.471-5.792-31.825,2.915-61,17.232-88.807,12.873-25,30.718-45.824,55.283-60.281a4.019,4.019,0,0,1,3.845-.112c-5.654,5.153-11.461,10.147-16.935,15.484-25.645,25-40.5,55.993-47.036,90.6-2.963,15.7-1.347,32.117,4.135,47.782,9.725,27.786,37.686,39.433,63.331,31.841,20.653-6.114,37.381-18.151,50.623-34.839,6.949-8.758,12.764-18.416,19.091-27.668Z"/>
      <path d="M647.215,449.577l10.79,20.183V442.2l11.509-1.05V400.088l-19-.866q.066-1.267.131-2.535H695.58l.234,2.253-18.6,1.232v40.5c10.748,3.743,21.168,8.2,22.441,21.769,1.124,11.983-7.161,17.211-16.978,22.489L701.9,502.192c-16.949,3.56-20.662-17.493-34.95-16.475-4.814,4.747,3.7,15.577-8.756,17.431V476.121c-7.324,16.423-19.4,26.321-37.109,26.508-17.5.184-30.129-8.69-36.6-27.393-3.263,10.128,2.653,20.227-3.771,27.707l-2.756-.28V476.925H545.125v25.269c-7.254-.525-7.254-.525-8.4-12.921-10.293,14.391-24.108,17.868-36.888,9.284-5.3-3.562-5.48-5.484-.562-11.263,5.95,6.805,12.311,12.472,22.354,7.331,10.019-5.129,11.1-15.312,1.768-21.651-2.8-1.9-6.117-3.048-9.18-4.576-10.584-5.28-13.757-10.715-11.179-19.1,1.817-5.913,11.029-9.753,20.775-8.228v-44.9c9.338,0,18.233-1.3,26.567.31,11.892,2.3,14.314,14.135,6.312,25.989,14.732,14.5,10.9,26.049-11.508,33.835v11.626h31.666V456.586l-8.568-2.577V396.738H609.57q.111,1.392.223,2.785H574.149V421.91c9.452.758,18.658,1.489,27.851,2.352.088.009.011,1.775.011,3.736H574.26v20.514l7.074-8.371c1.855,4.247,3.045,6.974,4.857,11.124,8.081-2.679,15.96-6.378,24.221-7.715,7.771-1.258,15.994-.492,23.922.318,3.828.391,8.82,4.309,10.482-.856,1.392-4.323.169-10.256-1.8-14.619-1.28-2.836-5.957-4.157-9.142-6.106-1.069-.654-2.256-1.11-3.348-1.728-5.169-2.926-12.405-5.408-10.589-12.587,1.2-4.722,5.75-9.447,10.04-12.322,5.6-3.755,11.507-1.082,16.377,3.128a19.691,19.691,0,0,1,2.08,2.68c-2.418,3.006-4,3.893-7.69.637-4.492-3.965-10.382-4.312-13.994,1.438-4.2,6.694,1.076,9.643,6.186,12.144,2.271,1.112,4.629,2.044,6.9,3.156C654.216,425.877,656.663,436.185,647.215,449.577ZM610.7,450.805c-.745.635-2.576,3.385-4.976,4.035C595,457.747,589.7,467.469,593.6,477.979c3.57,9.6,10.318,15.773,20.437,17.137,12.579,1.7,24.082-.793,31.659-12.223,6.034-9.1,1.164-26.811-7.686-28.329C629.313,453.071,620.517,452.131,610.7,450.805Zm55.579,28.767c15.617.632,25.07-4.954,25.9-14.951.7-8.478-5.605-14.695-14.993-15.282l-4.032,5.624-6.87-8.649Zm-128.593-36.9c8.19-3.984,6.207,4.48,8.74,6.823,7.744-1.06,13.909-6.723,13.45-12.035-.467-5.4-7.008-10.881-13.431-11.041-5.3-.131-10.612-.027-15.734-.027-2.132,16.937-.136,24.286,6.179,23.256C537.161,447.293,537.439,444.858,537.688,442.671Zm-7.336-21.805c5.781,0,10.785-.114,15.782.03,5.9.171,9.481-3.546,9.451-8.39-.021-3.585-2.786-9.108-5.733-10.3-5.711-2.315-12.411-2.189-19.5-3.187Zm-4.969,34.161q.358-1.084.716-2.169c-3.2-1.82-6.268-4.6-9.66-5.08-1.869-.264-5.415,2.947-6.227,5.28-1.945,5.588,3.237,6.982,6.8,9.3,7.008,4.549,13.861,9.338,20.292,13.7V455.027Z"/>
      <path d="M428.436,371.269q-5.029-10.107-10.061-20.212l19.552-6.9c12.01,3.839,12.373,14.2,12.1,24.919l2.275-.659q.219-1.531.437-3.062,7.9-5.822,15.794-11.641l12.53-.97c3.164-7.555,4.385-16.24-1.765-24.825l3.553-4.249c7.489,6.473,11.772,13.922,14.5,22.909,4.385,14.419-1.407,27.965-2.211,41.914-15.725,39.5-44.278,66.18-81.835,83.85l-2.475-1.537,9.894-23.563C432.612,422.864,436.223,397.644,428.436,371.269ZM443.274,407.5l8.225,10.209,5.839-8.812c-3.07-3.9-5.844-7.432-9.191-11.688C446.138,401.454,444.67,404.555,443.274,407.5Z"/>
      <path d="M386.43,453c-1.825-1.193-4.31-1.974-5.354-3.652-3.658-5.882-6.821-12.073-10.247-18.283H358.108c-8.41-10.208-7.306-21.41-1.927-33.053,6.357-13.763,17.737-19.817,33.006-22.136l-7.328-3.447c1.857-19,3.267-37.79-13.528-54.145,22.519,2.867,33.913,24.14,37.151,42.686,5.173,29.625-2.955,56.609-15.355,82.895-1.457,3.087-2.671,6.288-4,9.437Zm-5.592-42.763-12.982-9.9c-.648,5.767-1.1,9.756-1.546,13.759l10.839,5.572C378.4,416.469,379.4,413.922,380.838,410.236Z"/>
      <path d="M361.825,453.365c-1.309,17.588-8.673,29.53-22.046,37.351-10.159,5.942-21.082-.558-22.355-12.665-1.533-14.586,11.656-34.927,25.463-39.686C352.4,435.087,364.018,443.6,361.825,453.365Z"/>
      <path d="M298.017,481.972c-1.5,4.647-3,9.294-4.939,15.318-2.149.856-5.518,2.729-9.123,3.522-6.928,1.525-12.991-2.181-14.109-9.134-1.629-10.128-.752-20.019,5.929-28.389l5.059,31.492,14.251-26.309L281.55,455.943c7-7.2,14.171-10.578,22.324-8.218,7.226,2.092,9.047,8.888,9.452,13.243l-9.444,11.4Z"/>
      <path d="M775.049,450.758a68.284,68.284,0,0,0-7.522-1.589c-3.511-.357-7.765-1.57-10.39-.091-2.453,1.384-3.2,5.8-4.9,9.305,5.787,2.823,9.988,4.836,14.157,6.913,11.716,5.834,16.436,15.171,12.465,24.6-4.483,10.639-16.474,15.753-28.366,11.257-4.71-1.781-8.693-5.48-14.229-9.106L743,487.8c5.8,6.209,11.88,11.693,20.508,7.231,3.542-1.831,7.277-5.3,8.617-8.885,1.821-4.871.112-9.971-5.237-12.814-3.626-1.928-6.991-4.532-10.81-5.871-6.435-2.258-10.82-6.413-9.969-13.046.514-4,3.469-8.615,6.73-11.142,5.96-4.618,12.818-3.692,18.941.682,1.512,1.08,2.606,2.746,3.892,4.143Q775.362,449.429,775.049,450.758Z"/>
      <path d="M275.161,450.917H263.353c2.761-9.667,5.526-18.635,7.8-27.727.688-2.756,0-5.855-.051-8.8l-8.617.856c8.313-14.088,16.425-18.682,29.1-16.673C286.213,415.691,280.82,432.881,275.161,450.917Z"/>
      <path d="M540.1,547.544c-.425-3.087-.85-6.175-1.528-11.109-6.846,10.11-15.834,12.653-26.415,10.487-8.076-1.653-15.107-9.109-14.979-16.1.142-7.8,7.2-15.3,15.767-16.429,9.924-1.3,18.985.074,25.9,11.153.284-4.7.457-7.54.811-13.394l17.3,14.148,15.8-13.483v34.894l-1.5.219V522.154L568.7,521.2l-12.15,10.771-13.7-12.24v27.594Zm-21.593-2.573c9.564.057,16.817-6.034,16.909-14.2.077-6.894-8.9-14.481-17.144-14.493-7.99-.012-17.109,7.727-17.19,14.589C501,537.9,509.678,544.918,518.51,544.971Z"/>
      <path d="M745.309,527.644c.351-5.1.626-9.1,1.074-15.611,5.751,5.8,10.157,9.95,14.209,14.419,3.964,4.373,7.567,9.074,11.329,13.632l2.2-.6V515.07l2.7.046v32.449l-1.631,1.191L751.4,522.814l-2.051.165v24.15l-3.192.08c-.248-4.1-.5-8.2-.933-15.4-6.031,14.123-15.8,16.869-27.53,15.173-7.89-1.14-13.432-6.076-14.21-12.754-1.132-9.727,1.494-14.619,9.844-18.339C724.942,510.713,734.777,514.16,745.309,527.644Zm-22.223,17.308c9.625.1,16.763-5.809,16.926-14,.153-7.668-7.5-14.436-16.584-14.673-8.128-.212-17.481,7.35-17.571,14.207C705.767,537.419,714.638,544.869,723.086,544.952Z"/>
      <path d="M745.409,447.44H724.567c0,15.993.035,31.436-.023,46.878-.015,4.09.372,8.683-7.391,8.346V448.282l-21.321-1.851c5.066-4.4,37.432-6.774,45.479-4.391C742.512,442.4,743.21,444.448,745.409,447.44Z"/>
      <path d="M330.988,349.226l-36.511,43.645-5.25-6.863c7.6-8.322,15.168-15.751,21.652-24.03,4.207-5.372,1.368-9.735-5.5-9.754a49.875,49.875,0,0,0-6.458.807c3.863-8.464,13.617-14.129,22.422-12.574C327.659,341.572,331.272,345.446,330.988,349.226Z"/>
      <path d="M366.6,357.631l7.512,5.587c-3.27,10.193-13.924,19.165-23.8,19.335-8.816.152-13.224-3.754-13.9-12.782-.328-4.384-.057-8.813-.057-14.58l13.834,2.653c-2.637,3.1-4.432,5.216-7.87,9.264l12.744.957L359,375.753c1.249-4,2.008-6.427,2.768-8.857Z"/>
      <path d="M433.952,337.485a25.082,25.082,0,0,1-3.57,2.006c-4.671,1.644-9.385,3.169-14.753,4.962,2.371-18.562-12.789-7.294-19.516-10.812,6.291-8.8,18.464-13.948,26.293-11.728C429.831,324.018,434.439,328.368,433.952,337.485Z"/>
      <path d="M468.537,353.717q-7.9,5.82-15.794,11.641l-1.36-12.909,1.563,1.416,21.16-16.808c-3.218-.61-7.365-1.691-11.578-2.114-4.366-.437-8.8-.236-13.2-.315,4.113-1.906,8.054-4.756,12.372-5.544,13.6-2.481,19.223,3.785,18.132,19.272Z"/>
      <path d="M495.7,540.513c-9.873,11.137-26.38,10.31-37.048-.469-9-9.093-9.37-20.269-.974-29.373,9.916-10.751,27.954-12.151,39.932-1.948-2.777-.2-4.413.065-5.721-.471-6.126-2.51-11.76-4.663-18.892-1.919-12.7,4.885-18.868,13.42-15.56,23.983,3.123,9.974,17.21,16.884,28.017,13.663C488.905,542.95,492.285,541.675,495.7,540.513Z"/>
      <path d="M366.6,357.631,361.77,366.9l-3.445,2.612c-4.365-5.961-2.584-11.856,1.232-18.459,4.36-7.546,7.994-15.362,16.175-19.629l-.056.165c1.306,4.3,2.611,8.6,3.373,11.1Z"/>
      <path d="M302.4,393.586l27.948-34.564C327.87,380.062,316.783,392.963,302.4,393.586Z"/>
      <path d="M282.144,444.066c4.761-13.177,9.522-26.354,14.47-40.046C304.156,416.257,299.018,432.048,282.144,444.066Z"/>
      <path d="M578.406,514.788c15.476-1.979,23.049,1.3,23.8,10.152.678,7.967-4.439,11.332-20.242,13.161-.568,3.064-1.151,6.216-1.735,9.367l-1.825-.1Zm3.207,19.5,1.962,2.606c4.633-2.558,9.592-4.7,13.689-7.94,1.137-.9.574-5.575-.7-7.577-3.471-5.478-8.815-6.253-14.956-4.183Z"/>
      <path d="M608.669,515.976V528.7l15,1.347q-.026.637-.052,1.275H608.861v13.6h18.874l-.031,2.141-22.754,1.123V514.683h22.26q.036.647.073,1.293Z"/>
      <path d="M298.017,481.972l5.865-9.6,7.994-6.233c-.741,12.745-6.145,21.321-15.859,28.112Q297.016,488.109,298.017,481.972Z"/>
      <path d="M642.473,547.7V516.829l-10.01-1.175.081-1.165h23.83l.086,1.125L646.344,516.9v30.8Z"/>
      <path d="M375.732,331.42c-3.484,1.177-7.022,2.218-10.443,3.558-7.551,2.958-15.044,6.066-21.8,8.805,4.8-11.182,21.124-20.509,32.188-12.2Z"/>
      <path d="M679.514,516.716l-10.487-.772q.037-.654.074-1.307h23.31q.062.488.124.977l-10.071,1.207v30.024l-2.95.046Z"/>
      <path d="M699.362,514.713v32.674l-2.013.066c-2.639-10.772-1.125-21.7-.9-32.574Z"/>
      <path d="M317.739,422.323V418.45l11.84-9.074C332.04,417.162,328.731,421.682,317.739,422.323Z"/>
      <path d="M620.306,480.282c-1.334-2.309-3.488-4.553-3.677-6.952-.1-1.328,2.909-3.724,4.835-4.129,1.528-.322,5.181,2.033,5.063,2.544-.675,2.91-2.2,5.624-3.432,8.4Z"/>
    </g>
  </g>
</svg>
