<svg xmlns="http://www.w3.org/2000/svg" viewBox="0 0 1000 1000">
  <title>CIFF</title>
  <g id="CIFF">
    <g>
      <path d="M352.225,473.115c-2.392,2.141-4.628,4.186-6.911,6.177a305.979,305.979,0,0,1-43.9,32.492c-10.393,6.213-21.133,11.751-33.025,14.483a74.213,74.213,0,0,1-14.929,2.088,30.71,30.71,0,0,1-30.225-21.841,31.146,31.146,0,0,1,13.333-35.508c11.538-7.131,27.447-6.433,37.922,3.748.512.5,1.043.977,1.806,1.691l20.251-18.758a14.868,14.868,0,0,0-.953-1.224c-12.444-12.756-27.586-18.932-45.368-17.85-21.994,1.337-38.443,11.932-49.2,31.089a54.752,54.752,0,0,0-6.5,34.782c2.725,20.392,13.382,35.493,31.442,45.188,11.184,6,23.21,7.612,35.825,6.01,22.778-2.892,43.243-11.607,62.323-24.009a226.276,226.276,0,0,0,26.268-20.1,13.126,13.126,0,0,1,1.161-.824c.513,1.762.71,72.659.247,76.729-.054.059-.1.123-.163.176s-.119.122-.186.133a5.873,5.873,0,0,1-.946.121q-110.76,0-221.519-.02a4.258,4.258,0,0,1-.853-.217c-.051-.662-.152-1.352-.153-2.043q-.011-54.84-.032-109.679a4.127,4.127,0,0,1,1.456-3.312c20.8-19.468,44.5-34.057,71.776-42.6a158.659,158.659,0,0,1,35-6.771,140.432,140.432,0,0,1,42.437,2.9A125.752,125.752,0,0,1,348.2,468.144C349.536,469.713,350.8,471.349,352.225,473.115ZM266.68,497.16A13.707,13.707,0,1,0,253.029,510.9,13.729,13.729,0,0,0,266.68,497.16Z"/>
      <path d="M530.446,434.172H488.911c0-1.942-.028-3.758.006-5.573a51.268,51.268,0,0,0-1.553-14.028c-1.4-5.332-3.96-9.947-8.741-13.031a23.77,23.77,0,0,0-9.168-3.338,43.9,43.9,0,0,0-17.854.569c-7.273,1.79-12.021,6.358-14.509,13.352a44.157,44.157,0,0,0-2.291,14.871q-.061,45.36,0,90.718a48.761,48.761,0,0,0,1.619,12.816c2.341,8.6,7.67,14.039,16.479,15.821a43.462,43.462,0,0,0,19.037-.264c7.875-1.906,12.75-6.968,15.064-14.607a45.818,45.818,0,0,0,1.89-13.015c.033-4.559.015-9.119.02-13.679v-2.508h41.3a10.086,10.086,0,0,1,.248,1.542c.136,9.529-.058,19.042-1.747,28.456-1.623,9.047-4.437,17.671-9.4,25.486-6.938,10.924-16.8,18.025-28.994,22.039-10,3.291-20.309,4.18-30.769,4.016a86.554,86.554,0,0,1-27.112-4.35c-16.123-5.558-27.165-16.388-33.327-32.231-3.722-9.572-5.261-19.58-5.708-29.785-.1-2.237-.107-4.479-.108-6.718q-.009-38.4-.014-76.8a115.038,115.038,0,0,1,2.483-25.258c2.056-9.231,5.493-17.876,11.285-25.449,7.317-9.565,17.031-15.6,28.491-18.874,13.031-3.727,26.3-4.187,39.7-2.6a71.989,71.989,0,0,1,21.225,5.655C509.1,373.075,518,382.392,523.527,395a79.784,79.784,0,0,1,6.162,24.8c.35,3.74.522,7.5.748,11.248C530.494,432,530.446,432.947,530.446,434.172Z"/>
      <path d="M667.888,400.62v49.732c3.442.216,6.85.069,10.25.1,3.439.027,6.879.006,10.318.006h31.1c.581,1.945.656,34.167.1,36.664H667.871c-.233,3.568-.08,6.972-.107,10.367-.028,3.439-.006,6.879-.006,10.318v72.614c-1.879.532-38.28.672-41.418.19q0-108.129,0-216.3c1.641-.488,104.473-.663,107.976-.158v36.389c-5.512.186-11,.059-16.482.082-5.519.024-11.038,0-16.557,0h-33.39Z"/>
      <path d="M864.2,400.651H798.219c-.55,1.921-.683,46.571-.154,49.72h51.566c.612,2.065.675,34.336.1,36.813H797.775v93.545H756.417V364.079H864.124C864.665,365.677,864.8,397.566,864.2,400.651Z"/>
      <path d="M128.075,437.566V364.713c.077-.09.124-.157.182-.211s.124-.128.187-.128q110.241-.072,220.482-.134c.873,0,1.745,0,2.565,0,.566,1.806.737,66.162.207,69.7a7.188,7.188,0,0,1-.931-.736c-7.56-8.48-16.77-14.76-26.777-19.938a146.437,146.437,0,0,0-39.829-13.444,211.216,211.216,0,0,0-55.868-3.235,174.717,174.717,0,0,0-60.674,15.839A167.889,167.889,0,0,0,131.406,434.8C130.422,435.6,129.451,436.422,128.075,437.566Z"/>
      <path d="M554.373,580.7V364.066h41.042c.5,1.644.67,213.23.14,216.636Z"/>
      <path d="M680.305,625.3v18.811h-4.558V617.97H683.3c1.567,5.338,3.176,10.82,4.786,16.3,2.342-5.262,3.518-10.822,5.378-16.3h7.49v26.182c-.778.044-1.476.112-2.175.115s-1.412-.059-2.421-.107v-18.6l-.542-.06-5.34,18.642h-4.226c-1.818-6.33-3.619-12.6-5.42-18.875Z"/>
      <path d="M291.211,617.938h4.943v26.2h-5.218l-7.929-15.83-.491.144v15.625h-4.978V617.943h5.917c2.323,4.679,4.725,9.517,7.281,14.667.821-1.774.378-3.331.456-4.818.084-1.594.019-3.2.019-4.793Z"/>
      <path d="M370.507,644.169h-5.2c-2.657-5.315-5.283-10.567-7.909-15.818l-.454.1v15.6H351.9V617.966h5.93l7.246,14.606.459-.118V618.018h4.968Z"/>
      <path d="M559.795,617.94h4.865v26.123h-5.233c-2.61-5.211-5.261-10.506-7.912-15.8l-.517.162v15.655h-4.937V618.011h5.965c2.337,4.713,4.766,9.614,7.2,14.515l.519-.083c.018-2.4.043-4.808.053-7.212C559.8,622.855,559.795,620.479,559.795,617.94Z"/>
      <path d="M447.761,644.14H442.87V618.007h5.957l7.216,14.519.516-.081V617.958h4.913v26.11h-5.231l-8.051-16.11c-.761,2.04-.335,3.751-.411,5.407-.081,1.755-.018,3.517-.018,5.276Z"/>
      <path d="M432.857,633.02l5.071,11.145h-5.87c-1.573-3.474-3.117-6.882-4.722-10.425H424.6v10.4h-5.331v-26.3c4.072.083,8.067-.466,11.977.518a7.59,7.59,0,0,1,4.961,10.991C435.51,630.677,434.133,631.654,432.857,633.02Zm-8.134-3.765a32.587,32.587,0,0,0,3.748-.027,2.983,2.983,0,0,0,2.883-3.22c.121-2.363-.91-3.66-3.233-3.9-1.083-.112-2.187-.019-3.4-.019Z"/>
      <path d="M302.755,644.068V617.876c3.862,0,7.6-.4,11.286.386a7.009,7.009,0,0,1,5.921,5.82,26.554,26.554,0,0,1,.441,4.979,74.337,74.337,0,0,1-.36,8.579,6.861,6.861,0,0,1-6.48,6.345A101.653,101.653,0,0,1,302.755,644.068ZM308.3,622.51V639.6c4.715.612,6.472-.8,6.585-5.258.063-2.469.1-4.95-.063-7.412-.219-3.381-1.48-4.465-4.876-4.515C309.481,622.408,309.012,622.467,308.3,622.51Z"/>
      <path d="M521.908,631.054c0-2.073-.124-4.155.027-6.217.307-4.224,2.735-6.715,6.969-7.129a20.313,20.313,0,0,1,5,.118,6.875,6.875,0,0,1,5.912,5.786,13.718,13.718,0,0,1,.3,2.607c.035,3.27.077,6.542,0,9.811-.135,5.644-3.048,8.5-8.653,8.616-.478.009-.957.01-1.435-.01-5.14-.212-7.92-2.936-8.159-8.079-.086-1.831-.014-3.668-.014-5.5Zm12.605.119h0c0-2,.072-4-.02-6-.1-2.181-1.172-3.112-3.39-3.16-2.361-.052-3.64.867-3.709,3.1q-.186,5.991.007,11.99c.072,2.176,1.469,3.16,3.761,3.063,2.188-.093,3.244-1.054,3.339-3.239C534.579,635.013,534.513,633.092,534.513,631.173Z"/>
      <path d="M857.171,644.133h-5.243q-.671-2.466-1.415-5.2h-7.655l-1.577,5.209h-5.3c2.406-8.867,4.758-17.535,7.118-26.234h7.126C852.527,626.588,854.822,635.259,857.171,644.133Zm-7.9-10.056c-.838-3.325-1.627-6.457-2.416-9.59l-.5.016c-.722,3.161-1.832,6.231-2.263,9.574Z"/>
      <path d="M590.386,644.147h-5.225c-.465-1.66-.932-3.332-1.447-5.172h-7.641c-.524,1.7-1.037,3.364-1.587,5.148H569.2c2.4-8.828,4.759-17.5,7.128-26.2h7.123C585.742,626.578,588.037,635.262,590.386,644.147Zm-10.274-19.571-.524-.085c-.8,3.134-1.593,6.268-2.425,9.544h5.31Z"/>
      <path d="M473.3,617.915h6.963c2.3,8.671,4.582,17.3,6.931,26.171h-5.22l-1.478-5.144h-7.567c-.514,1.623-1.039,3.281-1.627,5.136h-4.844C466.354,642.372,471.266,623.492,473.3,617.915Zm3.6,6.6-.511-.061c-.787,3.132-1.573,6.265-2.41,9.6h5.3C478.458,630.765,477.677,627.639,476.9,624.513Z"/>
      <path d="M273.03,644.194H267.8l-1.46-5.238a61.869,61.869,0,0,0-7.614-.128l-1.6,5.318h-5.3c2.411-8.865,4.771-17.539,7.138-26.24h7.118C268.373,626.58,270.667,635.256,273.03,644.194Zm-13.247-10.145h5.33c-.84-3.336-1.629-6.465-2.417-9.6l-.46-.05C261.432,627.565,260.629,630.725,259.783,634.049Z"/>
      <path d="M146.061,634.815c.955,6.506-2.972,9.735-8.031,9.825-.4.007-.8.014-1.2.008-5.749-.079-8.689-2.948-8.823-8.73-.077-3.274-.085-6.554.006-9.827.15-5.472,2.811-8.191,8.275-8.514a17.1,17.1,0,0,1,3.579.192c4.284.658,6.669,3.944,6.153,8.531H141c-.083-.406-.161-.78-.235-1.154-.532-2.7-2.545-3.861-5.122-2.946a2.785,2.785,0,0,0-1.985,2.726c-.053,4.074-.106,8.15.007,12.221.056,2.035,1.209,2.927,3.3,3.021,2.22.1,3.417-.78,3.746-2.82.126-.78.139-1.578.218-2.533Z"/>
      <path d="M758.205,637.282l5.319-1.037a9.182,9.182,0,0,0,.9,1.713,9.005,9.005,0,0,0,2.168,2.125,3.461,3.461,0,0,0,4.314-.956,2.937,2.937,0,0,0-.783-4.23,40.739,40.739,0,0,0-4.277-2.6,35.433,35.433,0,0,1-4.283-2.6,6.582,6.582,0,0,1,1.279-11.134,10.932,10.932,0,0,1,9.718.033,7.44,7.44,0,0,1,4.081,5.294l-4.629,1.289c-.517-.756-.915-1.434-1.406-2.035a3.593,3.593,0,0,0-4.058-1.276,2.537,2.537,0,0,0-.936,4.4,25.593,25.593,0,0,0,3.464,2.1,55.342,55.342,0,0,1,5.281,3.241,6.8,6.8,0,0,1,2.445,7.3c-.623,2.854-2.609,4.483-5.33,5.272-4.66,1.351-9.042.137-11.413-3.249A30.4,30.4,0,0,1,758.205,637.282Z"/>
      <path d="M213.935,643.989V618.264c1.665-.536,10.955-.7,14.937-.25v4.391h-9.263v5.913h6.98v4.506H219.57V639.8h9.7v4.044C227.666,644.382,217.065,644.516,213.935,643.989Z"/>
      <path d="M744.141,639.871h9.679v4.263H738.608V618.228c1.608-.5,11.517-.631,14.837-.175V622.3c-1.575.034-3.135.079-4.7.1-1.5.016-3,0-4.624,0v5.97h7.093v4.339l-7.078.226Z"/>
      <path d="M196.033,644.155c-2.449-8.72-4.861-17.306-7.364-26.215,1.114-.047,1.949-.1,2.786-.114.793-.017,1.587,0,2.609,0l4.925,17.977.49.053c1.614-5.94,3.229-11.879,4.868-17.908h5.39l-7.31,26.211Z"/>
      <path d="M829.933,617.954h5.326l-7.312,26.215h-6.386l-7.35-26.184h5.435c1.609,5.9,3.243,11.884,4.876,17.87C826.781,630.038,828.066,623.957,829.933,617.954Z"/>
      <path d="M413.039,622.4h-9.293v5.837h7.06c.069,1.563.127,2.86.2,4.468l-7.323.237v6.844h9.738v4.341H398.2V618.218c1.71-.5,12.259-.58,14.836-.095Z"/>
      <path d="M175.094,622.592v5.744h7.046v4.382l-7.008.225v6.846h9.759v4.335H169.846c-.486-1.911-.545-23.759-.056-26.162h14.667v4.22C181.462,622.755,178.346,622.1,175.094,622.592Z"/>
      <path d="M625.572,644.081V617.936h14.143v4.417H631.1v5.964h6.664v4.51h-6.784v11.254Z"/>
      <path d="M725.166,644.142h-5.385V617.951h14.124v4.223c-2.739.6-5.623-.079-8.6.409v5.709h6.68v4.549h-6.817Z"/>
      <path d="M493.627,622.337h-6.092V618h18.054v4.4h-6.125v21.561c-1.9.6-3.621.2-5.685.328-.036-3.812.011-7.451-.024-11.088C493.721,629.641,493.892,626.078,493.627,622.337Z"/>
      <path d="M787.577,622.39h-6.3v-4.4H799.4v4.408h-6.172v21.689h-5.652Z"/>
      <path d="M393.588,617.966v4.418h-6.275v21.7h-5.5c-.189-2.258-.057-4.629-.08-6.987-.024-2.4,0-4.8,0-7.194v-7.492h-6.384v-4.448Z"/>
      <path d="M156.2,639.843h8.749v4.267H150.768V618.218a10.273,10.273,0,0,1,5.429-.083Z"/>
      <path d="M670.709,639.7v4.163c-1.649.5-10.86.639-14.149.184V617.966h5.31V639.7Z"/>
      <path d="M608.772,639.812v4.306H594.849c-.49-1.592-.671-22.118-.2-26.116h5.141a48.322,48.322,0,0,1,.167,7.026c.046,2.476.011,4.953.011,7.43v7.354Z"/>
      <path d="M235.083,617.943h5.3v21.78h8.767v4.166c-1.6.479-10.876.606-14.071.148Z"/>
      <path d="M861.373,644.115V618h5.319c.14,7.115-.01,14.26.086,21.642,2.914.41,5.775-.018,8.736.283v4.192Z"/>
      <path d="M650.018,617.973v26.105h-5.31V617.973Z"/>
      <path d="M809.618,644.146h-5.259V618.013h5.259Z"/>
      <path d="M344.987,618.011v26.072h-5.268V618.011Z"/>
      <path d="M510.619,617.957h5.2v26.1h-5.2Z"/>
    </g>
  </g>
</svg>
