<svg xmlns="http://www.w3.org/2000/svg" viewBox="0 0 1000 1000">
  <title>DocNYC</title>
  <g id="DocNYC">
    <g>
      <path d="M832.831,416.862l4.9-2.105q.448.519.9,1.037l-5.007,5.5c2.45,1.9,4.832,3.742,7.212,5.589,4.037,3.133,3.878,6.273-.449,8.909-9.589,5.84-9.828,15.949-.529,22.333,4.971,3.412,4.88,5.954-.342,9.549-8.848,6.089-8.986,15.569-.315,21.622,6.152,4.293,6.026,6.73-.563,10.96-7.595,4.875-7.9,14.141-.641,19.376,7.8,5.625,7.793,7.228-.07,12.933-8.129,5.9-7.653,14.956,1.062,20.194,6.477,3.892,6.629,6.038.738,10.4-9.776,7.248-9.656,14.558.351,21.394,5.15,3.517,5.014,6.692-.43,10.049-9.38,5.784-9.929,14.875-.723,21.22,3.533,2.436,6.02,5.03,4.148,8.686-1.109,2.167-4.706,3.349-7.414,4.351-6.943,2.57-15,3.236-18.184,11.663a3.317,3.317,0,0,1-1.525,1.482c-9.122,4.855-13.869,13.39-15.7,22.648-1.448,7.312-4.831,8.366-10.9,8.33-21.8-.13-43.6.024-65.4.025q-249.109.019-498.22.009c-9.062,0-18.129-.4-27.185-.2-5.313.115-7.767-1.606-8.7-7.2-2.655-15.93-12.273-26.924-26.484-33.893-3.64-1.785-8.082-1.862-11.942-3.3-2.108-.785-4.756-2.434-5.4-4.3-1.015-2.94-.324-5.758,3.363-7.8,12.241-6.788,12-16.186-.1-23.766-1.428-.894-3.137-2.87-3.041-4.225.092-1.3,2.168-2.842,3.705-3.6,4.987-2.454,8.533-5.826,8.438-11.761-.1-6.105-3.385-9.876-8.983-12.055-1.363-.531-3.347-2.209-3.24-3.156a6.693,6.693,0,0,1,2.919-4.28c12.08-7.47,12.162-16.785.184-23.979-1.445-.868-3.457-2.876-3.237-3.955a7.516,7.516,0,0,1,3.715-4.519c5.052-2.5,8.388-6.036,8.372-11.852-.016-5.862-3.653-9.234-8.539-11.791-1.508-.79-3.712-2.871-3.469-3.81a7.868,7.868,0,0,1,3.9-4.316c5.039-2.536,8.234-6.211,8.269-11.956.036-5.914-3.584-9.237-8.646-11.6-1.513-.7-3.42-2.478-3.481-3.836-.059-1.3,1.787-3.229,3.254-3.949,5.006-2.459,8.592-6.019,8.75-11.7.169-6.076-3.518-9.778-8.879-12.268-1.443-.67-3.209-2.78-3.1-4.08.118-1.366,2.091-3.109,3.636-3.718,5.527-2.177,8.087-6.482,8.244-11.906.156-5.394-3.3-8.886-7.967-11.377-5.719-3.055-5.663-4.738-.051-8.053,10.608-6.268,10.64-16.6.349-23.336-2.054-1.344-3.117-4.2-4.636-6.362,2.145-1.49,4.1-3.778,6.465-4.343,20.26-4.84,33.442-16.748,37.774-37.429,1-4.794,3.208-6.425,7.941-6.355,14.449.216,28.9.122,43.355.123q149.541.012,299.083-.026c82.533-.129,165.066-.588,247.6-.9,9.47-.036,9.189.038,11.888,9.168,5.546,18.76,17.86,30.48,37.179,34.526,2.753.577,6.234.067,6.367,4.419.113,3.691.235,6.792-4.04,9.172-10.068,5.605-10.018,14.887-.411,21.26,6.234,4.136,6.236,5.983.01,10.423C835.316,407.766,831.908,410.5,832.831,416.862ZM495.613,339.073v-.1q-70.9,0-141.793,0-55.1.006-110.2.059c-11.123.028-14.529,3.52-14.781,14.4-.034,1.468-.06,2.937-.06,4.406q-.006,136.652,0,273.3c0,12.773,2.717,15.719,15.292,15.864,31.576.362,63.154.767,94.732.826,61.957.116,123.915,0,185.873,0q88.891-.009,177.782-.016c14.932-.013,29.878.046,44.791-.583,11.266-.476,13.8-3.769,13.892-15.263,0-.489,0-.979,0-1.469q0-134.446-.01-268.893c0-3.673.129-7.361-.154-11.015-.531-6.849-4.343-10.7-11.173-11.382-2.669-.267-5.382-.13-8.075-.13Q618.671,339.07,495.613,339.073Z"/>
      <path d="M495.113,342.56H677.359c10.241,0,10.273-.006,10.274,9.863q.012,140.727,0,281.454c0,9.894-.03,9.935-10.244,9.931q-183.348-.084-366.7-.194c-9.538-.006-9.57-.043-9.57-9.833q0-140.727.022-281.454c0-9.926.037-9.947,10.254-9.949q91.859-.011,183.716,0ZM404.094,563.1l-1.37-.173c-.5-1.876-1.056-3.742-1.507-5.632-3.864-16.188-7.9-32.34-11.455-48.6-1.212-5.536-3.7-7.867-9.443-7.571-7.328.377-14.7.371-22.034.03-6.191-.288-8.343,2.332-7.86,8.258.336,4.136.052,8.322.053,12.486,0,31.106.117,62.212-.087,93.317-.039,5.895,1.638,8.592,7.892,8.153a159.43,159.43,0,0,1,17.626-.062c4.879.2,6.3-1.952,6.259-6.582-.173-17.877-.064-35.758-.061-53.637v-7.379a13.1,13.1,0,0,1,2.494,5.68c4.7,18.494,9.57,36.95,14.027,55.5,1.213,5.049,3.56,6.7,8.649,6.419,8.06-.444,16.161-.275,24.241-.165,4.244.058,6.219-1.432,6.2-5.977q-.186-54.738-.07-109.478c.01-4.87-2.247-6.517-6.711-6.444-5.141.085-10.286.015-15.428-.032-11.37-.105-11.471.046-11.433,11.316C404.136,529.392,404.094,546.247,404.094,563.1ZM538.537,426.887c-.793-12.935-.97-22.74-2.091-32.436-1.531-13.233-6.078-25.111-20.076-29.822a69.805,69.805,0,0,0-43.286-.587c-11.476,3.463-18.463,11.38-20.545,22.72a201.576,201.576,0,0,0,.219,75.844c2.32,11.781,9.756,19.39,21.61,22.486a77.1,77.1,0,0,0,37.71.251c12.889-3.015,20.9-10.893,22.945-23.675C537.023,449.174,537.618,436.456,538.537,426.887ZM350.75,423.848h.073q0,26.056.01,52.113c.019,9.161.067,9.181,9.51,9.192q19.084.022,38.168-.017c21.784-.063,34.009-9.376,36.295-31.055a349.244,349.244,0,0,0,1.146-57.06c-1.159-19.531-13.8-34.318-36.9-33.11-13.175.689-26.417.093-39.629.129-8.7.024-8.682.068-8.674,8.429Q350.767,398.158,350.75,423.848ZM548.285,563.975c1.264,11.7,1.99,24.415,4.173,36.873,2.027,11.569,9.565,20,21.162,21.813a133.558,133.558,0,0,0,33.4.543c5.585-.55,11.677-4.076,15.978-7.978,11.847-10.747,12.309-25.435,11.388-40.1-.075-1.19-3.085-3.056-4.8-3.136-7.575-.352-15.176-.162-22.768-.175-4.2-.007-6.136,1.859-6.151,6.272a158.2,158.2,0,0,1-1.034,16.08c-.412,3.887-2.167,8.152-6.532,7.028-2.645-.681-6.145-4.9-6.22-7.611-.575-20.754-.5-41.53-.384-62.3.025-4.432,1.7-8.541,7.275-8.144,5.368.383,5.389,4.867,5.741,8.764,1.357,15.039,1.331,15.041,17.16,15.051,19.417.012,20.233-.982,16.555-20.273-.229-1.2-.688-2.355-.911-3.555-2.088-11.247-8.709-19.28-19.673-21.264a121.909,121.909,0,0,0-33.4-1.634c-14.735,1.471-25.029,10.167-27.351,25.467C550.028,537.981,549.5,550.465,548.285,563.975Zm52.1-129.586c0,5,.192,8.649-.052,12.272-.262,3.892-.313,7.988-1.649,11.547-.852,2.272-3.713,4.867-5.968,5.177-1.672.23-4.632-2.626-5.558-4.746a26.44,26.44,0,0,1-1.8-10.01q-.341-24.238-.187-48.482c.02-3.38.3-7.058,1.676-10.032,1.01-2.177,4.1-4.816,6.117-4.7,2.057.116,4.994,3.037,5.654,5.285,1.071,3.645.847,7.751.711,11.647-.17,4.859,1.217,7.382,6.7,6.714,3.861-.471,7.825-.115,11.743-.107,17.115.034,18.217-1.285,15.241-18.349-.252-1.446-.667-2.863-.9-4.311-1.9-11.877-8.665-19.507-20.21-22.646-14.015-3.811-28.061-3.985-41.892.908-8.075,2.856-14,8.4-16.534,16.557-2.013,6.481-3.7,13.312-3.939,20.045-.554,15.406-.389,30.854.018,46.271a73.309,73.309,0,0,0,2.844,17.311c2.883,10.478,9.886,17.371,20.427,20.152,12.264,3.235,24.611,3.633,36.965.1,8.213-2.346,14.479-7.127,18.47-14.614,5.08-9.533,6.547-19.891,6.305-30.572-.08-3.537-1.57-5.458-5.315-5.436C619.979,434.425,610.71,434.389,600.38,434.389ZM451.4,501.549c.994,3.393,1.405,5.5,2.212,7.445,7.873,18.966,16.121,37.785,23.56,56.918a70.63,70.63,0,0,1,4.194,20.456c.7,9.981.392,20.052.118,30.074-.142,5.209,2.009,6.93,6.943,6.765,7.087-.237,14.19-.231,21.279-.043,4.663.123,6.614-1.661,6.511-6.442-.226-10.514-.464-21.051,0-31.548a56.2,56.2,0,0,1,3.112-17.044c5.322-14.185,11.428-28.075,17.193-42.094,3.2-7.787,6.347-15.6,10.077-24.775-11.076,0-20.529.265-29.957-.1-5.918-.228-8.859,1.754-10.05,7.8-1.968,9.993-4.756,19.824-7.2,29.723a11.634,11.634,0,0,1-2.634-5.458c-2.089-8.795-3.928-17.658-6.359-26.356-.575-2.055-3.036-5.018-4.734-5.09C474.735,501.323,463.781,501.549,451.4,501.549Z"/>
      <path d="M757.732,493.572q0,68.306,0,136.611c0,11.843-1.725,13.581-13.611,13.618-14.444.045-28.889.016-43.334.022-9.8,0-9.84.008-9.841-9.644q-.018-131.1-.007-262.206c0-7.834.184-15.673-.036-23.5-.127-4.519,1.769-6,6.1-5.966,16.892.14,33.786-.045,50.677.136,7.552.082,10,3.187,10.014,12.115q.081,54.717.045,109.436Q757.733,478.883,757.732,493.572Z"/>
      <path d="M297.587,494.527q-.012,70.134-.009,140.267c0,8.807-.006,8.823-9.009,8.855q-22.032.077-44.062.114c-9.793.017-12.391-2.387-12.394-11.944q-.043-138.432,0-276.864c0-9.888,2.688-12.507,12.766-12.566q22.03-.128,44.063-.011c8.007.03,8.625.628,8.631,8.943Q297.632,422.924,297.587,494.527Z"/>
      <path d="M502.238,424.565c-.449,9.288-.794,18.583-1.41,27.86a19.106,19.106,0,0,1-1.9,7.731c-.892,1.631-3.255,3.38-4.964,3.383a6.66,6.66,0,0,1-4.96-3.358,25.775,25.775,0,0,1-2.357-9.881c-.253-17.137-.208-34.279-.149-51.419a36.347,36.347,0,0,1,1.051-7.243c.751-3.584,2.445-7.3,6.541-6.287,2.351.581,5.3,3.859,5.693,6.291,1.273,7.938,1.554,16.042,2.089,24.091.2,2.926.031,5.876.031,8.815Z"/>
      <path d="M400.535,423.957c0,8.538.365,17.1-.116,25.61-.381,6.741-3.979,10.254-9.445,9.75-1.688-.156-4.5-2.515-4.546-3.931-.587-20.239-.862-40.489-.937-60.738-.006-1.644,2.3-4.826,3.017-4.685,3.583.7,7.376,1.728,10.307,3.772,1.48,1.032,1.714,4.449,1.777,6.807.206,7.8.078,15.609.078,23.415Z"/>
    </g>
  </g>
</svg>
