<svg id="Facebook" xmlns="http://www.w3.org/2000/svg" viewBox="0 0 1000 500">
  <title>Facebook</title>
  <path d="M530.194,247.839c-7.8,0-13.419,2.557-19.118,5.163v58.947a124.362,124.362,0,0,0,13.768.52c18.717,0,21.283-8.571,21.283-20.539V263.776c0-8.838-2.933-15.937-15.933-15.937Zm-124.3-3.217c-12.987,0-15.95,7.129-15.95,15.959v4.961h31.882v-4.961C421.824,251.751,418.86,244.622,405.892,244.622Zm-240.8,61.356c0,6.985,3.3,10.613,10.57,10.613,7.8,0,12.422-2.544,18.117-5.158V297.45h-17.06c-8.077,0-11.627,1.5-11.627,8.528ZM651.11,247.839c-13.008,0-17.515,7.1-17.515,15.937V296.03c0,8.86,4.507,15.98,17.515,15.98,12.973,0,17.514-7.12,17.514-15.98V263.776C668.62,254.938,664.079,247.839,651.11,247.839ZM101.346,342.144H63.108V249.592H44V217.7h19.11V198.547c0-26.02,10.784-41.489,41.433-41.489h25.518v31.9h-15.95c-11.932,0-12.719,4.459-12.719,12.777l-.048,15.963h28.892l-3.379,31.891H101.346v92.556Zm130.68.24H200.157l-1.377-8.06a73.047,73.047,0,0,1-36.1,9.367c-23.372,0-35.811-15.613-35.811-37.206,0-25.474,14.516-34.566,40.484-34.566h26.431v-5.507c0-13-1.49-16.82-21.487-16.82H139.6l3.2-31.891h35.737c43.876,0,53.5,13.861,53.5,48.969v75.714ZM340.4,251.931c-19.831-3.4-25.526-4.148-35.068-4.148-17.139,0-22.319,3.78-22.319,18.336v27.533c0,14.555,5.18,18.354,22.319,18.354,9.542,0,15.237-.761,35.068-4.175V338.94c-17.37,3.895-28.687,4.917-38.25,4.917-41.053,0-57.37-21.588-57.37-52.775V268.741c0-31.213,16.317-52.841,57.37-52.841,9.563,0,20.88,1.028,38.25,4.94v31.091Zm119.661,39.151h-70.12v2.57c0,14.555,5.184,18.354,22.319,18.354,15.4,0,24.805-.761,44.6-4.175V338.94c-19.093,3.895-29.041,4.917-47.771,4.917-41.057,0-57.383-21.588-57.383-52.775V265.538c0-27.289,12.112-49.638,54.183-49.638s54.17,22.091,54.17,49.638Zm124.3.59c0,30.142-8.616,52.129-60.806,52.129-18.847,0-29.9-1.657-50.7-4.857v-172.3l38.224-6.377v60.272c8.261-3.069,18.953-4.629,28.683-4.629,38.229,0,44.6,17.138,44.6,44.68v31.087Zm122.532.656c0,26-10.735,51.223-55.651,51.223-44.939,0-55.875-25.22-55.875-51.224V267.22c0-26.016,10.936-51.241,55.875-51.241,44.916,0,55.651,25.225,55.651,51.241v25.107Zm122.45,0c0,26-10.749,51.223-55.656,51.223-44.939,0-55.875-25.22-55.875-51.224V267.22c0-26.016,10.936-51.241,55.875-51.241,44.907,0,55.656,25.225,55.656,51.241v25.107ZM955,342.144H913.567l-35.042-58.5v58.5H840.287V166.635l38.238-6.378V273.244L913.567,217.7H955l-38.255,60.613Zm-181.449-94.3c-12.987,0-17.493,7.1-17.493,15.937V296.03c0,8.86,4.506,15.98,17.493,15.98,12.968,0,17.558-7.12,17.558-15.98V263.776c0-8.838-4.59-15.937-17.558-15.937Z"/>
</svg>
