<svg xmlns="http://www.w3.org/2000/svg" viewBox="0 0 1000 1000">
  <title>Headliner</title>
  <g id="Headliner">
    <g>
      <path d="M336.64,392.025c1.23-.87,3-1.466,3.606-2.655,5.219-10.207,13.452-17.909,21.5-25.644,17.2-16.523,35.968-30.955,58.038-40.531,12.092-5.247,24.436-9.5,37.573-11.812,8.207-1.446,16.232-4.021,24.62-5.057a118.5,118.5,0,0,1,29.464.166c11.79,1.484,23.822,2.329,35.2,5.446a209.213,209.213,0,0,1,35.532,13.851,226.218,226.218,0,0,1,32.358,19,161.806,161.806,0,0,1,24.64,21.914c8.554,9.219,15.88,19.576,23.766,29.418,6.827,8.522,10.165,18.884,14.912,28.488a183.833,183.833,0,0,1,7.625,18.805,137.185,137.185,0,0,1,7.869,53.815c-.54,11.459-.9,22.956-2.2,34.338a65.041,65.041,0,0,1-5.826,21.3,94.476,94.476,0,0,0-5.921,16.571c-3.3,12.157-9.88,22.516-16.621,32.942-9.527,14.734-21.145,27.592-33.876,39.488-5.774,5.395-11.585,11.1-18.33,15.036-19.494,11.367-39.087,22.688-61.738,27.107-9.421,1.838-18.663,4.633-28.383,4.389a88.867,88.867,0,0,0-15.564,1.4c-4.858.734-10.038-.173-15.018-.817-15.429-2-30.921-3.626-45.741-8.921-15.731-5.62-31.013-12.087-45.073-21.245-6.834-4.452-14.862-7.047-20.444-13.46-2.209-2.539-4.749-4.793-7.182-7.133-5.066-4.872-11.055-8.736-14.992-14.848-3.053-4.739-6.794-9.032-10.183-13.558a179.4,179.4,0,0,1-24.826-46.975,245.087,245.087,0,0,1-12.084-46.4c-2.174-14.159-2.99-27.953-1.219-42.116.471-3.767.269-7.612,1.25-11.417.356-1.382-.531-3.988-1.638-4.591s-3.5.166-4.8,1.08c-1.814,1.268-3.143,3.231-4.62,4.831-.836,5.585-1.662,11.1-2.7,18.043-3.9-6.03-2.564-11.167-2.827-16.631-1.658,2.044-3.079,3.568-4.229,5.273-1.194,1.771-2.127,3.718-3.372,5.942l5.165,2.648c-.506,3.644.7,7.033,4.7,7.574,1.716.232,3.767-2.015,6.091-3.386a103.243,103.243,0,0,0-.3,10.808c.251,3.848,1.192,7.65,1.8,11.477,1.025,6.433,2.026,12.871,3.041,19.306.494,3.126.506,6.44,1.621,9.328,1.277,3.309,1.707,6.108-.8,8.36A186.494,186.494,0,0,1,319.49,580.7l2.237-1.636c7.934,15.639,16.381,31.147,28.13,44.727-.243.587-.569,1.378-.694,1.68l16.971,15.446L363.7,643.78c.584.541.891,1.08,1.228,1.1,5.621.32,9.319,4.085,13.311,7.335,3.541,2.883,7.1,5.747,10.881,8.807l-.2,2.694c3.621-.272,7.157-1.375,8.357,4.016.306,1.374,4.7,1.837,7.22,2.718-.256.867-.5,1.712-.642,2.181,2.67.689,5.362,1.051,7.774,2.072,5.854,2.478,12.127,4.5,17.188,8.156,4.378,3.159,9.334,1.916,13.759,4.052,4.662,2.251,10.048,3.108,15.193,4.224,5.129,1.112,10.424,1.491,15.519,2.716,13.121,3.156,26.456,3.284,39.728,2.411,9.742-.642,19.387-2.762,29.073-4.234.45-.068.943-.451,1.315-.342,4.408,1.294,8.078-1.362,12.048-2.275a119.177,119.177,0,0,0,25.805-9.675c5.48-2.694,11.257-4.782,16.869-7.214a21.087,21.087,0,0,0,4.455-2.443c14.685-11.248,29.594-22.3,42.448-35.647,6.374-6.621,11.416-14.509,17.267-21.655,3.654-4.463,5.133-10.584,10.509-13.727.322-.188.719-.857.613-1.079-1.972-4.127,1.732-6.182,3.2-9.073,1.908-3.766,4.027-7.389,4.812-11.723a9.936,9.936,0,0,1,3.9-5.748c4.047-2.782,5.146-3.973,3.432-7.877-1.006-2.294-1.908-4.091.4-6.627l3.114,5.032c3.38-2.211.634-4.874,1.164-7.059.5-2.048,1.327-4.016,2.251-6.722-.649-2.167-1.54-5.145-2.61-8.718l4.645-.478c1.044-4.376,2.028-8.5,3.148-13.195l-2.776-2.235,2.589-3.294-3.486-4.081,2.67-1.915c-.651-4.793-1.584-9.462-1.837-14.168-.238-4.421,2.221-8.192,4.216-12.363l9.356-.569c-1.238-2.012-2.45-2.854-6.509-3.631,2.236-1.16,4.023-2.432,4.286-2.171,3.012,2.993,6.386,2.8,10.093,1.028,1.112,2.422,2.021,4.4,2.871,6.255,4.275-.067,3.3-3.262,4.023-6.142l4.171,4.613,6.146-.549c.919,2.841,1.576,5.345,2.534,7.728,1.444,3.589,2.747,6.963.756,10.942-.829,1.659-.074,4.05-.31,6.076-1.348,11.559-3.345,23.077-3.994,34.672-.49,8.741-3.387,16.321-7.159,23.926-1.357,2.737-1.058,6.258-2.224,9.134-3.674,9.069-5.618,18.666-8.832,27.876-1.264,3.624-6.186,5.419-4.956,10.23.023.087-2,.7-3.507,1.215.688,1.592,1.283,2.965,2.111,4.88l-3.575,4.359-.963-.443,1.344-4.3-.85-.522c-1.567,1.865-3.133,3.729-4.837,5.759l1.984,5.107-2.523-.281c-2.308,3.7-4.967,6.916-6.453,10.6-2.111,5.237-7.95,7.607-9.4,13.363-.371,1.477-3.608,2.012-4.808,3.543-3.076,3.926-7.167,6.949-9.8,11.239-7.422.99-9.017,8.77-14.369,12.393-5.432,3.678-9.778,8.949-14.666,13.451a13.007,13.007,0,0,1-3.437,2.218c-2.158.971-3.277,2.4-2.907,4.842.381,2.516-.716,3.858-3.86,4.254v-5.794l-5.4,5.085,1.921,3.023-6.3-.961-1.071,1.689,4,1.961-4.4,1.549c-.88-2.409-1.694-4.641-2.632-7.213l-5.769,1.726c.717,1.288,1.33,2.391,2.257,4.059-2.934,1.914-6.052,3.95-9.653,6.3l2.745,2.227-14.941-1.3,1.616,5.54c-4.676-2.8-8.421-1.417-12.087,1.294-2.174,1.607-4.607,2.107-6.631-1.277L571.7,731.39c-3.155-.531-2.083-2.8-2.179-4.929-1.809,2.378-3.619,4.756-5.607,7.367l-5-2.57c-6.665,2.111-8.13,9.284-14.054,11.329a21.84,21.84,0,0,1-3.8.364l8.059-6.331-8.027-1.012c-.448,1.19-.816,2.168-1.182,3.138-.6,0-1.195.189-1.49-.028-4.757-3.478-9.791-1.679-14.246.069-2.932,1.151-5.655,1.055-8.511,1.362-3.113.335-6.565,1.918-9.237,1.038-6.1-2.011-13.207,3.548-18.011-3.64l-2.753,2.6-13.064-.716c-1.274-1.688-4.19-2.862-8.129-1.77l1.851,2.52-.606.924-10.595-5.672a27.881,27.881,0,0,1-14.791-3.209c-3.092-1.722-7.086-1.805-10.655-2.7-1.749-.438-4.209-.512-5.031-1.678-1.929-2.737-4.758-.3-6.353-1.592-2.028-1.642-3.428-1.463-5.943-1.149-3.036.38-6.613-1.437-9.565-3.028-4.179-2.252-7.946-5.252-11.99-7.77-3.095-1.927-6.349-3.6-9.528-5.389q-10.844-6.111-21.681-12.233a5.234,5.234,0,0,1-1.154-.738c-5.588-5.589-12.124-10.549-16.429-17-3.424-5.13-9.464-8.092-11.193-14.377-.322-1.172-1.08-2.3-1.1-3.463-.06-2.913-1.664-4.385-4.254-4.406-6.682-.056-10.176-4.527-13.214-9.416-1.163-1.872-1.073-4.485-2.054-6.52-.881-1.827-2.718-3.183-3.654-4.994-2.089-4.041-3.629-8.381-5.89-12.313-1.23-2.138-1.72-4.529-5.492-5.573-3.795-1.05-6.641-5.507-7.992-10.406-2.807-10.182-6.416-20.151-9.9-30.136-1.788-5.126-4.306-10-5.983-15.161-3.232-9.939-6.065-20.008-9.154-30a29.873,29.873,0,0,0-1.86-4.223c0-6.076.89-11.4-.208-16.275-1.637-7.264,1.552-13.9,1.261-20.887-.109-2.6,3.216-3.3,3.239-6.65.023-3.436,2.962-6.852,5.222-11.507.745,3.66,1.316,6.462,1.813,8.9,2.452-3.769,2.763-10.522-.234-14.278-2.387-2.99-2.828-5.415-.548-8.634.974-1.375.743-3.549,1.352-5.255a25.792,25.792,0,0,1,2.05-3.822c.952-.158,1.453-.4,1.827-.277,1.751.593,3.6,3.442,5.195.791.9-1.494.554-4.318-.219-6.119-1.643-3.827-4.417-7.2-5.8-11.093a30.722,30.722,0,0,1-1.359-10.573c.036-2.59,1.772-5.091-1.065-7.446-.577-.479-.131-3.426.754-4.218,3.774-3.378,4.542-7.932,5.7-12.4,5.19,1.223,3.623-4.59,6.324-6.3,2.6-1.643,4.346-4.62,6.646-7.211-.528-1.5-1.045-2.972-1.51-4.294,4.9-13.082,12.271-24.323,23.261-33.327h6c.358,1.49.7,2.894,1.351,5.619l5.16-6.82-5.687-3.066.468-1.071h4.034c1.2-3.3-1.54-7.765,3.846-10.139,2.665,2.826,5.641,5.893,8.517,9.051,3.694,4.056,7.026,8.419,12.564,10.35,9.055,3.157,20.756-5.929,23.717-12.4,3.053-6.668,2.32-12.83-1.67-18.631-3.484-5.066-7.36-9.863-11.654-15.564l-5.934,5.128c4,5.654,7.8,10.775,11.326,16.079,5.1,7.671,3.623,12.044-4.934,15.235-1.688.629-3.428,1.121-5.334,1.739-6.664-4.648-12.943-9.468-15.736-18.414l-8.333,1.8c1.069-1.321,1.846-3.153,2.695-3.187,5.276-.212,7.625-4.439,9.81-7.812,7.161-11.056,18.343-16.983,29.172-22.961,4.552-2.513,8.205-5.644,12.3-8.469,6.5-4.492,14.07-7.582,21.449-10.633,5.705-2.359,11.82-3.724,17.736-5.584,2.775-.872,5.161-2.212,8.415-.233,1.551.944,5.968.032,6.939-1.448,3.321-5.06,7.213-3.265,11.29-2.105l.082.062c1,6.715,2.189,13.41,2.954,20.152.609,5.36.706,10.777,2.013,16.717.593-1.109,1.187-2.218,1.806-3.374l4.623,3.142,2.251-2.96c.486.414,1.062.661,1.1.971.518,4.524-1.523,7.3-5.909,8.152-3.951.767-7.556-1.076-8.632-5.022a76.953,76.953,0,0,1-1.518-10.076c-.327-2.448-.579-4.906-.838-7.132-5.809-1.659-5.809-1.659-12.91,3.222,0,1.943-.6,4.252.142,5.977,1.106,2.559,2.728,5.519,4.98,6.737,1.465.792,3.612.6,3.651,2.767.044,2.431-.454,4.529-3.3,6-6,3.091-11.737,6.5-18.885,4.685-2.032-.516-4.068-1.019-6.242-1.563-1.307,2.706-2.542,5.491-3.969,8.174-5.1,9.592-13.661,11.43-22.479,5.011-.567-.413-1.846.151-2.9.273,1.4,2.578,2.542,4.694,3.687,6.81l-1.065.839a14.679,14.679,0,0,0-3.391-1.632c-2.214-.438-4.223,1.076-3.519,2.92,2.247,5.885-3.181,8.162-5.462,11.36-3.234,4.533-8.1,8-12.59,11.5-2.715,2.117-6.046,3.445-9.76,5.491v2.376l-8.466-6.292-4.625,5.671c-1.2-3.348-2.4-6.7-3.633-10.151-3.209,2.392-3.209,2.392,1.393,10.968l2.4-1.01c-.851,2.866-3.338,6.016,1.586,7.81-2.135,5.287-4.261,10.394-6.242,15.556a28.267,28.267,0,0,0-.956,4.487c-5.152,4.257-8.238,10.626-14.269,14.041-.257.146.472,2.033.764,3.193-.479.339-1.027.745-1.594,1.125-5.563,3.733-5.563,4.02-4.005,10.538a10.863,10.863,0,0,1-.486,5.227c-.947,3.3-2.321,6.474-3.262,9.773-.289,1.012.254,2.261.417,3.4,2.606-4.877,3.857-9.979,6.115-14.588,4.01-8.186,8.673-16.05,12.97-24.1C334.937,398.042,337.716,395.713,336.64,392.025ZM555.355,584.151v3.526c3.454.605,6.7,2.17,10.356-2.073-2.164-.764-3.6-1.588-5.1-1.721a30.111,30.111,0,0,0-5.447.452c1.02-4.522,2.04-9.045,3.227-14.3l-5.329-.8c.232,4.523.327,8.336.693,12.122C553.846,582.327,554.8,583.22,555.355,584.151Zm-84.141,137.4c-.822,1.559-1.645,3.117-2.859,5.418L456.9,720.44c-2.558,2.219-.112,4.835-.674,7.831l11.958,1.526c3.607-2.491,3.2-5.458,2.867-8.4,2.592-3.06,1.344-5.493-1.436-7.4s-6.745-1.226-9.747,1.732c1.1.18,1.88.239,2.621.44C465.92,717.1,470.3,716.521,471.214,721.548Zm132.48-171.623-.185-.179.235,2.935h6.219l3.475-5.511c-3.722-6.956-5.895-7.732-12.872-4.788C601.447,547.48,601.447,547.48,603.694,549.925Zm26.228,31.668-.163-.216c.415,5.753.415,5.753,5.847,6.924,5.82-3.762,5.073-9.648,4.12-15.052-.589-3.336-4.34-3.357-7.2-3.732C628.635,573.083,626.648,576.783,629.922,581.593Zm31.665-66.477,8.645,1.157.324-1.962-8.854-2.662.079-1.418,10.9-1.165c-1.621-5.355-6.471-6.514-14.741-3.73-.128,3.794,1.707,6.89,3.788,9.9-3.832,2.39-2.247,5.738-2,9.284h13.357c-2.852-6.38-7.67-2.13-11.494-3.432ZM585.7,484.7c-.488,2.22-1.14,4.419-1.415,6.664-.258,2.1.564,3.541,3.52,3.011,1.052-3.605.956-6.88-2.242-9.564.361-9.344-1.217-10.669-11.288-9,.648,4.636-4.578,9.142.175,14.291,2.672.763,5.6,2.338,8.7-.186-1.52-6.141-5.751-1.21-8.814-2.526,1.019-3.438,1.187-7.225,5.766-7.872Zm6.726-37.263c-1.88-2.818-4.549-4.515-7.887-4.128-1.81.21-4.248,1.175-5.006,2.563-.778,1.424-.335,4.015.472,5.653.694,1.409,2.717,2.122,4.036,3.276,1.366,1.2,2.591,2.553,3.71,3.671-3.015,4.173-7.288-6.022-9.482,1.952,1.845.714,3.35,1.214,4.785,1.868,3.084,1.407,5.48.488,6.841-2.4,1.314-2.788-.4-4.725-2.606-6.253-1.611-1.119-3.244-2.206-4.941-3.357,1.688-3.354,3.149-2.52,5.058-1.018,2.538,2,4.179.917,4.87-2.017,3.642.421,2.708,3.44,3.345,5.675,1,3.513,3.156,4.715,6.692,4.121,3.637-.611,5.734-2.93,5.562-6.414a49.745,49.745,0,0,0-.76-5.17C599.522,440.412,597.436,440.72,592.422,447.432Zm78.866,44.23,9.414,10.057c.159-3.2.243-4.886.311-6.259-3.628-1.341-6.745-2.5-9.862-3.648l3.863-6.458c-4.377-6.17-11.873-6.446-17.954-9.425l-.344,1.841-10.374-4.5-.5,1,13.127,9.829,5.195-4.09.657.878-3.682,5.786Zm37.246,106.369-9.359-.772c1.488-2.609,2.875-5.039,4.52-7.922l-4.926-1.518c-.535,1.894-.949,3.357-1.328,4.7l-9.089.562c2.225-4.139,4.1-7.628,6.009-11.179-2.234-2.785-4.264-2.3-5.571.812-1.646,3.916-2.945,7.978-4.159,11.329,3.55,4.137,8.5,2.261,12.158,5.228,3.318,2.694,7.906,3.825,11.809,5.589,2.9-2.8.89-4.882-.238-7.031,4.884.659,5.346.244,7.228-6.587-1.758-1.705-3.467-2.069-4.69.522C709.947,593.774,709.31,595.935,708.534,598.031ZM410.007,699.113c2.1-3.107,4.6-6.04,6.09-9.418.517-1.174-1.068-3.907-2.421-5.107-1.624-1.441-3.966-2.182-6.106-2.907-3.471-1.177-6,.085-7.516,3.531-2.463,5.607-4.881,11.233-7.4,17.04,2.866,5.458,8.364,6.057,14.255,8.542-2.525-4.022.989-3.9,1.516-5.376.758-2.12,1.209-4.35,1.791-6.534Zm179.961-117.39-4.024,2.168c-.625-4.944-1.208-9.566-1.7-13.463-4.138-.947-7.519-1.739-10.91-2.49-2.388-.529-5.463-.6-5.463,2.292,0,5.826-1.071,11.85,1.309,18.368,3.617-1.431,8.318,2.5,10.749-4.5h-10.6c.714-1.362,5.449-4.895,7.681-5.764l-6.711-2.148c.044-.823.091-1.689.136-2.525,3.462-.556,6.713-1.078,9.966-1.6,3.614,4.789-.009,13.172,8.439,16.963.4-3.151.676-5.286.948-7.421.884-3.918,5.36-7.009,2.827-12.7C588.687,573.184,588.9,577.362,589.968,581.723Zm10.563-171.407,3.706-5.482c-10.213-6.436-14.341-7.848-18.577-6.663v9.344c.736-.151,1.034-.121,1.125-.245.666-.9,1.291-1.835,1.5-2.131l8.222-.846c-1.286,3.925.648,5.576,4.234,5.872-.607,1.64-1.215,3.279-1.781,4.807,4.2,3.6,9.033,5.511,14.17,6.824,4.585,1.173,6.5.3,7.3-3.434.866-4.027-1.4-7.174-5.535-7.592-1.029-.1-2.078-.016-3.869-.016l2.675-3.128-.558-1.076ZM273.05,503.965l-.133-.206.371,5.339-4.533-.529c.3,2,.5,3.316.681,4.559,7.378-2.261,14.535-4.468,21.7-6.645,3.1-.941,4.627-2.7,3.47-6.427-4.7-.921-9.425-2.794-14-2.484-4.665.315-8.9-3.527-14.374-1.052Zm425.908,73.42c.226.643.308,1.737.7,1.862q8.352,2.661,16.785,5.069c2.237.64,3.755-.3,5.168-3.065l-16.148-5.257-6.65,1.562c3.265-3.358,7.555-3.8,11.858-4.042,2.841-.158,5.7-.03,9.889-.03l-12.936-9.9.89-1.61c4.116,1.436,8.323,2.661,12.319,4.378,2.927,1.258,4.81.536,6.671-2.277-7.989-6.2-18.259-5.691-26.911-9.911l-2.8,4.951,12.063,10.028-16.479,3.381c-.133,1.634-.255,3.124-.4,4.857ZM582.681,552.68l3.528-2.07c2.947,8.161,3.893,8.716,11.6,6.511V546.146l-5.826,3.254,3.892,3.08c-.946,2.841-2.747,3.427-4.527,2.346-3.033-1.844-2.419-5.052-2.575-8.715l9.271-1.365c-2.246-1.719-3.7-3.683-4.781-3.5-2.9.5-5.639,1.927-8.774,3.11-5.5-5.223-5.5-5.223-12.177-1.937-4-1.062-7.812-3.253-11.97-.431-.63.427-2.054-.42-3.125-.518-2.418-.219-5.057-1.456-6.907,1.348-1.5,2.267-1.087,8.515.753,11.056l-.208-.226c-.873,4.158,1.787,5,4.822,5.458,3.263-2.591,3.263-2.591,5.686-13.883h10.295a3.185,3.185,0,0,1,.9,1.55,20.377,20.377,0,0,1-.137,4.023c-.4,6.6,3.482,9.082,10.241,6.247l.242-4.588ZM534.454,375.571c1.556,5.328,7.454,5.671,10.5,9.853l2.12-2.678c-1.693-1.022-3.135-1.943-4.625-2.779-2.653-1.488-5.336-2.925-8.006-4.383.762-3.536-2.349-4.824-4.253-6.339-2.749-2.188-6.149-3.558-9.195-5.236-4.556,3-9.284,5.263-15.058,4.707a88.237,88.237,0,0,0-9.578.052c-8.613.115-17.226.177-25.835.423-1.11.032-2.192,1.024-3.294,1.575,1.906,3.993,4.478,4.821,8.466,4.693,12.072-.388,24.181.268,36.246-.209,5.248-.208,11.022,2.125,15.106-1.783Zm-15.136-40.219c-1.6,3.512-2.779,7.309-4.906,10.465-2.7,4.009-5.083,7.9-4.7,13.335l5.134,3.277c6.544-6.851,8.863-14.04,5.335-22.75,10.738-.037,17.167-6.7,25.321-11.5l-4.287-1.454c-.264-1.921,3.747-4.623-.315-5.783-6.7,4.926-13.207,9.744-19.772,14.485-.462.333-1.337.1-2.019.123l-4.974-2.716v-7.883c-4.44,1.625-7.374,3.3-6.122,8.148.195.753-.746,1.906-1.347,2.74-3.822,5.3-8.57,10.273-4.869,17.737.413.833-.676,2.41-1.019,3.484l-5.455-3.733c1.276-6.054,2.061-12.361,6.051-17.556,3.1-4.035,3.364-8.254,1.541-12.82a16.573,16.573,0,0,1-.936-3.183c-.857-4.779-.952-4.859-7.323-4.24,2.328,5.679-.759,9.946-3.709,14.288-4.283,6.3-4.992,13.129-4.056,20.66.778,6.259,5.456,9.754,7.821,15.029l6.637-3.711c4.505-8.528,8.218-16.006,12.432-23.19C514.73,337,517.427,336.41,519.318,335.352Zm16.618,22.138c-2.869-.606-5.77-1.093-8.6-1.855-2.312-.623-3.507-.049-3.661,2.7,4.527,2.812,8.789,6.594,13.756,8.22,4.811,1.575,8.717,4.731,13.2,6.306.695-.944,1.19-1.617,1.686-2.289a11.688,11.688,0,0,1,2.245,1.757c.7.889.871,2.531,1.71,2.936q15.624,7.546,31.429,14.715c.917.415,2.411-.448,3.441-.675.692,1.211,1.214,3.394,2.179,3.612,7.479,1.688,13.865,5.736,20.7,8.853,11.053,5.042,22.357,9.538,33.6,14.15a40.6,40.6,0,0,0,6.119,1.492l.666-1.5-21.321-15.038,32.153,9.408a8.135,8.135,0,0,0-4.435-4.071c-5.307-2.044-10.69-3.893-16.057-5.783-9.639-3.395-19.321-6.675-28.9-10.219-1.942-.718-3.529-2.394-5.28-3.628l-.116.129,9.185-4.644c-4.324-4.4-5.105-11.625-12.553-12.147l.212-4.1-10.572-6.369a7.909,7.909,0,0,1-3.374.422c-11.525-2.4-22.872-6.051-34.925-4.251-1.282.192-2.675-.376-4.018-.581a32.95,32.95,0,0,0-18.632,2.63ZM456.65,540.328l13.255-5.644c-.6-.342.144.107.913.512.914.48,1.848.921,3.014,1.5-.5-8.18-.5-8.18,4.6-11.112l2.168,1.83c8.578-5.257,13.3-13.063,17.618-21.147a78.008,78.008,0,0,0,8.887-26.543,256.208,256.208,0,0,0,1.889-27.268c.249-9.8-5.45-17.429-8.108-27.3,9.451,2.757,17.743,5.305,25.646-1.761-1.631-1.2-2.729-2.7-3.773-2.66-7.5.271-14.989.854-22.773,1.357L484.007,394.85c2.859.815,4.553,1.04,6,1.759,4.975,2.463,6.966,3.214,9.029,3.184,13.527-.2,27.06-.194,40.578-.639,6.7-.221,13.617,1.365,21.119-2.572-1.932,3.826-1.8,6.133,1.091,8.4,10.839,8.491,21.421,17.31,32.1,26.006l-.179-.175c1.566,1.8,2.479,4.6,6.1,3.807l1.627-5.87,2.3,2.913,2.254-1.726c4.462,5.614,10.514,8.028,17.2,9.394-9.279-7.486-18.945-14.4-28.522-21.431-9.775-7.178-19.426-14.525-29.207-21.695a112.227,112.227,0,0,0-10.33-6.717c-1.258-.724-3.282-1.285-4.469-.778-8.051,3.438-15.711,1.111-23.355-.713a60.013,60.013,0,0,1-12.57,2.291c-8.7.526-17.428.552-26.121,1.132-4.4.293-7.552-.644-10.536-4.314-1.969-2.423-3.625-6.715-8.43-5.551l.611-2.562c-3.606,0-4.941-3.411-7.473-5.041-15.158-9.761-31.957-14.05-49.71-14.978a85.277,85.277,0,0,0-28.588,3.409c-5.882,1.722-12.25,2.2-16.232,8.229l-2.487-1.591-5.831,3.773v4.633l-6.994,1.427c1.316,4.617,4.856,5.4,7.637,4.624,4.359-1.216,7.552-.76,10.395,2.765.375.465,1.624.226,2.443.31.774-4.134,1.493-7.974,2.371-12.665l5.434,4.613c-1.847,3.423-3.7,6.669-5.371,10.008-1.685,3.375-3.753,5.663-7.893,3.782l.176-.027-4.5,7.2L350.258,394.4a61.425,61.425,0,0,0-5.453,4.955,38.9,38.9,0,0,0-4.932,6.9,9.811,9.811,0,0,0-.446,6.294c2.224,5.144-.832,8.747-2.656,13.319,3.429,1.246,6.787,2.808,10.317,3.652s7.238.974,10.867,1.417a15.04,15.04,0,0,1-8.354,1.007c-2.838-.521-5.518-1.9-8.322-2.927l-5.073,4.386c.261,2.39.455,4.163.649,5.937-2.579-1.386-3.923-5.691-8.521-3.456,2.545,2.593,3.816,6.063,8.109,6.884.1-1.487.178-2.557.253-3.627l2.823-5.762c6.464,1.469,6.464,1.469,7.751,4.966l-5.013-1.379,1.612,6.181c-1.825,1.8-5.7-.856-4.935,3.8,8.225-1.759,10.541,6.111,16.009,9.15L351.8,461.3l4,3.247-8.08,3.756q.394-2.348.791-4.7l-5.9-4.947-.755.453c1.222,2.806,2.445,5.612,3.843,8.824l2.2.195V472.5h-6l3.816,6.014-2.662,5.164c5.076-2.665,7.075-1.015,8.178,1.746-.608,2.007-1.154,3.8-1.732,5.71,3.914.582,7.438-2.017,11.212,1.408l-7.624,1.849,1.515,3.5,4.419-1.441c-.963,2.882-1.621,4.852-2.263,6.776l14.019,6.587-4.7,4.067,9.325,3.169c.318-1.62.648-3.3.935-4.757,10.378-.7,20.2-3,30.262-.372l-8.879,1.915c.177,3.3.318,5.907.459,8.516l-.863.2-2.856-6.146c-.833,6.15,1.146,14.09,3.359,14.132l2.395-5.427,3.154,4.546c3.094,1.132,6.6-2.144,8.612,2.43-.762.963-1.657,2.092-2.648,3.342-1.4-1-2.409-1.72-3.669-2.618,0,4.659.059,8.962-.021,13.263-.05,2.726-.749,4.958-5.192,4.017,0-2.993.116-5.942-.034-8.878-.141-2.751,1.013-6.246-3.437-7.2l-6.663,6.49c5.729,4.7,5.729,4.7,3.15,8.9-2.943-4.9-7.307-6.785-12.7-6.983-1.458-.053-2.854-1.811-4.349-2.835l6.826-4.061-11.3-3.563c-.813-5.709,5.694-2.6,7.037-6.182-2.669-3.894-6.235-2.55-9.61-1.461-4.081,1.318-7.93,3.786-12.628,1.374l-.623,1.4,5.06,5.582c-.208,1.7-.4,3.3-.628,5.134l4.758-1.239-5.673,7.287,9.067,5.652,6.675-3.71.884,1.347c-1.187,1.178-2.375,2.355-3.449,3.419,4.295,2.253,8.144,5.58,13.4,4.386.214-.925.42-1.812.86-3.71,6.12,2.082,11.792,3.489,16.983,5.923,5.338,2.5,10.08,2.747,15.381.055,6-3.049,12.306-5.514,18.7-8.33,3.071.756,4.547,6.837,9.49,3.6l-.889-3.105,7.545,1.966-5.569-5.229L449.6,545l4.339,2.051c.551-1.616-2.042-3.772,1.329-4.346.648-.11,1.058-1.624,1.577-2.49Zm46.083,136.414c.94-3.592,2.127-6.564,2.434-9.626.664-6.631.866-13.309,1.277-19.966.464-7.528,1.223-15.05,1.366-22.584.252-13.318-.019-26.646.232-39.964.132-7.03,1.075-14.042,1.348-21.074.561-14.453.593-28.933,1.46-43.365.7-11.668,2.2-23.294,3.563-34.913.552-4.708-.79-8.808-2.722-14.42-.7,5.882-1.664,10.188-1.624,14.485.065,6.841-2.139,13.052-4.664,19.117-2.473,5.943-3.685,12.765-9.756,16.679a3.364,3.364,0,0,0-.916,1.678c-3.323,9.265-6.559,18.636-6.853,28.535-.265,8.928-.525,18.052,1,26.779,1.344,7.711,2.875,15.3,3.081,23.158.114,4.345-.141,9.037,1.393,12.933,2.786,7.075.918,13.861.509,20.794a64.039,64.039,0,0,0-.023,8.934c.837,10.22,1.838,20.425,2.834,31.264ZM297.382,380.5a77.87,77.87,0,0,1,2.453,7.77c1.7,7.576,12.088,12.879,20.565,8.67,8.738-4.338,14.721-10.748,16.259-21.086,1.906-12.814-3.934-18.583-13.971-20.487C311.047,353.162,297.313,366.311,297.382,380.5Zm122.5-82.275c3.551,2.729,6.71,5.925,10.51,7.872,4.067,2.083,7.974-.978,11.6-1.361l-15.718-11c.708-3.316,2.229-6.292,1.636-8.76a14.077,14.077,0,0,0-5.087-7.664c-4.272-3.011-9.323-1.892-13.87-.039-6.335,2.582-12.472,5.644-18.779,8.3-3.143,1.321-3.417,3.12-2.083,5.964,2.718,5.792,5.167,11.708,7.852,17.515,1.983,4.289,4.166,8.486,6.245,12.694l7.052-2.681-5.332-9.961-1.386.548v6.625c-2.51-5.424-2.51-5.424-.318-13.655.223-.04.534-.194.657-.1,1.021.776,2.008,1.6,3.306,2.648Zm179.841,44.5q.084-.78.17-1.562c-17.674-2.53-35.5,2.475-53.353-.244.292-1.539.53-2.8.841-4.442l-5.579-.609c.325,2,.568,3.488,1.011,6.212l-5.829-4.507-.438,4.158a39.215,39.215,0,0,0-6.056.066,61.97,61.97,0,0,0-7.266,2.159c3.437,2.593,4.907,4.86,8.727,4.833,8.669-.061,17.345.747,26.015,1.256,10.571.62,21.136,1.33,31.708,1.923,2.783.156,5.582.023,9.764.023l-13.492-7.55ZM280.842,408.249c-2.422,9.133-1.813,10.3,5.479,12.816,2.152.741,4.163,1.957,6.351,2.516,5.243,1.339,7.495,5.365,8.094,9.96.625,4.8-2.81,7.933-6.655,10.277a45.033,45.033,0,0,1-4.966,2.258c-1.155.523-2.3,1.069-3.667,1.707l4.035,6.793c5.971-.17,9.165-4.864,12.556-8.571,8.1-8.858,8.011-20.466-.194-27.431C295.94,413.536,288.39,411.376,280.842,408.249Zm262.773,48.559,7.531-2.891-8.173-2.5c3.849-5.052,9.662-1.153,12.858-5.648,1.577,6.316,2.942,11.782,4.386,17.568l4.472-.7-.338-5.429,1.119-.3,4.374,7.716c1.427-1.564,2.549-2.24,2.79-3.15,1.276-4.807,2.447-9.651,3.412-14.529.492-2.488-.619-3.938-3.772-3.366-.843,2.49-1.707,5.043-2.572,7.6l-.969-.224q-.819-3.923-1.636-7.845l-1.963-.129-3.066,8.369-.878-.191c-.388-2.293-.775-4.587-1.23-7.277-6.466,2.044-12.222-3.913-18.01-.151V463.2c4.92-.851,9.677,2.623,12.86-2.165C552.591,455.225,546.4,462.637,543.615,456.808ZM706.82,517.914c5.742.043,10.719-.757,15.478,1.938-5.493,3.992-14.567-.388-17.99,9.249,10.205-.474,19.465,5.6,29.761.885-3.279-6.194-9.562-1.631-13.427-5.206,4.6-3.942,11.817-2.916,15.388-9.269-10.147-1.692-19.431-4.18-29.55-2.587C706.594,514.605,706.7,516.107,706.82,517.914Zm-229.7-185.745c-6.183,6.537-6.174,15.686.044,22.1a7.046,7.046,0,0,1,1.917,2.969c.61,2.582.876,5.246,1.294,7.962,3.36,1.545,4.555-.672,5.67-3.042-4.746-14.282-4.566-30.371,3.636-35.649l-4.5-.914c-1.966-5.293-1.966-5.293-7.439-4.988C477.539,324.387,477.331,328.23,477.117,332.169ZM310.7,631.874l10.5,12.35c8.173-2.078,13.428-8.521,19.906-12.95-.37-6.757-3.936-10.85-9.053-14.58Zm415.159-84.2-9.537-1.029,3.586-7.392h-5.538c-.491,2.187-.883,3.931-1.281,5.7h-7.377c.919-2.641,1.712-4.713,2.36-6.83.822-2.688.943-5.091-3.661-5.4l-2.3,16.445,25.76,5.284c1.606-4.984,3.194-9.149,4.157-13.453.232-1.034-1.613-2.533-3.136-4.733C727.646,540.975,726.783,544.216,725.86,547.678ZM282.054,579.7c4.161,2.4,4.3,2.634,6.933,1.091a37.338,37.338,0,0,1,12.491-4.827c3.84-.654,6.139-2.58,8.1-5.779l-5.2-11.347c-7.806,2.4-14.98,4.512-22.072,6.87-1.935.643-3.97,1.9-1.633,4.831l9.626-2.667,3.656,6.8Zm37.811,24.008,7.051,10.5c3.23-2.6,3.658-3.3,2.254-5.333-2.3-3.331-4.916-6.446-8-10.435-7.575,5.035-15.283,8.987-21.8,14.411l8.659,12.362,4.885-1.511-7.67-10.128,5.9-3.089c3.136,1.479,3.621,7.71,8.777,4.072-1.1-3.838-3.692-5.657-7.852-5.831Zm203.1-110.252,5.77,7.107,7.549-7.746,2.273,2.065c1.8-5.176-.329-9.479-1.712-13.383-.264-2.714,3.49-4.108,1.069-7.75-1.83,3.356-2.92,6.934-7.141,6.806l1.757-5.8-.763-.341-6.223,6.6,2.162,1.732Zm-62.1-145.708,0-1.758c-7.151-3.5-14.937-2.9-22.62-3.029-7.781-.132-15.561-.364-23.341-.521-18.453-.371-19.321-.273-22.767,2.5,18.336,2.145,37.16-2.444,53.9,4.674Zm-113.695,323.4c3.876,5.571,6.669,11.041,13.133,9.883l15.721-18.124c-2.9-2.849-5.38-5.411-8-7.824-2.365-2.178-4.589-2.491-6.974.358C356.692,660.645,352.073,665.63,347.169,671.148Zm-59.686-82.2c2.326,4.581,4.2,8.7,6.53,12.529.523.859,2.928,1.382,4.027.948,7.039-2.785,14.286-5.338,19.834-11.545L311.523,578.7ZM648.3,539.17c-5.723,3.56-.754,6.3-.458,9.191.062,2.889-3.281,6.034.546,9.186.515-2.731.927-4.919,1.443-7.659l4.45.8c2.647,2.356-.778,5.661,2.666,7.047,1.72-4.945-2.167-10.835,3.859-15.232,1.6,2.605,2.82,4.953,4.389,7.038,1.58,2.1-3.213,5.606,3.068,7.608-3.481-6.659.679-9.776,4.1-13.128,2.078-2.034,1.584-3.455-.794-4.944l-5.441,3.889-2.62-3.084h-8.354c-1.731,1.1.908,5.556-3.419,5.245Zm63.264-36.477h24.18c1.712-4.586-.829-5.247-3.516-5.347-5.732-.213-11.473-.17-17.21-.291a7.158,7.158,0,0,1-1.937-.63c-.272-1.834-.532-3.592-.827-5.586h-5.989c.352,6.482.678,12.494,1.01,18.6C712.072,509.629,709.324,504.829,711.565,502.693Zm-31.7,99.006c7.9,4.113,14.57,8.06,19.02,14.5-6.845-2.763-13.455-5.7-20.264-8.059-3.156-1.094-4.4,1.055-4.174,4.506,1.549.172,2.89.209,4.179.488a101.734,101.734,0,0,1,10.117,2.426c3.473,1.133,6.7,3.169,10.219,3.955,1.826.408,4.706.048,5.623-4.024l-21.91-18.134C681.64,598.955,680.852,600.17,679.863,601.7ZM554.513,723.472l-3.8-17.715c-.614-2.865-1.632-5.621-5.193-5.241-4.136.442-8.217,1.4-11.992,2.069,2.364,9.416,4.48,17.848,6.769,26.965C545.17,727.412,550.74,728.58,554.513,723.472ZM350.546,638.85l-19.095,20.022,4.029,2.5,7.075-6.966c3.675.23,5.768,4.883,9.636,1.15l-6.969-4.193,4.057-4.378c5.788-1.27,7.314,7.571,14.154,3.219ZM608.794,490.726c.228-4.733,3.127-9.93-2.5-13.654-4.668-3.088-9.338-2.406-13.987-.832.789,6.491,1.493,12.3,2.194,18.064C600.035,494.391,604.745,495.232,608.794,490.726Zm14.02-6.881c-.162,6.045,3.245,10.685,7.954,10.835,5.26.167,9.958-5.012,10.015-11.04.056-5.954-2.519-8.431-8.948-8.608C624.77,474.838,623.008,476.559,622.814,483.845ZM374.361,680.856l7.695,4.749L393.3,676.3c-3.308-5.951-7.885-8.827-13.917-10.782-2.224,3.777-4.2,7.334-6.374,10.772-2.3,3.64-4.774,7.166-7.385,11.06l3.044,2.263ZM527.5,453.39c6.541,9.237,6.541,9.237,9.471,10.193,0-6.336.215-12.41-.123-18.454-.11-1.971-1.945-2.25-3.395-.753.268,2.537.525,4.96.781,7.383l-1.793.45-3.428-8.366-5.271.352c.325,17.676.325,17.676,3.758,19.268Zm115.195,59.04c5.4,3.37,2.872,11.194,9.617,12.487,1.085-5.717,2.071-10.915,3.186-16.8-2.031-2.445-2.031-2.445-5.5-1.758-1.116,3.084,3.253,6.136.009,9.847-1.889-3.778-3.513-7.027-5.08-10.163h-5.965c.435,6.6.833,12.616,1.23,18.632l1.618-.033C642.089,520.789,642.368,516.932,642.694,512.43ZM532.478,524.839c2.418-4.514,2.273-9.474,6.268-12.773,3.273,4.09-1.02,9.651,4.359,14.146,0-5.313-.414-9.387.092-13.343.882-6.892.811-7.172-6.4-6.315-1.022,2.342-2.052,4.705-3.574,8.193l-4.149-7.473h-5.847c.237,3.14.433,5.738.756,10.023l3.449-6.2c1.282,2.917,2.294,4.924,3.052,7.023C531.274,520.317,531.823,522.6,532.478,524.839Zm75.884-16.9.4,1.928,8.736,2.194c-1.914,4.718-8.967,5.7-7.313,12.539l15.331.76c-.85-4.295-.85-4.295-11.486-4.422,3.063-3.5,5.764-6.446,8.276-9.543.86-1.06,2.052-2.932,1.659-3.672-.575-1.082-2.392-1.917-3.768-2.072a34.4,34.4,0,0,0-8.245.041C610.676,505.856,609.553,507.152,608.362,507.937ZM558.3,600.788c2.073,7.143.511,13.95,2.685,21.848,2.941-6.071-1.954-10.706.727-15.407,4.015,2.169,3.664,5.919,4.612,9.065.976,3.237,2.175,6.306,7.071,4.254.393-6.142.87-12.441,1.068-18.748.017-.544-1.821-1.145-3.6-2.195v17.707l-1.36.27c-1.468-5.366-2.936-10.732-4.6-16.794Zm65.21-136.943c.728-1.314,1.331-1.885,1.275-2.381-.6-5.277-1.259-10.55-2.031-15.8a14.194,14.194,0,0,0-1.367-3.232h-8.649a29.209,29.209,0,0,0-.791,3.074q-.971,7.336-1.833,14.687a3.23,3.23,0,0,0,.374,1.963c.3.48,1.024.7,1.964,1.281.571-1.866,1.058-3.459,1.6-5.23l6.637.4C621.666,460.416,622.434,461.846,623.51,463.845Zm2.376-21.776c2.023,6.293,4.291,11.795,2.379,17.88-.289.918,1.161,2.382,1.807,3.594l.881-.317c.108-1.984.217-3.969.343-6.29l7.621-.354,4.342-7.92C639.447,440.433,632.958,441.91,625.886,442.069ZM603.9,601.015c.549,6.584,1.036,12.443,1.524,18.3,3.386-3.577-.413-8.228,2.456-12.227,3.408,2.259,3.705,5.735,4.487,8.86.99,3.95,3.088,3.817,4.978,2.751.993-5.726,1.818-10.48,2.783-16.043-1.826-2.5-1.826-2.5-5.276-1.175l1.417,9.772c-1.681-1.825-2.425-2.382-2.829-3.125-.742-1.367-1.252-2.857-1.916-4.269C609.736,600.069,608.222,599.585,603.9,601.015Zm58-159.14c.508,7.238.967,13.775,1.426,20.313l1.342.063c.64-2.026,1.281-4.051,2.007-6.35H670.6c1.069,2.335,2.058,4.494,3.046,6.653l1.506-.146a31.553,31.553,0,0,1,1.1-17.2C672.2,439.83,666.8,442.692,661.891,441.875Zm-96.2,84.1c-1.336-5.15-2.313-8.629-3.135-12.144-1.851-7.921-3.137-8.652-12.517-6.079-.16,2.768-1.016,6.02-.329,8.9.7,2.931-5.147,5.066-.656,8.21C554.487,519.327,559.755,522.326,565.693,525.979Zm57.439,72.785c2.373,6.953.847,14.089,2.182,20.839h12.435l1.223-1.937-3.95-3.274c-3.186,5.646-5.483.162-8.39,1.827.294-2.463.47-3.936.65-5.439l7.543-.4.2-1.4-7.971-1.849c1.911-6.68,8.155.188,11.275-4.355C634.766,596.993,628.407,600.324,623.132,598.764ZM549.21,475.87c.708,6.618,1.345,12.58,1.983,18.543l1.06.041.768-5.142h7.839c4.422-2.708,6.534-6.191,3.991-10.107C561.244,473.652,555.517,474.91,549.21,475.87ZM465.736,339.317c-.234,3.547-.591,6.553-.589,9.559,0,3.307-.467,6.957.761,9.818,1.093,2.546,4.16,4.295,6.5,6.222.586.483,1.722.3,2.608.423q1.55-2.495,2.787-4.484a5.8,5.8,0,0,0-.761-1.483c-4.555-4.078-8.461-8.249-5.944-15.249C472.093,341.355,469.915,340.026,465.736,339.317Zm183.21,110.2c1.578-5.494,9.854,1.768,9.295-6.4a16.4,16.4,0,0,0-12.676-.524l1.629,18.141c7.9,3.8,10.049,3.358,11.929-2.711l-9.651.884v-4.24l6.174-1.049-.008-1.038ZM448.1,332.906c7.2,2.59,13.835,5.326,22.646,2.2-10.694-4.938-20.065-9.358-29.54-13.54-1.379-.609-3.257-.085-5.937-.085l13.392,7.33C448.484,330.1,448.337,331.173,448.1,332.906ZM627.473,558.44l1.023-1.093c-.507-3.517-1.259-7.018-1.468-10.552-.418-7.058-2.024-8.038-9.19-5.109q-.786,7.977-1.574,15.968C620.385,553.311,623.932,555.078,627.473,558.44ZM294.5,513.819c-8.388,3.786-17.812,3.89-26.211,9.189,4.346,3.417,8.448,3.209,12.486,3.532a50.756,50.756,0,0,1,7.144,1.576l.084,1.057,7.443-3.012-.315-1.733c-5.681-2.066-11.865-.031-19.094-1.7l19.466-5.508Zm295.285,3.5c.786-.311,1.365-.352,1.557-.646,1.5-2.289,1-6.676,5.211-6.119,4.3.57,3.489,4.621,3.987,7.625-5.51-2.257-6.576-1.824-7.4,3.209h8.105l1.886,3.653,1.448-.5c-.374-6.488-.616-13.005-4.868-18.717h-8.23C589.02,509.568,588.258,513.222,589.782,517.321Zm-203,89.316c-1.215,5.774-.6,6.177,8,5.766l2.694,4.284h18.47a13.9,13.9,0,0,0-.828-2.538c-2.394-4.247-6.62-3.987-10.346-3.361-5.543.931-10.245-.685-14.927-3.143A22.414,22.414,0,0,0,386.778,606.637ZM524.942,405.846l.025-1.133h12.459q-.053-.719-.1-1.436c-14.173-1.042-28.373-2.394-41.817,5.026H507.41c.16-1.294.294-2.374.434-3.511h10.307c.21,1.5.358,2.559.445,3.175h11.9a3.2,3.2,0,0,0-2.372-1.844C527.077,405.938,526,405.93,524.942,405.846ZM297.751,536.994c-5.347-7.266-12.77-1.535-20.257-3.047l6.071-3.133c-4.9-.286-9.733-.676-13.3,4.639C279.491,539.94,288.689,537.1,297.751,536.994ZM476.715,380.662c2.558,1.1,3.969,2.268,5.3,2.186,12.129-.746,24.358.45,37.943-1.083C513.071,378.476,483.116,377.749,476.715,380.662Zm71.11,198.571q.066-.7.13-1.407l-6.778-1.668.689-3.411h7.62c-1.6-5.5-2.99-5.979-10.178-3.988-.192,4.727-.767,9.443-.381,14.079.151,1.817,2.2,4.545,3.836,4.924,2.548.59,6.26,2.239,8.749-2.95l-10.023-.7c-.065-1.2-.123-2.244-.183-3.342Zm104.167,83.29-.96-2.183,6.794-3.81c-3.344-4.93-5.471.72-8.175-1.028l-7.056-6.309-2.724,4.077c3.893,3.652,6.843,8.119,10.934,9.788,4.263,1.74,5.176,8.263,11.986,7.636C660.266,665.424,657.427,662.425,651.992,662.523Zm27.544-38.2c-5.567,5.151-6,5.238-11.709,2.088l7.827-9.263-4.141-2.788-8.381,13.851,11.426,5.929,8.623-6.9ZM544.83,559.091c.363-6.139.682-11.538,1.031-17.451l-4.14-.2c.428,2.218.756,3.926,1.09,5.659h-4.862c-.257-2.394-.473-4.412-.69-6.43l-3.232.733c.488,6.2.928,11.777,1.369,17.359l1.236-.1c.233-2.345.466-4.69.676-6.795C544.878,549.348,541.254,557.038,544.83,559.091Zm8.394,59.037a44.605,44.605,0,0,0,.98-6.379c.057-8.683,2.038-11.586-9.694-11.6-6.213,7.468-4.363,17.979,4.043,21.309Zm102.819,19.207,21.68,17.171,3.579-2.877-22.954-18.108ZM631.271,669.45l-1.3.89L641.391,686c3.518-2.374,7.309-4.675,10.736-7.43.829-.666.993-3.055.5-4.249-.63-1.511-2.248-2.611-3.37-3.814-6.181,2.253.4,4.674-.633,7.111l-6.075,2.219Zm-13.734-97.321c-1.011-.564-1.97-1.125-2.951-1.643-3.614-1.9-7.119-1.107-8.971,2.029-1.417,2.4-.411,4.983,2.987,7.409.915.653,2.148.918,2.938,1.671s1.226,1.907,2.311,3.7l-8.313-1.756q-.272.879-.544,1.758a7.668,7.668,0,0,0,7.935,2.407c3.571-.889,3.258-3.831,3.2-6.444-.764-4.239-7.768-.938-7.54-5.821C610.61,570.482,614.247,576.562,617.537,572.129Zm26.353-26.818c-2.741-7.2-7.977-6-13.457-5.168.635,3.388.675,6.758,1.958,9.558,1.243,2.712-3.783,6.219,2.138,8.525-2.018-7.255,3.874-4.976,7.208-6.422C642.488,549.539,643.263,547.2,643.89,545.311Zm-372.214,1.356c2.624,1,3.746,1.765,4.9,1.812,4.105.169,8.222.009,12.328.147,2.244.076,4.929-.176,6.6.941,1.962,1.313,3.939,2.411,5.219.607.877-1.237-.088-3.78-.254-6.093C290.794,545.935,281.8,542.886,271.676,546.667Zm365.15,144.11.256-1.011q-8.429-7.8-16.861-15.6c-4.307-3.964-4.321-3.948-9.651.567.832.95,2.1,2.847,2.422,2.7,4.489-2.094,6.658,1.763,9.3,3.705,3.34,2.455,6.034,5.778,9.322,8.319C632.914,690.462,635.063,690.369,636.826,690.777Zm16.58-107-1.157.376c-1.314-4.756-2.627-9.513-4.048-14.659l-4.842.69c.493,1.6.517,2.917,1.186,3.63a21.756,21.756,0,0,1,5.674,11.037c.46,2.3,2.431,5.181,5.532,3.165.393-6,.757-11.576,1.15-17.581h-3.5Zm-70.53-65.871a23.548,23.548,0,0,0,.2-3.745c-.074-.7-1.152-1.638-.951-1.97,2.255-3.742-1.081-4.951-3.086-6.274-2.03-1.34-7.19.6-9.292,2.932-2.427,2.69-2.56,5.772-.412,9.547,1.843-7.006,2.907-7.792,9.416-6.584l-2.809,4.46ZM516.265,704.188l-4.634,2.49,2.673,5.427c.563-.617,1.089-1.2,1.9-2.084,3.266,5.452,6.447,10.747,9.612,16.051,1.287,2.157,2.43,4.553,5.69,3.063-.6-3.092-1.165-5.961-1.711-8.754l-2.556,2.308Zm62.8-85.323c4.8,1.229,8.927,2.695,12.723-.062q.046-.966.095-1.932l-9.817-1.576c.583-4.432,1.122-8.529,1.774-13.487l-4.775-1.309Zm68.9,27.118c10.536,1.266,13.6,11.117,20.25,16.855l3.8-2.437c-6.494-6.142-12.436-11.979-18.654-17.5C651.592,641.319,649.508,642.041,647.972,645.983Zm37.2-10.835H675.8l8.285,8.129c5.156-3.3,5.186-9.841,11.863-11.608l-4.321-3.394ZM553.234,698.156c3.38,8.846,6.435,16.84,9.594,25.109,3.586-2.2,1.744-4.359.915-6.656-2.136-5.916-4.043-11.914-6.234-18.453Zm-45.305,33.927,1.471-.364c.574-8.976-4.818-16.739-5.5-25.253-2.929-.669-5.347-1.2-6.22,1.815-.333,1.151.293,2.579.481,3.876h4.612Q505.361,722.152,507.929,732.083Zm60.74-30.351c5.216,1.812,6.5,8.7,12.806,8.831-5.288-5.1-7.981-12.732-15.754-15.67l-2.769,3.243c1.581,2.026,3.024,3.877,4.483,5.748Zm19.12-7.16c2.991,6.484,5.411,11.727,7.712,16.713,4.8-.379,7.889-1.745,10.788-5.525H597.01C592.119,696.87,592.119,696.87,587.789,694.572ZM283.709,554.411c-1.608-1.685-3.03-3.176-4.453-4.666l-2.063.392c7.181,4.091-.418,7.871,1.041,12.746,5.761-4.738,12.883-5.835,16.97-11.918ZM331.224,459c.886-4.791,3.3-3.735,5.784-2.8.388.145,1.058-.461,2.121-.971l-3.035-3.74-10.622,2.42,3.058,3.5-5.217,3.432.634,1.346,12.245-.578.108-1.1ZM602.167,689.726c.477-4.262-1.915-5.746-4.771-7.533l-11.967,5.163c.5,2.851.832,4.768,1.2,6.857C592.726,685.809,594.6,687.36,602.167,689.726ZM522.339,553.4l6.451-1.5c2.309-3.541,3.626-6.744.084-10.308h-9.217ZM494.393,705.083c-6.147-2.418-12.081-1.975-18.254-.539,4.642,4.381,10.539,3.947,16.555,4.341Zm42.989-134.637c-6.984-3.981-10.515-3.687-13.7.539l5.511,2.508c-.278,1.839-.594,3.372-.72,4.921-.115,1.416-.024,2.849-.024,4.274l1.761.159c.423-3.059.846-6.118,1.224-8.849Zm-81.167,129.72c-5.173-1.756-9.589-3.406-14.115-4.657-.861-.238-2.159,1.107-3.256,1.722.611,1.065.967,2.636,1.882,3.1a22.193,22.193,0,0,0,7.451,2.618C450.7,703.2,454.027,704.5,456.215,700.166ZM614.4,494.459c2.947-.335,4.652-.809,4.076-4.194-.48-2.821-.047-5.794-.06-8.7a15.519,15.519,0,0,0-.275-4.648,3.086,3.086,0,0,0-2.63-1.478,3.124,3.124,0,0,0-2.043,2.252C613.613,483.2,614.041,488.706,614.4,494.459Zm27.022,170.032.981-1.3c-1.437-2.688-2.966-5.865-6.625-5.431-4.983.592-8.16,4.073-10.731,8.665,6.206,3.71,6.211-5.317,11.556-4.22ZM455.4,705.266c6.425,2.7,13.042-2.34,16.251,4.486,2.593-2.923,2.246-5.656-.339-6.7-2.8-1.132-6.19-1.182-9.287-1.021C460.309,702.118,458.664,703.6,455.4,705.266ZM339.708,476.9c.772-3.974,1.248-6.42,1.674-8.612l-7.908-3.352c-4.008,9.239-4.008,9.239-2.838,11.766l3.872-6.964ZM630.99,505.378l-1.97,1.357c.684,2.2,1.759,4.376,1.951,6.623.225,2.646-.526,5.365-.431,8.037.045,1.234,1.094,2.432,1.688,3.647a61.7,61.7,0,0,0,1.586-16.254C633.786,507.629,631.978,506.513,630.99,505.378Zm-35.213,114.2,1.642.03c.572-5.145,1.307-10.282,1.577-15.444.054-1.031-1.663-2.155-2.563-3.237-.642,1.225-1.762,2.425-1.827,3.68a59.092,59.092,0,0,0,.474,7.976C595.276,614.917,595.542,617.246,595.777,619.578Zm-13.7,80.469-1.624.477c.931,4.366,1.863,8.731,2.992,14.026l6.473,2.468ZM604.5,692.79l-5.55,4.566c2.794,1.777,5.335,2.745,6.892,4.558,1.754,2.042,2.829,1.021,4.792.417ZM415.332,707.518c-2.619,5.838.4,8.163,3.33,8.424,2.779.246,6.78,4.687,9.544-1.932l-11.467-2.1C416.466,711.058,416.1,709.911,415.332,707.518Zm214.545-19.162c-4.343,1.946-7.265-2.615-11.189,1.362l3.8,7.215Zm56.686-203.03a26.945,26.945,0,0,0-3.158-3.258c-4.951-3.5-9.975-6.9-16.249-11.217C671.408,477.454,680.3,483.909,686.563,485.326ZM440.8,618.692c4.636-4.949,4.636-4.949-.041-8.814l-5.813,4.289Zm156.63-31.866,2.272.15c.149-5.8,1.334-11.578.5-17.907-1.564.531-2.69.727-2.694.942C597.407,575.615,597.427,581.221,597.427,586.826ZM276.708,471.319l4.872-7.637-10.649-2.265ZM493.643,732.191l11.631-4.233c-2.039-4.691-4.961-1.937-7.509-1.461l-.946-6.327C495.61,724.745,494.715,728.134,493.643,732.191Zm87.411-137.932.314,1.584c10.609,1.077,10.609,1.077,13.327-4Zm-96.108,121.4-1.393-.058c-.479,4.775-1.08,9.544-1.31,14.33-.035.722,1.658,1.526,2.7,2.42Zm136.38-127.537,1.429-.136c.475-5.934.95-11.869,1.463-18.275l-2.892.3ZM350.735,520.34c-3.7-6.743-5.207-7.666-13.405-7.3C343.318,514.544,344.178,521.9,350.735,520.34Zm11.3-124.2c-.508-5.043-4.2-7.567-7.974-9.873-.557-.341-2.019.8-3.287,1.349Zm246.155,230c4.459,5.131-4.241,6.612-2.727,11.349l10.768-11.349ZM355.511,519.547a41.4,41.4,0,0,1,4.354-2.793,17.107,17.107,0,0,1,3.475-.851c-7.074-.833-7.074-.833-10.064-4.106-.552.962-1.094,1.908-1.689,2.944Zm226.995,4.966v-3.806H571.829l-.269,1.748C574.477,524.926,577.94,525.581,582.506,524.513ZM578.416,699.1c2.435-2.883,2.434-6.384-.121-7.722-2.457-1.286-3.758.078-3.988,2.763Q576.323,696.57,578.416,699.1ZM310.6,457.8c.656-3.737.807-6.185,1.56-8.432.711-2.119,2.429-3.989.833-6.975l-5.178,12.288Zm51.894,131.567-1.862-.743c-.963,1.48-2.658,2.929-2.723,4.447-.1,2.425,1.892,3.233,4.585,2.741ZM572.467,711.561l-1.3.459c.741,2.858,1.483,5.715,2.262,8.716l5.5-.242ZM542.309,626.2c10.619,2.933,15.158,1.771,14.207-4.235C553.12,628.03,547.672,625.736,542.309,626.2ZM415.863,606.828c5.367.938,5.367.938,8.079-.918l-6.809-2.475C416.671,604.671,416.371,605.472,415.863,606.828ZM518.251,720.264c-4.933,5.088-1.363,8.24-.108,11.553C521,728.216,516.954,725.1,518.251,720.264Zm-3.81-281.237c-2.487,2.936-2.679,6.084-1.378,15.117C513.615,448.086,514.028,443.556,514.441,439.027Zm39.146,156.866,12.975-2.046a32.935,32.935,0,0,0-10.8-.352C555.445,593.523,555.178,594.105,553.587,595.893ZM329.17,449.979c1.532-7.546,5.009,1.562,6.985-2.073-2.021-2.9-2.018-2.936-4.815-3.173-1.254-.107-2.524-.018-4.419-.018Zm237.671,98.08c-2.782,6.006-2.792,6.591,0,11.182ZM283.467,480.947l-1.626-.022v8.2l4.411-4.075ZM383.03,688.731l-1.3-.848-6.393,6.346,3.6,2.208Z"/>
      <path d="M694.142,458.813,671.884,401.05c5.747-3.508,6.286-9.526,7.182-15.828,1.5.59,2.873,1.13,4.244,1.671,2.9-5.441,8-6.551,13.506-6.845l1.8-2.916,4.192,2.98-1.675-7.057c5.656,4.644,12.442,5.306,15.11,12.087,2.442,6.206,4.114,12.326,2.594,19.014.175,2.048,4.615.514,3.292,4.013-1.173,3.1,2.316,1.594,3,2.746.923,1.561,1.087,3.661,2.209,5,6.1,7.272,8.042,16.072,8.06,25.011.01,4.669-2.818,9.343-4.366,14.02-5.393,0-10.106-1.259-13.856,3.075-1.247,1.441-4.408,1.226-7.57,1.975l2.871,3.735C704.962,465.11,699.386,460.525,694.142,458.813ZM675.778,399.5l5.53,7.946,24.962-11.579c-7.243,8.989-13.553,18.143-17.528,27.841,9.814,5.817,19.928,7.6,29.647,10.6l-24.141,7.616c1.129,3.246,1.934,5.561,3.117,8.96,11.036-5.179,22.84-7.706,33.641-13.666-.76-2.988-1.368-5.376-2.115-8.307L698.9,419.845l15.644-24.952c-1.482-3.765-2.7-6.855-3.907-9.922-5.657,2.351-11.144,4.625-16.625,6.909C688.351,394.238,682.7,396.607,675.778,399.5Z"/>
      <path d="M569.072,274.658l1.52-1.187,14.021,3.221c2.295-2.572,6.45-2.7,10.275-1.071,3.535,1.5,6.593,4.125,9.863,6.255l-1.542,4.977,3.63,1.335c-.625,1.821-1.224,3.564-1.7,4.955l10.954,2.633.681,4.051L609,302.785l4.453,6.2,4.251-2.816.866.537-3.389,6.582,6.368,5.861c4.605-5.583,4.612-5.618,1.95-11.123l2.329-.68V297.93c6.093,1.87,11.828,3.193,17.212,5.383,8.107,3.3,13.24,12.62,8.413,22.053-2.245,4.386-4.987,9.758-10.9,11.114-1.081.248-2.359-.367-4.4-.74-.935,1.559-2.179,3.656-3.445,5.739-2.016,3.316-6.363,5.47-9.2,4.577-5.226-1.643-7.611-5.35-6.814-10.881,2.7,2.373,4.7,6,9.6,4.6l20.774-28.736-5.936-5.113c-8.312,8.33-13.333,18.561-22.352,25.87,3.547-5.743,3.772-10.7-2.808-14.916a35.44,35.44,0,0,1-.438,3.561c-.687,3.008-.994,6.223-2.311,8.94-2.131,4.4-6.336,5.867-10.637,3.764-10.4-5.083-21.213-9.494-30.334-17.492a24.557,24.557,0,0,1,1.022-2.342c.206-.372.652-.611,1.368-1.246,11.912,2.756,21.431,11.886,33.571,15.434l3.461-4.577c-2.709-6-8.858-6.518-13.327-9.326-4.25-2.67-8.126-6.362-14.264-5.975.86-2.866,3.737-3.87,2.193-7.367-2.69-6.095,0-9.336,7.076-10.595a35.873,35.873,0,0,1,2.44-4.034,20.966,20.966,0,0,1,2.879-2.582c-.25-5.2-5.481-3.451-6.854-7.069L577.1,304.662l-.817-.173V281.083l-7.054-6.614Z"/>
      <path d="M451.448,263.563c-.27-.856-.539-1.713-.8-2.536,7.866-4.072,16.313-2.143,24.376-3.21,5.272-.7,10.508-1.989,15.79-2.179,3.757-.135,8.641-1.316,10.188,4.272,2.244.228,4.459.59,6.683.646a82.1,82.1,0,0,0,10.2-.15c2.521-.251,5.593,1.589,7.507-1.6,5.855,2.5,11.883-.173,17.849.583,4.463.565,7.16,3.505,10.347,5.886,1.975,1.476,3.8,3.146,5.821,4.83-.237.967-.551,2.251-.842,3.44,3.54,3.186,3.919-1.95,6.822-2.065l3.677,3.174.153-.189c-.654.187-1.625.166-1.91.6-1.7,2.577-4.089,3.365-8.411,2.2l4.609,5.824-5.62,1.012,3.432,4.3c-1.184,2.463-2.242,4.665-3.3,6.867l.15-.138c-.89-.764-2.468-1.45-2.565-2.3-.878-7.725-1.85-10.431-7.105-18.6-.3-.46.08-1.42.271-2.111,1.322-4.8-.321-7.68-4.9-8.458-2-.339-4.017-.606-6.589-.99l-23.338,31.364c-2.365-1.86-1.733-3.429-.745-5.44a24.113,24.113,0,0,0,2.185-16.039l-7.431,2.351c-.277-2.4-.467-4.042-.652-5.685-3.33-.026-6.951,5.137-7.466,10.715l-3.909,1.27V259.588h-9.454c.817,7.455,1.592,14.523,2.379,21.7-7.392.846-10.855-3.98-14.953-7.352-2.623-2.158-4.567-5.14-7.177-7.32-4.427-3.7-9.5-5.171-15.192-2.991Z"/>
      <path d="M690.021,365.521c.549,2.8.976,4.967,1.714,8.723l-4.689-2.935c-1.492.416-1.423,5.784-5.358,2.01-.393,1.576-.6,2.595-.9,3.583-1.936,6.313-11.109,12.466-16.993,10.129-4.213-1.673-8.17-5.234-10.977-8.915-4.392-5.76-7.787-12.293-11.471-18.576-3.57-6.09-1.132-11.414,2.435-16.51,3.748-5.357,7.846-10.511,11.1-16.152,1.351-2.342.909-5.719,1.371-9.312l2.8,5.052,5.322-3.26c.182.7.509,1.273.354,1.469-1.327,1.688-2.741,3.308-3.314,5.994l7.6-3.133c2.788,5.6,7.9,9.125,12.233,13.364,4.78,4.681,8.813,9.732,10.864,16.182.276.866.944,1.847.741,2.585-1.243,4.533-.114,8.1,3.728,10.882.3.216-.187,1.516-.393,2.868ZM642.04,348.5c2.361,5.3,4.047,10.237,6.647,14.631,3.134,5.3,7.015,10.156,12.354,13.572,4.2,2.685,10.021,2.734,13.607-.187,3.682-3,3.887-6.864,2.688-11.236-1.8-6.567-5.531-12.013-9.306-17.493a37.439,37.439,0,0,1-2.369-4.8c7.092-.189,10.062,3.6,17.413,21.368l6.263-3.612a80.051,80.051,0,0,0-2.66-8.407c-2.992-6.839-7.169-12.845-13.6-16.924-3.388-2.15-10.3-2.195-12.454-.168-3.417,3.212-2.749,7.328-1.374,10.934,1.693,4.443,4.418,8.48,6.454,12.807,1.569,3.335,5.327,5.656,5.035,11.221-3.235-1.506-6.445-2.076-8.166-3.987-4.033-4.477-8.426-8.933-9.011-15.585-.165-1.878-1.343-3.666-2.106-5.623Z"/>
      <path d="M558.024,295.264c.531,3.957,1.061,7.914,1.662,12.4l-9.244,1.867-.193-3.367c-6.928.137-11.749-1.555-13.294-8.027l-6.937,2.6-3.38-2.1-3.918,4.408c-3.056-2.726-8.774,1.545-11.573-4.767,3.445-1.135,6.414-2.059,9.34-3.1,1.267-.452,3.134-.848,3.548-1.789,1.966-4.464,4.927-3.8,8.471-2.355a32.08,32.08,0,0,0,7.9,2.332c5.326.684,9.122,2.884,9.929,8.744l6.349.442,1.491-7.421Z"/>
      <path d="M497.908,293.765c1.142,5.022-.915,8.446-5.385,8.681-5.9.31-11.808.148-16.352-4.7-.875-.934-2.274-1.375-3.742-2.223.243-1.369.507-2.853.849-4.773-3.78-.429-6.316-2.255-6.76-6.718-.965,2.772-1.93,5.545-2.968,8.525-3.126-5.59,1.924-13.33-6.7-16.617,1.379-1.764,2.252-2.882,3.442-4.4,3.989,3.993,7.466,7.79,11.279,11.214,5.546,4.981,11.209,9.857,17.131,14.372,1.132.864,3.8.179,5.56-.4C495.593,296.283,496.6,294.874,497.908,293.765Z"/>
      <path d="M529.046,285.816c4.546-5.95,7.951-10.4,11.947-15.634a17.117,17.117,0,0,1,1.582,2.647c.765,2.14,1.063,6,2.128,6.21,4.487.879.6,3.6,1.557,5.012,1.249,1.835,2.581,3.613,3.178,4.444C543.953,287.791,537.683,282.992,529.046,285.816Z"/>
      <path d="M512.633,743.811l18.6-1.648C527.667,744.692,520.936,745.28,512.633,743.811Z"/>
      <path d="M368.009,392.293l1.868,4.815,6.264-2.548,1.173,1.608,11.247-5.774c3.47,2.131,4.475,4.02,3.922,7.357a19.89,19.89,0,0,0,.8,9.423c1.359,3.91.365,6.032-3.612,7.657-.417-2.081-.8-3.976-1.305-6.524L380.45,410.3c-.56-2.35-1.172-4.917-1.9-7.965l-5.916,2.082a22,22,0,0,0-2.324-3.818c-2.282-2.436-4.064-4.873-2.126-8.332Z"/>
      <path d="M403.283,440.654l-8.014-1.787,3.28-3.46c-7.313.445-13.883.869-20.456,1.232-2.658.147-5.145-.079-5.156-3.695l11.558,2.578q.2-.667.406-1.335l-5.981-2.2,7.17-1.224c2.672-2.056,2.117-9.069-1.434-14.57,3.264.461,5.333,1.331,7.562,3.942,4.521,5.3,7.962,11.2,11.756,16.929.412.622,1.474.813,2.952,1.574-.118-1.709.182-3.307-.314-3.613-4.49-2.766-4.941-6.767-3.948-11.373a11.345,11.345,0,0,0-.229-2.673c-1.991-.392-4.1-.808-6.208-1.225,3-1.482,3-1.482,10.236-1.236,0,3.567-.69,7.291.193,10.595.89,3.331,5.377,5.013,5.462,9.819l-5.593,1.769a5.148,5.148,0,0,0,1.356.946q4.87,1.371,9.775,2.613c2.351.6,4.778,1.76,7.07,1.551a16.311,16.311,0,0,1,10.9,2.38c3.379,2.155,4.581,6.625,8.823,7.889.464.138.692,3.772.166,4.031-1.676.824-4.664,1.771-5.516.96-2.551-2.432-4.491-.473-8.078.656l4.536-4.947-3.546-3.293c-.459.069-1.125.117-1.764.273-6.9,1.693-12.533-.013-18.041-4.8-2.782-2.415-7.506-2.64-11.39-3.716a52.327,52.327,0,0,0-5.4-.933l.168-1.649,7.657-.626Z"/>
      <path d="M466.337,510.387c.045-.276.183-1.128.35-2.151,5.6-.119,9.618-2.75,12.357-7.441.342-.585,1.161-1.3,1.022-1.7-2.176-6.2,2.994-7.169,5.269-8.557,1.695-3.621,3.3-6.006,3.912-8.624.767-3.268.718-6.727,1.48-10.295,2.331,4.017,8.447,4.634,8.637,10.721H496.47c-2.306,4.48,1.572,11.134-5.441,13.61-.535-1.21-1.042-2.36-1.549-3.509.582,3.8-1.537,5.81-4.069,7.994-7.631,6.581-14.717,13.77-24.436,17.557a18.141,18.141,0,0,0-9.355,8.768c-1.814,3.426-4.148,6.6-8.695,6.944-.768.057-1.685,1.091-2.135,1.9-1.445,2.584-3.21,1.776-5.58.651,2.23-5.705-2.943-12.177,2.707-17.443l-2.734-5.387,5.061-1.439c-.632,5.118-1.166,9.448-1.8,14.62,1.168,1.224,2.747,1.806,4.853-.662,2.784-3.263,5.438-6.913,8.922-9.231C456.212,514.054,461.057,512.671,466.337,510.387Z"/>
      <path d="M448.636,411.53c.792,3.951,3.471,2.671,5.791,1.989,2.08-.611,4.084-1.48,6.122-2.235l.69,1.235-6.59,4.576,7.224,3.011c-6.324,3.695-9.459-4.766-14.234-.234-.4,3.861,4.241,2.141,5.968,4.77-.25.972-.615,2.388-1.135,4.408l5.341,3.8c6.265-.145,3.948-5.512,5.732-8.228,3.068-1.068,4.185.121,4.549,3.1.18,1.462,1.365,2.8,1.92,3.859-9.114,4.736-19.423,3.041-29.494,3.494l.181.2c-.1-4.839.366-9.533,4.462-14.134l-5.316-3c4.388-1.568,4.448-6.6,8.975-6.431Z"/>
      <path d="M410.264,382.765c-.26-2.657-.519-5.314-.842-8.629a74.677,74.677,0,0,0,7.041,5.552c.387.242,1.932-1.369,3.216-2.328,6.918,4.915,14.609,1.529,22.174.546q.173.7.346,1.39l-7.291,3.606c2.993,3.812,5.758,5.173,9.608,1.952l4.855,6.538c-4.28-2.494-10.373,1.988-13.2-3.071-2.618,0-4.91-.12-7.183.034-2.133.144-4.246.577-6.55.909,3.667,7.947,3.846,8.088,10.512,8.293l-2.889,3.537-9.547-2.262-2.81-11.067-3.779,3.5v-7.784c8.713,4.646,9.248,4.628,14.969-.854-5.277-.937-10.115-1.086-14.845,1.05l-3.97-1.12Z"/>
      <path d="M443.855,450.377l-9.335-11.232c5.784,0,10.832.026,15.88-.012,2.253-.017,4.684.335,6.708-.39,2.108-.755,3.7-1.538,5.527.38.271.285,1.638-.036,2.143-.481,2.764-2.432,2.371,1.7,4.482,1.011-1.1,1.726-1.665,2.623-2.23,3.514L476,449.854l3.716-1.7.969,1.181-3.727,3.754c-4.851-2.639-9.261-4.891-13.523-7.394-6.185-3.632-7.563-3.671-12.351,1.537C448.662,449.872,446.221,451.3,443.855,450.377Z"/>
      <path d="M440.52,435.074l-1,2.961-8.817-2c-3.207,6.494-9.7-.544-15,2.355q.576-1.938,1.153-3.876l-.08-.069c3.8-1.018,6.176-4.688,11.04-4.388,4.323.267,7.9.179,10.4,4.23.375.608,1.634.67,2.485.985Z"/>
      <path d="M410.082,382.562c.432,2.483.864,4.967,1.312,7.539-5.339-2.174-9.85-5.341-14.483-5.529-4.766-.193-5.118-3.817-8.165-6.027l3.674-2.1c2.836,5.222,2.836,5.222,9.211,6.808.238-2.936.477-5.877.787-9.693,4.34,2.777,2.778,8.771,7.846,9.2Z"/>
      <path d="M448.822,411.713V405.9l-10.628,4.136,3.326-6.23-2.2-5.362,6.287,1.937,5.269-4.52c3.626.565,2.242,4.125,2.359,6,.158,2.526-1.4,5.124-1.221,7.957.031.5-2.193,1.137-3.376,1.711Z"/>
      <path d="M441.188,468.229l-7.032-1.871q.114-.762.229-1.524h8.2l11.643,21.641-8.106-2.174.9-3.154-3.339.218C442.826,476.873,442.006,472.545,441.188,468.229Z"/>
      <path d="M396.614,407.088l2.928-1.02c-1.485-3.955-5.225-7.153-2.5-12.357l9.3,15.2-7.152,4.63C398.314,411.362,397.455,409.2,396.614,407.088Z"/>
      <path d="M363.839,488.728h15.386c-1.277,2.3-2.306,4.162-3.551,6.41l-4.837-5.6-7.451,7.529c.306,2.08.559,3.793.915,6.215-4.082-1.985-4.442-4.308-2.919-7.5A70.938,70.938,0,0,0,363.839,488.728Z"/>
      <path d="M361.468,476.347l3.312,8.787-9.968,2.7-.722-1.235c.475-.817,1.046-2.384,1.409-2.337,3.91.5,4.887-1.214,4.384-4.805-.123-.874,1.143-1.943,1.771-2.923Z"/>
      <path d="M361.654,476.533c-.953-2.391-1.906-4.782-3-7.524l2.215-1.308,3.065,4.973c1.4-3.181,2.5-5.669,3.6-8.157l1.324.69c-1.637,4.222-.664,10.053-7.391,11.14Z"/>
      <path d="M471.541,466.907c3.776-2.72,7.436-5.63,11.4-8.047,1.209-.737,3.247-.114,5.01.643-6.17,1.535-9.535,8.266-15.919,8.828Z"/>
      <path d="M416.774,434.447l.08.069c-.335-.792-1.073-1.662-.938-2.363.754-3.914,1.719-7.787,2.612-11.674l-.014.246,4.416-3.057.717.985Z"/>
      <path d="M469.038,465.46c-5.846,1.421-6.306-3.993-9.89-4.156.73-2.88-1.947-6.115,2.648-8.212.347,2.6.629,4.716.9,6.731Z"/>
      <path d="M418.514,420.725l.014-.246-6.582,7.028L409.665,420C413.28,417.528,416.021,417.89,418.514,420.725Z"/>
      <path d="M485.971,463.463l7.074,1.108,7.357,9.869c-4.922.3-5.1-4.142-7.554-5.626-2.39-1.444-4.849-2.773-7.278-4.153Z"/>
      <path d="M454.717,474.585c2.352,4.188,4.7,8.376,7.339,13.066A12.069,12.069,0,0,1,454.717,474.585Z"/>
      <path d="M456.848,540.21l-3.119-4.278c1.776-1.883,3.532-3.745,5.287-5.608l1.266.847c-1.034,3.11-.39,6.763-3.632,9.157Z"/>
      <path d="M394.974,505.62l3.756-4.228c1.359,1.916,2.372,3.342,4.1,5.775l-7.244.43Z"/>
      <path d="M381.276,416.658c-5.085,4.508-7.32.81-9.828-1.889Z"/>
      <path d="M472.835,408.183c-.907,2.377-1.664,4.36-2.421,6.342l-1.234-.033-1.581-6.309Z"/>
      <path d="M432.271,418.147l-4.262,7.474C426.025,420.176,426.827,418.732,432.271,418.147Z"/>
      <path d="M472.476,486.316c4.745-1.924,5.4-1.584,7.427,4.016C476.76,489.808,473.605,490.251,472.476,486.316Z"/>
      <path d="M444.507,504.542l-6.609,6.125c.317-3.3.491-5.1.724-7.523Z"/>
      <path d="M593.927,430.99l.657-3.053-3.708-2.006c.511-1.953.745-1.979,6.122-.767,0,2.5-.052,4.873-3.25,5.651Z"/>
      <path d="M365.634,438.979c3.184-1.251,5.77.093,8.068,3.033l-8.413-.958Z"/>
      <path d="M415.843,413.79l-10.635.893C407.84,411.433,411.381,411.075,415.843,413.79Z"/>
      <path d="M423.084,410.806l5.44-1.115c1.305,2.533.711,3.967-1.512,4.472C424.74,414.678,422.983,414.174,423.084,410.806Z"/>
      <path d="M610.564,386.579c-6.654.07-11.911-4.1-17.89-6.079-1.9-.628-5.485.105-5.543-3.7l-.127.162,10.32,1.448,2.208-2.388c.409,2.395.7,4.087,1.053,6.168l8.263-3c-.806,1.659-1.292,2.659-1.732,3.563l3.332,3.957Z"/>
      <path d="M535.771,357.672c3.2.711,6.456,1.255,9.6,2.167,6.21,1.8,12.993,2.492,17.372,8.378-.706.139-1.465.551-2.007.356-7.967-2.865-15.918-5.777-23.821-8.813-.538-.207-.664-1.489-.981-2.27Z"/>
      <path d="M587.131,376.8l-16.833-4.05c3.1-2.7,5.428-2.9,8.1-1.07,2.772,1.9,5.731,3.533,8.608,5.282Z"/>
      <path d="M302.1,378.322a18.049,18.049,0,0,0,2.982-2.366c2.406-2.965,4.307-6.44,7.073-8.991a10.369,10.369,0,0,1,15.651,2.141c1.636,2.431.466,8.891-2.134,11.43-.807.787-1.954,1.265-2.641,2.128-7.5,9.417-11.042,7.51-18.83-1.257A26.119,26.119,0,0,1,302.1,378.322Z"/>
      <path d="M423.187,285.87c-3.768,4.16-2.1,9.695-8.612,10.867l4.109-4.691c-1.1-.411-1.788-.939-2.188-.774-5.67,2.336-11.3,4.767-17.335,7.342l-2.933-8.056c6.128-2.62,11.779-5.552,17.772-7.329C416.212,282.573,419.232,284.64,423.187,285.87Z"/>
      <path d="M582.9,552.459c-3.852,2.279-6.692,2.221-8.083-.165-1.634-2.8-.425-5.5,3.856-8.122,3,2,4.71,4.632,4.008,8.508Z"/>
      <path d="M551.063,553.878c-.034-1.578-.5-3.314.007-4.7.649-1.783,1.607-4.668,4.084-3.55,1.652.747,3.159,3.241,3.464,5.155a3.54,3.54,0,0,1-3.842,3.921,16.167,16.167,0,0,1-3.921-1.055Z"/>
      <path d="M331.614,621.755l6.377,7.332c-3.872,2.949-7.261,5.916-11.051,8.223-1.435.874-3.907.64-5.7.155-1.647-.446-3.018-1.91-5.24-3.421C320.332,628.69,326,625.314,331.614,621.755Z"/>
      <path d="M306.52,571.286l-9.756.6c-1.066-1.632-2.137-3.27-3.769-5.766,2.858-.862,5.113-2.033,7.412-2.129C304.779,563.806,304.694,567.891,306.52,571.286Z"/>
      <path d="M371.279,664.11c-4.25,3.984-8.187,7.675-12.69,11.9l-7-2.767c2-5.8,6.275-9.6,10.047-13.589C363.963,657.187,366.818,658.661,371.279,664.11Z"/>
      <path d="M290.864,591.091l18.882-7.889,4.63,8.067-16.664,7.619Z"/>
      <path d="M547.908,705.994c1.663,5.646,3.248,11.031,4.869,16.534-9.405,1.042-9.4,1.042-12.885-7.153-.18-.422-.453-.806-.622-1.231-1.048-2.641-3.829-5.3-.971-8.135C541.013,703.32,544.254,704.586,547.908,705.994Z"/>
      <path d="M273.05,503.965l1.9-2.553,13.221,2.325c-8.754,3.874-10.713,3.818-15.259.022Z"/>
      <path d="M606.193,488.149l-9.559,1.5c-.16-2.816-.319-5.617-.476-8.365C604.349,480.1,605.458,480.906,606.193,488.149Z"/>
      <path d="M410.216,698.884c-.563.331-1.315.528-1.659,1.014-3.378,4.77-3.354,4.763-9,3.366-1.21-.3-2.472-.391-4.031-.628,2.041-5.225,3.732-10.022,5.8-14.654,1.161-2.605,3.611-3.372,6.24-2.243a49.87,49.87,0,0,1,5.6,3.338c-1.066,3.393-2.11,6.714-3.153,10.036Z"/>
      <path d="M636.843,482.961c-.384,2.274-.716,4.244-1.188,7.052-3.252-2.555-7.7,1.669-10.186-3.041C627.948,478.473,629.582,477.825,636.843,482.961Z"/>
      <path d="M384.424,681.1l-10.376-2.25L381.442,670l8.123,6.193Z"/>
      <path d="M614.8,454.156a10.39,10.39,0,0,1,.165-2.32c.492-1.42,1.119-2.794,2.29-5.638l3.671,7.532Z"/>
      <path d="M638.256,452.331l-6.629.471c-.158-1.379-.324-2.823-.486-4.238C637.04,447.043,637.251,447.157,638.256,452.331Z"/>
      <path d="M673.136,451.4l-8.074.723c.332-1.6.6-2.865.927-4.461C668.767,447.8,672.325,445.589,673.136,451.4Z"/>
      <path d="M559.156,517.835l-7.056.411c-.047-5.164,1.268-7.874,3.682-7.3C559.039,511.717,559.584,514.353,559.156,517.835Z"/>
      <path d="M552.588,484.663c-.35-4.172,2.106-3.934,4.469-4.1,3.264-.232,5.367.8,5.645,4.79Z"/>
      <path d="M605.643,452.557l-6.6.565c-1.427-1.83-1.479-3.429.411-4.619C601.31,447.336,601.813,447.7,605.643,452.557Z"/>
      <path d="M552.983,613.547c-.945.953-2.159,2.965-3.924,3.768-2.451,1.115-4.363-.468-5.322-2.876a22.2,22.2,0,0,1-1.122-3.936c-.668-3.417,1.537-5.267,4.208-6.094,3.025-.936,4.549,1.427,5.439,3.9C552.714,609.566,552.658,611.005,552.983,613.547Z"/>
      <path d="M641.254,548.968c-3.121.985-5.563,1.365-6.854-1.471-.292-.644.851-2.742,1.632-2.93C638.977,543.859,640.488,545.552,641.254,548.968Z"/>
      <path d="M629.922,581.593c.024-3.21-.036-6.456,3.537-8.11,5.355,2.792,5.576,3.345,4,10.193-3.205,1.509-5.875,1.125-7.7-2.3Z"/>
      <path d="M603.694,549.925c-.193-2.091-.3-4.4,2.333-4.821,2.664-.421,4.051,1.17,4.183,4.249l-6.7.393Z"/>
      <path d="M525,544.058l4.12,3.2c-1.244,3.083-3.333,3.038-4.7,1.917-.895-.735-.682-2.819-.966-4.3Z"/>
    </g>
  </g>
</svg>
