<?xml version="1.0" standalone="no"?>
<!DOCTYPE svg PUBLIC "-//W3C//DTD SVG 20010904//EN"
 "http://www.w3.org/TR/2001/REC-SVG-20010904/DTD/svg10.dtd">
<svg version="1.0" xmlns="http://www.w3.org/2000/svg"
 width="250.000000pt" height="250.000000pt" viewBox="0 0 250.000000 250.000000"
 preserveAspectRatio="xMidYMid meet">
<metadata>
Created by potrace 1.15, written by Peter Selinger 2001-2017
</metadata>
<g transform="translate(0.000000,250.000000) scale(0.100000,-0.100000)"
fill="#000000" stroke="none">
<path d="M1127 2218 c-19 -35 -49 -91 -68 -125 -18 -35 -38 -63 -43 -63 -5 0
-68 32 -138 71 -71 39 -131 69 -134 66 -3 -2 -8 -75 -11 -161 -6 -141 -5 -156
10 -156 14 0 17 13 18 83 1 45 4 105 7 134 l7 51 103 -57 c57 -32 108 -64 115
-71 7 -7 -4 -4 -23 7 -109 64 -183 103 -187 99 -3 -3 -7 -61 -10 -129 l-6
-125 94 -6 c52 -3 101 -5 109 -4 8 1 25 -2 36 -6 13 -4 27 -1 35 6 8 7 66 59
130 115 64 56 121 109 128 117 10 11 -2 33 -59 115 -39 56 -73 101 -75 101 -2
0 -19 -28 -38 -62z"/>
<path d="M1830 1999 c-74 -22 -151 -44 -172 -49 -29 -8 -35 -14 -31 -30 4 -13
11 -19 22 -16 9 3 68 19 131 36 63 17 122 33 131 36 14 4 13 -12 -11 -131 -15
-75 -31 -139 -35 -143 -4 -4 -5 2 -2 13 16 56 48 237 43 242 -3 4 -63 -10
-133 -29 l-128 -36 3 -33 c1 -19 6 -45 11 -59 5 -14 12 -42 16 -62 l6 -38
-106 0 -105 0 0 -60 0 -60 -45 0 -45 0 0 60 0 61 -142 -3 -143 -3 -3 -57 -3
-58 -39 0 -39 0 -3 58 -3 57 -142 3 -143 3 0 -61 0 -60 -45 0 -44 0 -3 58 -3
57 -140 0 -140 0 -5 -79 -5 -79 -62 -21 -62 -21 51 -53 c40 -42 48 -56 37 -63
-8 -5 397 -8 986 -7 550 1 937 5 860 8 -108 5 -883 10 -1532 10 -58 0 -73 17
-20 22 l32 3 3 68 3 67 44 0 45 0 0 -70 0 -71 143 3 142 3 3 68 3 67 39 0 39
0 3 -67 3 -68 143 -3 142 -3 0 71 0 70 45 0 44 0 3 -67 3 -68 143 -3 142 -3 0
71 c0 68 1 70 26 70 52 0 64 -15 64 -80 l0 -60 84 0 c45 0 111 3 145 6 l61 7
0 52 c0 44 5 59 35 98 36 47 33 57 -15 57 -14 0 -20 9 -22 33 l-3 32 -116 3
-116 3 33 167 c17 92 31 168 30 168 0 1 -62 -16 -136 -37z"/>
<path d="M2204 922 c-5 -4 -23 -24 -38 -44 -17 -23 -33 -35 -42 -31 -30 11
-70 -11 -138 -76 -77 -74 -110 -96 -132 -87 -23 9 -16 41 20 94 38 54 38 67 0
50 -27 -13 -44 -4 -26 14 14 14 16 52 3 44 -5 -3 -23 -30 -39 -59 -56 -97
-142 -171 -142 -120 0 9 14 38 31 65 31 47 31 49 13 63 -38 29 -90 10 -142
-50 -37 -42 -49 -79 -32 -100 18 -22 43 -18 70 10 28 30 40 32 40 6 0 -24 25
-34 51 -21 10 6 41 38 69 70 27 33 52 61 55 61 23 2 26 -10 11 -38 -28 -56
-16 -103 27 -103 10 0 35 11 55 25 l37 25 5 -22 c9 -34 43 -34 83 1 l35 31 6
-30 c9 -47 46 -41 104 16 l47 47 -47 -42 c-50 -43 -75 -51 -84 -26 -11 27 5
61 66 141 33 43 60 82 60 86 0 10 -12 10 -26 0z"/>
<path d="M1149 818 c-54 -43 -88 -101 -73 -125 17 -27 42 -27 78 0 32 25 32
25 42 4 13 -31 28 -31 63 -2 29 25 31 26 31 6 0 -45 20 -31 79 54 11 15 8 14
-14 -5 l-27 -25 26 52 c30 60 31 63 13 63 -7 0 -24 -19 -37 -42 -30 -56 -79
-108 -102 -108 -26 0 -22 19 12 73 35 56 35 56 13 73 -29 22 -59 16 -104 -18z"/>
<path d="M470 590 l195 -5 -4 -123 -3 -122 163 80 c90 44 168 80 174 80 6 0
39 -63 75 -139 35 -77 67 -138 72 -135 21 13 178 225 173 234 -12 19 -24 9
-104 -91 l-81 -101 -19 43 c-10 24 -35 79 -55 122 -20 43 -36 81 -35 85 0 4
26 -46 57 -111 l57 -119 73 91 c39 50 72 95 72 100 0 5 -16 22 -36 37 -85 68
-84 64 -18 65 84 0 343 1 382 0 19 -1 32 -6 32 -14 0 -7 31 -23 71 -36 39 -12
69 -25 67 -27 -3 -2 -37 7 -76 20 -68 23 -72 24 -72 6 0 -15 27 -27 136 -64
l136 -45 -6 32 c-3 18 -8 56 -12 84 l-7 53 199 3 c110 1 -251 2 -801 3 -550 0
-912 -3 -805 -6z"/>
</g>
</svg>
