<svg xmlns="http://www.w3.org/2000/svg" viewBox="0 0 1000 500">
  <title>Netflix</title>
  <g id="Netflix">
    <g>
      <path d="M911.993,138.839a24.467,24.467,0,0,0-1.242,2.286q-21.1,50.592-42.2,101.185a5.038,5.038,0,0,0-.116,4.09q21.258,56.049,42.415,112.137c.262.694.5,1.4.9,2.487-3.616-.5-6.912-.9-10.187-1.433-8.933-1.45-17.852-3-26.791-4.4a3.124,3.124,0,0,1-2.678-2.36q-11.527-29.834-23.132-59.637c-.309-.8-.654-1.579-1.161-2.8-.486,1.077-.8,1.739-1.087,2.41q-11.747,27.3-23.453,54.625c-.723,1.7-1.513,2.062-3.357,1.812-8.563-1.164-17.157-2.1-25.74-3.12-2.912-.346-5.824-.7-9.021-1.082.788-1.862,1.45-3.483,2.154-5.085q20.8-47.374,41.644-94.73a5.1,5.1,0,0,0,.141-4.281q-19.382-49.95-38.679-99.933c-.289-.748-.556-1.506-.891-2.416.835-.037,1.434-.086,2.032-.086,11.059,0,22.118.029,33.176-.042a2.393,2.393,0,0,1,2.649,1.847q10.5,27.138,21.116,54.235c.271.695.585,1.373,1.053,2.467.469-1.028.808-1.721,1.1-2.431q11.277-27.056,22.5-54.133a2.7,2.7,0,0,1,3-1.988c11.948.05,23.9-.011,35.846-.037Z"/>
      <path d="M123,235.778V356.187l-35.166,4.8V138.505H89.9c9.548,0,19.1.043,28.644-.042a2.452,2.452,0,0,1,2.764,1.955q21.633,60.624,43.345,121.22a6.709,6.709,0,0,0,1.27,2.331V138.66h34.806V346.774c-2.933.447-5.947,1-8.985,1.351-8.724,1.008-17.463,1.893-26.184,2.923-1.91.226-2.823-.183-3.5-2.185Q143.3,293.554,124.355,238.3c-.3-.873-.63-1.735-.947-2.6Z"/>
      <path d="M315.759,254.157c-6.212,0-12.248-.057-18.282.013-8.722.1-17.443.312-26.165.434-1.292.018-2,.236-2,1.8.048,16.281.03,32.562.036,48.844,0,.395.074.791.134,1.385l61.269-3.828c.079,1.058.18,1.784.181,2.51.01,9.549-.049,19.1.054,28.647.02,1.906-.674,2.466-2.416,2.6q-19.305,1.442-38.6,2.985-22.273,1.764-44.545,3.566c-3.469.276-6.943.482-10.528.728V138.67h95.893c.051.732.144,1.46.144,2.187.01,9.961-.042,19.923.048,29.884.018,1.939-.627,2.387-2.467,2.381-18.823-.06-37.647-.037-56.47-.036-2.7,0-2.7,0-2.7,2.676q0,20.917,0,41.837v2.562l46.414-.678Z"/>
      <path d="M579.988,138.626V173.06H517.183v44.616h47.259c.059.893.14,1.558.141,2.223.008,10.028-.052,20.056.053,30.083.022,2.016-.734,2.356-2.5,2.349-14.08-.054-28.161-.03-42.241-.03h-2.822v78.832H483.117V138.626Z"/>
      <path d="M353.635,173.085V138.668H460.257v34.41h-35.9v160.3H389.744V176.157c0-3.07,0-3.071-3.142-3.071H353.635Z"/>
      <path d="M602.249,138.6h34.3V300.813L695.726,304v33.982l-93.477-4.674Z"/>
      <path d="M759.291,343.066l-33.769-2.53V138.644h33.769Z"/>
    </g>
  </g>
</svg>
