<svg xmlns="http://www.w3.org/2000/svg" viewBox="0 0 1000 500">
  <title>OpenSociety</title>
  <g id="OpenSociety">
    <g>
      <path d="M64.848,147.837c1.85.091,3.7.26,5.548.261q99.528.019,199.056.011h6.14c.085,1.936.2,3.325.2,4.715.01,30.888.049,61.776-.075,92.663a16.957,16.957,0,0,1-1.87,7.268c-16.352,32.469-39.959,59.025-67.461,82.381-2.724,2.313-5.728,4.4-8.03,7.087-5.771,6.725-12.794,8.381-21.544,8.278-37.316-.439-74.641-.142-111.963-.113V306.616c5.671-8.717,11.241-17.5,17.031-26.139A239.739,239.739,0,0,1,164.253,204.3c9.772-5.519,20.261-9.421,31.769-9.171,14.049.306,22.617,8.313,22.949,21.856a41.134,41.134,0,0,1-1.923,13.5c-11.884,36.52-35,63.854-68.827,81.82-5.563,2.954-12.486,4.02-18.894,4.528-7.077.562-12.28-4.342-12.308-11.456a38.117,38.117,0,0,1,3.213-15.271,98.008,98.008,0,0,1,29.335-37.474,55.027,55.027,0,0,1,12.676-6.958,8.448,8.448,0,0,1,9.884,2.1c2.664,2.89,2.494,6.36,1.121,9.672-5.3,12.773-14.484,22.481-25.1,30.939-1.224.975-3.4.75-5.141,1.081-.116-1.74-.721-3.623-.262-5.195a25.164,25.164,0,0,1,11.415-14.811c-1.831.325-3.773.764-4.784,1.977a78.074,78.074,0,0,0-8.253,11.319c-1.771,3.139-3.747,7.471-.372,10.289s7.169-.029,10.127-2.142c11.473-8.195,20.723-18.42,26.761-31.253a26.475,26.475,0,0,0,2.414-9.454c.47-7.755-4.625-12.924-12.205-11.619a44.769,44.769,0,0,0-15.482,5.731,102.348,102.348,0,0,0-38.835,42.519,70.125,70.125,0,0,0-6.153,20.358c-2.485,16.489,7.72,26.47,24.21,24.553,10.492-1.22,19.756-5.694,28.461-11.267a213.845,213.845,0,0,0,73.809-79.714C242,225.686,248.152,209.9,247.876,192.3c-.371-23.7-17.954-40.293-41.6-39.133-12.78.627-24.769,4.4-36.207,9.816-34.881,16.527-64.588,39.87-89.921,68.9-5.049,5.787-10.2,11.487-15.3,17.227Z"/>
      <path d="M512.062,198.313v4.5c0,14.289-.105,28.58.073,42.867.045,3.584-1.085,4.71-4.627,4.579-8.073-.3-7.136.768-7.153-7.1-.042-19.29-.013-38.581-.012-57.872v-5.559c4.868,0,9.266-.238,13.606.158,1.155.106,2.544,1.974,3.131,3.333,6.392,14.822,12.643,29.7,18.943,44.565a9.749,9.749,0,0,0,3.075,4.348V179.957h11.42c.117,1.357.315,2.595.316,3.833.016,20.577-.094,41.155.093,61.73.034,3.849-1.128,4.827-4.848,4.763-10.562-.182-10.557-.026-14.649-9.679q-8.28-19.535-16.588-39.056c-.493-1.158-1.09-2.271-1.639-3.4Z"/>
      <path d="M329.5,214.884c.015-7.966,1.1-15.727,5.141-22.748,5.234-9.1,13.2-13.664,23.718-13.363,10.168.291,17.958,4.99,22.33,14.13,6.857,14.335,6.8,29.1.342,43.522-4.452,9.944-12.88,14.844-23.686,14.782-10.624-.06-19.036-4.913-23.2-14.761-2.836-6.7-3.947-14.136-5.829-21.242Zm12.442.112c1.268,5.942,2.062,12.051,3.948,17.8a11.643,11.643,0,0,0,11.662,8.456c5.931.022,9.758-3.359,11.656-8.5a50.376,50.376,0,0,0,.137-35.187c-1.88-5.271-5.64-8.816-11.87-8.762-6.178.053-10.066,3.48-11.791,8.838C343.917,203.142,343.2,208.975,341.944,215Z"/>
      <path d="M636.215,214.832c-.064-8.121,1.087-15.983,5.3-23.1,5.274-8.9,13.177-13.258,23.494-12.962,9.99.287,17.792,4.828,22.118,13.769,7.129,14.737,7.117,29.938.1,44.7-4.433,9.329-12.636,13.916-22.9,13.964-10.239.048-18.135-4.533-23.183-13.6C637.207,230.526,636.116,222.8,636.215,214.832Zm43.387.344c-1.128-5.748-1.788-11.735-3.548-17.38-1.932-6.2-6.413-8.978-12.122-8.972-6.208,0-9.844,3.656-11.711,8.973a51.224,51.224,0,0,0-.16,34c1.846,5.5,5.563,9.307,11.876,9.46,5.622.136,10.249-3.042,12.262-9.475C677.839,226.537,678.457,220.973,679.6,215.176Z"/>
      <path d="M409.953,250H397.36V179.288c9.4.474,18.8.357,28.023,1.613,6.628.9,11.228,5.651,12.854,12.345,3.769,15.515-2.046,29.564-21.05,29.41a33.4,33.4,0,0,1-3.424-.022c-3.019-.341-3.938.951-3.87,3.922C410.071,234.226,409.953,241.9,409.953,250Zm.311-60.249v23.165c5.4-.2,10.888.728,14.195-4.4a13.2,13.2,0,0,0,.24-14.253C421.456,188.681,415.787,189.762,410.264,189.751Z"/>
      <path d="M801.622,189.961v18.676h22.194v10.4c-5.787,0-11.591.272-17.355-.09-4.255-.267-5.487,1.26-5.15,5.315a97.826,97.826,0,0,1,.031,12c-.112,2.784.912,3.794,3.719,3.735,6.835-.143,13.676-.046,21.3-.046a63.737,63.737,0,0,1-.11,7.847,3.335,3.335,0,0,1-2.293,2.257c-11.68.147-23.362.1-35.308.1V180.041h36.5v9.92Z"/>
      <path d="M450.03,179.951h36.68v9.888H463.269v18.786h22.243v10.412c-6.247,0-12.355.158-18.448-.065-3.182-.117-4.338.854-4.147,4.1a110.076,110.076,0,0,1,0,12.857c-.2,3.333,1.168,4.155,4.247,4.072,6.684-.181,13.376-.056,20.747-.056,0,2.833.3,5.254-.134,7.538a3.993,3.993,0,0,1-2.809,2.583c-10.717.183-21.439.058-32.159.136-3.226.023-2.775-2.144-2.777-4.091q-.019-27.231-.006-54.46Z"/>
      <path d="M275.561,287.916v62.169H219.335c22.32-18.227,41.429-38.2,55.337-62.717Z"/>
      <path d="M625.86,191.712c-3.215-.823-5.921-1.679-8.692-2.17a22.394,22.394,0,0,0-6.375-.317c-3.617.417-6.637,2.062-7.615,5.9a8.067,8.067,0,0,0,3.585,9.346c4.315,2.782,8.831,5.257,13.3,7.8,7.521,4.288,10.7,10.859,10.051,19.323-.816,10.655-6.968,17.737-17.6,18.9-5.984.657-12.171-.282-18.241-.8-3.044-.259-4.368-2.134-3.669-5.407a48.342,48.342,0,0,0,.541-6.69c4.575,1.077,9.036,2.661,13.6,3.079,7.579.694,12.021-3.416,11.988-10.028-.019-3.744-2.042-6.2-4.94-8-3.761-2.333-7.694-4.386-11.513-6.627-8.9-5.22-12.527-13.582-10.14-23.238,1.934-7.823,9.421-13.521,19.05-13.864,4.372-.156,8.782.675,13.172,1.089,3.177.3,4.419,2,3.911,5.195C625.961,187.172,626.006,189.186,625.86,191.712Z"/>
      <path d="M748.018,237.446c1.726,13.294,2.28,12.245-9.274,13.453-21.3,2.225-35.448-9.457-36.848-30.907a58.322,58.322,0,0,1,2.529-21.44c5.543-16.959,26.786-25.273,42.752-17.489a3.379,3.379,0,0,1,1.641,2.436c.043,2.964-.265,5.933-.444,8.965-4.151-1.008-7.9-2.343-11.741-2.764-8.974-.982-16.322,3.788-19.369,12.257a38.944,38.944,0,0,0-1.165,21.96c3.084,13.9,14.686,20.076,28.1,15.1C745.376,238.577,746.528,238.06,748.018,237.446Z"/>
      <path d="M544.669,337.537c.091-1.622.258-3.243.261-4.865q.032-23.168.006-46.336c0-2.422-.051-4.61,3.416-4.618,2.692-.007,3.885.81,3.836,3.681-.127,7.434-.03,14.872-.029,22.309,0,12.585.074,25.171-.092,37.754-.024,1.8-.773,4.693-1.955,5.167-4.146,1.664-7.878.163-9.367-3.058-4.14-8.953-8.211-17.938-12.322-26.9q-5.271-11.5-10.585-22.978a39.484,39.484,0,0,0-2.011-3.415l-1.15.242c-.1,1.6-.3,3.206-.3,4.808q-.03,23.6.009,47.195c0,2.436.112,4.52-3.433,4.469-3.561-.051-3.385-2.271-3.384-4.622q.006-29.818.046-59.636c0-2-.686-4.854,2.612-4.834,3,.018,6.542-1.658,8.494,2.721,6.46,14.489,13.139,28.881,19.751,43.3,1.523,3.321,3.116,6.611,4.677,9.915Z"/>
      <path d="M880.814,180.079c1.063-.22,1.342-.282,1.622-.335,8.671-1.668,14.492.831,17.27,10.043,1.71,5.667,5.127,10.821,7.79,16.2a9.289,9.289,0,0,0,1.036,1.177c1.77-3.8,3.432-7.342,5.079-10.9,1.022-2.2,2.011-4.422,3.032-6.625,5.12-11.048,5.122-11.047,18.357-9.572-2.907,6.012-5.731,11.89-8.588,17.752-2.754,5.65-5.3,11.423-8.386,16.885a28.944,28.944,0,0,0-3.7,16.387c.289,5.276-.027,10.583.1,15.872.056,2.427-.853,3.287-3.25,3.25-11.9-.181-10.087,1.17-9.421-8.908A61.919,61.919,0,0,0,893,204.582C888.458,196.876,884.975,188.547,880.814,180.079Z"/>
      <path d="M571.56,316.123c0-9.992.125-19.987-.075-29.975-.068-3.415,1.086-4.6,4.416-4.445,4.416.2,8.85-.023,13.271.115,13.353.414,22.647,7.434,26.531,20.247a46.045,46.045,0,0,1-.593,28.641c-4.3,12.669-14.992,19.715-29.811,20.167-3.28.1-6.576-.147-9.846.065-3.064.2-3.965-1.071-3.933-3.983C571.634,336.678,571.565,326.4,571.56,316.123Zm7.945-.061v23.586c0,.143-.051.317.011.424.732,1.256,1.382,3.512,2.242,3.6,10.453,1.034,20.133-1.236,25.094-13.871a38.6,38.6,0,0,0,1.894-21.489C606.125,294.4,599.11,288.438,585,287.815c-4.919-.218-5.48.275-5.5,5.091C579.483,300.625,579.5,308.343,579.505,316.062Z"/>
      <path d="M838.558,294.473c-.141,1.615-.4,3.23-.4,4.845-.027,15.735.047,31.47-.1,47.2-.014,1.448-1.08,3.764-2.185,4.146-2.586.892-4.556.123-4.5-3.5.165-11.727.058-23.458.059-35.187,0-8.439-.109-16.881.1-25.315.041-1.622,1.262-4.539,2.065-4.584,3.105-.174,6.967-2.014,8.962,2.479,2.958,6.664,6.078,13.256,9.106,19.89,4.57,10.015,9.108,20.045,13.7,30.051.565,1.231,1.352,2.36,2.036,3.536l1.13-.169a40.029,40.029,0,0,0,.536-4.641c.043-15.591-.038-31.183.136-46.772.017-1.553,1.151-4.01,2.349-4.446,2.736-.994,4.515.287,4.465,3.674-.121,8.294-.023,16.592-.021,24.888,0,11.586.06,23.173-.057,34.758-.02,2,1.262,5.222-2.331,5.4-3.264.165-6.936,1.551-9.042-3.239C857.587,331.659,850.232,316,843,300.285c-.964-2.092-2.112-4.1-3.175-6.144Z"/>
      <path d="M377.3,315.372c1.534-6.528,2.562-13.642,4.92-20.284,3.309-9.32,10.731-13.677,20.528-14.085,10.275-.427,17.9,4.059,22.036,13.272,6.465,14.412,6.08,29.225.166,43.711-3.787,9.274-12.761,14.293-22.709,13.72a23.127,23.127,0,0,1-21.221-17.182C379.284,328.539,378.6,322.252,377.3,315.372Zm44.389.847c-1.543-6.774-2.556-13.376-4.613-19.635-1.976-6.013-6.655-9.755-13.229-9.7-6.643.05-11.437,3.713-13.852,9.759a51.463,51.463,0,0,0-.224,38.76c2.266,5.859,6.668,9.727,13.274,9.8,6.69.071,11.724-3.378,13.882-9.518C419.105,329.471,420.116,322.855,421.687,316.219Z"/>
      <path d="M762.019,316.145c1.249-6.4,1.864-13,3.886-19.147,3.464-10.522,11.41-15.882,21.908-16,10.938-.122,18.773,4.872,22.591,15.649a56.389,56.389,0,0,1-.992,41.442c-3.646,8.819-10.879,13.1-20.16,13.549-8.961.429-16.1-3.288-20.865-11.043C763.813,333.146,762.64,324.88,762.019,316.145Zm44.728.271c-1.563-6.818-2.569-13.164-4.528-19.2-2-6.152-6.517-10.246-13.3-10.343-6.857-.1-11.772,3.632-14.2,9.873-5.058,13-5.272,26.208.052,39.2,2.33,5.687,6.759,9.291,13.2,9.273,6.306-.018,11.307-3.128,13.459-8.9C803.827,329.866,805.048,322.974,806.747,316.416Z"/>
      <path d="M833.772,189.968V179.9h43.721v10.069c-3.808,0-7.621.194-11.405-.058-3.282-.22-4.139,1.053-4.116,4.187.125,17.016-.044,34.035.141,51.05.042,3.837-.9,5.3-4.977,5.124-9.258-.407-7.826.939-7.87-8.124-.078-15.873-.114-31.747.043-47.618.035-3.47-.842-4.94-4.523-4.629C841.258,190.2,837.686,189.968,833.772,189.968Z"/>
      <path d="M443.673,306.746c0-6.716.067-13.433-.033-20.147-.042-2.838.015-4.9,3.9-4.956,4.149-.061,4.173,2.186,4.155,5.181-.082,13.288-.217,26.581.045,39.865a33.2,33.2,0,0,0,2.315,11.17c2.025,5.193,6.52,7.51,11.97,7.334,5.766-.186,9.753-3.477,11.478-8.791a39.257,39.257,0,0,0,1.756-11.343c.209-13,.164-26.006.036-39.008-.033-3.447,1.405-4.939,4.572-4.161,1.184.291,2.9,1.966,2.9,3.01-.011,15.991.2,32.007-.618,47.966-.6,11.678-8.9,18.665-20.422,18.862-11.661.2-19.954-6.86-21.343-18.459-.524-4.377-.577-8.818-.687-13.234S443.674,311.176,443.673,306.746Z"/>
      <path d="M679.62,350.347c-6.886,1.338-7.133,1.207-9.043-4.938-1.017-3.273-1.7-6.692-3.12-9.776-.657-1.428-2.673-3.074-4.142-3.143a209.374,209.374,0,0,0-21.007.013c-1.58.084-3.684,1.9-4.438,3.456-1.415,2.922-1.973,6.25-2.974,9.382-1.9,5.958-1.93,5.949-8.853,5.195a28.639,28.639,0,0,1,.72-3.553c6.916-20.573,13.923-41.116,20.741-61.721.973-2.941,2.636-3.676,5.388-3.55,2.454.113,4.737-.18,5.766,3.02,6.825,21.223,13.784,42.4,20.68,63.6A11.388,11.388,0,0,1,679.62,350.347Zm-25.836-59.631-1.761.067c-3.41,10.826-6.856,21.642-10.138,32.507-.185.611.95,2.332,1.5,2.346,6.756.164,13.518.107,21.17.107C660.755,313.385,657.27,302.05,653.784,290.716Z"/>
      <path d="M894.57,341.615c2.825.924,5.581,2.01,8.43,2.721,6.365,1.59,12.737-.935,15.231-5.841,2.92-5.744,1.444-11.771-4.374-16.219-3.849-2.942-8.075-5.383-12.047-8.171-5.2-3.65-8.3-8.464-8.409-15.069-.163-10.28,5.817-17.168,16.094-17.9a41.076,41.076,0,0,1,9.373.5c6.117.984,6.1,1.127,5.329,7.371-3.9-.517-7.8-1.348-11.715-1.474a9.962,9.962,0,0,0-10.266,6.876c-1.724,4.6-.9,8.631,3.158,11.906a132.566,132.566,0,0,0,10.988,7.42c6.077,3.97,11.1,8.77,11.535,16.538.865,15.62-10.024,22.493-23.372,21.277-1.417-.129-2.818-.44-4.226-.67C894,349.849,893.162,348.549,894.57,341.615Z"/>
      <path d="M773.364,179.975v70.111c-3.917,0-7.706.184-11.442-.175-.655-.063-1.548-2.4-1.557-3.7-.109-14.442-.064-28.885-.062-43.328,0-7.547,0-15.093,0-22.909Z"/>
      <path d="M338,316.441c0-10.156.094-20.313-.055-30.467-.046-3.124.93-4.352,4.146-4.282,7.434.161,14.875.051,22.313.054,2.068,0,4.032-.1,4.036,2.986,0,3.037-1.881,3.055-3.993,3.054-4.577,0-9.16.143-13.73-.029-3.589-.134-5.308,1.137-5.182,4.915.162,4.858.148,9.728.006,14.587-.1,3.4,1.48,4.567,4.669,4.478,4-.111,8.01-.031,12.015-.009,2.3.013,4.668-.307,4.763,3.258.1,3.6-2.162,3.355-4.541,3.332-4.291-.041-8.589.133-12.871-.059-3.05-.136-4.051,1.189-4.028,4.031.064,8.01-.02,16.02.028,24.03.017,2.682-.152,4.638-3.8,4.686-3.631.047-3.836-1.763-3.812-4.528C338.057,336.466,338,326.453,338,316.441Z"/>
      <path d="M707.394,319.872c0,9-.079,18,.046,27,.039,2.829-.645,4.106-3.8,4.13-3.245.023-4.2-1.142-4.181-4.251.1-17.86-.067-35.722.121-53.581.044-4.17-1.4-5.733-5.444-5.426a26.619,26.619,0,0,1-7.255-.136c-1.188-.244-2.082-1.92-3.109-2.949,1.085-.966,2.153-2.749,3.256-2.771,10.856-.213,21.716-.121,32.576-.149,2.173-.006,3.985.686,3.344,3.105a4.739,4.739,0,0,1-3.2,2.782,40.382,40.382,0,0,1-8.122.143c-3.048-.124-4.331.995-4.273,4.237.166,9.285.058,18.574.058,27.862Z"/>
      <path d="M745.412,316.056c0,10.135-.051,20.27.035,30.4.024,2.814-.37,4.53-3.895,4.526-3.546,0-3.886-1.775-3.878-4.56q.086-29.976.019-59.953c0-2.607.009-4.727,3.682-4.8,3.771-.071,4.1,1.892,4.071,4.832C745.355,296.357,745.411,306.207,745.412,316.056Z"/>
    </g>
  </g>
</svg>
