<svg xmlns="http://www.w3.org/2000/svg" viewBox="0 0 1000 1000">
  <title>StLouis</title>
  <g id="StLouis">
    <g>
      <path d="M390.682,310.564c5.989,19.946,11.978,39.891,18.374,61.189,10.049-3.862,19.521-7.3,28.768-11.258,1.54-.661,2.718-3.537,2.974-5.529.471-3.675.134-7.453.134-11.894h21.31c.582,1.9,1.3,4.246,2.2,7.185l25.2-9.286.8,1.238c-7.652,8.708-15.391,17.342-22.892,26.177-1.8,2.123-3.986,4.9-4.01,7.4-.28,29.133-.179,58.269-.179,88.413h34.186v20.463H441.164V401.61l-2.079-1.033c-5.043,5.732-10.42,11.217-14.923,17.345-1.345,1.83-.816,5.6-.172,8.241,5.039,20.681,10.326,41.3,15.507,61.947a19.833,19.833,0,0,1,.424,9.547c-6.9-5.446-14.039-10.621-20.526-16.517-1.766-1.6-1.682-5.356-2.233-8.165-5.156-26.286-9.515-52.76-15.7-78.8-3.2-13.475-8.639-26.712-20.872-35.523-1.292-.931-1.853-4.1-1.463-5.952,2.939-13.962,6.2-27.856,9.362-41.772Z"/>
      <path d="M578.652,414.065c0,11.962.066,23.925-.014,35.887-.184,27.394-16.218,40.838-43.084,36.2-14.053-2.425-24.315-12.607-24.7-27.676-.759-29.733-.909-59.522.057-89.244.578-17.786,13.595-27.93,32.656-28.284,19.162-.356,32.261,9.056,33.9,26.806,1.413,15.314.293,30.862.293,46.307Zm-45.371-.6h-.028c0,13.43-.2,26.864.074,40.288.161,8.06,4.041,12.06,10.756,12.214,6.681.154,11.232-3.694,11.347-11.695.386-26.852.457-53.718-.118-80.563-.08-3.73-3.627-8.909-7.015-10.734-7.4-3.985-14.66,1.591-14.924,11.08C533.008,387.183,533.281,400.328,533.281,413.465Z"/>
      <path d="M596.683,342.833H617.37c.167,3.509.438,6.611.441,9.712.031,31.525-.008,63.05.055,94.574a56.839,56.839,0,0,0,.877,11.3c1.1,5.347,5.258,8.493,10.222,7.23A16.106,16.106,0,0,0,638.2,458.2c1.726-3.323,1.14-7.972,1.149-12.041q.105-45.973.036-91.946v-11.1h20.085c.165,2.893.462,5.713.465,8.533q.047,49.038-.011,98.076a69.745,69.745,0,0,1-.686,11.341c-2.877,17.225-14.134,26.393-31.751,26.124s-30-9.745-30.474-27.21C595.959,421.232,596.683,382.444,596.683,342.833Z"/>
      <path d="M355.225,514.666v21.568l16.448.878v11.112l-16.355,1v22.983c4.519,0,8.523-.01,12.527,0,9.861.028,9.932.122,8.342,11.437H341.778c0-10.133,0-19.968,0-29.8,0-10.8.37-21.624-.182-32.4-.213-4.154,3.576-10.073-3.661-12.638-.333-.118.718-4.825,1.494-7.278,6.251-19.751,12.475-39.513,18.983-59.18,1.643-4.965,1.925-9.01-2.986-12.13a9.859,9.859,0,0,1-2.567-2.366c-3.506-4.694,2.265-33.857,7.835-35.525,9.609-2.876,12.214-9.646,13.338-18.221.41-3.132,1.546-6.169,3.076-12.024,3.754,4.92,7.536,7.92,8.679,11.715,5.027,16.7,10.037,33.475,13.6,50.526,2.963,14.167,3.9,28.758,5.736,43.161l-1.852,1.176-15.585-11.24-39.3,42.484.664,1.979q9.384,0,18.766,0c9.947.007,10.589.935,7.776,11.885Z"/>
      <path d="M717.2,442.262H736.68c.424,4.743.7,9.277,1.263,13.775.749,6.015,4.112,9.83,10.333,9.749,6.654-.085,9.823-4.27,10.469-10.65.988-9.749-2.929-17.706-9.295-24.584-5.747-6.209-11.967-11.981-17.735-18.172-12.69-13.618-16.831-29.7-12.93-47.8,3.384-15.695,13.689-23.636,30.107-23.609,16.664.027,26.957,7.77,30.279,23.344,1.129,5.29,1.2,10.807,1.829,17H760.573c-.413-3.837-.68-7.262-1.17-10.654-.773-5.347-3.93-8.477-9.342-8.664-5.842-.2-9.131,2.924-10.188,8.682-1.649,8.98.946,16.878,6.535,23.668a163.62,163.62,0,0,0,13.95,14.482c14.064,13.339,22.565,28.828,20.18,48.964-2.239,18.9-13.525,29.474-31.736,29.385-18.712-.091-30.164-11.024-31.557-30.364C716.916,452.248,717.2,447.634,717.2,442.262Z"/>
      <path d="M222.922,442.5h21.611c0,4.545-.177,8.552.041,12.537.349,6.391,3.487,10.477,10.235,10.761,6.274.264,11.229-4.06,10.358-11.264s-3.053-14.917-6.963-20.9c-4.7-7.189-11.787-12.825-17.91-19.065-13.187-13.44-18.433-29.359-15.287-48.008,2.773-16.435,13.319-25.4,30.282-25.6,17.023-.2,28.067,8.441,30.991,24.722.9,5.008.793,10.2,1.183,15.817H267.456c-.506-3.8-.912-7.448-1.494-11.07-.861-5.353-4.107-8.419-9.5-8.473-5.873-.059-9.095,3.456-9.983,9.042a27.86,27.86,0,0,0,6.832,23.6c5.767,6.56,12.034,12.689,18.182,18.907,13.556,13.71,18.42,30.088,14.947,48.928-2.858,15.507-14.052,24.5-30.394,24.752-16.469.259-27.8-8.165-30.994-23.786C223.731,456.924,223.665,450.2,222.922,442.5Z"/>
      <path d="M396.027,692.64h-12.8V641.8l-1.858-.1c-2.479,16.628-4.957,33.255-7.539,50.583H359.984c-2.815-17.094-5.68-34.5-8.546-51.9l-1.368.072v51.958H337.879V600c.653-.422,1.111-.956,1.624-1.015,17.716-2.031,17.692-2.021,20.3,15.143,2.165,14.245,4.4,28.479,8.39,42.657,2.312-15.672,4.78-31.325,6.885-47.025,1.566-11.691-.151-11.256,13.393-11.225,2.285,0,4.569.315,7.555.535Z"/>
      <path d="M341.776,484.879H320.27V363.9H298.349V342.816h64.865v20.642H341.857c0,11.555-3.374,23.927.932,32.391,4.471,8.789-.079,14.4-.188,21.371-.245,15.717-.58,31.433-.809,47.151C341.7,471,341.776,477.622,341.776,484.879Z"/>
      <path d="M679.483,342.922H699.56V484.681H679.483Z"/>
      <path d="M736.447,692.59H722.518c-3.928-5.914,1.667-17.571-12.552-16.818-12.965.686-5.525,11.571-11.832,16.653H686.959c2.128-14.5,4.145-28.525,6.253-42.537,2.172-14.429,4.782-28.8,6.494-43.284.743-6.289,2.979-8.859,9.332-8.174,3.993.43,8.071.08,13.049.08C726.882,629.925,731.575,660.672,736.447,692.59Zm-24.534-67.3-2-.326c-1.666,12.367-3.331,24.733-5.011,37.2h12.2C715.309,649.434,713.611,637.363,711.913,625.291Z"/>
      <path d="M258.4,583.976h-11V502.384c3.171-.186,5.753-.166,8.282-.52,5.624-.787,8.37,1.429,9.658,7.107A206.28,206.28,0,0,0,275.717,542.4V502.556h11.466v80.909c-12.943,1.958-12.971,1.966-16.051-9.564q-5.481-20.517-10.875-41.056l-1.856.222Z"/>
      <path d="M443.641,534.517v49.3H432.393V502.341c3.2-.155,6.3-.18,9.363-.483,4.931-.487,7.241,1.528,8.386,6.493a196.051,196.051,0,0,0,10.529,33.309V502.519h11.142q0,40.192.006,80.647c-12.459,2.75-12.458,2.749-15.528-8.815q-5.351-20.151-10.7-40.3Z"/>
      <path d="M683.8,583.958H670.537c-4.488-16.791-8.914-33.347-13.34-49.9l-1.485-.023v49.861h-11.42V502.4c2.936-.161,5.78-.142,8.573-.506,5.321-.695,7.765,1.445,8.972,6.776A183.653,183.653,0,0,0,672.2,541.278v-38.8h11.6Z"/>
      <path d="M637.785,599.915c13.513-3.088,14.5-2.518,16.218,9.552,2.7,19.045,5.269,38.11,9.293,57.373.914-5.381,1.948-10.744,2.721-16.145q3.034-21.218,5.874-42.464c1.437-10.682,1.935-11.034,14.589-8.385-1.531,11.09-3,22.278-4.634,33.444-2.569,17.6-5.5,35.154-7.724,52.8-.719,5.715-3.047,7.459-8.389,7.043-4.331-.337-8.709-.068-14.289-.068C646.852,661.743,642.312,630.786,637.785,599.915Z"/>
      <path d="M519.358,664.653h12.757c.3,2.943-.125,6.085,1.051,8.422,1.357,2.7,4.126,4.681,6.282,6.975,2.315-2.474,6.76-5.183,6.518-7.374a35.989,35.989,0,0,0-5.478-15.031c-2.938-4.56-7.572-8.016-11.387-12.026a34.266,34.266,0,0,1-9.834-27.077c.915-13.246,7.772-20.439,20.018-20.752,12.815-.327,19.844,5.813,21.553,19a62.1,62.1,0,0,1,.041,7.395h-12.87c-.348-2.131-.074-4.768-1.219-6.425-1.6-2.317-4.858-5.833-6.334-5.375-2.587.8-6.45,4.648-6.085,6.484a47.4,47.4,0,0,0,6.417,16.474c3.289,5.026,8.515,8.737,12.492,13.368,7.325,8.53,9.453,18.5,7.11,29.438-2.382,11.117-9.733,16.636-21.43,16.2-10.945-.413-18.029-6.573-19.523-17.464C518.934,673.206,519.358,669.407,519.358,664.653Z"/>
      <path d="M473.542,599h37.8v13.653H488.363v25.075l17.871.877v13.326l-17.647.9V678.91h22.835v13.472h-37.88Z"/>
      <path d="M594.92,543.026c0-7.877-.265-15.764.061-23.628.493-11.871,7.13-18.119,18.916-18.375,12.64-.274,20.03,5.388,20.513,17.549.658,16.6.659,33.265-.032,49.861-.476,11.454-8.235,17.4-20.085,17.242-11.7-.153-18.666-6.457-19.264-18.148-.418-8.147-.081-16.332-.081-24.5Zm26.4.632h-.042c0-7.834.507-15.72-.293-23.471-.257-2.483-3.97-4.609-6.1-6.9-2.23,2.2-6.3,4.319-6.392,6.6-.6,15.35-.476,30.734-.316,46.1.043,4.123,2.263,8.195,6.778,6.962,2.613-.714,5.736-4.728,6.08-7.566C621.894,558.237,621.315,550.912,621.315,543.658Z"/>
      <path d="M391.951,551.918v31.975l-10.2.457V502.506c8.052,0,16.169-.712,24.1.2,8.177.938,13.734,6.359,15.884,14.379,2.685,10.019,2.58,20.077-5.564,27.613-4.079,3.776-4.141,6.694-2.367,11.266,3.457,8.911,6.384,18.028,9.6,27.245-7.939,2.722-12.689,1.433-14.705-7.012-1.613-6.759-4.686-13.156-6.809-19.811C400.389,551.684,398.007,549.349,391.951,551.918Zm.619-35.422v19.68c6.882.591,13.8,2.125,17.675-4.46,1.582-2.685,1.624-7.729.13-10.491C406.657,514.348,399.624,516.234,392.57,516.5Z"/>
      <path d="M493.387,502.432H512.92c4.31,26.991,8.6,53.859,13,81.408H512.73c-.922-4.391-1.8-8.587-2.837-13.517H495.827c-4.631,14.512-4.631,14.512-15.309,13.042C484.786,556.525,489.051,529.7,493.387,502.432Zm14.627,55.055c-1.583-11.338-3.056-21.885-4.529-32.431l-1.715-.134c-1.606,10.641-3.212,21.283-4.915,32.565Z"/>
      <path d="M737.569,583.963h-13.41c-.839-4.522-1.624-8.75-2.535-13.654h-14.6l-2.889,13.449H692.143l12.8-81.177H724.53C728.818,529.343,733.121,556.2,737.569,583.963Zm-17.846-26.53c-1.595-10.839-3.093-21.016-4.59-31.192l-2.027.079c-1.5,10.149-3,20.3-4.6,31.113Z"/>
      <path d="M428.793,598.964h36.1v13.675H443.51v27.278l16.789,1v13l-17.387,1.034v37.49H428.793Z"/>
      <path d="M223.54,599.077h36.679v13.648h-22.1v27.047l16.818,1.259V653.9l-16.966.975V692.48H223.54Z"/>
      <path d="M608.884,612.151l-13.937,1.383v79H580.233V613.494l-12.824-1.185c-4.025-11.911-2.817-13.811,8.538-13.813h32.937Z"/>
      <path d="M743.773,692.445V599.17h13.949V678.5l22.724,1.159v12.791Z"/>
      <path d="M307.564,679.408h22.672V692.29H293.7V599.123h13.861Z"/>
      <path d="M268.373,692.522v-93.4H282.01v93.4Z"/>
      <path d="M616.544,598.938h13.572v93.7H616.544Z"/>
      <path d="M293.922,513.566V502.485h39.355c.172,3.549.332,6.864.53,10.986l-13.5,1.221v69.086H307.218V514.869Z"/>
      <path d="M551.55,583.983H538.439V514.77l-12.987-1.035V502.486h38.874v11.027l-12.776,1.264Z"/>
      <path d="M745.889,502.428h11.852V571.6l21.244,1.03v11.046h-33.1Z"/>
      <path d="M223.235,502.43h11.924v81.537H223.235Z"/>
      <path d="M572.456,502.38h11.489v81.406H572.456Z"/>
    </g>
  </g>
</svg>
